<svg width="49" height="161" viewBox="0 0 49 161" fill="none" xmlns="http://www.w3.org/2000/svg">
<path d="M8.27004 106.894C8.75549 108.014 9.80728 110.575 11.2097 113.38C11.8839 114.796 12.6121 116.293 13.3807 117.722C14.1359 119.152 14.8236 120.567 15.5113 121.754C21.5255 132.946 29.0229 143.276 37.8149 152.203C39.2038 153.578 41.4019 156.073 43.6268 153.996C45.9462 151.825 45.9192 148.98 43.6942 146.58C38.3543 140.7 32.9335 134.713 29.0769 127.782C23.4403 117.709 17.8846 107.676 14.3112 96.848C12.7335 91.9935 11.4524 87.0582 10.4545 82.0824C9.51062 77.0795 8.99821 72.0634 8.9173 67.0201C8.97124 57.5269 10.8321 48.1685 13.6639 39.2955C16.0372 31.6363 18.8555 23.9364 23.4942 17.275C24.0471 16.4929 24.7753 15.7378 25.5169 14.9557C26.299 14.214 27.1351 13.5129 27.7958 12.7173C28.8341 11.3419 30.9243 9.42712 31.9491 8.0382C32.3806 7.41791 32.9065 6.86484 33.5268 6.48727C36.3855 4.82865 36.426 3.35904 33.4459 1.30937C32.7717 0.864375 32.4076 -0.133437 31.4097 0.0148946C31.3693 0.0148946 31.2883 0.0283924 31.2479 0.0283924C29.5488 0.041877 28.2813 0.715978 27.189 1.579C26.1642 2.52292 25.3146 3.66913 24.2763 4.62654C14.3112 14.2816 7.62278 26.8492 3.9145 39.9968C1.66256 48.1145 0.705137 56.4884 0.273628 64.8624C0.0983277 67.1548 -0.198333 69.4879 0.192722 71.8072V71.7667C0.179238 72.9938 0.260156 74.2074 0.327579 75.4345C0.408487 76.6616 0.46241 77.8887 0.651196 79.1023C2.02663 88.2044 4.39993 97.5897 7.87897 105.654C8.01382 105.937 8.06777 106.422 8.27004 106.894Z" fill="#3DBF4B"/>
<path d="M35.0389 147.618C34.3377 147.295 31.816 146.256 30.2653 145.474C26.6649 143.654 23.0106 141.914 18.9517 141.065C18.3179 140.93 17.347 140.485 16.0525 143.249C14.704 146.122 14.5557 148.104 15.6075 148.468C18.1291 149.344 20.853 149.843 23.0105 151.475C26.1525 153.862 29.8338 155.143 33.2454 156.95L34.4321 157.556L36.5357 158.581C37.9381 159.296 39.3944 159.903 40.662 160.119C41.9295 160.348 43.1027 160.334 44.2354 160.024C45.3546 159.755 46.5413 158.959 47.3099 158.002L47.3908 157.894C48.065 156.977 48.4426 156.1 48.6988 154.981C48.9685 153.875 48.9416 152.392 48.6719 150.855L48.3347 148.535L48.1595 147.349L48.0785 146.661C47.9841 145.852 47.8493 145.043 47.6875 144.247C47.1076 141.496 45.7727 138.894 44.9366 136.197C44.7343 135.563 45.1389 134.673 44.9501 133.972C44.7883 133.392 44.5725 132.421 44.195 131.882C44.0331 131.652 43.8309 131.423 43.8983 131.154C44.1815 129.913 43.0353 129.832 39.6911 130.911C38.9629 131.14 37.9516 131.248 37.4931 131.625C37.4796 131.639 37.4391 131.666 37.4122 131.693C35.5108 132.947 36.6435 133.594 36.7649 134.471C37.3852 138.732 38.2078 142.953 38.9494 147.187L39.3 149.021C39.327 149.156 39.354 149.277 39.354 149.398C39.3674 149.641 39.3674 149.884 39.1247 149.87C39.0708 149.87 38.9494 149.803 38.8415 149.722C38.6662 149.614 38.5449 149.479 38.6797 149.709C38.5044 149.587 38.3426 149.291 38.3426 149.304C38.3156 149.317 38.2752 149.223 38.2887 149.196V149.183L37.3178 148.724C36.6705 148.427 36.0098 148.158 35.349 147.915C35.2546 147.875 35.1872 147.686 35.0389 147.618Z" fill="#3DBF4B"/>
</svg>
