<svg width="65" height="80" viewBox="0 0 65 80" fill="none" xmlns="http://www.w3.org/2000/svg">
<path d="M32.637 13.5121C33.1962 13.0853 34.4154 12.0521 35.9177 11.0207C37.3799 9.94347 39.1146 8.85103 40.4525 7.99136C46.685 4.05691 53.7318 1.25335 61.0451 0.388148C62.1895 0.28199 64.1115 -0.0683721 64.4227 2.1713C64.747 4.50858 63.8222 6.07688 62.0536 6.33278C57.7675 7.05925 53.3402 8.01377 49.549 10.2677C44.0407 13.5092 38.6164 16.887 34.0745 21.3537C32.0435 23.357 30.1632 25.4906 28.399 27.7171C26.659 29.9639 25.1164 32.3592 23.767 34.8587C21.3072 39.6163 19.8297 44.7671 18.611 49.8994C17.5261 54.315 16.3908 58.8203 16.197 63.4619C16.1777 64.0024 16.2672 64.6051 16.3704 65.211C16.4959 65.815 16.6319 66.4359 16.644 67.0275C16.6367 68.0069 16.8258 69.6288 16.7261 70.6299C16.6746 71.061 16.6559 71.5072 16.7944 71.9034C17.4656 73.6981 16.748 74.3634 14.1012 74.1855C13.5227 74.1426 12.818 74.4477 12.3533 74.0175C12.329 73.9973 12.2942 73.9599 12.2752 73.9482C11.3813 73.3362 11.05 72.5889 10.9139 71.8153C10.8086 71.0344 10.9038 70.2358 10.7985 69.4549C9.89768 61.7407 10.573 53.8776 12.5214 46.3458C13.7358 41.7212 15.584 37.3052 17.5441 32.9377C18.0563 31.7293 18.4526 30.428 19.3029 29.3872L19.2911 29.4062C19.935 28.1637 20.6118 26.9362 21.3972 25.7709C24.4763 21.4656 28.1189 17.2359 32.1139 14.0929C32.2665 13.9401 32.4111 13.6983 32.637 13.5121Z" fill="#3DBF4B"/>
<path d="M16.7593 67.4623C17.1279 67.012 18.4902 65.4678 19.2771 64.4191C21.1126 61.9842 23.0104 59.5932 25.4554 57.6519C25.8411 57.3437 26.3518 56.7237 28.1162 58.1384C29.9534 59.6139 30.6905 60.8864 30.1143 61.4763C28.7027 62.9217 27.0263 64.1662 26.1063 65.9899C24.7623 68.6505 22.7032 70.7416 20.9921 73.1115C20.3205 74.0422 19.6142 74.9355 18.9079 75.8289L18.4752 76.3657C18.3043 76.5649 18.1419 76.759 17.9658 76.9497C17.6136 77.3312 17.2404 77.6786 16.8442 77.9697C16.0539 78.5742 15.1513 78.9777 14.1825 79.1401C13.6139 79.2085 13.0296 79.2515 12.4589 79.145C11.4126 78.991 10.4263 78.5534 9.53363 77.9053C8.65146 77.2743 7.83597 76.3321 7.19604 75.4461C6.96263 75.1436 6.72848 74.7828 6.55407 74.5378L6.0322 73.767C5.68992 73.2497 5.37845 72.7251 5.08725 72.1763C4.08576 70.3032 3.57667 68.162 2.74218 66.1978C2.54798 65.7302 1.8907 65.4069 1.65325 64.9072C1.45975 64.4979 1.11219 63.8193 1.07391 63.3378C1.05085 63.1289 1.05335 62.9042 0.888836 62.7706C0.132479 62.1913 0.739367 61.5941 3.1529 60.612C3.67687 60.3948 4.2997 59.9758 4.74387 59.9722C4.76614 59.9703 4.80213 59.9716 4.8244 59.9696C6.50467 59.7799 6.18292 60.7064 6.52916 61.2683C8.24265 64.03 9.8147 66.867 11.4516 69.6758L12.1821 70.9758C12.4326 71.4205 12.6536 71.8364 12.8175 72.0643C12.929 72.207 13.1158 72.3386 13.2808 72.2251C13.3883 72.1707 13.432 71.8031 13.4648 71.9708L13.4668 71.9931C13.5067 71.8863 13.4601 71.7153 13.4601 71.7153L13.4685 71.7101L13.4718 71.6964C13.4921 71.6721 13.4227 71.7501 13.5477 71.5909L14.5388 70.2636C15.2058 69.3827 15.8887 68.5274 16.6121 67.7762C16.6953 67.7014 16.6866 67.5541 16.7593 67.4623Z" fill="#3DBF4B"/>
</svg>
