<svg width="388" height="346" viewBox="0 0 388 346" fill="none" xmlns="http://www.w3.org/2000/svg">
<path d="M208.595 191.077C210.857 191.646 214.597 192.552 219.26 193.604C223.973 194.608 229.601 195.817 235.603 197.098C247.683 199.596 261.381 202.8 271.924 206.266C284.119 210.17 296.164 215.514 306.907 223.15L308.915 224.587C309.584 225.066 310.201 225.623 310.837 226.128L314.643 229.267C315.952 230.27 317.062 231.497 318.251 232.63L321.762 236.09L324.985 239.813C326.024 241.073 327.184 242.252 328.107 243.613L331.008 247.575C331.472 248.24 331.999 248.884 332.429 249.576L333.719 251.652C340.739 262.657 345.815 274.682 349.414 287.002C352.96 299.353 355.017 311.991 356.035 324.632C356.415 328.581 356.668 333.937 356.491 338.26C356.21 342.595 355.543 345.879 354.014 345.766C350.752 345.503 349.031 336.785 347.762 323.523C346.17 307.467 342.965 291.47 337.086 276.494C336.424 274.594 335.549 272.794 334.735 270.954C333.905 269.136 333.135 267.277 332.144 265.53C331.198 263.765 330.29 261.992 329.311 260.253L326.129 255.18C321.673 248.593 316.592 242.432 310.68 237.225C302.125 229.492 291.995 223.756 281.3 219.28C270.567 214.812 259.199 211.735 247.684 209.046C236.154 206.381 224.393 204.208 212.627 201.483C200.885 198.723 189.078 195.549 177.706 190.8C172.621 188.655 167.576 186.279 162.771 183.447C157.973 180.603 153.348 177.404 149.029 173.794C144.706 170.068 140.814 165.867 137.401 161.337C134.062 156.744 131.217 151.799 128.896 146.603C126.639 141.385 125.002 135.869 124.016 130.202C123.03 124.536 123.005 118.668 123.796 112.89C124.062 111.446 124.208 109.988 124.586 108.57L125.78 104.326C126.847 101.585 127.854 98.7874 129.403 96.2708C132.179 91.0393 136.115 86.5971 140.293 82.7385C144.266 79.1155 148.545 76.005 152.9 73.1712C155.099 71.7693 157.179 70.401 159.73 69.0553C162.195 67.7657 164.746 66.663 167.461 65.8484C170.165 65.0263 173.012 64.4286 176.075 64.3322C179.1 64.2432 182.496 64.6443 185.712 66.3842C187.309 67.2224 188.76 68.4495 189.952 69.8448C190.565 70.5294 190.995 71.3186 191.485 72.0667C191.967 72.8261 192.255 73.6825 192.625 74.5129C192.984 75.3357 193.107 76.2932 193.324 77.1834C193.496 78.0922 193.469 79.031 193.51 79.966C193.469 80.8785 193.319 81.7836 193.188 82.6849C192.956 83.5189 192.72 84.3827 192.435 85.198C191.197 88.3916 189.281 90.923 187.231 93.073C185.159 95.208 182.877 96.9764 180.472 98.5167C178.081 100.035 175.497 101.358 172.856 102.352C170.372 103.208 167.919 104.165 165.416 104.927C155.393 108.047 144.976 109.885 134.504 110.42C116.432 111.366 98.2008 108.444 81.3539 101.939C64.4733 95.4612 49.1757 85.1275 36.6314 72.3186C30.6901 66.3294 23.7544 58.7691 18.7786 50.8952C18.2664 50.0835 17.7019 49.2044 17.1075 48.273C16.5131 47.3416 15.9786 46.3204 15.3804 45.2731C14.7935 44.2332 14.1879 43.1485 13.5599 42.0488C12.9506 40.9453 12.4161 39.7783 11.8479 38.6374C11.2872 37.4854 10.7264 36.3334 10.1807 35.2075C9.6873 34.0518 9.21637 32.9109 8.7529 31.8075C8.29691 30.6929 7.85216 29.6343 7.44477 28.6169C7.09348 27.5884 6.76088 26.6046 6.45444 25.7032C5.95742 24.1398 5.38181 22.5727 4.91473 20.9644C4.45886 19.3636 3.97685 17.7776 3.4499 16.2591C2.80333 14.531 2.44475 12.8816 2.05616 11.4229C1.69377 9.94924 1.34624 8.64771 1.15206 7.48079C0.801102 5.13947 0.678181 3.40402 0.801891 2.27084C1.03809 -0.00300057 2.23104 0.128307 4.381 2.17837C5.32698 3.06872 6.09034 1.72992 7.24142 4.96155C7.28627 5.08872 7.37971 5.36175 7.43204 5.4777C8.43747 7.88276 9.46904 10.2729 10.2613 12.7303C11.2368 15.1316 11.9992 17.5852 12.8774 20.0351C14.6564 24.9012 16.3867 29.8646 18.8277 34.5402C30.4569 57.5665 49.3012 77.0417 72.2953 88.6191C95.3044 100.174 122.089 104.052 147.455 99.8022C155.227 98.5027 162.917 96.4514 170.248 93.6745C173.584 92.3664 176.816 90.4374 179.494 88.123C180.807 86.9565 181.993 85.689 182.936 84.3728C183.819 83.049 184.433 81.6916 184.657 80.4312C184.882 79.1709 184.752 78.0302 184.168 76.8632C183.604 75.6924 182.819 74.7311 181.809 74.1062C179.715 72.8715 176.304 72.6388 172.867 73.3933C169.422 74.0619 165.925 75.4896 162.742 77.2728L161.549 77.9681L160.277 78.757L157.767 80.357C156.106 81.4375 154.502 82.5552 152.93 83.6955C146.066 88.7614 140.313 94.8113 136.507 101.853L136.571 101.733C134.737 105.502 133.371 109.519 132.88 113.73C132.457 115.798 132.539 117.96 132.377 120.073L132.522 123.282C132.552 123.82 132.552 124.355 132.601 124.89L133.216 129.531L133.885 132.538L134.218 134.057L134.681 135.549L135.596 138.527C137.084 142.42 138.725 146.303 140.949 149.894C143.024 153.563 145.611 156.926 148.333 160.136C149.799 161.632 151.137 163.27 152.741 164.632L155.06 166.746L158.806 169.731L160.119 170.656L162.725 172.507C164.561 173.619 166.304 174.846 168.188 175.86L170.982 177.431L173.839 178.883C175.72 179.878 177.713 180.706 179.642 181.604C187.48 185.017 195.599 187.644 203.696 189.916C204.937 190.291 206.717 190.587 208.595 191.077Z" fill="#3DBF4B"/>
<path d="M367.67 326.055C368.324 325.415 370.66 323.165 371.996 321.565C375.11 317.894 377.992 314.083 381.328 310.504C381.845 309.942 382.547 308.868 384.801 310.286C387.142 311.763 388.021 313.396 387.178 314.533C385.099 317.267 382.593 319.644 380.868 322.57C378.325 326.891 374.663 330.323 371.186 333.837C369.599 335.411 367.962 336.91 366.243 338.34C365.394 339.062 364.521 339.754 363.662 340.47C362.757 341.168 361.989 341.831 360.963 342.605C360.055 343.288 359.026 344.003 357.677 344.603C356.997 344.9 356.233 345.155 355.377 345.292C354.531 345.435 353.557 345.452 352.646 345.311C350.549 344.974 348.88 343.889 347.766 342.906C346.604 341.889 345.833 340.922 345.161 340.063C342.868 337.09 341.396 333.588 339.855 330.252C339.486 329.468 338.565 328.769 338.186 327.893C337.863 327.168 337.334 325.966 337.224 325.156C337.178 324.8 337.165 324.437 336.943 324.176C335.94 322.941 336.698 322.229 339.707 321.56C340.373 321.41 341.135 320.969 341.69 321.113C341.716 321.116 341.762 321.133 341.788 321.136C343.865 321.375 343.486 322.623 343.959 323.547C346.274 328.036 349.033 332.368 352.247 336.168C353.154 337.269 353.955 337.788 354.16 337.756C354.307 337.769 354.458 337.756 354.804 337.619C355.14 337.475 355.562 337.204 356.026 336.806C356.542 336.371 356.898 335.604 357.751 335.238L357.735 335.242C358.398 334.608 359.015 333.916 359.708 333.344C362.397 331.202 364.896 328.622 367.406 326.474C367.494 326.405 367.536 326.193 367.67 326.055Z" fill="#3DBF4B"/>
</svg>
