<svg xmlns="http://www.w3.org/2000/svg" viewBox="17.92 164.23 358.64 288.59"><g id="freepik--Shadows--inject-13"><path id="freepik--Shadow--inject-13" d="M353.7,365.73c-67.93-30.85-127.14-65.14-178.64-103.14-5.32-4.42-3.92-8.8.82-11.54s12.67-2.59,17.72.33l179,103.35c5.05,2.92,5.3,7.5.56,10.23S360.94,368.56,353.7,365.73Z" style="opacity:0.2"/><path id="freepik--shadow--inject-13" d="M208,451.09C140.07,420.23,80.86,385.94,29.35,347.94c-5.31-4.41-3.91-8.8.83-11.53s12.67-2.59,17.72.32l179,103.35c5,2.92,5.31,7.5.57,10.23S215.24,453.91,208,451.09Z" style="opacity:0.2"/></g><g id="freepik--bike-2--inject-13"><g id="freepik--Bicycle--inject-13"><path d="M372.63,351.84a1.33,1.33,0,0,1-.64-.17L318.9,321a1.29,1.29,0,0,1-.64-1.27l6.92-62.23c.71-6.37,4.18-10.31,9.07-10.31h.16l21.83.38c5.58.1,11.57,8.1,12.09,16.16l5.59,86.71a1.27,1.27,0,0,1-1.29,1.37ZM320.92,319.2l50.27,29-5.44-84.3c-.46-7.19-5.73-13.67-9.56-13.74l-21.82-.38h-.11c-3.52,0-5.95,3-6.51,8Z" style="fill:#e0e0e0"/><path d="M372.63,351.84a1.33,1.33,0,0,1-.64-.17L318.9,321a1.29,1.29,0,0,1-.64-1.27l6.92-62.23c.71-6.37,4.18-10.31,9.07-10.31h.16l21.83.38c5.58.1,11.57,8.1,12.09,16.16l5.59,86.71a1.27,1.27,0,0,1-1.29,1.37ZM320.92,319.2l50.27,29-5.44-84.3c-.46-7.19-5.73-13.67-9.56-13.74l-21.82-.38h-.11c-3.52,0-5.95,3-6.51,8Z" style="opacity:0.2"/><g id="freepik--Bike--inject-13"><g id="freepik--bike--inject-13"><path d="M209.87,184.29l-2.23-1.3c-5.49-3.17-10.68-4.69-15.3-4.76h-.4a20.89,20.89,0,0,0-2.39.13c-7.27.78-11.87,2.95-16.13,8.43-4.88,5.82-5.9,13.68-5.54,21.2,0,22.32,15.66,49.45,35,60.6l2.23,1.29c5.49,3.17,10.68,4.7,15.3,4.77h0c8.92,0,16.19-3.47,20.6-11,2.3-2.93,3.87-9.38,3.87-16.23v-2.58C244.86,222.57,229.2,195.44,209.87,184.29ZM204,265.69c-18.23-10.54-33-36.14-33-57.2s14.79-29.6,33-19.06,33,36.13,33,57.19S222.22,276.22,204,265.69Z" style="fill:#37474f"/><path d="M205.1,186.51l-2.23-1.29c-9.56-5.52-18.22-6.1-24.54-2.56-8.8,5-10.79,16-10.45,25.34,0,22.32,15.66,49.45,35,60.6l2.23,1.29c5.61,3.25,10.92,4.78,15.62,4.78a18.1,18.1,0,0,0,9.32-2.45c6.22-3.71,10.05-11.49,10.05-22.53v-2.58C240.09,224.8,224.42,197.66,205.1,186.51ZM204,265.69c-18.23-10.54-33-36.14-33-57.2s14.79-29.6,33-19.06,33,36.13,33,57.19S222.22,276.22,204,265.69Z" style="fill:#263238"/><path d="M228.54,260.28c-5.22,6.22-14.27,7.1-24.56,1.17-16.21-9.36-29.35-32.12-29.35-50.84,0-8.37,2.63-14.51,7-17.91-3,3.58-4.8,8.94-4.8,15.79,0,18.72,13.15,41.48,29.36,50.85C215.13,264.51,223.16,264.5,228.54,260.28Z" style="fill:#3DBF4B"/><path d="M228.54,260.28c-5.22,6.22-14.27,7.1-24.56,1.17-16.21-9.36-29.35-32.12-29.35-50.84,0-8.37,2.63-14.51,7-17.91-3,3.58-4.8,8.94-4.8,15.79,0,18.72,13.15,41.48,29.36,50.85C215.13,264.51,223.16,264.5,228.54,260.28Z" style="opacity:0.2"/><path d="M204,189.43c-18.24-10.53-33-2-33,19.06s14.78,46.67,33,57.2,33,2,33-19.07S222.22,200,204,189.43Zm0,72c-16.21-9.36-29.35-32.12-29.35-50.84s13.14-26.31,29.35-17,29.35,32.12,29.35,50.84S220.19,270.81,204,261.45Z" style="fill:#3DBF4B"/><path d="M204,189.43c-18.24-10.53-33-2-33,19.06s14.78,46.67,33,57.2,33,2,33-19.07S222.22,200,204,189.43Zm0,72c-16.21-9.36-29.35-32.12-29.35-50.84s13.14-26.31,29.35-17,29.35,32.12,29.35,50.84S220.19,270.81,204,261.45Z" style="fill:#fff;opacity:0.5"/><path d="M232.34,235.19c-.06-.33-.14-.66-.21-1L204,227.12l25.43-1.82c-.12-.29-.23-.58-.34-.87L204,227.12l20.79-11.48c-.15-.26-.3-.52-.46-.78L204,227.12l14.81-20.28-.59-.73-14.22,21,7.88-27.66-.75-.67L204,227.12l.45-33.18-.45-.28-.45-.24.45,33.7-7-36.52c-.33-.1-.65-.19-1-.27l8,36.79-14-37.44-.94.08,15,37.36L183.82,191.3l-.79.43L204,227.12l-25-31.79c-.19.25-.37.5-.55.76l25.52,31-28.11-25.53c-.1.31-.19.63-.28,1L204,227.12l-29.33-17.45c0,.31,0,.62,0,.94v.09L204,227.12,175.45,219c.06.33.12.65.19,1L204,227.12,178.23,229l.34.87L204,227.12l-21.16,11.7.45.78L204,227.12l-15.13,20.74c.19.25.39.49.59.74L204,227.12l-8.07,28.36c.26.23.5.46.76.68l7.31-29-.45,34.05.45.28.45.25L204,227.12l7.2,37.45c.33.1.66.18,1,.26L204,227.12l14.37,38.28c.31,0,.63,0,.93-.09L204,227.12l20.55,36.49c.26-.14.52-.3.77-.46l-21.32-36,25.31,32.21c.18-.26.37-.51.54-.78L204,227.12l28.32,25.71c.08-.32.17-.65.24-1L204,227.12l29.35,17.47v-.09c0-.32,0-.64,0-1L204,227.12Z" style="fill:#ebebeb"/><path d="M205.38,218.54c-2-1.16-3.84-1.23-5.13-.42-.27.17-.6.31-.94.52a2.68,2.68,0,0,0-.28.18l-.05,0h0a3.37,3.37,0,0,0-.35.29l-.08.07c-.09.1-.19.2-.28.31l-.09.13a3.78,3.78,0,0,0-.22.33l-.11.19a3.36,3.36,0,0,0-.16.33c0,.08-.07.18-.11.27s-.08.21-.11.32l-.09.35c0,.1-.05.2-.07.31s-.05.31-.07.46a2.48,2.48,0,0,0,0,.27,6.63,6.63,0,0,0,0,.79,15.74,15.74,0,0,0,7.12,12.33c.25.14.49.27.73.38l.43.17.28.11a1.82,1.82,0,0,0,.29.08c.14,0,.27.09.41.12l.15,0c.18,0,.35.06.51.07h0a3.67,3.67,0,0,0,2.32-.54c.35-.2.65-.35,1-.58,1.25-.76,2-2.34,2-4.56A15.77,15.77,0,0,0,205.38,218.54Zm-2,13.69c-1.22-.95-2.93-3.83-3.61-5.44a14.23,14.23,0,0,0,1.25.76c1.85,1,1.8-.34,2.56.56s.61,3.11,0,4.25A.85.85,0,0,1,203.35,232.23Zm3.61-8.44-.31.14-1.09.62a1.39,1.39,0,0,0-.54.54,9.85,9.85,0,0,1-1.9-5.32,12,12,0,0,1,4.66,3.62,1,1,0,0,1,.07.2A4.35,4.35,0,0,0,207,223.79Zm-5.41-.94c.6,2.15,1.5,2.48,1.56,3.18-1.4-.22-3.68-1.58-3.83-2.93a5.48,5.48,0,0,1,1.23-3.62C201.11,219.74,201.07,221.09,201.55,222.85Zm4,11.29c-.74-.68.08-1.34.46-2.74a3.72,3.72,0,0,0,0-2c1.46,1.15,3.65,4.17,3.08,5.07l-.07.08A4.65,4.65,0,0,1,205.58,234.14Zm3.48-4.68c-1.55-2.07-2.16-1.36-2.54-2.46a1.43,1.43,0,0,1,.5-1.49,1.85,1.85,0,0,1,2.25.76,13.64,13.64,0,0,1,1.21,5.31C210.11,231,209.65,230.24,209.06,229.46Z" style="fill:#e0e0e0"/><path d="M205.38,218.54c-2-1.16-3.84-1.23-5.13-.42-.27.17-.6.31-.94.52a2.68,2.68,0,0,0-.28.18l-.05,0h0a3.37,3.37,0,0,0-.35.29l-.08.07c-.09.1-.19.2-.28.31l-.09.13a3.78,3.78,0,0,0-.22.33l-.11.19a3.36,3.36,0,0,0-.16.33c0,.08-.07.18-.11.27s-.08.21-.11.32l-.09.35c0,.1-.05.2-.07.31s-.05.31-.07.46a2.48,2.48,0,0,0,0,.27,6.63,6.63,0,0,0,0,.79,15.74,15.74,0,0,0,7.12,12.33c.25.14.49.27.73.38l.43.17.28.11a1.82,1.82,0,0,0,.29.08c.14,0,.27.09.41.12l.15,0c.18,0,.35.06.51.07h0a3.67,3.67,0,0,0,2.32-.54c.35-.2.65-.35,1-.58,1.25-.76,2-2.34,2-4.56A15.77,15.77,0,0,0,205.38,218.54Zm-2,13.69c-1.22-.95-2.93-3.83-3.61-5.44a14.23,14.23,0,0,0,1.25.76c1.85,1,1.8-.34,2.56.56s.61,3.11,0,4.25A.85.85,0,0,1,203.35,232.23Zm3.61-8.44-.31.14-1.09.62a1.39,1.39,0,0,0-.54.54,9.85,9.85,0,0,1-1.9-5.32,12,12,0,0,1,4.66,3.62,1,1,0,0,1,.07.2A4.35,4.35,0,0,0,207,223.79Zm-5.41-.94c.6,2.15,1.5,2.48,1.56,3.18-1.4-.22-3.68-1.58-3.83-2.93a5.48,5.48,0,0,1,1.23-3.62C201.11,219.74,201.07,221.09,201.55,222.85Zm4,11.29c-.74-.68.08-1.34.46-2.74a3.72,3.72,0,0,0,0-2c1.46,1.15,3.65,4.17,3.08,5.07l-.07.08A4.65,4.65,0,0,1,205.58,234.14Zm3.48-4.68c-1.55-2.07-2.16-1.36-2.54-2.46a1.43,1.43,0,0,1,.5-1.49,1.85,1.85,0,0,1,2.25.76,13.64,13.64,0,0,1,1.21,5.31C210.11,231,209.65,230.24,209.06,229.46Z" style="opacity:0.2"/><path d="M204.28,219.16c-3.93-2.26-7.12-.42-7.12,4.12a15.74,15.74,0,0,0,7.12,12.33c3.94,2.27,7.12.43,7.12-4.11A15.75,15.75,0,0,0,204.28,219.16Zm-1.76.49c1.41,0,4.79,2.76,5.26,3.74s-.77.62-1.91,1c-1.44.51-.76,1.91-1.6,1.55C203,225.45,201.12,219.63,202.52,219.65Zm-2.12-.22c.72.13.63,1.55,1.15,3.42.66,2.38,1.7,2.53,1.55,3.42-.21,1.3-4.69-.64-4.91-2.56S199.67,219.3,200.4,219.43Zm1.86,13.41c-1.54-1.2-3.88-5.48-3.9-6.38s1.17.33,2.63,1.09c1.85,1,1.8-.34,2.56.56C204.66,229.42,203.8,234.05,202.26,232.84Zm6.84,1.59c-.73,1.16-3.87,1-4.61.33s.09-1.34.47-2.75c.47-1.78-.58-2.74,0-3.07C205.88,228.45,209.84,233.26,209.1,234.43ZM208,230.07c-1.55-2.06-2.16-1.35-2.54-2.46-.55-1.61,2.75-3.26,3.84-1.34s1.48,6.12,1,6.59S209.19,231.7,208,230.07Z" style="fill:#e0e0e0"/><path d="M204,231.44c1.86,1.08,3.37.21,3.37-1.94a7.43,7.43,0,0,0-3.37-5.83c-1.86-1.08-3.37-.21-3.37,1.94A7.43,7.43,0,0,0,204,231.44Z" style="fill:#455a64"/><path d="M222.33,191.22l-1.56,1.35a57.91,57.91,0,0,0-10.9-8.28L207.64,183c-5.49-3.18-10.68-4.7-15.3-4.77h0l-.41,0a18.72,18.72,0,0,0-2.39.14c-7.27.76-11.87,3-16.13,8.43-4.88,5.81-5.9,13.68-5.54,21.19a64.38,64.38,0,0,0,4.69,22.93l-1.3.94s-6.37-13.24-7.18-28,6.88-26.44,22.35-29.31S222.33,191.22,222.33,191.22Z" style="fill:#3DBF4B"/><path d="M222.33,191.22l-1.56,1.35a57.91,57.91,0,0,0-10.9-8.28L207.64,183c-5.49-3.18-10.68-4.7-15.3-4.77h0l-.41,0a18.72,18.72,0,0,0-2.39.14c-7.27.76-11.87,3-16.13,8.43-4.88,5.81-5.9,13.68-5.54,21.19a64.38,64.38,0,0,0,4.69,22.93l-1.3.94s-6.37-13.24-7.18-28,6.88-26.44,22.35-29.31S222.33,191.22,222.33,191.22Z" style="opacity:0.30000000000000004"/><path d="M225.16,191.47a13.11,13.11,0,0,1-4.48,3.37.33.33,0,0,1-.13.07,14.62,14.62,0,0,1-2,.77.42.42,0,0,1-.12,0A74.34,74.34,0,0,0,204.19,184c-21.23-12.88-38.56-6.42-38.66,21,0,8.25,2.35,18.76,5.74,26.87a5.8,5.8,0,0,1-2.74-1.13,71.13,71.13,0,0,1-5.08-25.11c-.41-8.46.78-17.32,6.37-23.81,4.67-5.89,9.74-8.25,17.71-9.09a20.84,20.84,0,0,1,2.65-.16h.44c5.14.07,10.91,1.76,17,5.29l2.49,1.43A67.11,67.11,0,0,1,225.16,191.47Z" style="fill:#3DBF4B"/><path d="M225.16,191.47a13.11,13.11,0,0,1-4.48,3.37.33.33,0,0,1-.13.07,14.62,14.62,0,0,1-2,.77.42.42,0,0,1-.12,0A74.34,74.34,0,0,0,204.19,184c-21.23-12.88-38.56-6.42-38.66,21,0,8.25,2.35,18.76,5.74,26.87a5.8,5.8,0,0,1-2.74-1.13,71.13,71.13,0,0,1-5.08-25.11c-.41-8.46.78-17.32,6.37-23.81,4.67-5.89,9.74-8.25,17.71-9.09a20.84,20.84,0,0,1,2.65-.16h.44c5.14.07,10.91,1.76,17,5.29l2.49,1.43A67.11,67.11,0,0,1,225.16,191.47Z" style="fill:#fff;opacity:0.5"/><path d="M220.68,194.84h0a.52.52,0,0,1-.13.06,6.39,6.39,0,0,1-2,.77.42.42,0,0,1-.12,0A74.34,74.34,0,0,0,204.19,184c-21.23-12.88-38.56-6.42-38.66,21,0,8.25,2.35,18.76,5.74,26.87a5.8,5.8,0,0,1-2.74-1.13,71.13,71.13,0,0,1-5.08-25.11c-.38-10.34,1.83-22.64,11.6-28.15,7-3.92,16.65-3.29,27.27,2.85l2.48,1.43A68.07,68.07,0,0,1,220.68,194.84Z" style="fill:#3DBF4B"/><path d="M315.12,238.24a1.22,1.22,0,0,0-1.7-.24l-3.1,2.32-.56-2.25L256.4,269.72s-1,.53-1,.59l-51.22-44a1.21,1.21,0,0,0-1.58,1.84l53.1,45.56a2.19,2.19,0,0,0,.41.29,2.12,2.12,0,0,0,1.07.31,2.37,2.37,0,0,0,1.44-.56h0l52.37-30.91,3.93-2.94A1.21,1.21,0,0,0,315.12,238.24Z" style="fill:#3DBF4B"/><path d="M315.12,238.24a1.22,1.22,0,0,0-1.7-.24l-3.1,2.32-.56-2.25L256.4,269.72s-1,.53-1,.59l-51.22-44a1.21,1.21,0,0,0-1.58,1.84l53.1,45.56a2.19,2.19,0,0,0,.41.29,2.12,2.12,0,0,0,1.07.31,2.37,2.37,0,0,0,1.44-.56h0l52.37-30.91,3.93-2.94A1.21,1.21,0,0,0,315.12,238.24Z" style="opacity:0.30000000000000004"/><path d="M256.66,274.2a1.22,1.22,0,0,1-1.19-1L243.73,175a1.26,1.26,0,0,1,.77-1.46,1.21,1.21,0,0,1,1.59.91l11.76,98.33a1.2,1.2,0,0,1-1,1.42A.86.86,0,0,1,256.66,274.2Z" style="fill:#3DBF4B"/><path d="M256.66,274.2a1.22,1.22,0,0,1-1.19-1L243.73,175a1.26,1.26,0,0,1,.77-1.46,1.21,1.21,0,0,1,1.59.91l11.76,98.33a1.2,1.2,0,0,1-1,1.42A.86.86,0,0,1,256.66,274.2Z" style="opacity:0.30000000000000004"/><path d="M204.23,227.9a1.16,1.16,0,0,1,.28-1.84l14.85-7.74a77.89,77.89,0,0,1,60.84-6.24,155.71,155.71,0,0,1,17.19,5.82c5.63,2.41,11.52,7.19,12.49,13.91l.08.55s.94,8-9.6,3.86-30.65-11.93-40.44-14.31-15.65-5.09-16.86-9.11c-8.89,1.61-19.8,5.84-37.48,15.3a1.15,1.15,0,0,1-1.35-.2Z" style="fill:#3DBF4B"/><path d="M298.33,222.43c-10.41-6.49-39.48-13.07-55.27-9.63a6,6,0,0,0,1,1.86c14.82-1,28.82,2.25,37.24,7.09,7,4,7.89,8.69,8,10.15,4.18,1.59,8.05,3.11,11.11,4.32,5.47,2.17,7.85,1.05,8.87-.54C309.06,231.9,308,228.46,298.33,222.43Z" style="fill:#f0f0f0"/><path d="M258.42,260.59c-2.79-1.61-5.31-1.71-7.1-.59-.37.24-.82.44-1.3.72l-.38.25-.06,0,0,0a4.63,4.63,0,0,0-.48.4l-.1.1a5.22,5.22,0,0,0-.39.43l-.13.18a5.09,5.09,0,0,0-.31.45,2.15,2.15,0,0,0-.14.26c-.08.15-.16.3-.23.46s-.1.24-.14.37-.11.29-.16.45-.09.32-.13.48-.07.28-.1.43-.06.42-.09.64,0,.24-.05.36c0,.36,0,.72,0,1.1,0,6.28,4.42,13.91,9.85,17.06.35.19.68.37,1,.52s.39.16.59.23.27.12.4.16a2.62,2.62,0,0,0,.4.11,5.15,5.15,0,0,0,.56.16l.21,0a6.06,6.06,0,0,0,.71.1h.05a5.14,5.14,0,0,0,3.21-.76c.47-.28.9-.48,1.44-.81,1.73-1,2.79-3.22,2.79-6.3C268.27,271.37,263.86,263.74,258.42,260.59Zm-2.81,18.93c-1.69-1.32-4.05-5.3-5-7.53a16.33,16.33,0,0,0,1.72,1.05c2.56,1.33,2.49-.46,3.54.78s.84,4.3,0,5.88A2.63,2.63,0,0,1,255.61,279.52Zm5-11.67a2.76,2.76,0,0,0-.42.19l-1.52.86a1.92,1.92,0,0,0-.75.75c-1.27-1.29-2.74-5.42-2.62-7.36,2.2.75,5.87,3.82,6.44,5a1.61,1.61,0,0,1,.1.28A6.38,6.38,0,0,0,260.61,267.85Zm-7.48-1.3c.83,3,2.07,3.43,2.15,4.4-1.93-.31-5.08-2.19-5.29-4.06a7.51,7.51,0,0,1,1.7-5C252.51,262.25,252.46,264.11,253.13,266.55Zm5.57,15.61c-1-.94.11-1.85.64-3.79a5.35,5.35,0,0,0,0-2.82c2,1.59,5,5.77,4.26,7l-.1.12C261.78,283.12,259.42,282.83,258.7,282.16Zm4.81-6.47c-2.14-2.86-3-1.88-3.51-3.4a2,2,0,0,1,.69-2.06,2.54,2.54,0,0,1,3.11,1,18.69,18.69,0,0,1,1.67,7.34C265,277.85,264.32,276.77,263.51,275.69Z" style="fill:#e0e0e0"/><path d="M258.42,260.59c-2.79-1.61-5.31-1.71-7.1-.59-.37.24-.82.44-1.3.72l-.38.25-.06,0,0,0a4.63,4.63,0,0,0-.48.4l-.1.1a5.22,5.22,0,0,0-.39.43l-.13.18a5.09,5.09,0,0,0-.31.45,2.15,2.15,0,0,0-.14.26c-.08.15-.16.3-.23.46s-.1.24-.14.37-.11.29-.16.45-.09.32-.13.48-.07.28-.1.43-.06.42-.09.64,0,.24-.05.36c0,.36,0,.72,0,1.1,0,6.28,4.42,13.91,9.85,17.06.35.19.68.37,1,.52s.39.16.59.23.27.12.4.16a2.62,2.62,0,0,0,.4.11,5.15,5.15,0,0,0,.56.16l.21,0a6.06,6.06,0,0,0,.71.1h.05a5.14,5.14,0,0,0,3.21-.76c.47-.28.9-.48,1.44-.81,1.73-1,2.79-3.22,2.79-6.3C268.27,271.37,263.86,263.74,258.42,260.59Zm-2.81,18.93c-1.69-1.32-4.05-5.3-5-7.53a16.33,16.33,0,0,0,1.72,1.05c2.56,1.33,2.49-.46,3.54.78s.84,4.3,0,5.88A2.63,2.63,0,0,1,255.61,279.52Zm5-11.67a2.76,2.76,0,0,0-.42.19l-1.52.86a1.92,1.92,0,0,0-.75.75c-1.27-1.29-2.74-5.42-2.62-7.36,2.2.75,5.87,3.82,6.44,5a1.61,1.61,0,0,1,.1.28A6.38,6.38,0,0,0,260.61,267.85Zm-7.48-1.3c.83,3,2.07,3.43,2.15,4.4-1.93-.31-5.08-2.19-5.29-4.06a7.51,7.51,0,0,1,1.7-5C252.51,262.25,252.46,264.11,253.13,266.55Zm5.57,15.61c-1-.94.11-1.85.64-3.79a5.35,5.35,0,0,0,0-2.82c2,1.59,5,5.77,4.26,7l-.1.12C261.78,283.12,259.42,282.83,258.7,282.16Zm4.81-6.47c-2.14-2.86-3-1.88-3.51-3.4a2,2,0,0,1,.69-2.06,2.54,2.54,0,0,1,3.11,1,18.69,18.69,0,0,1,1.67,7.34C265,277.85,264.32,276.77,263.51,275.69Z" style="opacity:0.2"/><path d="M256.9,261.45c-5.43-3.14-9.85-.59-9.85,5.69s4.42,13.91,9.85,17.06,9.85.59,9.85-5.69S262.34,264.59,256.9,261.45Zm-2.44.67c2,0,6.63,3.82,7.28,5.17s-1.07.86-2.64,1.42c-2,.7-1.05,2.63-2.22,2.15C255.17,270.14,252.53,262.09,254.46,262.12Zm-2.93-.3c1,.17.88,2.13,1.6,4.73.91,3.29,2.34,3.5,2.14,4.73-.3,1.8-6.49-.89-6.79-3.54S250.53,261.64,251.53,261.82Zm2.57,18.55c-2.12-1.66-5.36-7.59-5.38-8.84s1.62.47,3.63,1.51c2.56,1.33,2.49-.46,3.54.78C257.42,275.64,256.23,282,254.1,280.37Zm9.47,2.19c-1,1.61-5.36,1.39-6.38.46s.12-1.85.64-3.8c.67-2.47-.8-3.79.05-4.25C259.12,274.3,264.59,280.94,263.57,282.56Zm-1.57-6c-2.14-2.86-3-1.88-3.5-3.41-.77-2.23,3.79-4.51,5.3-1.85s2,8.46,1.44,9.12S263.69,278.78,262,276.54Z" style="fill:#e0e0e0"/><path d="M256.9,276.3c1.67,1,3,.18,3-1.74a6.67,6.67,0,0,0-3-5.22c-1.66-1-3-.18-3,1.74A6.67,6.67,0,0,0,256.9,276.3Z" style="fill:#455a64"/><path d="M247,288.72a.73.73,0,0,1-.35-.09.8.8,0,0,1-.37-1.08l6.66-13.48,3.49-2a.81.81,0,1,1,.81,1.4l-3.07,1.77-6.44,13A.82.82,0,0,1,247,288.72Z" style="fill:#3DBF4B"/><g style="opacity:0.30000000000000004"><path d="M247,288.72a.73.73,0,0,1-.35-.09.8.8,0,0,1-.37-1.08l6.66-13.48,3.49-2a.81.81,0,1,1,.81,1.4l-3.07,1.77-6.44,13A.82.82,0,0,1,247,288.72Z"/></g><path d="M250.33,290l-6.39-3.68a1.11,1.11,0,0,0-1.14,0l-8.89,5.13a1.13,1.13,0,0,0-.58,1V293a1.13,1.13,0,0,0,.58,1l6.39,3.7a1.15,1.15,0,0,0,1.15,0l8.88-5.14a1.14,1.14,0,0,0,.57-1V291A1.15,1.15,0,0,0,250.33,290Z" style="fill:#3DBF4B"/><path d="M250.33,290l-6.39-3.68a1.11,1.11,0,0,0-1.14,0l-8.89,5.13a1.13,1.13,0,0,0-.58,1V293a1.13,1.13,0,0,0,.58,1l6.39,3.7a1.15,1.15,0,0,0,1.15,0l8.88-5.14a1.14,1.14,0,0,0,.57-1V291A1.15,1.15,0,0,0,250.33,290Z" style="opacity:0.2"/><path d="M240.34,295.81a1.08,1.08,0,0,0,1.07,0l9.33-5.41a1.18,1.18,0,0,0-.41-.42l-1.79-1-4.6-2.65a1.11,1.11,0,0,0-1.14,0l-1.08.62-7.81,4.51a1.13,1.13,0,0,0-.42.42Z" style="fill:#3DBF4B"/><path d="M271.15,275.23c0-7.25-1-12-9.86-19.36-7.75-6.43-45-23-45-23l-1.54,1,32.68,28.27,1.54-1a5.08,5.08,0,0,1,1.3-2c1.43-.53,3.52-.53,6.53,1,7.35,3.62,9.65,9.16,10.54,14.81l2.29,1.27Z" style="fill:#3DBF4B"/><path d="M271.15,275.23c0-7.25-1-12-9.86-19.36-7.75-6.43-45-23-45-23l-1.54,1,32.68,28.27,1.54-1a5.08,5.08,0,0,1,1.3-2c1.43-.53,3.52-.53,6.53,1,7.35,3.62,9.65,9.16,10.54,14.81l2.29,1.27Z" style="opacity:0.30000000000000004"/><path d="M247.41,262.12l-32.68-28.27s37.27,16.55,45,23c8.9,7.39,9.81,12.1,9.86,19.36l-2.29-1.27c-.89-5.65-3.19-11.19-10.54-14.81C249.12,256.33,247.41,262.12,247.41,262.12Z" style="fill:#3DBF4B"/><path d="M273.15,187c-2.45-4-8.18-9.76-8.18-9.76s-14.8-19.92-31.21-10.44a10.93,10.93,0,0,0-5.7,8.08,13.65,13.65,0,0,0-.12,3.56,8.58,8.58,0,0,0,2,5c2.16,3,8.27,5.44,15.59,7.29.53.14,1.05.26,1.58.38,2.61.6,5.25,1.11,7.88,1.64s5.21,1.06,7.78,1.75c1.05.28,2.1.59,3.12,1,.42.15.83.32,1.24.51a4,4,0,0,0,1.58.68,4.76,4.76,0,0,0,1.13-.11,4.83,4.83,0,0,0,1-.26,4.08,4.08,0,0,0,.81-.47,6.07,6.07,0,0,0,2-2.86A7.06,7.06,0,0,0,273.15,187Z" style="fill:#9a4a4d"/><path d="M233.76,166.79c-5,2.87-7.7,8.16-3.79,13.55,2.16,3,8.27,5.44,15.59,7.29s19.84,3.52,22.93,6.05,7.52-2,4.66-6.69c-2.45-4-8.18-9.76-8.18-9.76S250.17,157.31,233.76,166.79Z" style="fill:#b16668"/><path d="M333.26,301.43a1.21,1.21,0,0,1-1.11-.73l-7.42-17.09-.06-.17L313,239.28a1.22,1.22,0,0,1,2.35-.62L327,282.73l7.38,17a1.22,1.22,0,0,1-.63,1.6A1.37,1.37,0,0,1,333.26,301.43Z" style="fill:#3DBF4B"/><path d="M333.26,301.43a1.21,1.21,0,0,1-1.11-.73l-7.42-17.09-.06-.17L313,239.28a1.22,1.22,0,0,1,2.35-.62L327,282.73l7.38,17a1.22,1.22,0,0,1-.63,1.6A1.37,1.37,0,0,1,333.26,301.43Z" style="opacity:0.5"/><path d="M337.24,257.91l-2.23-1.3c-5.48-3.17-10.68-4.69-15.3-4.76h-.4a23.42,23.42,0,0,0-2.39.14c-7.27.78-11.87,2.95-16.13,8.43-4.88,5.82-5.89,13.68-5.54,21.2,0,22.31,15.66,49.45,35,60.6l2.23,1.29c5.49,3.17,10.68,4.7,15.3,4.77h0c8.91,0,16.19-3.47,20.6-11,2.29-2.93,3.86-9.38,3.86-16.23v-2.58C372.23,296.19,356.57,269.06,337.24,257.91Zm-5.88,81.39c-18.24-10.53-33-36.13-33-57.19s14.79-29.6,33-19.06,33,36.13,33,57.19S349.59,349.84,331.36,339.3Z" style="fill:#37474f"/><path d="M332.47,260.13l-2.23-1.29c-9.56-5.52-18.22-6.1-24.54-2.57-8.8,5-10.79,16-10.45,25.35,0,22.31,15.66,49.45,35,60.6l2.23,1.29c5.62,3.24,10.92,4.78,15.62,4.78a18.16,18.16,0,0,0,9.33-2.45c6.21-3.71,10-11.49,10-22.53v-2.58C367.46,298.42,351.79,271.28,332.47,260.13Zm-1.11,79.17c-18.24-10.53-33-36.13-33-57.19s14.79-29.6,33-19.06,33,36.13,33,57.19S349.59,349.84,331.36,339.3Z" style="fill:#263238"/><path d="M355.91,333.9c-5.22,6.22-14.27,7.1-24.55,1.17C315.14,325.71,302,303,302,284.23c0-8.37,2.63-14.51,7-17.92-3,3.59-4.79,8.95-4.79,15.8,0,18.72,13.14,41.48,29.35,50.85C342.5,338.13,350.53,338.12,355.91,333.9Z" style="fill:#3DBF4B"/><path d="M355.91,333.9c-5.22,6.22-14.27,7.1-24.55,1.17C315.14,325.71,302,303,302,284.23c0-8.37,2.63-14.51,7-17.92-3,3.59-4.79,8.95-4.79,15.8,0,18.72,13.14,41.48,29.35,50.85C342.5,338.13,350.53,338.12,355.91,333.9Z" style="opacity:0.2"/><path d="M331.35,263.05c-18.23-10.53-33-2-33,19.06s14.79,46.67,33,57.19,33,2,33-19.06S349.59,273.58,331.35,263.05Zm0,72C315.14,325.71,302,303,302,284.23s13.14-26.31,29.35-17,29.36,32.12,29.36,50.84S347.56,344.43,331.35,335.07Z" style="fill:#3DBF4B"/><path d="M331.35,263.05c-18.23-10.53-33-2-33,19.06s14.79,46.67,33,57.19,33,2,33-19.06S349.59,273.58,331.35,263.05Zm0,72C315.14,325.71,302,303,302,284.23s13.14-26.31,29.35-17,29.36,32.12,29.36,50.84S347.56,344.43,331.35,335.07Z" style="fill:#fff;opacity:0.5"/><path d="M359.72,308.81c-.07-.33-.14-.66-.22-1l-28.15-7.08,25.43-1.82c-.11-.29-.22-.58-.34-.87l-25.09,2.69,20.8-11.48-.46-.78-20.34,12.26,14.81-20.28-.59-.73-14.22,21,7.89-27.66-.76-.67-7.13,28.33.46-33.18-.46-.28-.45-.24.45,33.7-7-36.53-1-.26,8,36.79-14-37.44-.94.08,15,37.36-20.16-35.82c-.27.13-.53.28-.79.43l21,35.39-25-31.79c-.19.25-.37.5-.55.76l25.52,31-28.11-25.53c-.1.31-.19.63-.28,1l28.39,24.57L302,283.29c0,.31,0,.62,0,.94,0,0,0,.06,0,.09l29.34,16.42-28.53-8.11c.06.33.12.65.19,1l28.34,7.13-25.74,1.85c.11.29.22.58.34.87l25.4-2.72-21.15,11.7c.14.26.29.52.44.78l20.71-12.48-15.13,20.74.59.73,14.54-21.47-8.06,28.36.75.68,7.31-29-.45,34.05.45.28.46.24-.46-34.57,7.21,37.45c.32.1.65.18,1,.25l-8.18-37.7L345.72,339c.32,0,.63,0,.94-.09l-15.31-38.19,20.55,36.49a8.81,8.81,0,0,0,.77-.47l-21.32-36L356.66,333c.19-.26.37-.51.54-.78l-25.85-31.43,28.32,25.71c.09-.32.17-.65.25-1l-28.57-24.72,29.35,17.47s0-.06,0-.09c0-.32,0-.64,0-1l-29.34-16.41Z" style="fill:#ebebeb"/><path d="M332.75,292.16c-2-1.16-3.83-1.23-5.13-.42-.27.17-.6.31-.94.52a1.67,1.67,0,0,0-.28.18l0,0h0l-.35.29-.07.07a2.7,2.7,0,0,0-.28.31,1.13,1.13,0,0,0-.1.13,2.7,2.7,0,0,0-.22.33l-.11.19c0,.11-.11.21-.16.33a2,2,0,0,0-.1.26l-.12.33-.09.35c0,.1-.05.2-.07.31s-.05.31-.07.46,0,.17,0,.27,0,.51,0,.79a15.72,15.72,0,0,0,7.13,12.33c.24.14.48.27.72.38l.43.17.29.11a1.47,1.47,0,0,0,.28.08,3.59,3.59,0,0,0,.41.11.76.76,0,0,0,.16,0,4.46,4.46,0,0,0,.51.07h0a3.67,3.67,0,0,0,2.32-.54c.35-.2.65-.35,1-.58,1.26-.76,2-2.34,2-4.56A15.76,15.76,0,0,0,332.75,292.16Zm-2,13.69c-1.22-1-2.93-3.84-3.6-5.44.37.24.79.52,1.24.76,1.85,1,1.81-.34,2.56.56s.61,3.11,0,4.25A1,1,0,0,1,330.72,305.85Zm3.61-8.44a2.09,2.09,0,0,0-.3.14l-1.1.62a1.39,1.39,0,0,0-.54.54,9.88,9.88,0,0,1-1.9-5.32,12,12,0,0,1,4.66,3.62,1,1,0,0,1,.08.2A4.29,4.29,0,0,0,334.33,297.41Zm-5.4-.94c.59,2.15,1.5,2.48,1.55,3.18-1.4-.22-3.67-1.58-3.83-2.93a5.48,5.48,0,0,1,1.23-3.62C328.48,293.36,328.44,294.71,328.93,296.47Zm4,11.29c-.74-.68.08-1.34.46-2.74a3.72,3.72,0,0,0,0-2c1.46,1.15,3.65,4.17,3.09,5.06a.34.34,0,0,1-.08.09A4.7,4.7,0,0,1,333,307.76Zm3.48-4.68c-1.55-2.07-2.16-1.36-2.54-2.46a1.44,1.44,0,0,1,.51-1.49,1.84,1.84,0,0,1,2.24.76,13.64,13.64,0,0,1,1.21,5.31C337.48,304.64,337,303.86,336.43,303.08Z" style="fill:#e0e0e0"/><path d="M332.75,292.16c-2-1.16-3.83-1.23-5.13-.42-.27.17-.6.31-.94.52a1.67,1.67,0,0,0-.28.18l0,0h0l-.35.29-.07.07a2.7,2.7,0,0,0-.28.31,1.13,1.13,0,0,0-.1.13,2.7,2.7,0,0,0-.22.33l-.11.19c0,.11-.11.21-.16.33a2,2,0,0,0-.1.26l-.12.33-.09.35c0,.1-.05.2-.07.31s-.05.31-.07.46,0,.17,0,.27,0,.51,0,.79a15.72,15.72,0,0,0,7.13,12.33c.24.14.48.27.72.38l.43.17.29.11a1.47,1.47,0,0,0,.28.08,3.59,3.59,0,0,0,.41.11.76.76,0,0,0,.16,0,4.46,4.46,0,0,0,.51.07h0a3.67,3.67,0,0,0,2.32-.54c.35-.2.65-.35,1-.58,1.26-.76,2-2.34,2-4.56A15.76,15.76,0,0,0,332.75,292.16Zm-2,13.69c-1.22-1-2.93-3.84-3.6-5.44.37.24.79.52,1.24.76,1.85,1,1.81-.34,2.56.56s.61,3.11,0,4.25A1,1,0,0,1,330.72,305.85Zm3.61-8.44a2.09,2.09,0,0,0-.3.14l-1.1.62a1.39,1.39,0,0,0-.54.54,9.88,9.88,0,0,1-1.9-5.32,12,12,0,0,1,4.66,3.62,1,1,0,0,1,.08.2A4.29,4.29,0,0,0,334.33,297.41Zm-5.4-.94c.59,2.15,1.5,2.48,1.55,3.18-1.4-.22-3.67-1.58-3.83-2.93a5.48,5.48,0,0,1,1.23-3.62C328.48,293.36,328.44,294.71,328.93,296.47Zm4,11.29c-.74-.68.08-1.34.46-2.74a3.72,3.72,0,0,0,0-2c1.46,1.15,3.65,4.17,3.09,5.06a.34.34,0,0,1-.08.09A4.7,4.7,0,0,1,333,307.76Zm3.48-4.68c-1.55-2.07-2.16-1.36-2.54-2.46a1.44,1.44,0,0,1,.51-1.49,1.84,1.84,0,0,1,2.24.76,13.64,13.64,0,0,1,1.21,5.31C337.48,304.64,337,303.86,336.43,303.08Z" style="opacity:0.2"/><path d="M331.66,292.78c-3.94-2.26-7.13-.42-7.13,4.12a15.72,15.72,0,0,0,7.13,12.33c3.93,2.27,7.11.43,7.11-4.11A15.76,15.76,0,0,0,331.66,292.78Zm-1.77.49c1.41,0,4.79,2.76,5.26,3.74s-.77.62-1.91,1c-1.44.51-.75,1.9-1.6,1.55C330.4,299.07,328.49,293.24,329.89,293.27Zm-2.12-.22c.72.12.64,1.54,1.16,3.42.66,2.38,1.69,2.53,1.55,3.42-.22,1.3-4.7-.64-4.92-2.56S327.05,292.92,327.77,293.05Zm1.86,13.41c-1.54-1.2-3.88-5.49-3.89-6.39s1.17.34,2.62,1.1c1.85,1,1.81-.34,2.56.56C332,303,331.17,307.66,329.63,306.46Zm6.85,1.58c-.74,1.17-3.88,1-4.62.34s.09-1.34.47-2.75c.48-1.78-.58-2.74,0-3.07C333.26,302.07,337.21,306.88,336.48,308Zm-1.14-4.35c-1.55-2.06-2.16-1.35-2.53-2.46-.56-1.61,2.74-3.26,3.83-1.34s1.48,6.12,1,6.59S336.56,305.32,335.34,303.69Z" style="fill:#e0e0e0"/><path d="M331.35,305.06c1.86,1.08,3.37.21,3.37-1.94a7.43,7.43,0,0,0-3.37-5.83c-1.86-1.08-3.36-.21-3.36,1.94A7.42,7.42,0,0,0,331.35,305.06Z" style="fill:#455a64"/><path d="M349.71,264.84l-1.57,1.35a57.91,57.91,0,0,0-10.9-8.28L335,256.62c-5.49-3.18-10.68-4.7-15.3-4.77h0l-.41,0a18.83,18.83,0,0,0-2.39.14c-7.27.76-11.87,2.95-16.13,8.43-4.88,5.81-5.9,13.68-5.54,21.19a64.38,64.38,0,0,0,4.69,22.93l-1.3.94s-6.37-13.24-7.18-28,6.88-26.44,22.35-29.31S349.71,264.84,349.71,264.84Z" style="fill:#3DBF4B"/><path d="M349.71,264.84l-1.57,1.35a57.91,57.91,0,0,0-10.9-8.28L335,256.62c-5.49-3.18-10.68-4.7-15.3-4.77h0l-.41,0a18.83,18.83,0,0,0-2.39.14c-7.27.76-11.87,2.95-16.13,8.43-4.88,5.81-5.9,13.68-5.54,21.19a64.38,64.38,0,0,0,4.69,22.93l-1.3.94s-6.37-13.24-7.18-28,6.88-26.44,22.35-29.31S349.71,264.84,349.71,264.84Z" style="opacity:0.30000000000000004"/><path d="M352.53,265.09a13.17,13.17,0,0,1-4.47,3.37.46.46,0,0,1-.14.07,15,15,0,0,1-1.94.77l-.13,0a74.59,74.59,0,0,0-14.28-11.67c-21.24-12.88-38.57-6.42-38.66,21,0,8.25,2.34,18.76,5.73,26.87a5.8,5.8,0,0,1-2.74-1.13,71.13,71.13,0,0,1-5.08-25.11c-.41-8.47.78-17.32,6.37-23.81,4.67-5.89,9.75-8.25,17.71-9.09a21,21,0,0,1,2.65-.16H318c5.13.07,10.9,1.76,17,5.29l2.48,1.43A67.11,67.11,0,0,1,352.53,265.09Z" style="fill:#3DBF4B"/><path d="M352.53,265.09a13.17,13.17,0,0,1-4.47,3.37.46.46,0,0,1-.14.07,15,15,0,0,1-1.94.77l-.13,0a74.59,74.59,0,0,0-14.28-11.67c-21.24-12.88-38.57-6.42-38.66,21,0,8.25,2.34,18.76,5.73,26.87a5.8,5.8,0,0,1-2.74-1.13,71.13,71.13,0,0,1-5.08-25.11c-.41-8.47.78-17.32,6.37-23.81,4.67-5.89,9.75-8.25,17.71-9.09a21,21,0,0,1,2.65-.16H318c5.13.07,10.9,1.76,17,5.29l2.48,1.43A67.11,67.11,0,0,1,352.53,265.09Z" style="fill:#fff;opacity:0.5"/><path d="M348.06,268.46h0a.84.84,0,0,1-.14.06,6.44,6.44,0,0,1-1.94.77l-.13,0a74.59,74.59,0,0,0-14.28-11.67c-21.24-12.88-38.57-6.42-38.66,21,0,8.25,2.34,18.76,5.73,26.87a5.8,5.8,0,0,1-2.74-1.13,71.13,71.13,0,0,1-5.08-25.11c-.38-10.34,1.83-22.64,11.61-28.15,7-3.92,16.65-3.29,27.27,2.85l2.47,1.43A68.32,68.32,0,0,1,348.06,268.46Z" style="fill:#3DBF4B"/><path d="M331.36,302.62a1.19,1.19,0,0,1-.91-.41l-11.88-13.5a1.29,1.29,0,0,1-.26-.49l-11.7-44.15a1.22,1.22,0,0,1,2.35-.63l11.62,43.88,11.69,13.28a1.22,1.22,0,0,1-.11,1.71A1.19,1.19,0,0,1,331.36,302.62Z" style="fill:#3DBF4B"/><path d="M331.36,302.62a1.19,1.19,0,0,1-.91-.41l-11.88-13.5a1.29,1.29,0,0,1-.26-.49l-11.7-44.15a1.22,1.22,0,0,1,2.35-.63l11.62,43.88,11.69,13.28a1.22,1.22,0,0,1-.11,1.71A1.19,1.19,0,0,1,331.36,302.62Z" style="opacity:0.30000000000000004"/><path d="M309.06,241.63l-4.76-45.42c-.06-.89,3.16-1.13,3.23-.24l4.75,45.42C312.35,242.28,309.12,242.48,309.06,241.63Z" style="fill:#3DBF4B"/><path d="M309.06,241.63l-4.76-45.42c-.06-.89,3.16-1.13,3.23-.24l4.75,45.42C312.35,242.28,309.12,242.48,309.06,241.63Z" style="opacity:0.30000000000000004"/><path d="M308.15,232.89a44.59,44.59,0,0,1,.39,5c-.06,1.45-2.87,3.64-2,6.5s2.08,7.28,2.08,7.28a1.71,1.71,0,0,0,2.26-.93l-1.17-4.4a3.3,3.3,0,0,1,1.21-3.5l.48-.36a1.69,1.69,0,0,1,2.65.92l.82,2.91a19.88,19.88,0,0,1,2.41-.17s-1.39-5.62-2.09-7.93c-.56-1.82-3.45-.9-3.61-3.28l-.32-3.08C311.38,233.11,308.8,233.91,308.15,232.89Z" style="fill:#37474f"/><path d="M307.53,196c-.07-.89-3.29-.65-3.23.24l1.21,11.47a8,8,0,0,0,3.38,1.29Z" style="opacity:0.15"/><path d="M340.53,177.69,338,173.24,348.83,167h0a1.25,1.25,0,0,1,1.3.12,4,4,0,0,1,1.81,3.14,1.28,1.28,0,0,1-.51,1.16h0l0,0h0Z" style="fill:#455a64"/><path d="M341.06,176.51c0,1.16-.82,1.63-1.82,1.05a4,4,0,0,1-1.82-3.14c0-1.16.82-1.63,1.82-1A4,4,0,0,1,341.06,176.51Z" style="fill:#37474f"/><path d="M340,175.9a.68.68,0,0,1-.14.46l-.27.16-14.22,8.21a5.36,5.36,0,0,0-2.67,4.64,7.79,7.79,0,0,1-3.89,6.73L309,201.79l-1.21-2.1,9.85-5.69a5.37,5.37,0,0,0,2.67-4.63,7.82,7.82,0,0,1,3.89-6.74l14.28-8.24.14-.09a.72.72,0,0,1,.55.09A2,2,0,0,1,340,175.9Z" style="fill:#e0e0e0"/><path d="M316.24,198.84a2.59,2.59,0,0,0-1.51-2l-6.35-3.67-6.57,3.79v3.79l6.35,3.67a7.51,7.51,0,0,0,6.78.12,2.16,2.16,0,0,0,1.29-1.89S316.26,199.53,316.24,198.84Z" style="fill:#37474f"/><path d="M308.38,193.15l6.35,3.67c1.93,1.11,2,2.87.21,3.91a7.48,7.48,0,0,1-6.78-.12l-6.35-3.67Z" style="fill:#455a64"/><path d="M307.45,202.27a.65.65,0,0,1-.17.49l-.17.11h0l-7.94,4.59a3.31,3.31,0,0,1-3.48.3c-.74-.42-1.62-1.43-1.62-3.83,0-1.23-.3-1.68-.42-1.74s-.47,0-1.05.31l-23,13.26-1.21-2.1,23-13.27a3.31,3.31,0,0,1,3.47-.3c.74.43,1.63,1.44,1.63,3.84,0,1.23.3,1.67.42,1.74s.46,0,1.05-.31l8-4.62h0l.11-.05a.6.6,0,0,1,.55.08A1.88,1.88,0,0,1,307.45,202.27Z" style="fill:#e0e0e0"/><path d="M267.41,218.64l-2.57-4.45,10.88-6.28h0a1.25,1.25,0,0,1,1.3.12,4,4,0,0,1,1.82,3.14,1.3,1.3,0,0,1-.51,1.16h0l0,0h0Z" style="fill:#455a64"/><path d="M267.94,217.46c0,1.16-.81,1.63-1.82,1a4,4,0,0,1-1.81-3.14c0-1.16.81-1.63,1.81-1.05A4,4,0,0,1,267.94,217.46Z" style="fill:#263238"/><path d="M319.78,205.94c-1.32-.71-8.1-1.37-11.49.63s2.37,8.61,5.08,10.17Z" style="fill:#3DBF4B"/><path d="M319.78,205.94c-1.32-.71-8.1-1.37-11.49.63s2.37,8.61,5.08,10.17Z" style="fill:#fff;opacity:0.5"/><path d="M316.66,206.26c2.46-1.42,4.45-.27,4.45,2.57a9.82,9.82,0,0,1-4.44,7.7c-2.46,1.42-4.45.27-4.45-2.56A9.85,9.85,0,0,1,316.66,206.26Z" style="fill:#3DBF4B"/><path d="M316.66,206.26c2.46-1.42,4.45-.27,4.45,2.57a9.82,9.82,0,0,1-4.44,7.7c-2.46,1.42-4.45.27-4.45-2.56A9.85,9.85,0,0,1,316.66,206.26Z" style="fill:#fff;opacity:0.8"/><path d="M316.67,209.1c1.09-.64,2-.12,2,1.15a4.44,4.44,0,0,1-2,3.45c-1.1.63-2,.12-2-1.15A4.38,4.38,0,0,1,316.67,209.1Z" style="fill:#3DBF4B"/></g></g><path d="M354.87,362.08a1.24,1.24,0,0,1-.64-.18l-53.09-30.65a1.28,1.28,0,0,1-.64-1.26l6.92-62.23c.71-6.38,4.18-10.31,9.07-10.31h.16l21.83.38c5.58.1,11.57,8.1,12.09,16.16l5.59,86.71a1.29,1.29,0,0,1-.6,1.18A1.32,1.32,0,0,1,354.87,362.08Zm-51.71-32.64,50.27,29L348,274.16c-.46-7.19-5.73-13.68-9.56-13.74L316.61,260c-3.58,0-6.06,2.93-6.62,8Z" style="fill:#e0e0e0"/><path d="M354.87,362.08a1.24,1.24,0,0,1-.64-.18l-53.09-30.65a1.28,1.28,0,0,1-.64-1.26l6.92-62.23c.71-6.38,4.18-10.31,9.07-10.31h.16l21.83.38c5.58.1,11.57,8.1,12.09,16.16l5.59,86.71a1.29,1.29,0,0,1-.6,1.18A1.32,1.32,0,0,1,354.87,362.08Zm-51.71-32.64,50.27,29L348,274.16c-.46-7.19-5.73-13.68-9.56-13.74L316.61,260c-3.58,0-6.06,2.93-6.62,8Z" style="opacity:0.15"/></g></g><g id="freepik--bike-1--inject-13"><g id="freepik--bicycle--inject-13"><path d="M224.8,436a1.33,1.33,0,0,1-.64-.17l-53.09-30.65a1.29,1.29,0,0,1-.64-1.27l6.92-62.23c.72-6.44,4.27-10.36,9.23-10.3l21.83.38c5.58.1,11.57,8.1,12.09,16.16l5.59,86.71A1.27,1.27,0,0,1,224.8,436Zm-51.71-32.64,50.27,29-5.44-84.3c-.46-7.19-5.73-13.67-9.56-13.74l-21.83-.38h-.11c-3.52,0-5.94,3-6.5,8Z" style="fill:#e0e0e0"/><path d="M224.8,436a1.33,1.33,0,0,1-.64-.17l-53.09-30.65a1.29,1.29,0,0,1-.64-1.27l6.92-62.23c.72-6.44,4.27-10.36,9.23-10.3l21.83.38c5.58.1,11.57,8.1,12.09,16.16l5.59,86.71A1.27,1.27,0,0,1,224.8,436Zm-51.71-32.64,50.27,29-5.44-84.3c-.46-7.19-5.73-13.67-9.56-13.74l-21.83-.38h-.11c-3.52,0-5.94,3-6.5,8Z" style="opacity:0.2"/><g id="freepik--bike--inject-13"><g id="freepik--bike--inject-13"><path d="M190.35,383.68l-.1-.22a97.05,97.05,0,0,1-8.28-27L176.91,323c-.1-.59-.39-2.53-2-1.52s-1.5,1.55-1.41,2.16l5,33a97.16,97.16,0,0,0,9.54,29.6h0a1.58,1.58,0,0,0,2.19-.25C191.08,385.25,190.74,384.47,190.35,383.68Z" style="fill:#3DBF4B"/><path d="M190.35,383.68l-.1-.22a97.05,97.05,0,0,1-8.28-27L176.91,323c-.1-.59-.39-2.53-2-1.52s-1.5,1.55-1.41,2.16l5,33a97.16,97.16,0,0,0,9.54,29.6h0a1.58,1.58,0,0,0,2.19-.25C191.08,385.25,190.74,384.47,190.35,383.68Z" style="opacity:0.4"/><path d="M191.89,340.84l-2.34-1.28c-5.76-3.13-11.16-4.58-15.94-4.53h0l-.43,0a21.86,21.86,0,0,0-2.46.2c-7.5,1-12.19,3.36-16.46,9.14-4.89,6.13-5.74,14.29-5.17,22.05.58,23.07,17.47,50.71,37.74,61.74l2.34,1.27c5.76,3.14,11.16,4.58,15.94,4.53h.33c.32,0,.63,0,.94,0l.3,0,.8-.09.4-.05.21,0c7.75-1.05,12.62-3.68,16.85-9.79.18-.25.36-.52.53-.79l.06-.1c.2-.31.36-.65.59-1,2.3-3.08,3.75-9.79,3.57-16.87l-.06-2.67C229.05,379.5,212.16,351.86,191.89,340.84Zm-4,84.29c-19.13-10.41-35.08-36.5-35.62-58.26s14.51-31,33.64-20.57,35.07,36.5,35.62,58.26S207,435.54,187.92,425.13Z" style="fill:#37474f"/><path d="M187,343.26,184.67,342c-10-5.46-19-5.82-25.43-2-9,5.35-10.74,16.85-10.14,26.47.58,23.07,17.47,50.71,37.74,61.74l2.34,1.27c5.89,3.21,11.41,4.66,16.27,4.53.32,0,.63,0,.94,0l.3,0,.8-.09.4-.05c.26,0,.53-.08.79-.13l.7-.14.67-.16c.43-.11.86-.24,1.26-.38l.52-.18c.2-.07.39-.15.57-.23s.33-.13.48-.21c.35-.15.69-.31,1-.49l.49-.27.14-.08.19-.12.31-.18c6.32-4,10.08-12.14,9.79-23.55l-.06-2.66C224.18,381.93,207.27,354.28,187,343.26Zm.91,81.87c-19.13-10.41-35.08-36.5-35.62-58.26s14.51-31,33.64-20.57,35.07,36.5,35.62,58.26S207,435.54,187.92,425.13Z" style="fill:#263238"/><path d="M213.17,418.91c-5.24,6.56-14.57,7.71-25.36,1.84-17-9.25-31.18-32.44-31.67-51.79-.21-8.65,2.34-15.06,6.75-18.7-3,3.79-4.72,9.37-4.54,16.46.48,19.34,14.66,42.53,31.66,51.79C199.41,423.63,207.71,423.41,213.17,418.91Z" style="fill:#3DBF4B"/><path d="M213.17,418.91c-5.24,6.56-14.57,7.71-25.36,1.84-17-9.25-31.18-32.44-31.67-51.79-.21-8.65,2.34-15.06,6.75-18.7-3,3.79-4.72,9.37-4.54,16.46.48,19.34,14.66,42.53,31.66,51.79C199.41,423.63,207.71,423.41,213.17,418.91Z" style="opacity:0.2"/><path d="M185.93,346.3c-19.12-10.41-34.18-1.2-33.63,20.57s16.49,47.85,35.62,58.26,34.18,1.2,33.64-20.56S205.06,356.71,185.93,346.3Zm1.88,74.45c-17-9.25-31.18-32.44-31.67-51.79s12.9-27.53,29.91-18.28,31.17,32.44,31.66,51.79S204.81,430,187.81,420.75Z" style="fill:#3DBF4B"/><path d="M185.93,346.3c-19.12-10.41-34.18-1.2-33.63,20.57s16.49,47.85,35.62,58.26,34.18,1.2,33.64-20.56S205.06,356.71,185.93,346.3Zm1.88,74.45c-17-9.25-31.18-32.44-31.67-51.79s12.9-27.53,29.91-18.28,31.17,32.44,31.66,51.79S204.81,430,187.81,420.75Z" style="fill:#fff;opacity:0.5"/><path d="M216.44,392.87c-.08-.34-.16-.68-.25-1l-29.27-6.58,26.23-2.54-.38-.9-25.85,3.44,21.19-12.41c-.16-.27-.33-.53-.5-.79l-20.69,13.2,14.77-21.35-.63-.74-14.14,22.09,7.42-28.8-.8-.68-6.62,29.48-.4-34.32-.47-.27-.48-.24,1.35,34.83-8.2-37.58-1-.24,9.22,37.82-15.49-38.34-1,.11,16.46,38.23-21.78-36.51-.8.47,22.58,36-26.65-32.21c-.19.25-.37.52-.55.8l27.2,31.41L157.19,359.6c-.09.33-.18.66-.26,1l30,24.66L156.14,368v1a.28.28,0,0,1,0,.09l30.77,16.22-29.71-7.65c.07.34.14.68.22,1l29.49,6.63-26.57,2.58c.12.3.25.59.37.89l26.2-3.47-21.57,12.64c.16.26.31.53.48.8l21.09-13.44L171.81,407.1l.63.74,14.48-22.57-7.61,29.53.8.68,6.81-30.21.41,35.21.48.27.47.25-1.36-35.73,8.41,38.53,1,.23-9.43-38.76,15.84,39.2c.33,0,.65-.07,1-.12l-16.81-39.08,22.18,37.18c.27-.15.53-.32.79-.5l-23-36.68,27,32.63c.19-.27.37-.53.54-.81l-27.53-31.82,29.93,25.84c.09-.34.16-.68.23-1l-30.16-24.81,30.79,17.29v-.09c0-.33,0-.66-.05-1l-30.74-16.2Z" style="fill:#ebebeb"/><path d="M188.14,376.37c-2.12-1.16-4-1.19-5.32-.31-.27.18-.61.34-1,.56l-.28.19-.05,0h0a2.67,2.67,0,0,0-.36.31l-.07.07a4.09,4.09,0,0,0-.28.33l-.1.14a4,4,0,0,0-.22.34l-.1.2a3.73,3.73,0,0,0-.16.35,2.31,2.31,0,0,0-.1.28c0,.11-.08.22-.11.33s-.06.24-.09.37a3,3,0,0,0-.06.32,3.7,3.7,0,0,0-.06.48l0,.27c0,.27,0,.54,0,.82A16.3,16.3,0,0,0,187.45,394c.25.14.51.26.76.37l.44.16.3.11.3.08a3.63,3.63,0,0,0,.42.1l.17,0a5.15,5.15,0,0,0,.53.07h0a4,4,0,0,0,2.39-.62l1.06-.64c1.27-.81,2-2.46,2-4.76A16.28,16.28,0,0,0,188.14,376.37Zm-1.75,14.19c-1.28-.95-3.13-3.88-3.87-5.53a13.31,13.31,0,0,0,1.31.76c1.94.94,1.86-.4,2.66.51s.71,3.2.13,4.39A1.1,1.1,0,0,1,186.39,390.56Zm3.52-8.81a1.57,1.57,0,0,0-.32.15l-1.11.67a1.41,1.41,0,0,0-.55.57,10.2,10.2,0,0,1-2.1-5.45,12.44,12.44,0,0,1,4.91,3.62.8.8,0,0,1,.08.21A4.67,4.67,0,0,0,189.91,381.75Zm-5.62-.83c.68,2.21,1.62,2.52,1.7,3.25-1.46-.2-3.85-1.55-4-2.94a5.65,5.65,0,0,1,1.18-3.77C183.75,377.72,183.74,379.11,184.29,380.92Zm4.46,11.56c-.78-.68.05-1.38.41-2.84a4,4,0,0,0-.08-2.11c1.54,1.15,3.88,4.21,3.32,5.16l-.07.09A4.89,4.89,0,0,1,188.75,392.48Zm3.47-4.93c-1.65-2.1-2.27-1.34-2.68-2.47a1.46,1.46,0,0,1,.48-1.55,1.89,1.89,0,0,1,2.34.72,14.12,14.12,0,0,1,1.39,5.46C193.35,389.14,192.85,388.34,192.22,387.55Z" style="fill:#e0e0e0"/><path d="M188.14,376.37c-2.12-1.16-4-1.19-5.32-.31-.27.18-.61.34-1,.56l-.28.19-.05,0h0a2.67,2.67,0,0,0-.36.31l-.07.07a4.09,4.09,0,0,0-.28.33l-.1.14a4,4,0,0,0-.22.34l-.1.2a3.73,3.73,0,0,0-.16.35,2.31,2.31,0,0,0-.1.28c0,.11-.08.22-.11.33s-.06.24-.09.37a3,3,0,0,0-.06.32,3.7,3.7,0,0,0-.06.48l0,.27c0,.27,0,.54,0,.82A16.3,16.3,0,0,0,187.45,394c.25.14.51.26.76.37l.44.16.3.11.3.08a3.63,3.63,0,0,0,.42.1l.17,0a5.15,5.15,0,0,0,.53.07h0a4,4,0,0,0,2.39-.62l1.06-.64c1.27-.81,2-2.46,2-4.76A16.28,16.28,0,0,0,188.14,376.37Zm-1.75,14.19c-1.28-.95-3.13-3.88-3.87-5.53a13.31,13.31,0,0,0,1.31.76c1.94.94,1.86-.4,2.66.51s.71,3.2.13,4.39A1.1,1.1,0,0,1,186.39,390.56Zm3.52-8.81a1.57,1.57,0,0,0-.32.15l-1.11.67a1.41,1.41,0,0,0-.55.57,10.2,10.2,0,0,1-2.1-5.45,12.44,12.44,0,0,1,4.91,3.62.8.8,0,0,1,.08.21A4.67,4.67,0,0,0,189.91,381.75Zm-5.62-.83c.68,2.21,1.62,2.52,1.7,3.25-1.46-.2-3.85-1.55-4-2.94a5.65,5.65,0,0,1,1.18-3.77C183.75,377.72,183.74,379.11,184.29,380.92Zm4.46,11.56c-.78-.68.05-1.38.41-2.84a4,4,0,0,0-.08-2.11c1.54,1.15,3.88,4.21,3.32,5.16l-.07.09A4.89,4.89,0,0,1,188.75,392.48Zm3.47-4.93c-1.65-2.1-2.27-1.34-2.68-2.47a1.46,1.46,0,0,1,.48-1.55,1.89,1.89,0,0,1,2.34.72,14.12,14.12,0,0,1,1.39,5.46C193.35,389.14,192.85,388.34,192.22,387.55Z" style="opacity:0.2"/><path d="M187,377c-4.12-2.24-7.37-.25-7.26,4.44A16.3,16.3,0,0,0,187.45,394c4.12,2.24,7.36.25,7.25-4.44A16.32,16.32,0,0,0,187,377Zm-1.81.55c1.45,0,5,2.73,5.53,3.73s-.78.66-1.94,1.11c-1.48.56-.74,2-1.62,1.64C185.88,383.57,183.76,377.59,185.21,377.58Zm-2.2-.17c.75.11.7,1.58,1.28,3.51.75,2.44,1.82,2.57,1.69,3.49-.19,1.35-4.87-.54-5.14-2.52S182.26,377.3,183,377.41Zm2.27,13.82c-1.62-1.2-4.15-5.58-4.19-6.5s1.22.32,2.74,1.06c1.94.94,1.86-.4,2.66.51C187.67,387.63,186.91,392.43,185.28,391.23Zm7.12,1.46c-.73,1.22-4,1.14-4.76.46s.05-1.39.41-2.85c.45-1.86-.67-2.82-.05-3.18C188.92,386.6,193.13,391.46,192.4,392.69Zm-1.29-4.48c-1.65-2.09-2.27-1.34-2.68-2.47-.62-1.66,2.75-3.45,3.93-1.49s1.68,6.28,1.24,6.79S192.42,389.86,191.11,388.21Z" style="fill:#e0e0e0"/><path d="M187,389.74c1.95,1.06,3.48.12,3.43-2.1a7.7,7.7,0,0,0-3.63-5.94c-2-1.06-3.49-.12-3.43,2.1A7.71,7.71,0,0,0,187,389.74Z" style="fill:#455a64"/><path d="M205,347.68l-1.58,1.44a59.87,59.87,0,0,0-11.48-8.28l-2.34-1.28c-5.76-3.14-11.16-4.58-15.94-4.53h0l-.43,0a19.9,19.9,0,0,0-2.46.21c-7.5,1-12.19,3.35-16.46,9.13-4.89,6.14-5.74,14.3-5.17,22.05A66.42,66.42,0,0,0,154.55,390l-1.32,1s-6.93-13.53-8.16-28.73,6.42-27.5,22.35-30.88S205,347.68,205,347.68Z" style="fill:#e0e0e0"/><path d="M205,347.68l-1.58,1.44a59.87,59.87,0,0,0-11.48-8.28l-2.34-1.28c-5.76-3.14-11.16-4.58-15.94-4.53h0l-.43,0a19.9,19.9,0,0,0-2.46.21c-7.5,1-12.19,3.35-16.46,9.13-4.89,6.14-5.74,14.3-5.17,22.05A66.42,66.42,0,0,0,154.55,390l-1.32,1s-6.93-13.53-8.16-28.73,6.42-27.5,22.35-30.88S205,347.68,205,347.68Z" style="opacity:0.30000000000000004"/><path d="M207.88,347.87a13.88,13.88,0,0,1-4.54,3.6s-2.21.95-2.26.95A76.65,76.65,0,0,0,186,340.73C163.73,328,146,335.1,146.6,363.4c.18,8.53,2.91,19.33,6.63,27.63a6,6,0,0,1-2.87-1.1,73.44,73.44,0,0,1-5.9-25.82c-.65-8.74.35-17.92,6-24.78,4.68-6.21,9.86-8.79,18.07-9.86a22.15,22.15,0,0,1,2.74-.24l.46,0h0c5.31-.06,11.32,1.54,17.71,5l2.6,1.41A69.39,69.39,0,0,1,207.88,347.87Z" style="fill:#fafafa"/><path d="M203.34,351.47s-2.21.95-2.26.95A76.65,76.65,0,0,0,186,340.73C163.73,328,146,335.1,146.6,363.4c.18,8.53,2.91,19.33,6.63,27.63a6,6,0,0,1-2.87-1.1,73.44,73.44,0,0,1-5.9-25.82c-.66-10.69,1.3-23.46,11.26-29.41,7.16-4.23,17.13-3.82,28.26,2.24l2.6,1.42A70.23,70.23,0,0,1,203.34,351.47Z" style="fill:#e0e0e0"/><path d="M65.56,272l-2.34-1.28c-5.75-3.13-11.16-4.58-15.94-4.52h0l-.42,0a22,22,0,0,0-2.47.21c-7.5,1-12.19,3.36-16.45,9.13-4.9,6.14-5.75,14.3-5.18,22.05.58,23.08,17.47,50.72,37.75,61.74l2.33,1.28c5.76,3.14,11.17,4.58,15.95,4.53h.33c.31,0,.62,0,.93,0l.3,0c.27,0,.54-.05.8-.09l.4,0,.21,0c7.75-1.05,12.62-3.68,16.85-9.79.19-.25.36-.52.54-.79l.06-.1c.2-.31.35-.65.58-1,2.3-3.08,3.76-9.8,3.58-16.87l-.07-2.67C102.73,310.69,85.83,283.05,65.56,272Zm-4,84.3C42.47,345.91,26.51,319.82,26,298.06s14.51-31,33.64-20.57S94.68,314,95.23,335.75,80.72,366.73,61.59,356.32Z" style="fill:#37474f"/><path d="M60.69,274.44l-2.34-1.28c-10-5.45-19-5.82-25.44-2-9,5.36-10.74,16.85-10.14,26.47.58,23.08,17.47,50.72,37.75,61.74l2.33,1.28c5.89,3.21,11.41,4.66,16.28,4.53.31,0,.62,0,.93,0l.3,0c.27,0,.54-.05.8-.09l.4,0c.27,0,.53-.08.79-.13l.7-.14.67-.16c.44-.11.86-.24,1.26-.38l.53-.18.57-.23.48-.21c.34-.15.68-.31,1-.49.17-.08.33-.18.5-.27a.57.57,0,0,1,.13-.08,1,1,0,0,0,.19-.12,3.14,3.14,0,0,0,.31-.18c6.33-4,10.09-12.14,9.8-23.55l-.07-2.67C97.85,313.11,81,285.47,60.69,274.44Zm.9,81.88C42.47,345.91,26.51,319.82,26,298.06s14.51-31,33.64-20.57S94.68,314,95.23,335.75,80.72,366.73,61.59,356.32Z" style="fill:#263238"/><path d="M86.84,350.1c-5.24,6.56-14.57,7.71-25.36,1.84-17-9.25-31.18-32.44-31.67-51.79-.21-8.65,2.34-15.07,6.75-18.7-3,3.78-4.72,9.37-4.54,16.45.48,19.35,14.66,42.54,31.67,51.8C73.08,354.82,81.38,354.6,86.84,350.1Z" style="fill:#3DBF4B"/><path d="M86.84,350.1c-5.24,6.56-14.57,7.71-25.36,1.84-17-9.25-31.18-32.44-31.67-51.79-.21-8.65,2.34-15.07,6.75-18.7-3,3.78-4.72,9.37-4.54,16.45.48,19.35,14.66,42.54,31.67,51.8C73.08,354.82,81.38,354.6,86.84,350.1Z" style="opacity:0.2"/><path d="M59.61,277.49C40.48,267.08,25.42,276.28,26,298.05s16.49,47.86,35.62,58.27,34.19,1.2,33.64-20.57S78.73,287.9,59.61,277.49Zm1.87,74.45c-17-9.25-31.18-32.44-31.66-51.79s12.9-27.54,29.9-18.28,31.18,32.44,31.66,51.79S78.48,361.19,61.48,351.94Z" style="fill:#3DBF4B"/><path d="M59.61,277.49C40.48,267.08,25.42,276.28,26,298.05s16.49,47.86,35.62,58.27,34.19,1.2,33.64-20.57S78.73,287.9,59.61,277.49Zm1.87,74.45c-17-9.25-31.18-32.44-31.66-51.79s12.9-27.54,29.9-18.28,31.18,32.44,31.66,51.79S78.48,361.19,61.48,351.94Z" style="fill:#fff;opacity:0.5"/><path d="M90.12,324.06c-.08-.34-.17-.68-.25-1l-29.28-6.59,26.23-2.53c-.12-.3-.24-.6-.37-.9l-25.86,3.43L81.78,304c-.16-.26-.33-.52-.49-.79l-20.7,13.2,14.78-21.34-.63-.74L60.59,316.45,68,287.65l-.8-.67-6.62,29.47-.4-34.31c-.16-.09-.31-.19-.47-.27l-.48-.25,1.35,34.83-8.2-37.57-1-.25,9.22,37.82L45.1,278.11l-1,.11,16.46,38.23L38.81,279.94c-.27.15-.54.31-.8.48l22.58,36L33.94,284.24c-.19.26-.37.53-.54.8l27.19,31.41L30.86,290.79c-.09.33-.18.66-.26,1l30,24.66L29.81,299.17c0,.33,0,.65,0,1v.09l30.77,16.21-29.71-7.64c.07.34.14.68.22,1l29.49,6.63L34,319l.37.9,26.2-3.48L39,329.09c.16.27.31.54.48.81l21.09-13.45L45.48,338.29l.63.74,14.48-22.58L53,346l.8.69,6.81-30.22L61,351.67l.47.27.47.24-1.36-35.73L69,355l1,.24-9.43-38.77,15.85,39.2c.32,0,.64-.06,1-.11L60.59,316.45l22.19,37.19a7.94,7.94,0,0,0,.78-.5l-23-36.69,27,32.64c.18-.27.36-.54.53-.82L60.59,316.45,90.53,342.3c.08-.34.16-.68.23-1L60.59,316.45l30.79,17.3v-.09c0-.33,0-.67,0-1L60.59,316.45Z" style="fill:#ebebeb"/><path d="M61.81,307.55c-2.12-1.15-4-1.18-5.32-.31-.27.19-.6.35-1,.57-.09.05-.18.12-.28.19l0,0v0a3.37,3.37,0,0,0-.36.3l-.07.08a3,3,0,0,0-.28.33,1.13,1.13,0,0,0-.1.13l-.22.35-.1.2a3.54,3.54,0,0,0-.16.34c0,.09-.07.19-.1.28a3.38,3.38,0,0,0-.11.34l-.09.36-.06.33c0,.15,0,.31-.06.48l0,.27a7.38,7.38,0,0,0,0,.82,16.23,16.23,0,0,0,7.68,12.56,7.54,7.54,0,0,0,.76.37,4.13,4.13,0,0,0,.45.17l.3.11.3.08.42.1.16,0a3.31,3.31,0,0,0,.53.06h0a3.79,3.79,0,0,0,2.38-.62c.35-.22.67-.38,1.06-.63,1.28-.81,2-2.46,2-4.76A16.28,16.28,0,0,0,61.81,307.55Zm-1.74,14.2c-1.29-.95-3.14-3.89-3.87-5.53a13.1,13.1,0,0,0,1.3.75c1.94.95,1.86-.39,2.66.52s.72,3.2.13,4.39A.85.85,0,0,1,60.07,321.75Zm3.51-8.82-.31.15-1.12.67a1.46,1.46,0,0,0-.54.58,10.15,10.15,0,0,1-2.1-5.45,12.28,12.28,0,0,1,4.9,3.62,1,1,0,0,1,.09.21A4.71,4.71,0,0,0,63.58,312.93ZM58,312.1c.67,2.21,1.61,2.53,1.69,3.25-1.46-.19-3.84-1.54-4-2.93a5.65,5.65,0,0,1,1.18-3.77C57.42,308.9,57.42,310.29,58,312.1Zm4.45,11.57c-.78-.68,0-1.39.41-2.85a3.88,3.88,0,0,0-.08-2.11c1.54,1.15,3.88,4.22,3.32,5.16L66,324A4.84,4.84,0,0,1,62.42,323.67Zm3.47-4.93c-1.65-2.1-2.27-1.35-2.68-2.48a1.46,1.46,0,0,1,.48-1.55,1.9,1.9,0,0,1,2.34.73,14,14,0,0,1,1.39,5.45C67,320.33,66.52,319.53,65.89,318.74Z" style="fill:#e0e0e0"/><path d="M61.81,307.55c-2.12-1.15-4-1.18-5.32-.31-.27.19-.6.35-1,.57-.09.05-.18.12-.28.19l0,0v0a3.37,3.37,0,0,0-.36.3l-.07.08a3,3,0,0,0-.28.33,1.13,1.13,0,0,0-.1.13l-.22.35-.1.2a3.54,3.54,0,0,0-.16.34c0,.09-.07.19-.1.28a3.38,3.38,0,0,0-.11.34l-.09.36-.06.33c0,.15,0,.31-.06.48l0,.27a7.38,7.38,0,0,0,0,.82,16.23,16.23,0,0,0,7.68,12.56,7.54,7.54,0,0,0,.76.37,4.13,4.13,0,0,0,.45.17l.3.11.3.08.42.1.16,0a3.31,3.31,0,0,0,.53.06h0a3.79,3.79,0,0,0,2.38-.62c.35-.22.67-.38,1.06-.63,1.28-.81,2-2.46,2-4.76A16.28,16.28,0,0,0,61.81,307.55Zm-1.74,14.2c-1.29-.95-3.14-3.89-3.87-5.53a13.1,13.1,0,0,0,1.3.75c1.94.95,1.86-.39,2.66.52s.72,3.2.13,4.39A.85.85,0,0,1,60.07,321.75Zm3.51-8.82-.31.15-1.12.67a1.46,1.46,0,0,0-.54.58,10.15,10.15,0,0,1-2.1-5.45,12.28,12.28,0,0,1,4.9,3.62,1,1,0,0,1,.09.21A4.71,4.71,0,0,0,63.58,312.93ZM58,312.1c.67,2.21,1.61,2.53,1.69,3.25-1.46-.19-3.84-1.54-4-2.93a5.65,5.65,0,0,1,1.18-3.77C57.42,308.9,57.42,310.29,58,312.1Zm4.45,11.57c-.78-.68,0-1.39.41-2.85a3.88,3.88,0,0,0-.08-2.11c1.54,1.15,3.88,4.22,3.32,5.16L66,324A4.84,4.84,0,0,1,62.42,323.67Zm3.47-4.93c-1.65-2.1-2.27-1.35-2.68-2.48a1.46,1.46,0,0,1,.48-1.55,1.9,1.9,0,0,1,2.34.73,14,14,0,0,1,1.39,5.45C67,320.33,66.52,319.53,65.89,318.74Z" style="opacity:0.2"/><path d="M60.69,308.22c-4.12-2.24-7.37-.26-7.25,4.44a16.23,16.23,0,0,0,7.68,12.56c4.12,2.24,7.37.26,7.25-4.43A16.27,16.27,0,0,0,60.69,308.22Zm-1.81.55c1.46,0,5,2.73,5.53,3.73s-.78.66-1.94,1.1c-1.48.57-.73,2-1.62,1.65C59.56,314.75,57.43,308.78,58.88,308.77Zm-2.2-.17c.75.11.7,1.58,1.29,3.5.74,2.44,1.81,2.57,1.69,3.5-.19,1.35-4.88-.55-5.15-2.52S55.93,308.49,56.68,308.6ZM59,322.41c-1.62-1.2-4.15-5.57-4.19-6.5s1.22.32,2.74,1.06c1.94.95,1.86-.39,2.66.52C61.35,318.82,60.58,323.62,59,322.41Zm7.12,1.46c-.73,1.23-4,1.15-4.76.47s0-1.39.41-2.86c.45-1.85-.67-2.81,0-3.17C62.59,317.78,66.8,322.64,66.07,323.87Zm-1.28-4.47c-1.66-2.09-2.27-1.34-2.69-2.48-.61-1.65,2.76-3.44,3.93-1.48s1.69,6.28,1.25,6.79S66.09,321.05,64.79,319.4Z" style="fill:#e0e0e0"/><path d="M60.7,320.92c1.95,1.06,3.49.13,3.43-2.09a7.73,7.73,0,0,0-3.63-5.95c-2-1.06-3.49-.12-3.43,2.1A7.67,7.67,0,0,0,60.7,320.92Z" style="fill:#455a64"/><path d="M78.62,278.86,77,280.3A60.31,60.31,0,0,0,65.56,272l-2.34-1.28c-5.76-3.13-11.16-4.58-15.94-4.52h0l-.43,0a19.9,19.9,0,0,0-2.46.21c-7.5,1-12.19,3.36-16.46,9.13-4.89,6.14-5.74,14.3-5.17,22.05a66.32,66.32,0,0,0,5.45,23.59l-1.32,1S20,308.69,18.74,293.48,25.16,266,41.09,262.6,78.62,278.86,78.62,278.86Z" style="fill:#e0e0e0"/><path d="M78.62,278.86,77,280.3A60.31,60.31,0,0,0,65.56,272l-2.34-1.28c-5.76-3.13-11.16-4.58-15.94-4.52h0l-.43,0a19.9,19.9,0,0,0-2.46.21c-7.5,1-12.19,3.36-16.46,9.13-4.89,6.14-5.74,14.3-5.17,22.05a66.32,66.32,0,0,0,5.45,23.59l-1.32,1S20,308.69,18.74,293.48,25.16,266,41.09,262.6,78.62,278.86,78.62,278.86Z" style="opacity:0.30000000000000004"/><path d="M81.55,279.05a13.53,13.53,0,0,1-4.54,3.6s-2.21,1-2.25,1a77,77,0,0,0-15.07-11.7c-22.29-12.75-40-5.63-39.42,22.67.18,8.54,2.91,19.34,6.63,27.63A5.92,5.92,0,0,1,24,321.12a73.78,73.78,0,0,1-5.91-25.83c-.64-8.74.36-17.92,6-24.78,4.68-6.21,9.86-8.78,18.07-9.86a24.29,24.29,0,0,1,2.74-.23l.47,0h0c5.31-.06,11.32,1.54,17.71,5l2.6,1.42A69.13,69.13,0,0,1,81.55,279.05Z" style="fill:#fafafa"/><path d="M77,282.65s-2.21,1-2.25,1a77,77,0,0,0-15.07-11.7c-22.29-12.75-40-5.63-39.42,22.67.18,8.54,2.91,19.34,6.63,27.63A5.92,5.92,0,0,1,24,321.12a73.78,73.78,0,0,1-5.91-25.83c-.65-10.68,1.31-23.45,11.27-29.4,7.16-4.24,17.13-3.83,28.27,2.23l2.59,1.42A70.29,70.29,0,0,1,77,282.65Z" style="fill:#e0e0e0"/><path d="M114.8,362.66a1.09,1.09,0,0,1-1-.93l-14.27-94a1.1,1.1,0,0,1,.92-1.25c.6-.09,2.43,0,2.52.61l14.27,94c.09.59-1.59,1.46-2.19,1.55Z" style="fill:#3DBF4B"/><path d="M114.8,362.66a1.09,1.09,0,0,1-1-.93l-14.27-94a1.1,1.1,0,0,1,.92-1.25c.6-.09,2.43,0,2.52.61l14.27,94c.09.59-1.59,1.46-2.19,1.55Z" style="opacity:0.2"/><path d="M104.62,284.24l55.07,30,2-3.11-56.34-30.66C103.26,279.29,102,282.83,104.62,284.24Z" style="fill:#3DBF4B"/><path d="M104.62,284.24l55.07,30,2-3.11-56.34-30.66C103.26,279.29,102,282.83,104.62,284.24Z" style="opacity:0.30000000000000004"/><path d="M172.3,316.13a1.26,1.26,0,0,0-1.77-.21l-3.17,2.51h0L147.52,334l-1.88-4a39.71,39.71,0,0,0,5.71-3.23c9.27-6.34,15.13-16.2,17.44-29.32a1.26,1.26,0,0,0-1-1.46c-.69-.12-1.74-.63-1.86.06-2.18,12.42-7.69,21.73-16.37,27.66-10.05,6.88-24.3,8.61-39.6,5.56L68.74,316.6l38.74-11.2c.67-.2-.22-4.41-.89-4.21L59,315.17l-.14.07-.15.07a1.44,1.44,0,0,0-.27.22s-.05,0-.07.06a0,0,0,0,1,0,0,1.39,1.39,0,0,0-.21.4s0,.09,0,.13a1,1,0,0,0,0,.24s0,.05,0,.07a1,1,0,0,0,0,.17,1.52,1.52,0,0,0,.09.28l.07.14a1.27,1.27,0,0,0,.21.25s0,.06.06.08L113.35,362a3.32,3.32,0,0,0,.44.29,2.21,2.21,0,0,0,1.13.29,2.54,2.54,0,0,0,1.49-.61l51.66-40.91,4-3.18A1.26,1.26,0,0,0,172.3,316.13Zm-57.18,42.56c-.58.45-.92.75-1.08.64L65.2,319.51l44.15,13.6.12,0a69.86,69.86,0,0,0,15.43,1.39,54.59,54.59,0,0,0,17.17-3.1l2.3,5.09Z" style="fill:#3DBF4B"/><path d="M172.3,316.13a1.26,1.26,0,0,0-1.77-.21l-3.17,2.51h0L147.52,334l-1.88-4a39.71,39.71,0,0,0,5.71-3.23c9.27-6.34,15.13-16.2,17.44-29.32a1.26,1.26,0,0,0-1-1.46c-.69-.12-1.74-.63-1.86.06-2.18,12.42-7.69,21.73-16.37,27.66-10.05,6.88-24.3,8.61-39.6,5.56L68.74,316.6l38.74-11.2c.67-.2-.22-4.41-.89-4.21L59,315.17l-.14.07-.15.07a1.44,1.44,0,0,0-.27.22s-.05,0-.07.06a0,0,0,0,1,0,0,1.39,1.39,0,0,0-.21.4s0,.09,0,.13a1,1,0,0,0,0,.24s0,.05,0,.07a1,1,0,0,0,0,.17,1.52,1.52,0,0,0,.09.28l.07.14a1.27,1.27,0,0,0,.21.25s0,.06.06.08L113.35,362a3.32,3.32,0,0,0,.44.29,2.21,2.21,0,0,0,1.13.29,2.54,2.54,0,0,0,1.49-.61l51.66-40.91,4-3.18A1.26,1.26,0,0,0,172.3,316.13Zm-57.18,42.56c-.58.45-.92.75-1.08.64L65.2,319.51l44.15,13.6.12,0a69.86,69.86,0,0,0,15.43,1.39,54.59,54.59,0,0,0,17.17-3.1l2.3,5.09Z" style="opacity:0.2"/><path d="M164.76,301.15l1.06,7c.44-1.13.85-2.28,1.22-3.46l-1.24-8.16C165.51,298.13,165.16,299.67,164.76,301.15Z" style="opacity:0.2"/><path d="M170.32,320.34a1.09,1.09,0,0,1-1-.93l-4.46-29.36a1.1,1.1,0,0,1,.92-1.25c.6-.09,2.43,0,2.52.62l4.46,29.36c.1.6-1.59,1.46-2.19,1.55A.74.74,0,0,1,170.32,320.34Z" style="fill:#3DBF4B"/><path d="M170.32,320.34a1.09,1.09,0,0,1-1-.93l-4.46-29.36a1.1,1.1,0,0,1,.92-1.25c.6-.09,2.43,0,2.52.62l4.46,29.36c.1.6-1.59,1.46-2.19,1.55A.74.74,0,0,1,170.32,320.34Z" style="opacity:0.4"/><path d="M169,294.48l-.77-5.06c-.09-.6-1.92-.71-2.52-.62a1.1,1.1,0,0,0-.92,1.25l.48,3.18A11.6,11.6,0,0,0,169,294.48Z" style="opacity:0.2"/><path d="M188.49,384.87h0a43.91,43.91,0,0,1-13.1-25.17l-5-32.69c-.1-.6-.39-2.53-2-1.52s-1.5,1.55-1.41,2.15l5.13,33.77a43.88,43.88,0,0,0,13.1,25.17l.94.9a1.56,1.56,0,0,0,2.18-.26A1.64,1.64,0,0,0,188.49,384.87Z" style="fill:#3DBF4B"/><path d="M188.49,384.87h0a43.91,43.91,0,0,1-13.1-25.17l-5-32.69c-.1-.6-.39-2.53-2-1.52s-1.5,1.55-1.41,2.15l5.13,33.77a43.88,43.88,0,0,0,13.1,25.17l.94.9a1.56,1.56,0,0,0,2.18-.26A1.64,1.64,0,0,0,188.49,384.87Z" style="opacity:0.4"/><path d="M168.27,312.79s.33,2.16.59,3.89c.23,1.49-2.84,4.65-2.37,7.74s.89,5.89.89,5.89c.2,1.31,3.43-.73,3.25-2l-.34-2.24c-.27-1.76-.42-2.74.6-3.33l.93-.58c1.17-.65,1.5.53,1.73,2.05l.38,2.51c.18,1.18,3.5-.27,3.24-2,0,0-.55-3.66-.93-6.15-.31-2-3.88-2.19-4.25-4.67l-.42-2.8C171.69,312.42,169,313.84,168.27,312.79Z" style="fill:#37474f"/><path d="M115.11,348.85c-2.94-1.59-5.54-1.63-7.36-.42-.38.25-.84.47-1.32.78a3.77,3.77,0,0,0-.39.26l-.07,0s0,0,0,0a4,4,0,0,0-.49.42l-.11.11c-.13.14-.26.29-.39.46l-.13.18c-.1.15-.21.31-.3.47l-.14.28c-.08.16-.16.31-.23.48s-.09.26-.14.39l-.15.46c0,.17-.08.34-.11.51s-.07.29-.1.44,0,.44-.07.67a2.21,2.21,0,0,0,0,.37,10.64,10.64,0,0,0,0,1.14c.17,6.49,4.93,14.27,10.63,17.37.36.2.71.37,1,.52s.41.15.62.23l.41.15.42.1c.19.06.39.11.58.15l.23,0c.24,0,.49.07.73.09h0a5.35,5.35,0,0,0,3.3-.86c.48-.31.92-.53,1.47-.88,1.76-1.12,2.8-3.4,2.72-6.59C125.57,359.74,120.81,352,115.11,348.85Zm-2.42,19.64c-1.78-1.32-4.33-5.37-5.35-7.65a20.13,20.13,0,0,0,1.81,1.05c2.68,1.3,2.57-.55,3.68.71s1,4.42.18,6.07A1.5,1.5,0,0,1,112.69,368.49Zm4.86-12.19a2.46,2.46,0,0,0-.43.21l-1.54.92a2,2,0,0,0-.76.8c-1.34-1.3-3-5.53-2.9-7.54,2.3.72,6.17,3.8,6.79,5a1.83,1.83,0,0,1,.11.29A7.16,7.16,0,0,0,117.55,356.3Zm-7.76-1.15c.93,3.05,2.23,3.49,2.34,4.49-2-.27-5.31-2.13-5.58-4.06a7.72,7.72,0,0,1,1.63-5.21C109,350.72,109,352.65,109.79,355.15Zm6.16,16c-1.08-.94.07-1.91.56-3.93a5.39,5.39,0,0,0-.1-2.92c2.13,1.59,5.36,5.84,4.59,7.14a1.47,1.47,0,0,0-.1.13C119.16,372.06,116.71,371.81,116,371.14Zm4.8-6.81c-2.28-2.9-3.14-1.86-3.71-3.43a2,2,0,0,1,.66-2.14,2.63,2.63,0,0,1,3.24,1,19.11,19.11,0,0,1,1.92,7.55C122.31,366.53,121.62,365.42,120.75,364.33Z" style="fill:#e0e0e0"/><path d="M115.11,348.85c-2.94-1.59-5.54-1.63-7.36-.42-.38.25-.84.47-1.32.78a3.77,3.77,0,0,0-.39.26l-.07,0s0,0,0,0a4,4,0,0,0-.49.42l-.11.11c-.13.14-.26.29-.39.46l-.13.18c-.1.15-.21.31-.3.47l-.14.28c-.08.16-.16.31-.23.48s-.09.26-.14.39l-.15.46c0,.17-.08.34-.11.51s-.07.29-.1.44,0,.44-.07.67a2.21,2.21,0,0,0,0,.37,10.64,10.64,0,0,0,0,1.14c.17,6.49,4.93,14.27,10.63,17.37.36.2.71.37,1,.52s.41.15.62.23l.41.15.42.1c.19.06.39.11.58.15l.23,0c.24,0,.49.07.73.09h0a5.35,5.35,0,0,0,3.3-.86c.48-.31.92-.53,1.47-.88,1.76-1.12,2.8-3.4,2.72-6.59C125.57,359.74,120.81,352,115.11,348.85Zm-2.42,19.64c-1.78-1.32-4.33-5.37-5.35-7.65a20.13,20.13,0,0,0,1.81,1.05c2.68,1.3,2.57-.55,3.68.71s1,4.42.18,6.07A1.5,1.5,0,0,1,112.69,368.49Zm4.86-12.19a2.46,2.46,0,0,0-.43.21l-1.54.92a2,2,0,0,0-.76.8c-1.34-1.3-3-5.53-2.9-7.54,2.3.72,6.17,3.8,6.79,5a1.83,1.83,0,0,1,.11.29A7.16,7.16,0,0,0,117.55,356.3Zm-7.76-1.15c.93,3.05,2.23,3.49,2.34,4.49-2-.27-5.31-2.13-5.58-4.06a7.72,7.72,0,0,1,1.63-5.21C109,350.72,109,352.65,109.79,355.15Zm6.16,16c-1.08-.94.07-1.91.56-3.93a5.39,5.39,0,0,0-.1-2.92c2.13,1.59,5.36,5.84,4.59,7.14a1.47,1.47,0,0,0-.1.13C119.16,372.06,116.71,371.81,116,371.14Zm4.8-6.81c-2.28-2.9-3.14-1.86-3.71-3.43a2,2,0,0,1,.66-2.14,2.63,2.63,0,0,1,3.24,1,19.11,19.11,0,0,1,1.92,7.55C122.31,366.53,121.62,365.42,120.75,364.33Z" style="opacity:0.2"/><path d="M113.56,349.78c-5.71-3.1-10.2-.35-10,6.14s4.93,14.27,10.63,17.37,10.19.36,10-6.13S119.26,352.89,113.56,349.78Zm-2.51.76c2,0,7,3.78,7.66,5.15s-1.09.92-2.69,1.53c-2,.78-1,2.76-2.24,2.28C112,358.81,109.05,350.55,111.05,350.54Zm-3-.24c1,.15,1,2.19,1.78,4.85,1,3.38,2.51,3.55,2.34,4.83-.27,1.87-6.74-.75-7.12-3.48S107,350.15,108,350.3Zm3.14,19.11c-2.24-1.66-5.73-7.71-5.79-9s1.68.44,3.79,1.47c2.68,1.3,2.57-.55,3.68.71C114.46,364.44,113.4,371.07,111.15,369.41Zm9.85,2c-1,1.69-5.5,1.58-6.59.64s.08-1.92.57-3.94c.62-2.57-.92-3.9-.06-4.4C116.18,363,122,369.73,121,371.43Zm-1.78-6.19c-2.29-2.89-3.14-1.86-3.71-3.42-.85-2.29,3.81-4.77,5.43-2.06s2.33,8.69,1.72,9.39S121,367.52,119.22,365.24Z" style="fill:#e0e0e0"/><path d="M113.94,365.13c1.75.95,3.12.11,3.07-1.87a6.87,6.87,0,0,0-3.25-5.32c-1.74-.95-3.12-.11-3.07,1.88A6.9,6.9,0,0,0,113.94,365.13Z" style="fill:#455a64"/><path d="M104,378.23a.83.83,0,0,1-.37-.08.84.84,0,0,1-.41-1.11l6.53-14.11,3.56-2.18a.84.84,0,0,1,.88,1.43L111,364.09l-6.32,13.65A.85.85,0,0,1,104,378.23Z" style="fill:#3DBF4B"/><g style="opacity:0.30000000000000004"><path d="M104,378.23a.83.83,0,0,1-.37-.08.84.84,0,0,1-.41-1.11l6.53-14.11,3.56-2.18a.84.84,0,0,1,.88,1.43L111,364.09l-6.32,13.65A.85.85,0,0,1,104,378.23Z"/></g><path d="M110.49,381.14l-12.77-7a1.18,1.18,0,0,0-1.18,0l-9.06,5.54a1.19,1.19,0,0,0-.57,1l0,.59a1.18,1.18,0,0,0,.61,1l12.79,7a1.18,1.18,0,0,0,1.18,0l9-5.55a1.17,1.17,0,0,0,.56-1v-.6A1.17,1.17,0,0,0,110.49,381.14Z" style="fill:#3DBF4B"/><path d="M110.49,381.14l-12.77-7a1.18,1.18,0,0,0-1.18,0l-9.06,5.54a1.19,1.19,0,0,0-.57,1l0,.59a1.18,1.18,0,0,0,.61,1l12.79,7a1.18,1.18,0,0,0,1.18,0l9-5.55a1.17,1.17,0,0,0,.56-1v-.6A1.17,1.17,0,0,0,110.49,381.14Z" style="opacity:0.2"/><path d="M100.32,387.42a1.13,1.13,0,0,0,1.1,0l9.51-5.83a1.05,1.05,0,0,0-.44-.42l-4.91-2.68-7.86-4.28a1.18,1.18,0,0,0-1.18,0l-1.1.68-8,4.86a1.13,1.13,0,0,0-.42.45Z" style="fill:#3DBF4B"/><path d="M121.59,272.91c-2.42-3.73-8-9.1-8-9.1s-14.56-18.61-30-9.19a10.42,10.42,0,0,0-5.23,7.83,13,13,0,0,0,0,3.39,8.12,8.12,0,0,0,2,4.7c2.13,2.79,8,5,15,6.57l1.51.32c2.5.51,5,.93,7.53,1.37s5,.89,7.45,1.48a30.87,30.87,0,0,1,3,.85,10.23,10.23,0,0,1,1.2.46,6.59,6.59,0,0,0,1.36.47,3.39,3.39,0,0,0,1.23,0,5.29,5.29,0,0,0,1-.28,3.55,3.55,0,0,0,.76-.47,5.73,5.73,0,0,0,1.84-2.76A6.65,6.65,0,0,0,121.59,272.91Z" style="fill:#9a4a4d"/><path d="M83.61,254.62c-4.66,2.85-7.13,7.95-3.28,13,2.13,2.79,8,5,15,6.57s19,2.87,22,5.21,7.11-2.11,4.27-6.48c-2.42-3.73-8-9.1-8-9.1S99,245.2,83.61,254.62Z" style="fill:#b16668"/><path d="M199.56,232.15l-2.8-4.57L208,220.73h0a1.35,1.35,0,0,1,1.36.09,4.18,4.18,0,0,1,2,3.23,1.36,1.36,0,0,1-.5,1.23h0Z" style="fill:#3DBF4B"/><path d="M200.08,230.91c0,1.21-.8,1.72-1.86,1.14a4.18,4.18,0,0,1-2-3.24c0-1.2.8-1.72,1.87-1.14A4.2,4.2,0,0,1,200.08,230.91Z" style="fill:#3DBF4B"/><path d="M200.08,230.91c0,1.21-.8,1.72-1.86,1.14a4.18,4.18,0,0,1-2-3.24c0-1.2.8-1.72,1.87-1.14A4.2,4.2,0,0,1,200.08,230.91Z" style="opacity:0.4"/><path d="M198.82,230.54a.66.66,0,0,1-.12.47l-.3.21-16.13,9.85c-3.14,1.91-4.11,6.33-4.59,11,0,.32-.06.65-.1,1-.24,2.73-.46,5.25-.69,7.71-.35,3.86-.69,7.61-1,11.88-.55,6.38-3.12,8.95-8.64,12.33l-1.36-2.21c5.15-3.15,6.95-5.08,7.41-10.34.36-4.27.7-8,1.05-11.89.19-2.1.39-4.24.58-6.52,0-.39.07-.78.11-1.19.06-.71.13-1.43.22-2.15.6-4.9,1.91-9.5,5.7-11.82l.25-.17,16.15-9.86a.75.75,0,0,1,.52.1A2.12,2.12,0,0,1,198.82,230.54Z" style="fill:#263238"/><path d="M172.92,284.43a2.69,2.69,0,0,0-1.63-2.07l-6.73-3.66-6.75,4.13.1,3.95,6.72,3.66a7.78,7.78,0,0,0,7.08-.05,2.27,2.27,0,0,0,1.3-2S173,285.15,172.92,284.43Z" style="fill:#3DBF4B"/><path d="M164.56,278.7l6.73,3.66c2,1.11,2.19,2.94.32,4.08a7.84,7.84,0,0,1-7.08.05l-6.72-3.66Z" style="fill:#3DBF4B"/><path d="M164.56,278.7l6.73,3.66c2,1.11,2.19,2.94.32,4.08a7.84,7.84,0,0,1-7.08.05l-6.72-3.66Z" style="fill:#fff;opacity:0.5"/><path d="M162.05,287.67a.64.64,0,0,1-.17.52l-.19.12-1.07.61c-2,1.15-3.62,1.86-5,1.89a3.07,3.07,0,0,1-1.54-.31,3.47,3.47,0,0,1-.54-.31c-1.3-.94-1.74-2.74-2-4.27-.56-3.71-1.09-6.93-1.61-10.26-.34-2.12-.68-4.27-1.05-6.63-.54-3.43-1.24-5.36-2.09-5.75-.46-.22-1.2.13-1.74.46L127.34,274.6,126,272.38l17.74-10.85q2.37-1.45,4.2-.6c2.21,1,3,4.31,3.55,7.7.37,2.35.71,4.51,1.05,6.61.53,3.34,1.05,6.57,1.63,10.29.3,2,.76,2.5,1,2.61.68.31,2.35-.47,3.71-1.22l1.29-.73.3-.17,0,0a.64.64,0,0,1,.59.06A2.09,2.09,0,0,1,162.05,287.67Z" style="fill:#263238"/><path d="M120.25,280.21l-2.81-4.58,11.19-6.84h0a1.3,1.3,0,0,1,1.36.09,4.18,4.18,0,0,1,2,3.23,1.33,1.33,0,0,1-.49,1.22h0Z" style="fill:#3DBF4B"/><path d="M120.77,279c0,1.2-.81,1.72-1.87,1.14a4.21,4.21,0,0,1-2-3.24c0-1.21.81-1.72,1.87-1.14A4.21,4.21,0,0,1,120.77,279Z" style="fill:#3DBF4B"/><path d="M120.77,279c0,1.2-.81,1.72-1.87,1.14a4.21,4.21,0,0,1-2-3.24c0-1.21.81-1.72,1.87-1.14A4.21,4.21,0,0,1,120.77,279Z" style="opacity:0.4"/></g></g><path d="M207,446.22a1.24,1.24,0,0,1-.64-.18l-53.09-30.65a1.28,1.28,0,0,1-.64-1.26l6.92-62.23c.71-6.38,4.18-10.31,9.07-10.31h.16l21.83.38c5.58.1,11.57,8.11,12.09,16.16l5.59,86.71a1.28,1.28,0,0,1-.61,1.18A1.26,1.26,0,0,1,207,446.22Zm-51.71-32.64,50.27,29-5.44-84.3c-.46-7.19-5.73-13.68-9.56-13.74l-21.82-.39h-.12c-3.52,0-5.95,3-6.5,8Z" style="fill:#e0e0e0"/><path d="M207,446.22a1.24,1.24,0,0,1-.64-.18l-53.09-30.65a1.28,1.28,0,0,1-.64-1.26l6.92-62.23c.71-6.38,4.18-10.31,9.07-10.31h.16l21.83.38c5.58.1,11.57,8.11,12.09,16.16l5.59,86.71a1.28,1.28,0,0,1-.61,1.18A1.26,1.26,0,0,1,207,446.22Zm-51.71-32.64,50.27,29-5.44-84.3c-.46-7.19-5.73-13.68-9.56-13.74l-21.82-.39h-.12c-3.52,0-5.95,3-6.5,8Z" style="opacity:0.15"/></g></g></svg>