<svg width="750" height="346" viewBox="0 0 750 346" fill="none" xmlns="http://www.w3.org/2000/svg">
<path d="M207.84 190.474C210.102 191.043 213.842 191.949 218.506 193.001C223.218 194.005 228.846 195.214 234.848 196.495C246.928 198.993 260.627 202.197 271.169 205.663C283.364 209.567 295.409 214.911 306.152 222.547L308.16 223.984C308.829 224.463 309.446 225.02 310.082 225.525L313.888 228.664C315.197 229.667 316.307 230.894 317.496 232.027L321.007 235.488L324.23 239.21C325.27 240.47 326.429 241.649 327.352 243.01L330.253 246.972C330.717 247.637 331.244 248.281 331.674 248.973L332.964 251.049C339.985 262.054 345.06 274.079 348.659 286.399C352.205 298.75 354.262 311.388 355.28 324.029C355.661 327.979 355.913 333.334 355.737 337.658C355.455 341.992 354.788 345.276 353.259 345.163C349.998 344.9 348.276 336.182 347.008 322.92C345.415 306.864 342.21 290.867 336.331 275.891C335.669 273.991 334.795 272.191 333.98 270.351C333.15 268.533 332.38 266.674 331.389 264.928C330.444 263.162 329.535 261.389 328.556 259.65L325.374 254.577C320.918 247.99 315.837 241.829 309.926 236.622C301.37 228.889 291.24 223.153 280.545 218.677C269.813 214.209 258.444 211.132 246.929 208.443C235.4 205.778 223.638 203.605 211.873 200.88C200.13 198.12 188.324 194.946 176.952 190.197C171.866 188.052 166.821 185.676 162.016 182.844C157.218 180 152.593 176.801 148.274 173.191C143.952 169.465 140.059 165.264 136.646 160.734C133.307 156.141 130.462 151.196 128.141 146C125.884 140.782 124.247 135.266 123.261 129.599C122.275 123.933 122.251 118.065 123.041 112.287C123.307 110.843 123.453 109.385 123.831 107.967L125.026 103.723C126.092 100.982 127.099 98.1842 128.648 95.6676C131.424 90.4361 135.36 85.994 139.539 82.1354C143.511 78.5124 147.791 75.4019 152.145 72.5681C154.344 71.1662 156.424 69.7979 158.975 68.4522C161.44 67.1625 163.991 66.0598 166.706 65.2452C169.41 64.4231 172.257 63.8255 175.32 63.729C178.345 63.6401 181.741 64.0411 184.957 65.7811C186.554 66.6192 188.005 67.8463 189.197 69.2416C189.811 69.9262 190.24 70.7155 190.73 71.4636C191.212 72.2229 191.5 73.0793 191.87 73.9097C192.229 74.7326 192.352 75.69 192.569 76.5802C192.741 77.4891 192.714 78.4278 192.755 79.3628C192.714 80.2754 192.564 81.1805 192.433 82.0818C192.201 82.9157 191.965 83.7796 191.681 84.5948C190.442 87.7884 188.526 90.3199 186.476 92.4699C184.404 94.6048 182.122 96.3733 179.717 97.9135C177.326 99.4318 174.742 100.755 172.101 101.749C169.618 102.605 167.164 103.562 164.662 104.324C154.638 107.444 144.221 109.282 133.749 109.817C115.678 110.763 97.4457 107.841 80.5988 101.337C63.7183 94.8581 48.4207 84.5244 35.8764 71.7155C29.9351 65.7262 22.9994 58.166 18.0235 50.2921C17.5114 49.4804 16.9469 48.6013 16.3525 47.6699C15.7581 46.7384 15.2235 45.7173 14.6254 44.6699C14.0385 43.6301 13.4329 42.5453 12.8048 41.4456C12.1955 40.3422 11.661 39.1751 11.0928 38.0343C10.5321 36.8822 9.97139 35.7303 9.42563 34.6044C8.93225 33.4486 8.46132 32.3078 7.99785 31.2044C7.54186 30.0898 7.09711 29.0312 6.68972 28.0138C6.33843 26.9852 6.00583 26.0015 5.69939 25.1001C5.20237 23.5366 4.62676 21.9695 4.15968 20.3612C3.70381 18.7604 3.2218 17.1745 2.69485 15.6559C2.04828 13.9279 1.6897 12.2784 1.30111 10.8197C0.938717 9.34614 0.591183 8.0446 0.397004 6.87768C0.0460487 4.53637 -0.0768733 2.80091 0.0468377 1.66773C0.283041 -0.606109 1.47599 -0.474801 3.62595 1.57526C4.57193 2.46561 5.33529 1.12681 6.48637 4.35844C6.53122 4.48561 6.62466 4.75864 6.67699 4.87459C7.68242 7.27965 8.71399 9.66984 9.50624 12.1272C10.4818 14.5285 11.2441 16.982 12.1224 19.4319C13.9014 24.2981 15.6317 29.2615 18.0727 33.9371C29.7018 56.9633 48.5462 76.4386 71.5403 88.016C94.5494 99.5708 121.334 103.449 146.7 99.1988C154.472 97.8996 162.162 95.8483 169.493 93.0713C172.829 91.7632 176.061 89.8342 178.739 87.5199C180.053 86.3534 181.238 85.0858 182.181 83.7696C183.064 82.4459 183.678 81.0884 183.903 79.8281C184.127 78.5678 183.997 77.4271 183.414 76.26C182.849 75.0893 182.064 74.1279 181.054 73.5031C178.96 72.2684 175.55 72.0356 172.112 72.7902C168.668 73.4588 165.17 74.8865 161.987 76.6696L160.794 77.365L159.522 78.1538L157.012 79.7539C155.351 80.8343 153.747 81.9521 152.176 83.0924C145.311 88.1583 139.558 94.2081 135.752 101.25L135.816 101.13C133.983 104.899 132.616 108.916 132.125 113.127C131.702 115.195 131.784 117.357 131.623 119.47L131.768 122.679C131.797 123.217 131.797 123.752 131.846 124.287L132.462 128.928L133.13 131.936L133.463 133.454L133.926 134.946L134.842 137.924C136.329 141.817 137.97 145.7 140.194 149.291C142.269 152.96 144.856 156.323 147.578 159.533C149.044 161.029 150.382 162.667 151.986 164.029L154.305 166.143L158.051 169.128L159.364 170.053L161.97 171.904C163.806 173.016 165.549 174.243 167.433 175.257L170.227 176.828L173.084 178.28C174.965 179.276 176.958 180.103 178.887 181.001C186.726 184.414 194.844 187.041 202.941 189.313C204.182 189.688 205.963 189.984 207.84 190.474Z" fill="#3DBF4B"/>
<path d="M366.916 325.453C367.569 324.812 369.905 322.562 371.241 320.962C374.355 317.291 377.238 313.48 380.574 309.901C381.09 309.339 381.792 308.265 384.046 309.683C386.388 311.16 387.266 312.794 386.423 313.93C384.345 316.664 381.839 319.041 380.113 321.967C377.571 326.288 373.908 329.72 370.432 333.234C368.844 334.808 367.207 336.307 365.488 337.737C364.639 338.459 363.766 339.151 362.907 339.867C362.002 340.565 361.234 341.228 360.208 342.002C359.3 342.685 358.271 343.4 356.922 344C356.242 344.298 355.478 344.552 354.622 344.689C353.776 344.833 352.802 344.849 351.891 344.708C349.794 344.371 348.125 343.286 347.012 342.303C345.849 341.286 345.078 340.319 344.406 339.46C342.113 336.487 340.641 332.985 339.1 329.649C338.731 328.865 337.81 328.166 337.432 327.291C337.108 326.565 336.58 325.363 336.469 324.553C336.423 324.197 336.41 323.834 336.188 323.573C335.185 322.338 335.944 321.626 338.952 320.957C339.619 320.807 340.38 320.366 340.935 320.51C340.961 320.513 341.007 320.53 341.033 320.533C343.11 320.772 342.731 322.02 343.205 322.944C345.519 327.433 348.278 331.765 351.492 335.565C352.4 336.666 353.2 337.186 353.406 337.153C353.553 337.166 353.703 337.153 354.049 337.016C354.386 336.872 354.807 336.601 355.271 336.203C355.787 335.768 356.143 335.001 356.996 334.635L356.98 334.639C357.643 334.005 358.261 333.313 358.953 332.741C361.642 330.599 364.142 328.019 366.651 325.871C366.739 325.802 366.782 325.59 366.916 325.453Z" fill="#3DBF4B"/>
</svg>
