<svg xmlns="http://www.w3.org/2000/svg" viewBox="0 0 500 500"><g id="freepik--Characters--inject-21"><g id="freepik--Vehicle--inject-21"><path d="M368.77,219.71c8.12,8.57,20.17,23.93-2.23,11.49s-134-65.12-134-65.12V223.3l111.88,62.37s20.89-15.29,31.28-26.31,7.15-24.78,7.15-24.78Z"></path><path d="M377.32,227.12h0l1,4.21c2.32,4.35,7.47,9.85,9.31,9.4,1.65-.41,2.66-2.81,3.18-5.77v0a31,31,0,0,0,.43-4.3c.16-4.66-1.92-15.54-8.4-18.43a3.33,3.33,0,0,0-3.83.86,7.63,7.63,0,0,0-1.88,3.09C376.06,219.41,377.17,226.94,377.32,227.12Z" style="fill:#263238"></path><path d="M378.33,231.33c2.32,4.35,7.47,9.85,9.31,9.4,1.65-.41,2.66-2.81,3.18-5.77v0a31,31,0,0,0,.43-4.3c.16-4.66-1.92-15.54-8.4-18.43a3.33,3.33,0,0,0-3.83.86l.88,2c4.53,1.93,5.75,8.92,5.33,14.24S380.92,234.07,378.33,231.33Z" style="fill:#455a64"></path><path d="M377.15,216.14c1.64-1.73,5.7-1.82,9.12,2.88s4.54,12.77,4.56,15.9a31.15,31.15,0,0,0,.43-4.3c.16-4.66-1.92-15.54-8.39-18.44C380.16,211,377.93,213.74,377.15,216.14Z" style="fill:#37474f"></path><path d="M117.3,203l103.75-59.9h0a24.12,24.12,0,0,1,12,19.23l2.82,32.11-103.76,59.9-14.82-8.55Z" style="fill:#37474f"></path><path d="M117.3,215.33l112.08-64.19a24,24,0,0,0-8.33-8L117.3,203Z" style="fill:#455a64"></path><path d="M117.3,245.82V203h0a24.14,24.14,0,0,1,12,19.23l2.81,32.11Z" style="fill:#263238"></path><polygon points="129.3 222.25 132.12 254.38 156.72 268.57 238.25 221.51 233.06 162.36 129.3 222.25" style="fill:#37474f"></polygon><polygon points="235.53 219.95 341.5 281.13 259.98 328.2 154 267.01 235.53 219.95"></polygon><g id="freepik--codriver-seat--inject-21"><path d="M275.3,269.56l11.8-.24,18-10.28a13.45,13.45,0,0,1,10.88-.53l21.78,9.82,14.92-.29v8.71h0c0,1-.69,2-2.1,2.8l-39.09,22.57a9.56,9.56,0,0,1-10.05-.8l-24.28-19.71a4.32,4.32,0,0,1-1.78-3.34l0,0Z" style="fill:#37474f"></path><path d="M350.53,270.84l-39.09,22.57a9.56,9.56,0,0,1-10.05-.8l-24.28-19.7c-2.62-2.13-2.37-5.22.56-6.9l27.39-15.69a13.49,13.49,0,0,1,10.88-.53l34.31,15.48C353.33,266.66,353.45,269.15,350.53,270.84Z" style="fill:#455a64"></path><path d="M275.29,269.57v8.69l0,0a4.28,4.28,0,0,0,1.79,3.33l24.27,19.71a8.9,8.9,0,0,0,4.75,1.81v-8.71a8.9,8.9,0,0,1-4.75-1.81L277.12,272.9A4.34,4.34,0,0,1,275.29,269.57Z" style="fill:#263238"></path><path d="M271.53,267a2.17,2.17,0,0,0,.83,2.07l9.95,5.75h0a2.09,2.09,0,0,1-.85-2.07l2.16-48.64a7.45,7.45,0,0,1,3.34-5.5L310.42,205a2.48,2.48,0,0,1,2.47-.2h0l-9.88-5.7h0a2.5,2.5,0,0,0-2.53.16L277,212.84a7.42,7.42,0,0,0-3.34,5.5Z" style="fill:#263238"></path><path d="M310.42,205,287,218.57a7.49,7.49,0,0,0-3.34,5.5l-2.16,48.66c-.09,2,1.26,2.84,3,1.83l33.39-19.28a5.84,5.84,0,0,0,2.64-5.47l-6.38-43A2.32,2.32,0,0,0,310.42,205Z" style="fill:#37474f"></path><path d="M274.72,215.22l9.93,5.74a6.94,6.94,0,0,1,2.31-2.38L310.42,205a2.48,2.48,0,0,1,2.47-.2h0l-9.88-5.7h0a2.5,2.5,0,0,0-2.53.16L277,212.84A6.94,6.94,0,0,0,274.72,215.22Z" style="fill:#455a64"></path><path d="M278.82,208.15V196c0-8.71,5.56-19,12.42-22.94,3.14-1.82,6-2,8.2-.79v0l7.57,4.4-3.36,6.43v10.69a7,7,0,0,1-3.18,5.5l-7.56,4.37-5.69,10.88-7.48-4.35h0A2.23,2.23,0,0,1,278.82,208.15Z" style="fill:#263238"></path><path d="M291.24,190.34l-9.74-5.62c2.27-5,5.79-9.34,9.74-11.62,3.14-1.82,6-2,8.2-.79v0l7.57,4.4-3.36,6.43v2.1Z" style="fill:#455a64"></path><path d="M286.27,212.49V200.38c0-8.71,5.56-19,12.42-22.95s12.42-.11,12.42,8.61v12.1a7,7,0,0,1-3.18,5.51l-18.48,10.67C287.69,215.33,286.27,214.51,286.27,212.49Z" style="fill:#37474f"></path><path d="M309.71,215.34a120.39,120.39,0,0,1,4.11,32.93,8.57,8.57,0,0,1-3,5.92A94,94,0,0,1,292.14,265a2.41,2.41,0,0,1-3.57-2.26,338.74,338.74,0,0,1-.11-35.71,9.13,9.13,0,0,1,3.2-5.89,73.76,73.76,0,0,1,13.64-7.88A3.17,3.17,0,0,1,309.71,215.34Z" style="fill:#263238"></path><path d="M288.83,263.81a3.23,3.23,0,0,1-.26-1.12,338.74,338.74,0,0,1-.11-35.71,8.43,8.43,0,0,1,1-3.23c1.3-1.85,1.75,13.73,1.75,23.22s-.13,18.89-1.69,17.79a.8.8,0,0,1-.17-.15A4.49,4.49,0,0,1,288.83,263.81Z" style="opacity:0.15"></path><g style="opacity:0.15"><path d="M311.64,247.47s-.28.16-.76.48-1.15.75-2,1.28c-1.62,1.05-3.79,2.42-6,3.68s-4.48,2.46-6.21,3.32c-.87.43-1.58.82-2.1,1.06s-.8.41-.8.41.33-.06.88-.19,1.35-.32,2.28-.63a32.57,32.57,0,0,0,3.13-1.18c.56-.26,1.14-.5,1.71-.81s1.15-.6,1.72-.92a36.42,36.42,0,0,0,3.22-2.09,30.21,30.21,0,0,0,2.6-2.1c.74-.64,1.3-1.25,1.7-1.65S311.64,247.47,311.64,247.47Z"></path><path d="M311.64,241.32l-.76.48c-.46.33-1.15.75-2,1.28-1.62,1.06-3.79,2.42-6,3.69s-4.48,2.45-6.21,3.31c-.87.43-1.58.82-2.1,1.06s-.8.41-.8.41.33-.06.88-.19,1.35-.32,2.28-.63a30.1,30.1,0,0,0,3.13-1.18c.56-.26,1.14-.5,1.71-.81s1.15-.6,1.72-.91c1.13-.67,2.23-1.37,3.22-2.09a32.2,32.2,0,0,0,2.6-2.11c.74-.64,1.3-1.25,1.7-1.65S311.64,241.32,311.64,241.32Z"></path><path d="M310.37,236.23s-.26.15-.7.44-1.08.68-1.82,1.17c-1.5,1-3.5,2.2-5.57,3.31s-4.19,2.13-5.8,2.91l-1.94,1c-.47.23-.74.38-.74.38l.82-.16c.51-.12,1.25-.27,2.11-.53a30.63,30.63,0,0,0,2.92-1c.52-.23,1.07-.43,1.6-.7s1.08-.52,1.61-.8,1.05-.6,1.56-.91,1-.66,1.45-1a25.41,25.41,0,0,0,2.4-2c.67-.6,1.19-1.16,1.55-1.54S310.37,236.23,310.37,236.23Z"></path><path d="M309.86,230.5s-.26.14-.68.42-1.05.65-1.77,1.12C306,233,304,234.15,302,235.2s-4.08,2-5.64,2.75l-1.88.93-.71.37s.29,0,.79-.15,1.21-.25,2.05-.49,1.81-.53,2.83-.92c.5-.21,1-.4,1.55-.65s1.05-.49,1.58-.76,1-.57,1.51-.87.95-.63,1.41-.94a23.48,23.48,0,0,0,2.32-1.88c.65-.58,1.14-1.13,1.49-1.49Z"></path><path d="M309,225l-.65.39-1.66,1a56,56,0,0,1-5.08,2.93c-1.89,1-3.87,1.8-5.35,2.49s-2.44,1.22-2.44,1.22a25.61,25.61,0,0,0,2.68-.56,28.89,28.89,0,0,0,5.66-2.06c.49-.26,1-.52,1.44-.8s.91-.59,1.34-.88A21.81,21.81,0,0,0,307.1,227,18.06,18.06,0,0,0,309,225Z"></path><path d="M307,219.76s-.85.48-2,1.23-2.78,1.7-4.43,2.54-3.32,1.66-4.59,2.3-2.1,1.12-2.1,1.12a17.39,17.39,0,0,0,2.35-.46,24.92,24.92,0,0,0,4.91-1.87c.42-.24.84-.47,1.25-.72s.78-.52,1.15-.78a16.06,16.06,0,0,0,1.89-1.58A15.66,15.66,0,0,0,307,219.76Z"></path></g><path d="M319.72,259.59c6.16,1.1,12.26,4.25,18.31,8.79a2.71,2.71,0,0,1,0,4.53,121.23,121.23,0,0,1-23.54,13.51,8.73,8.73,0,0,1-6.66-.18,58.31,58.31,0,0,1-14.07-10,3.13,3.13,0,0,1,.44-4.85,99.14,99.14,0,0,1,18.47-10.83A14.7,14.7,0,0,1,319.72,259.59Z" style="fill:#263238"></path><g style="opacity:0.2"><path d="M334.74,270.65s-.39.1-1.05.31-1.61.5-2.72.93a58.59,58.59,0,0,0-7.91,3.7,53.23,53.23,0,0,0-7.22,4.91,38,38,0,0,0-2.95,2.66l3.36-2.09c2-1.25,4.69-2.87,7.42-4.41s5.49-3,7.58-4.13l2.53-1.35Z"></path><path d="M328.86,267.27s-.38.1-1.05.31-1.61.5-2.72.93a57.32,57.32,0,0,0-7.9,3.7,52.61,52.61,0,0,0-7.22,4.91,37,37,0,0,0-3,2.65l3.35-2.08c2-1.25,4.69-2.88,7.42-4.42s5.5-3,7.59-4.12l2.53-1.35C328.52,267.47,328.86,267.27,328.86,267.27Z"></path><path d="M323.81,264.4s-.38.1-1,.31-1.62.5-2.73.93a58.52,58.52,0,0,0-7.9,3.7,52.61,52.61,0,0,0-7.22,4.91A37,37,0,0,0,302,276.9l3.35-2.08c2-1.25,4.69-2.87,7.42-4.41s5.5-3,7.59-4.13l2.53-1.35C323.47,264.6,323.81,264.4,323.81,264.4Z"></path><path d="M318.31,262.05s-.36.09-1,.27-1.48.45-2.5.84a51,51,0,0,0-7.27,3.38,47.26,47.26,0,0,0-6.62,4.52,35.15,35.15,0,0,0-2.69,2.46s.32-.18.86-.52l2.24-1.37c1.85-1.13,4.31-2.62,6.82-4s5-2.78,6.95-3.8l2.3-1.26C318,262.24,318.31,262.05,318.31,262.05Z"></path></g></g><g id="freepik--codriver-seat--inject-21"><path d="M221.4,301.16l11.81-.23,18-10.29a13.48,13.48,0,0,1,10.88-.53l21.77,9.83,14.92-.3v8.71h0c0,1-.69,2-2.11,2.8l-39.09,22.57a9.54,9.54,0,0,1-10-.8l-24.28-19.71a4.3,4.3,0,0,1-1.79-3.33l0,0Z" style="fill:#37474f"></path><path d="M296.63,302.45,257.54,325a9.54,9.54,0,0,1-10-.79l-24.28-19.71c-2.63-2.13-2.38-5.22.55-6.9l27.4-15.69a13.44,13.44,0,0,1,10.88-.52l34.3,15.47C299.43,298.26,299.55,300.76,296.63,302.45Z" style="fill:#455a64"></path><path d="M221.4,301.17v8.69l0,0a4.3,4.3,0,0,0,1.79,3.34l24.28,19.7a8.87,8.87,0,0,0,4.74,1.81V326a8.87,8.87,0,0,1-4.74-1.81l-24.28-19.71A4.34,4.34,0,0,1,221.4,301.17Z" style="fill:#263238"></path><path d="M217.63,298.59a2.16,2.16,0,0,0,.83,2.06l10,5.75h0a2.07,2.07,0,0,1-.86-2.07l2.16-48.64a7.45,7.45,0,0,1,3.34-5.5l23.46-13.54a2.5,2.5,0,0,1,2.47-.2h0l-9.88-5.7h0a2.53,2.53,0,0,0-2.53.16l-23.45,13.54a7.46,7.46,0,0,0-3.34,5.51Z" style="fill:#263238"></path><path d="M256.52,236.64l-23.46,13.54a7.45,7.45,0,0,0-3.34,5.5l-2.16,48.65c-.09,2,1.26,2.84,3,1.83L264,286.88a5.81,5.81,0,0,0,2.64-5.46l-6.38-43A2.32,2.32,0,0,0,256.52,236.64Z" style="fill:#37474f"></path><path d="M220.82,246.83l9.93,5.73a6.94,6.94,0,0,1,2.31-2.38l23.46-13.54a2.5,2.5,0,0,1,2.47-.2h0l-9.88-5.7h0a2.53,2.53,0,0,0-2.53.16l-23.45,13.54A7,7,0,0,0,220.82,246.83Z" style="fill:#455a64"></path><path d="M224.92,239.75v-12.1c0-8.72,5.56-19,12.42-23,3.15-1.82,6-2,8.2-.79h0l7.57,4.4-3.36,6.43v10.68a7,7,0,0,1-3.18,5.5L239,235.28l-5.68,10.89-7.49-4.36h0A2.23,2.23,0,0,1,224.92,239.75Z" style="fill:#263238"></path><path d="M237.34,221.94l-9.74-5.62c2.28-5,5.79-9.34,9.74-11.62,3.15-1.82,6-2,8.2-.79h0l7.57,4.4-3.36,6.43v2.1Z" style="fill:#455a64"></path><path d="M232.37,244.09V232c0-8.71,5.56-19,12.42-22.95s12.42-.1,12.42,8.61v12.11a7,7,0,0,1-3.18,5.5l-18.48,10.67C233.79,246.94,232.37,246.12,232.37,244.09Z" style="fill:#37474f"></path><path d="M255.81,246.94a120,120,0,0,1,4.11,32.93,8.49,8.49,0,0,1-3,5.92,94,94,0,0,1-18.69,10.76,2.4,2.4,0,0,1-3.56-2.26,335.87,335.87,0,0,1-.11-35.7,9,9,0,0,1,3.2-5.89,72.33,72.33,0,0,1,13.64-7.88A3.17,3.17,0,0,1,255.81,246.94Z" style="fill:#263238"></path><path d="M234.93,295.41a3.23,3.23,0,0,1-.25-1.12,335.87,335.87,0,0,1-.11-35.7,8.28,8.28,0,0,1,1-3.24c1.3-1.85,1.76,13.73,1.75,23.23s-.13,18.88-1.68,17.79l-.18-.15A5.81,5.81,0,0,1,234.93,295.41Z" style="opacity:0.15"></path><g style="opacity:0.15"><path d="M257.74,279.07l-.75.48c-.47.33-1.16.75-2,1.28-1.62,1.06-3.78,2.42-6,3.69s-4.49,2.45-6.22,3.32c-.87.43-1.58.81-2.1,1.05l-.79.41.88-.19c.55-.14,1.35-.32,2.28-.62a31.12,31.12,0,0,0,3.12-1.19c.56-.26,1.15-.5,1.71-.8s1.15-.61,1.72-.92c1.13-.67,2.24-1.37,3.22-2.09a32.08,32.08,0,0,0,2.61-2.11c.73-.64,1.29-1.24,1.69-1.65S257.74,279.07,257.74,279.07Z"></path><path d="M257.74,272.92l-.75.48c-.47.33-1.16.75-2,1.28-1.62,1.06-3.78,2.42-6,3.69s-4.49,2.45-6.22,3.32c-.87.43-1.58.81-2.1,1.05l-.79.41s.32,0,.88-.18,1.35-.32,2.28-.63a31.12,31.12,0,0,0,3.12-1.19c.56-.26,1.15-.5,1.71-.8s1.15-.61,1.72-.92c1.13-.67,2.24-1.37,3.22-2.09s1.88-1.44,2.61-2.1,1.29-1.25,1.69-1.65S257.74,272.92,257.74,272.92Z"></path><path d="M256.47,267.84l-.7.43c-.43.3-1.08.68-1.82,1.17-1.5,1-3.5,2.2-5.57,3.31s-4.19,2.13-5.8,2.91l-1.94,1c-.47.23-.73.38-.73.38s.3,0,.81-.16,1.25-.27,2.11-.52,1.87-.59,2.92-1c.52-.22,1.07-.43,1.6-.69s1.08-.53,1.62-.81,1.05-.59,1.55-.91,1-.66,1.45-1a25.41,25.41,0,0,0,2.4-1.95c.68-.6,1.19-1.16,1.55-1.54S256.47,267.84,256.47,267.84Z"></path><path d="M256,262.1s-.26.14-.68.42-1,.65-1.76,1.12c-1.45.93-3.38,2.12-5.39,3.16s-4.08,2-5.63,2.76l-1.88.92-.71.37s.29,0,.78-.14,1.21-.26,2.05-.5a27.77,27.77,0,0,0,2.83-.92c.51-.21,1-.4,1.56-.65s1.05-.49,1.57-.75,1-.57,1.51-.88,1-.63,1.41-.93a23.48,23.48,0,0,0,2.32-1.89c.65-.58,1.14-1.12,1.49-1.49S256,262.1,256,262.1Z"></path><path d="M255.08,256.63l-.64.39-1.67,1.05a54.72,54.72,0,0,1-5.08,2.92c-1.89,1-3.87,1.8-5.34,2.49s-2.44,1.23-2.44,1.23,1.09-.16,2.67-.57a28.66,28.66,0,0,0,5.66-2.06c.49-.26,1-.52,1.44-.8s.91-.59,1.34-.88a20.5,20.5,0,0,0,2.18-1.78A18.06,18.06,0,0,0,255.08,256.63Z"></path><path d="M253.05,251.36s-.84.48-2,1.23-2.78,1.7-4.42,2.55-3.33,1.65-4.6,2.29-2.09,1.13-2.09,1.13a18.73,18.73,0,0,0,2.34-.47,23.51,23.51,0,0,0,4.91-1.87c.42-.23.84-.47,1.25-.72a12.11,12.11,0,0,0,1.15-.77,17.1,17.1,0,0,0,1.89-1.59A14.52,14.52,0,0,0,253.05,251.36Z"></path></g><path d="M265.82,291.19c6.17,1.11,12.26,4.25,18.32,8.8a2.7,2.7,0,0,1,0,4.52A120.72,120.72,0,0,1,260.58,318a8.73,8.73,0,0,1-6.66-.18,58.43,58.43,0,0,1-14.07-10,3.14,3.14,0,0,1,.44-4.85,99.76,99.76,0,0,1,18.48-10.83A14.91,14.91,0,0,1,265.82,291.19Z" style="fill:#263238"></path><g style="opacity:0.2"><path d="M280.84,302.26s-.39.1-1,.3-1.61.51-2.72.93a56.94,56.94,0,0,0-7.9,3.71,53.7,53.7,0,0,0-7.23,4.9c-1.84,1.52-2.95,2.66-2.95,2.66l3.36-2.09c2-1.25,4.69-2.87,7.42-4.41s5.5-3,7.59-4.13l2.52-1.35C280.5,302.46,280.84,302.26,280.84,302.26Z"></path><path d="M275,298.87l-1.05.31c-.66.21-1.61.5-2.72.93a58,58,0,0,0-7.91,3.7,53.23,53.23,0,0,0-7.22,4.91,38,38,0,0,0-2.95,2.66l3.36-2.09c2-1.25,4.68-2.87,7.42-4.41s5.49-3,7.58-4.13L274,299.4Z"></path><path d="M269.92,296l-1.05.31c-.66.22-1.61.51-2.72.93a57,57,0,0,0-7.91,3.71,53.25,53.25,0,0,0-7.22,4.9c-1.84,1.52-3,2.66-3,2.66l3.36-2.09c2-1.25,4.69-2.87,7.42-4.41s5.49-3,7.58-4.13l2.53-1.35C269.57,296.21,269.92,296,269.92,296Z"></path><path d="M264.41,293.65l-1,.27c-.61.2-1.49.46-2.51.84a50.89,50.89,0,0,0-7.26,3.38,47.26,47.26,0,0,0-6.62,4.52c-1.69,1.41-2.7,2.46-2.7,2.46l.86-.51,2.24-1.37c1.85-1.14,4.31-2.62,6.82-4s5-2.79,7-3.81l2.31-1.26C264.1,293.84,264.41,293.65,264.41,293.65Z"></path></g></g><g id="freepik--Character--inject-21"><g id="freepik--Bottom--inject-21"><path d="M331.57,251.74c5.28,3.22,9.41,5.95,16.24,10.54,7.42,5,13.56,9.16,15.85,13.55,2,3.91,2,9.18-.53,15.57s-15.7,28.37-15.7,28.37l-8.77-8.38s2.46-14.25,4.11-18.18a10.8,10.8,0,0,1,2.51-4.07L321.37,280l-5.51-12.76C317.14,260.28,324.73,253.66,331.57,251.74Z" style="fill:#263238"></path><path d="M291.62,258.4a99.31,99.31,0,0,0,.73,14c.84,5.08,2.14,9.78,10.2,15.62,7.73,5.61,27.55,14.18,28.45,15.84.52,6.48,1.69,9.93,3.65,13.8,3.65,7.19,7.88,15.56,7.88,15.56,4.68.79,10.63-.67,13.17-3,0,0-2.14-11.47-3.79-19.12-2.82-13.1-3.05-19.43-5.83-22.55s-18-15.61-18-15.61,2.54-1.52,4.18-10.32c.78-4.22,0-11.05,0-11.05S306,261.62,291.62,258.4Z" style="fill:#263238"></path></g><g id="freepik--Top--inject-21"><path d="M319.13,208.77c5.42.87,7.84,3.93,13.5,12.19,5.8,8.47,7.05,10.47,7.05,10.47l20.54,5.4-1.29,8.06s-12.28-.1-16.9-.32-7.68.32-11.28-4.13c-3.41-4.2-10.2-13.49-10.2-13.49Z" style="fill:#BA68C8"></path><g id="freepik--Chest--inject-21"><path d="M308.42,208.77c-4.6.34-11.69,4.08-16.82,6.89-3.45,2.72-3.37,12.24-2.74,19.47,1.07,12.09,1.09,14.68,2.13,25.92.57,6.73.74,8.52.74,8.52,13.92,2.24,33.59-2.71,40.49-18,0,0-2.74-7.28-4.89-28.18-1.09-10.65-5.88-13.27-8.2-14.6C316.25,208.08,311.94,208.51,308.42,208.77Z" style="fill:#fafafa"></path></g><g id="freepik--Head--inject-21"><path d="M300.64,205.29c-.45-3-3.36-6.15-4.65-8.77s-2-4.49-1.79-6.84c.11-1.4,1-3.27,2.07-3.65a6.49,6.49,0,0,1,4.9-8,22.12,22.12,0,0,0,2.88-.74c1.13-.45,1.4-1.35,2.32-2.11,1.48-1.21,4.28-1.33,5.11.74a5.56,5.56,0,0,1,3.57-1,3.77,3.77,0,0,1,2.28.85,2.27,2.27,0,0,1,.75,2.23,4.46,4.46,0,0,1,4.36,1.57,3.89,3.89,0,0,1,.11,4.55,3,3,0,0,1-1.8,5.3c.3,0-.35,1.93-.45,2.08a4.34,4.34,0,0,1-1.76,1.53,30.8,30.8,0,0,1-7,1.75l-2.83.53c-.16,0-1,.07-1.12.21Z" style="fill:#263238"></path><path d="M297.1,201.37a2.89,2.89,0,0,0,3.52,0l-.12,10.5c2.39,3.68,7.85,4.17,10.71,3.5,3.7-.87,2.92-3.71,1.23-5.22l.11-1.71a23.9,23.9,0,0,0,3.12-.11c2.35-.28,4.66-2.7,5.27-4.65a24.79,24.79,0,0,0,.47-10,9.21,9.21,0,0,1-.09-2.46,11.45,11.45,0,0,0-.63-5.28c-2.53-2.11-9.26-2.72-14.87.55.58,3.31.05,5.7-2.37,6.92.09.89.16,3.14-1.3,3.07-1.06,0-1.1-1.37-2.16-2.56s-3.59-1.54-4.6.16A5.7,5.7,0,0,0,297.1,201.37Z" style="fill:#b16668"></path><path d="M312.55,208.4c-3.7-.51-6.51-1-8.39-3.68a16.27,16.27,0,0,1-1.86-4.28,13.86,13.86,0,0,0,1.19,5.38c.9,1.73,3.21,3.2,9,3.81Z" style="fill:#9a4a4d"></path><path d="M311.51,193.84a1.12,1.12,0,0,1-1.13,1.1,1.14,1.14,0,1,1,1.13-1.1Z" style="fill:#263238"></path><path d="M310.58,190.48l-2.22,1.25a1.33,1.33,0,0,1,.5-1.78A1.25,1.25,0,0,1,310.58,190.48Z" style="fill:#263238"></path><path d="M319.78,191l-2.38-1a1.22,1.22,0,0,1,1.63-.74A1.35,1.35,0,0,1,319.78,191Z" style="fill:#263238"></path><path d="M319.72,193.51a1.12,1.12,0,0,1-1.13,1.1,1.13,1.13,0,0,1-1.06-1.18,1.1,1.1,0,1,1,2.19.08Z" style="fill:#263238"></path><path d="M318.75,198.2l-3.66,1.53-1-7.13C315.47,192.14,317.14,195.45,318.75,198.2Z" style="fill:#9a4a4d"></path><path d="M310.47,200.62l4.34,1a2.2,2.2,0,0,1-2.64,1.74A2.33,2.33,0,0,1,310.47,200.62Z" style="fill:#9a4a4d"></path><path d="M311,201.35a2.45,2.45,0,0,0-.54,0,2.31,2.31,0,0,0,1.73,2,2,2,0,0,0,.72,0A2,2,0,0,0,311,201.35Z" style="fill:#ffa8a7"></path></g></g><path d="M280.16,277.68c-1-3.49-1.93-3.29,1.31-4.93,4.3-2.18,8.75-4.32,9.5-3.34s2.16,5.24,2.48,7-6.18,3.25-9,3.75C280.5,280.93,280.75,279.83,280.16,277.68Z" style="fill:#BA68C8"></path><path d="M318.31,208.4c2.3,11.28,4,46.63-29,62.25l2.33,5.79s20.5-3.3,31.56-9.71,12-14.15,12-14.15l-2.93-3s-4.05,13.38-33,20.45c15.74-9.09,29.17-31.88,23.14-61Z"></path><g id="freepik--arm-with-steering-wheel--inject-21"><path d="M364.9,243.81c-.55-4.07-2.39-7.18-5.34-8.88a9.9,9.9,0,0,0-5-1.33,15.63,15.63,0,0,0-7.74,2.33c-8.78,5.07-15.66,17-15.66,27.13v.16l5.54-3.17a25.64,25.64,0,0,1,1.31-4.94c.33-.85.68-1.7,1.1-2.54,2.38-5,6.18-9.63,10.36-12a10.23,10.23,0,0,1,5.09-1.6,4.85,4.85,0,0,1,2.38.58,4.52,4.52,0,0,1,1,.84,6.3,6.3,0,0,1,1.35,2.53,12.12,12.12,0,0,1,.49,3.63v.25Z" style="fill:#455a64"></path><path d="M353,250.66l-8.74,5-1,.61a5.67,5.67,0,0,1,.15-.69,11.26,11.26,0,0,1,1-2.57,10.35,10.35,0,0,1,3.76-4.13,3.74,3.74,0,0,1,3.31-.46A2.89,2.89,0,0,1,353,250.66Z" style="fill:#455a64"></path><path d="M361.54,240.08l-2.25,2.8-6.2,7.72-.08.11a.09.09,0,0,0,0-.05l-8.74,5-.89-.08-5.39-.49-2.4-.21.23-2.63,3.27.3,5.28.46,3.16.28,3.91-4.87,6.51-8.09,1.55-1.92Z" style="fill:#455a64"></path></g><path d="M363.46,239.07c.6,1.35.73,2-.51,3.34a7.49,7.49,0,0,1-3.34,1.81l-.32-1.34s-1.55,1.2-1.65,2.06c-.07.62.35,1,.27,1.37a2.59,2.59,0,0,0-.18,1.21l10.17-5.3s-.56-1.73-.94-2.6-2.14-3.11-3.21-3.47a5.81,5.81,0,0,0-2.56,0A10.48,10.48,0,0,1,363.46,239.07Z" style="fill:#9a4a4d"></path><path d="M320,256.29a10.1,10.1,0,0,0,4.58.34c1.2-.22,3.83-2.16,5.55-2.56s2.86-.69,2.86-.69l-.91,2.91a5.07,5.07,0,0,0,2.51.81c1.83.23,3.26-1.57,3.26-1.57l.62-1.58s.58.57,1.21,1.15a3.8,3.8,0,0,1,.8,1.94s-11.26,5.82-17.67,9.69c-1.75,0-3.55-.52-5-.64Z" style="fill:#b16668"></path><path d="M291.6,215.66c-7.71,4.54-7.87,8.41-6.9,18.45,1,10.6,2.73,20.83,3.75,23.73.52,1.45.59,3.67,5.45,4.61,6.87,1.32,24.2,4.09,24.2,4.09,2.82-2.33,3.7-6.65,2.52-10.52l-19.38-6.18-2-16.38S298.26,218.49,291.6,215.66Z" style="fill:#BA68C8"></path></g><g id="freepik--character--inject-21"><g id="freepik--bottom--inject-21"><path d="M303.35,303.75c-2.36-2.7-3.92-3.7-13.64-9.17-8.92-5-19.49-9.44-19.49-9.44l-9.27,13,10.75,8.19,15.8,7.6a20,20,0,0,0-3.2,6.35c-.38,1.25-3.55,15-3.55,15l8.69,8.1s9.05-18.18,12.92-27C306,308.22,304.23,304.76,303.35,303.75Z" style="fill:#ffa8a7"></path><path d="M272.89,279.61c2.68,2,5.56,3.48,12.59,7.75,6.32,3.84,16.61,10.34,18.91,14.72,2.05,3.92,1.53,7.76-1,14.15s-14.38,28.58-14.38,28.58l-8.77-8.38s2.46-14.25,4.11-18.18a10.8,10.8,0,0,1,2.51-4.07L263,305.08l-5.51-12.76C258.76,285.32,266.05,281.53,272.89,279.61Z" style="fill:#37474f"></path><path d="M289.05,344.81l-8.77-8.38s2.46-14.25,4.11-18.18a15.87,15.87,0,0,1,1.55-2.93c2.14,2.49,3.39,3.87,4.84,10.29.67,2.9,1.51,7.52,2.23,11.71C290.76,341.63,289.05,344.81,289.05,344.81Z" style="fill:#263238"></path><path d="M270.16,289.42c.56,5.3.58,9.35.58,9.35l13.94,14.57L263,305.08Z" style="fill:#263238"></path><path d="M283,291.77c3,1.62,10,7.12,11.56,8.43a35.6,35.6,0,0,1,4.63,4.39,9.9,9.9,0,0,1,1.35,2,3.67,3.67,0,0,1,.32,1.06,7.79,7.79,0,0,1,0,1.18,26.88,26.88,0,0,1-1.1,4.89c-.49,1.62-1.06,3.23-1.64,4.83-1.18,3.2-2.43,6.38-3.71,9.56a89.79,89.79,0,0,0,4.51-9.25c.67-1.58,1.27-3.19,1.82-4.83a25.34,25.34,0,0,0,1.18-5.11,8,8,0,0,0,0-1.38,4.17,4.17,0,0,0-.42-1.39,9.52,9.52,0,0,0-1.55-2.21,35.48,35.48,0,0,0-4.76-4.37C292.39,297.34,286.18,293,283,291.77Z" style="fill:#263238"></path><path d="M235.61,284a34.15,34.15,0,0,0-1.7,12.48c.43,4.67.86,9.95,10.26,16.57,7.81,5.5,27.55,14.18,28.44,15.84.53,6.48,1.7,9.93,3.66,13.81l7.88,15.55c4.68.79,8.9-.27,11.44-2.64,0,0-2.42-11.87-4.07-19.52-2.82-13.1-3.36-17.2-6.14-20.32s-3.74-4.1-3.74-4.1l-12.77-12.38a43.78,43.78,0,0,0,1.29-9.9,37.8,37.8,0,0,0-1.44-9.84S250,287.24,235.61,284Z" style="fill:#37474f"></path><path d="M243.57,300l-.11-.23c-2.85-3.77-2.39-7.61-1.79-12.63.1-.84.2-1.73.3-2.64a4.52,4.52,0,0,0,.53.06c-.09.92-.2,1.8-.3,2.65-.57,4.8-1,8.49,1.57,12.05,3.5-2.16,2.32-8,1.59-11.61q-.18-.88-.3-1.56l.53-.09c.07.44.18,1,.3,1.55.75,3.7,2,9.79-1.79,12.16a14.37,14.37,0,0,0,1.58,1.69c3.13,2.87,10.94,8.83,17.83,14.1,5.44,4.16,10.14,7.75,11.2,8.8,1.33,1.32,2.33,5.54,3.6,10.88,1,4.37,8.65,20.48,10.49,23.1l-.65,0c-1.93-2.79-9.32-18.61-10.36-23-1.2-5-2.23-9.4-3.46-10.62-1-1-5.72-4.61-11.15-8.76-6.89-5.27-14.71-11.24-17.86-14.12a15.66,15.66,0,0,1-1.7-1.82Z" style="fill:#263238"></path><path d="M251.56,287.18a17.72,17.72,0,0,0,.59,5.12,26.29,26.29,0,0,0,1.78,4.87,27,27,0,0,0,2.69,4.43,22.88,22.88,0,0,0,3.51,3.78c-1-1.41-1.93-2.81-2.81-4.25a48.69,48.69,0,0,1-2.42-4.42,41.15,41.15,0,0,1-2-4.65A42,42,0,0,1,251.56,287.18Z" style="fill:#263238"></path><path d="M250.37,287.3a16.62,16.62,0,0,0-.72,4.32,28,28,0,0,0,.14,4.39,29.89,29.89,0,0,0,.81,4.3,17.64,17.64,0,0,0,1.57,4.09c-.3-1.43-.53-2.84-.75-4.26s-.41-2.83-.56-4.26-.29-2.84-.38-4.26S250.36,288.76,250.37,287.3Z" style="fill:#263238"></path><path d="M273.83,309.74c1.95,2.21,4,4.36,5.89,6.56,1,1.11,1.89,2.23,2.72,3.41a14.5,14.5,0,0,1,2,3.74c.43,1.36.85,2.79,1.25,4.2l1.23,4.23q1.23,4.23,2.6,8.43c-.49-2.9-1.07-5.79-1.76-8.66s-1.41-5.7-2.31-8.54a14.55,14.55,0,0,0-2.2-4,33.69,33.69,0,0,0-2.93-3.37C278.25,313.63,276.05,311.68,273.83,309.74Z" style="fill:#263238"></path><path d="M295.18,353.82c-1.55,1.88-9,3.86-11.89,2.87l1.42,3.72s2,.74,6.47-.14,4.85-2.74,4.85-2.74Z" style="fill:#263238"></path><path d="M239.13,280.47c2.69,1.19,7.26,2.43,14.21,1.7s13.6-4.41,15.44-6.61l1.05,3.55s-5.2,5.51-16,6.82-15-2-15-2Z" style="fill:#455a64"></path></g><g id="freepik--top--inject-21"><path d="M259.72,242.41c6.92,1,9.08,2.51,12.23,9.58s7.11,25.34,7.11,25.34l13.65,14.6-19.27-11.67Z" style="fill:#ffa8a7"></path><path d="M236.62,274.82a23.26,23.26,0,0,0-2.06-7.66c-1.68-3.94-1.66-8.72-2.09-12.15-.65-5.09-.15-7.86,1.4-9a41.16,41.16,0,0,1,4.77-1.94c1.73-.4,4.55-1,8.07-1.65a45.44,45.44,0,0,1,13-.05,38.47,38.47,0,0,1,10,8.85c2.59,3.09,4.53,8.65.2,13.32.18,1,.79,1.16,1.21,8.26,1.42,2.86,2.86,4,2.34,7.42,0,0-5.09,8.17-17.46,9-13.95,1-18.73-3.78-20.22-4.71C233.83,283.3,236.89,277.6,236.62,274.82Z" style="fill:#f5f5f5"></path><path d="M235.76,284.56a1.37,1.37,0,0,1-.58-.75,3.14,3.14,0,0,1-.14-1,9.47,9.47,0,0,1,.21-1.91c.25-1.25.6-2.48.85-3.71a11.64,11.64,0,0,0,.26-1.84,11.85,11.85,0,0,0-.19-1.83,21.75,21.75,0,0,0-.9-3.64c-.19-.6-.4-1.19-.64-1.78s-.48-1.16-.7-1.78a21.06,21.06,0,0,1-.88-3.75c-.19-1.26-.29-2.53-.37-3.8s-.13-2.54-.21-3.8c.43,2.5.58,5.05,1.06,7.52a23.38,23.38,0,0,0,1,3.63c.21.58.46,1.16.71,1.75s.46,1.2.66,1.81a20.88,20.88,0,0,1,.89,3.75,12.42,12.42,0,0,1,.15,1.95,11,11,0,0,1-.33,1.92c-.32,1.24-.72,2.44-1,3.67a10.59,10.59,0,0,0-.35,1.85A1.91,1.91,0,0,0,235.76,284.56Z" style="fill:#e0e0e0"></path><path d="M263,266.28c.18-6.09-1.3-8.56-2.86-11.19-.25-.41-.5-.83-.75-1.27l-.58.33c.26.44.51.87.76,1.28,1.58,2.65,2.95,4.94,2.76,10.83-.14,4.84.92,13.85,1.92,21.12l.63-.27C263.87,279.9,262.83,271,263,266.28Z" style="fill:#e0e0e0"></path><path d="M258.75,266.19s-3.38,4.52-8.77,4.13a9.06,9.06,0,0,1-5.55-2.29.37.37,0,0,0-.55.49,7.83,7.83,0,0,0,6.55,3.28A8.41,8.41,0,0,0,258.75,266.19Z" style="fill:#e0e0e0"></path><path d="M246.26,206.83c2.13.83,3.07,1.53,4.8-.49a5,5,0,0,1,7,.72c.59.67,1.2,1.56,2.07,1.51.49,0,1.1-.38,2-.52a3.46,3.46,0,0,1,3.4,1.73,5.29,5.29,0,0,1,.07,2.38,2.11,2.11,0,0,0,.94,2,1.25,1.25,0,0,0,1.78-.8,1.93,1.93,0,0,1,0,2.73,3.51,3.51,0,0,1-2.76.87c1.81.21,3.49,2.17,2.69,4.08-.35.85-1.17,1.46-1.32,2.37-.19,1.12.71,2.09,1.05,3.17a3.34,3.34,0,0,1-1.45,3.77c-1,.57-2.28.5-3.26,1.11s-1.59,2-2.42,3c-4.11,4.54-7.09-1.51-11.28.77a9.94,9.94,0,0,0-1.53,1.23,8.14,8.14,0,0,1-.63.54,1.92,1.92,0,0,0-.53.45,1.64,1.64,0,0,1-1.21.73,4.78,4.78,0,0,1-1.41-.07,7,7,0,0,1-4.14-1.7,10.17,10.17,0,0,1-.93-1.23,4.5,4.5,0,0,0-2.24-1.84c-1.07-.31-2.29.06-3.26-.5a3.64,3.64,0,0,1-1.38-2.1,7.12,7.12,0,0,0-1-2.37,2.7,2.7,0,0,0-2.72-.91,4.45,4.45,0,0,1,1.54-2.61,19.19,19.19,0,0,1,1.72-1.09,2.65,2.65,0,0,0,.53-.42,2.83,2.83,0,0,0,.44-.59,4.37,4.37,0,0,0,.46-1.46,5,5,0,0,0,.06-.56c.07-1-.07-2.09,0-3.13a5.32,5.32,0,0,1,2.41-4.17c.64-.36,1.37-.53,2-.84a3.24,3.24,0,0,0,1.23-.91c.13-.18.25-.37.39-.55a2.12,2.12,0,0,0,.29-.56,7.65,7.65,0,0,1,1.05-2.26A4.9,4.9,0,0,1,246.26,206.83Z"></path><path d="M259.16,214.62a10.74,10.74,0,0,1,3,7.84c0,1,.53,2.62.57,5.49.1,7.45-1.11,9.22-4,10.35a9.71,9.71,0,0,1-4.46.55l-.15,3.8a15,15,0,0,1,5.28,12.11C246.64,249.57,242.33,243,242.33,243l.2-10.66s-1.07,1.19-3.2-.17c-1.73-1.11-2.66-4.3-1.16-6s3.48-1.28,4.14.58c.6,1.68,2.26,1.67,2.28-1.19s-.51-7.48,3.09-9.82C254.18,215.72,253.1,220.5,259.16,214.62Z" style="fill:#ffa8a7"></path><path d="M242.34,242.06V243s6.19,4.32,17.09,11.78c-4.45-.37-11.1-.19-13.56-1.68-.53-.32.71-3,.71-3l-8.81-5.75Z" style="fill:#e0e0e0"></path><path d="M259.42,254.76A6.75,6.75,0,0,0,261,250.5c0-.47-2.21-2.6-2.21-2.6l-.32-5.65-4.25-.77-.05,1.17A18.08,18.08,0,0,1,259.42,254.76Z" style="fill:#e0e0e0"></path><path d="M252.14,231l3.38,1.23a1.73,1.73,0,0,1-2.25,1.11A1.88,1.88,0,0,1,252.14,231Z" style="fill:#b16668"></path><polygon points="254.7 222.59 255.14 229.87 258.79 228.94 254.7 222.59" style="fill:#f28f8f"></polygon><path d="M252.32,225.28a1.16,1.16,0,1,1-1-1.27A1.15,1.15,0,0,1,252.32,225.28Z" style="fill:#263238"></path><path d="M260.47,224.5a1.16,1.16,0,1,1-.86-1.4A1.16,1.16,0,0,1,260.47,224.5Z" style="fill:#263238"></path><path d="M260.86,221.11l-2.85-.88a1.49,1.49,0,1,1,2.85.88Z" style="fill:#263238"></path><path d="M248.89,222.35l2.7-1.25a1.49,1.49,0,1,0-2.7,1.25Z" style="fill:#263238"></path><path d="M254.29,238.85c-2.61-.21-7.41-.69-10-4.47a8,8,0,0,0,2.64,3.78c2.5,1.58,7.36,1.88,7.36,1.88Z" style="fill:#f28f8f"></path><path d="M254.06,233.44a1.61,1.61,0,0,0-1.59-1.61,1.29,1.29,0,0,0-.39,0,1.87,1.87,0,0,0,1.19,1.48A1.67,1.67,0,0,0,254.06,233.44Z" style="fill:#f28f8f"></path><path d="M233.87,246.05c-5.25,2.41-7.69,3.65-9.6,15.38s-2.53,14.28-3,17.66c-.88,5.87-.64,7.42,3.43,11.05a104.16,104.16,0,0,0,9.37,7.22,24.48,24.48,0,0,1,3.83,3c1.27,1.32,3,2,4,3.6.38.6.65,1.27,1.07,1.85a11.57,11.57,0,0,0,2.72,2.34A21.74,21.74,0,0,1,251,314a7.48,7.48,0,0,0,2.56,2.68,1.36,1.36,0,0,0,.47.15c.56,0,.56-.49.54-.87a3.2,3.2,0,0,1,.7.38,1.33,1.33,0,0,0,.88.29,1.1,1.1,0,0,0,.8-1c.06-.45,0-.92.09-1.36a14.13,14.13,0,0,0,.56-2.33,6.64,6.64,0,0,0-.28-2.73c-1-2.71-1.87-5.25-4.09-7.32s-5.29-5-7.55-7S235.32,282,235.32,282l3.53-17.12S240.15,249.31,233.87,246.05Z" style="fill:#ffa8a7"></path></g><path d="M222.41,241.32c13.06,2.85,29.93,14.05,38.51,20.08S274.72,278,274.72,278l.57,3.37s-3,7.27-14.32,9.14a48.53,48.53,0,0,1-19.45-.45l-4.28-5.46s25.19,4.64,35-4.15c-4.88-7.17-22.11-23.48-49.82-34.13Z"></path></g><path d="M309.15,274.18c32.91-19.2,73.58-39.59,73.66-39.6l2.8,2.89a18.84,18.84,0,0,1,2.53,3.32c-1.13,7.25-4.84,13.77-7.52,18.28a105.78,105.78,0,0,1-26.42,29.76c-16.07,12.06-30,17.79-49.41,25.72-23.39,9.57-52.85,4-57.61-1.67C247.18,312.88,283,289.46,309.15,274.18Z" style="fill:#455a64"></path><path d="M247.18,312.88c1.35-.84,43.76-24.34,64.45-36.78C331.34,264.25,378,237,382.81,234.58c-4.18,1.32-40.75,20.4-73.66,39.6C283,289.46,258.54,304.42,247.18,312.88Z" style="fill:#37474f"></path><path d="M383.78,249.65a334.23,334.23,0,0,1-46.54,32.49C320,292.08,299,302,283.62,308.94a44.94,44.94,0,0,1-40.86-2.08l-11.59-6.7-17.79-65.1a33.39,33.39,0,0,0,5.31.25c13.17-.39,38.48-15,59.26-27s50.57-29.2,40.57-37.84l2.87,2.57c29.37,26.35,62.82,63.35,64.22,64.43.28.34.54.68.8,1A9.64,9.64,0,0,1,383.78,249.65Z" style="opacity:0.2"></path><path d="M318.52,170.47c9.07,6.21,57.87,56.87,60.44,60.09l-.57,1.25c-2-3.11-17.87-19.4-30.77-32.27-11.53-11.49-25.48-24.86-28.24-26.86Z"></path><path d="M123.38,231.28l107.79,68.88-17.79-65.1c-10.92-1.34-9.23-.9-26.47-10.85l-30.81-17.8a12.91,12.91,0,0,0-12.92,0l-19.57,11.29A7.91,7.91,0,0,0,123.38,231.28Z" style="opacity:0.5"></path><g style="opacity:0.2"><path d="M288.16,306.88c8.88-4,19.13-8.89,29.29-14.07-15.24-27.27-31-50.85-51.52-77.6-9.61,5.43-19.49,10.77-28.23,14.57C257.59,254.86,273.21,279.89,288.16,306.88Z" style="fill:#fff"></path><path d="M280.22,207,278,208.31l-6,3.45a670.56,670.56,0,0,1,50.79,78.32c2.94-1.54,5.85-3.1,8.69-4.67C315.25,258.75,296.87,228.8,280.22,207Z" style="fill:#fff"></path></g><g id="freepik--vehicle--inject-21"><polygon points="80.8 285.39 120.65 262.94 98.55 250.17 80.86 260.42 80.8 285.39" style="fill:#263238"></polygon><path d="M242.8,379v6l24.71-14.27,15.15-14.19-22.11-12.77-17.69,10.25v25Z" style="fill:#263238"></path><path d="M259.25,373.72l-5.72-11.35,13.6-7.87h0c4.33-2.48,10.09-2.2,16.41,1.45,13.43,7.75,24.32,27.76,24.32,44.67,0,8.86-3,15.11-7.76,17.95h0l-.19.11h0l-13.94,8.05-6-12C268.5,406,259.69,388.82,259.25,373.72Z" style="fill:#37474f"></path><path d="M259.25,373.72l-5.72-11.35,13.6-7.87h0c4.33-2.48,10.09-2.2,16.41,1.45,13.43,7.75,24.32,27.76,24.32,44.67,0,8.86-3,15.11-7.76,17.95h0l-.19.11h0l-13.94,8.05-6-12C268.5,406,259.69,388.82,259.25,373.72Z" style="fill:#263238"></path><path d="M245.07,380.71c0,14.58,8.1,31.47,18.94,40.81l.05,0a34.92,34.92,0,0,0,5.33,3.82c13.43,7.76,24.33.33,24.32-16.59,0-12.78-6.22-27.33-15-37a.29.29,0,0,1-.07-.08,39.29,39.29,0,0,0-9.2-7.57C256,356.37,245.07,363.79,245.07,380.71Z" style="fill:#37474f"></path><path d="M269.39,374.33c-8.55-4.94-15.48.21-15.48,11.49s6.93,24.42,15.48,29.35,15.48-.2,15.48-11.48S277.94,379.26,269.39,374.33Z" style="fill:#455a64"></path><path d="M262.4,391.63c.58,5.61,4.2,11.56,8.05,13.28a3.76,3.76,0,0,0,4.21-.36c1.36-1.16,2-3.53,1.72-6.68-.59-5.61-4.19-11.56-8.05-13.27a4.32,4.32,0,0,0-2.83-.38s0,0,0,0C263.27,384.78,262,387.55,262.4,391.63Z" style="fill:#fafafa"></path><path d="M263.78,390.91c.58,5.6,4.2,11.55,8.05,13.27a4.36,4.36,0,0,0,2.83.37c1.36-1.16,2-3.53,1.72-6.68-.59-5.61-4.19-11.56-8.05-13.27a4.32,4.32,0,0,0-2.83-.38s0,0,0,0C264.14,385.39,263.45,387.77,263.78,390.91Z" style="fill:#e0e0e0"></path><path d="M245.07,380.71c0,14.58,8.1,31.47,18.94,40.81-6.42-7-13.07-18.69-15.42-29.85-2.06-9.75-1.29-23.75,7.08-27.29s19.42,3.92,22.92,7.31a39.29,39.29,0,0,0-9.2-7.57C256,356.37,245.07,363.79,245.07,380.71Z" style="fill:#455a64"></path><path d="M97.24,280.2l-5.71-11.35,13.6-7.87h0c4.32-2.49,10.08-2.2,16.41,1.45,13.43,7.75,24.31,27.75,24.32,44.67,0,8.86-3,15.11-7.76,17.95l-14.16,8.18-6-12C106.5,312.52,97.69,295.29,97.24,280.2Z" style="fill:#37474f"></path><path d="M97.24,280.2l-5.71-11.35,13.6-7.87h0c4.32-2.49,10.08-2.2,16.41,1.45,13.43,7.75,24.31,27.75,24.32,44.67,0,8.86-3,15.11-7.76,17.95l-14.16,8.18-6-12C106.5,312.52,97.69,295.29,97.24,280.2Z" style="fill:#263238"></path><path d="M83.07,287.19c0,14.58,8.1,31.46,18.94,40.8l0,.05a36.22,36.22,0,0,0,5.34,3.82c13.43,7.76,24.33.33,24.31-16.59,0-12.78-6.21-27.33-15-37l-.08-.08a39.24,39.24,0,0,0-9.19-7.57C94,262.85,83.07,270.27,83.07,287.19Z" style="fill:#37474f"></path><path d="M107.39,280.81c-8.55-4.94-15.48.2-15.48,11.48s6.93,24.43,15.48,29.36,15.47-.21,15.47-11.49S115.93,285.74,107.39,280.81Z" style="fill:#455a64"></path><path d="M100.39,298.11c.59,5.61,4.2,11.55,8.06,13.27a3.76,3.76,0,0,0,4.21-.35c1.36-1.16,2-3.53,1.72-6.68-.59-5.61-4.19-11.56-8.06-13.28a4.3,4.3,0,0,0-2.83-.37h0C101.26,291.25,100,294,100.39,298.11Z" style="fill:#fafafa"></path><path d="M101.77,297.38c.59,5.61,4.2,11.56,8.06,13.28a4.36,4.36,0,0,0,2.83.37c1.36-1.16,2-3.53,1.72-6.68-.59-5.61-4.19-11.56-8.06-13.28a4.3,4.3,0,0,0-2.83-.37h0C102.14,291.87,101.44,294.24,101.77,297.38Z" style="fill:#e0e0e0"></path><path d="M83.07,287.19c0,14.58,8.1,31.46,18.94,40.8a69,69,0,0,1-15.43-29.84c-2-9.76-1.28-23.76,7.09-27.29s19.42,3.92,22.91,7.31a39.24,39.24,0,0,0-9.19-7.57C94,262.85,83.07,270.27,83.07,287.19Z" style="fill:#455a64"></path><path d="M434.57,313.16c-8.25,9.39-18.14,16.65-28.94,22.89-62.41,36-90.78,19.64-143.92-11.05-51.52-29.75-108.89-73.73-113.56-77.1l63.92,40.35a8.81,8.81,0,0,0,13.16-9.8l-11.86-43.38c-2.57-8.78-6.78-10.74-12.74-14.17-11.46-6.56-31.12-17-61.39-34.51-26.16-15.08-38.62-22-41.56-28.73v-.32c0-.27,0-.53,0-.8,0-.6,0-1.19.07-1.83.46-5.33,3.64-11.77,37-31.93,18.86-11.38,35.31-16.93,50.29-16.93s27.87,5.33,42.53,13.34c18.43,10,80.83,42.54,90.95,51.28S298.75,196.31,278,208.31s-46.09,26.61-59.26,27a33.39,33.39,0,0,1-5.31-.25l17.79,65.1,11.59,6.7a44.94,44.94,0,0,0,40.86,2.08C299,302,320,292.08,337.24,282.14a334.23,334.23,0,0,0,46.54-32.49,9.64,9.64,0,0,0,2.63-11.16c-.26-.34-.52-.68-.8-1,5.18,4,17.49,12.12,19,13.17,10.67,7.45,21.7,16,28.26,27.55C438.42,287.93,442.67,303.92,434.57,313.16Z" style="fill:#455a64"></path><path d="M452.48,350.26c-4.66,17.71-26.09,35.14-42,44.13-24,13.58-50,24.42-77.7,22-10.22-.89-20.41-3.26-29-9.05-4.14-2.79-4.34-4.68-5.66-9.44a71.25,71.25,0,0,0-6.29-15.38c-4.59-8.37-10.76-15.73-17.59-20.47q-1.35-.94-2.73-1.74c-14.8-8.56-27-1.66-28.57,15.32-.09,1.07-.16,2.17-.16,3.33L138.41,318.66s0-1.27-.48-5.2a68.34,68.34,0,0,0-1.27-7.12A72.67,72.67,0,0,0,129.85,289c-4.61-8.37-10.76-15.71-17.6-20.47-.9-.63-1.82-1.2-2.73-1.71-14.81-8.56-27-1.69-28.56,15.29a31.86,31.86,0,0,0-.16,3.3L74.91,282c-14.08-8.14-14.32-22-14.2-32.12v0c.08-1.8.15-3.85.21-6l0-.88c.14-5.1.29-11,.58-16.83.11-2,.22-4,.37-6,.07-.91.14-1.81.21-2.69.2-2.26.43-4.41.7-6.41,1.07-7.76,2.73-11.13,4.57-13.08a16.59,16.59,0,0,1,3.24-2.5A27.1,27.1,0,0,1,73,194c.68-.36,1.34-.69,1.94-1-.71,1.19-1.27,2.14-1.63,2.77l9.5,9c6.07,5.72,15.39,6.37,23,2.93a22.4,22.4,0,0,0,2.07-1.06l18.53-10.7a4.09,4.09,0,0,0,.2-7l-2.85-1.9-1.29-.88-1.32-.91c-4.48-3.07-8.15-5.76-13-9.1-9.2-6.37-10.43-9.52-10.57-14.34,0-1.11,0-2.31,0-3.65s0-2.34.07-3.53c.18,7.81,11.39,14.38,41.54,31.77s49.91,28,61.38,34.51c6,3.44,10.18,5.38,12.75,14.16-10.92-1.33-9.23-.9-26.47-10.85L156.1,206.42a12.89,12.89,0,0,0-12.92,0l-19.57,11.29a7.91,7.91,0,0,0-.23,13.56l106.77,68.23-82-51.6c4.67,3.36,62,47.35,113.56,77.09,53.14,30.69,81.51,47.07,143.92,11.05,6.22-3.59,12.15-7.19,16.91-12.54a33.06,33.06,0,0,0,7.76-18.39c.89-7.92-.46-15.93-2.43-23.66-1.58-6.17-4-13.43-7.66-18.63a139.39,139.39,0,0,1,17.27,15.94c.73.81,1.43,1.63,2.11,2.47a64.32,64.32,0,0,1,13.56,29.33C455.73,324.85,456.57,334.71,452.48,350.26Z" style="fill:#37474f"></path><path d="M234.66,144.35c7.35,4.1,14.7,8.18,22.14,12.1-7.12-4.47-14.33-8.8-21.55-13.11S224,136.72,216.7,132.63l-11-6.12c-3.71-2-7.38-4-11.11-6,3.55,2.25,7.16,4.42,10.73,6.63l10.81,6.49C223.33,138,227.32,140.26,234.66,144.35Zm-102.48,12.2c3.55,2.25,7.15,4.42,10.73,6.63l10.81,6.49c7.22,4.31,11.21,6.61,18.55,10.71s14.69,8.17,22.13,12.1c-7.12-4.48-14.32-8.81-21.54-13.12s-11.21-6.61-18.55-10.71l-11-6.12C139.58,160.54,135.9,158.5,132.18,156.55ZM216,155.16c7.34,4.1,14.69,8.17,22.13,12.1-7.12-4.48-14.33-8.81-21.55-13.12s-11.2-6.61-18.54-10.71l-11-6.11c-3.7-2-7.38-4-11.11-6,3.55,2.25,7.16,4.42,10.73,6.63l10.81,6.49C204.61,148.77,208.6,151.07,216,155.16Zm-25,14.41c7.34,4.1,14.69,8.17,22.13,12.1-7.12-4.48-14.33-8.81-21.54-13.12s-11.21-6.61-18.55-10.71l-11-6.12c-3.7-2-7.38-4-11.11-6,3.56,2.25,7.16,4.41,10.74,6.63l10.81,6.49C179.65,163.17,183.65,165.48,191,169.57Z" style="fill:#263238"></path><path d="M314.41,303.5a180.2,180.2,0,0,1,17.36,8.4c5.63,3.09,11.18,6.33,16.48,10a104.87,104.87,0,0,1,11.54,8.32c5.07,4,9.8,8.32,14.55,12.67L371,339.32c-1.11-1.17-2.21-2.36-3.39-3.45-2.35-2.22-4.69-4.44-7.18-6.51A90.93,90.93,0,0,0,349,320.71,166.44,166.44,0,0,0,332.26,311c-2.88-1.45-5.82-2.81-8.77-4.1S317.5,304.44,314.41,303.5Z" style="fill:#37474f"></path><path d="M362.28,273.19c5.19,3.54,10.21,7.3,15.12,11.19s9.75,7.87,14.38,12.1,5.45,4.64,9.85,9.1,8.65,9.07,12.89,13.71c-1.92-2.48-3.84-5-5.87-7.38s-4.1-4.77-6.26-7.06a110.38,110.38,0,0,0-9.7-9.4c-4.72-4.17-9.59-8.17-14.65-11.91-2.53-1.87-5.11-3.67-7.71-5.43S365,274.7,362.28,273.19Z" style="fill:#37474f"></path><path d="M126.44,195.89l-18.53,10.7c-7.93,4.58-18.44,4.38-25.07-1.87l-9.5-9c2.63-4.54,15.36-25.88,24.33-34,0,3.65,1.61,7.21,5.75,10.44,6.35,4.95,15.86,11.86,23.22,16.72A4.09,4.09,0,0,1,126.44,195.89Z"></path><path d="M251.67,325.16l8.83,5.59a1.41,1.41,0,0,1,.64,1.12l.2,4.37A.86.86,0,0,1,260,337l-8.8-5.49a1.42,1.42,0,0,1-.66-1.13l-.21-4.46A.86.86,0,0,1,251.67,325.16Z" style="fill:#BA68C8"></path><path d="M138.42,318.66v6L242.8,384.92v-6Z" style="fill:#37474f"></path><g style="opacity:0.2"><path d="M170.29,334.2h0a.57.57,0,0,0,.54-.61c0-.38-2.08-38.85-1-66.13a.58.58,0,0,0-.55-.6h0a.57.57,0,0,0-.57.55c-1.12,27.34.94,65.86,1,66.25A.58.58,0,0,0,170.29,334.2Z"></path></g><path d="M111.81,255.22c8,3,14.87,8.62,20.4,15a70.6,70.6,0,0,1,12.9,22.48c1.64,4.6,3.26,9.61,3.36,14.53,0,.45-.74.86-.92.32-.72-2.15-1.19-4.37-1.76-6.56s-1.2-4.24-1.91-6.33a77,77,0,0,0-5.37-12.15,65.75,65.75,0,0,0-15.74-19.06,83.94,83.94,0,0,0-11.24-7.6C111.25,255.72,111.49,255.1,111.81,255.22Z" style="opacity:0.2"></path><path d="M218.69,235.31a27,27,0,0,0,4.29-.53c-.84,3,.15,6.92,2,14.06,3,11.94,11.9,41,14.34,48.79s9.78,12,15.14,13.9a44.92,44.92,0,0,1-11.65-4.68l-11.59-6.69-17.79-65.1A33.39,33.39,0,0,0,218.69,235.31Z"></path><path d="M177.22,266l-10.45-6.52,5.71-43.62,7.33,4.23Z"></path><path d="M65.67,217.37a14.14,14.14,0,0,1-3.56,0c.2-2.26.43-4.41.7-6.41,1.07-7.76,2.73-11.13,4.57-13.08a1.85,1.85,0,0,0,.25.24c2.8,2.47,6.6,6.65,8.28,10.27a7.59,7.59,0,0,1,.64,2.11C77.26,215.77,69.3,216.94,65.67,217.37Z" style="fill:#BA68C8"></path><path d="M421.67,318.9a308.08,308.08,0,0,1-55.27,31.8c-2.88,1.3-4.32,4.76-2.46,7.31a34,34,0,0,0,10.46,9.24c2.77,1.51,7.79,1,10.74-.08q24.9-9.46,41.51-23.72c2.4-2.06,5.2-6.25,5.3-9.41.15-4.5-.53-10.56-2.07-14.52C428.73,316.58,424.22,317,421.67,318.9Z" style="fill:#263238"></path><path d="M379.1,364.77a14.62,14.62,0,0,0,4.82-.81c16.16-6.14,29.79-13.92,40.5-23.12,2.05-1.76,4-5.12,4.1-6.91a37.92,37.92,0,0,0-1.79-13c-.55-1.12-2.36.27-3,.76a312.67,312.67,0,0,1-55.88,32.16,2.22,2.22,0,0,0-1.24,1.37.83.83,0,0,0,.13.79,30.35,30.35,0,0,0,9.34,8.25A7,7,0,0,0,379.1,364.77Z"></path><path d="M405.77,355.44l3.34-.8a86.42,86.42,0,0,0-7.93-19.93l-3,1.7A84.43,84.43,0,0,1,405.77,355.44Z" style="fill:#263238"></path><path d="M404.7,344.11A248.19,248.19,0,0,1,370.53,361l.19.54A249,249,0,0,0,405,344.6c13.25-8.13,23.63-15.94,23.73-16l-.34-.46C428.28,328.2,417.92,336,404.7,344.11Zm1.16,1.93a238.18,238.18,0,0,1-33.62,16.55l.19.54a240,240,0,0,0,33.73-16.61c13.25-8.12,22.72-15.39,22.81-15.47l-.35-.45C428.53,330.67,419.09,337.93,405.86,346Zm2.33,3.85a218.86,218.86,0,0,1-32.53,15.92l.19.54a220.13,220.13,0,0,0,32.64-16,215.8,215.8,0,0,0,21-14.38l-.36-.45A212.33,212.33,0,0,1,408.19,349.89ZM407,348A227.89,227.89,0,0,1,374,364.2l.19.54a229.78,229.78,0,0,0,33.18-16.29,254.22,254.22,0,0,0,21.9-14.92l-.36-.45A248.14,248.14,0,0,1,407,348Zm-3.49-5.78a264,264,0,0,1-34.71,17.19l.19.54a265.41,265.41,0,0,0,34.82-17.24c13.25-8.12,24.55-16.48,24.66-16.56l-.34-.46C428,325.73,416.76,334.07,403.53,342.18Zm-38.13,14,.19.54a284.76,284.76,0,0,0,35.91-17.86c13.25-8.13,26.37-17.57,26.51-17.66l-.34-.46c-.13.09-13.24,9.52-26.47,17.63A284,284,0,0,1,365.4,356.14Zm37-15.89a275.43,275.43,0,0,1-35.26,17.51l.19.54a278.29,278.29,0,0,0,35.37-17.56c13.25-8.12,25.46-17,25.58-17.11l-.34-.46C427.79,323.26,415.6,332.15,402.37,340.25Z" style="fill:#263238"></path><path d="M409.26,365c-17.72,9.23-40.73,22-66.08,21.58s-48.53-17.22-48.53-17.22A82.14,82.14,0,0,0,343,390.08c29.71,2.15,48.67-10.09,66.88-19.91C428.8,360,445,340.06,447.71,328.12,443.94,337.4,427,355.78,409.26,365Z" style="fill:#263238"></path><path d="M376.19,402.27c16.27-4.88,27.91-11.92,39.26-19.36s18.65-14.23,22.74-19.9c3.86-5.35,6-12.17,3.49-11.11-4.13,3.92-13.07,12.25-18.84,16.12-17.27,11.63-35.51,25.88-64.52,27.75a23.86,23.86,0,0,0-5.56.69C345.77,398.91,365.13,405.59,376.19,402.27Z" style="fill:#263238"></path><path d="M315,389.86c1.62-.27,5.69.71,12.6,2.51s8.59,1.93,11.18,3.62c2.19,1.43,8.06,6,10.88,7.33,4.46,2.15.05,3.9-12.22,4.24s-16.57-3.25-19.5-7S311.32,390.47,315,389.86Z" style="fill:#37474f"></path><path d="M450.29,347.17a12.47,12.47,0,0,1-4.09,2.39c-2.1-.08-.4-3.75,1-9.18s5.69-11.18,7-15.22A83.77,83.77,0,0,1,450.29,347.17Z" style="fill:#37474f"></path><path d="M348.67,360.44c3.59.16,7,.69,10.25,3s9.07,7.9,5.35,12.21c-1.53,1.77-3.93,2.51-6.23,3a42,42,0,0,1-23-2.13,34.71,34.71,0,0,1-12.81-8.13,9,9,0,0,1-2.41-3.66,3.82,3.82,0,0,1,1.08-4c1.28-1,3.35-1,4.87-.93l12.12.51C341.5,360.38,345.08,360.28,348.67,360.44Z" style="fill:#fafafa"></path><path d="M335.83,376.75a21.45,21.45,0,0,1-.07-16.06c.07-.18.16-.36.24-.54l-10.22-.43c-1.52-.07-3.59,0-4.87.93a3.82,3.82,0,0,0-1.08,4,9,9,0,0,0,2.41,3.66,34.71,34.71,0,0,0,12.81,8.13Z" style="fill:#BA68C8"></path><path d="M435.1,306.31a42.52,42.52,0,0,0,2.7,19.79,2.62,2.62,0,0,0,.68,1.07c3.28,2.6,7.38-12.19,7.6-13.85.79-6-1.08-14.91-4.09-21.19-1.27-2.66-2.81-3.72-3.95-.5a61.26,61.26,0,0,0-2.34,10C435.44,303.17,435.24,304.74,435.1,306.31Z" style="fill:#fafafa"></path><path d="M442,292.13c-1.28-2.66-2.82-3.72-4-.5a42.38,42.38,0,0,0-1.41,5.12,20.43,20.43,0,0,1,8.29,8.44c.46.88.85,1.8,1.25,2.72A46.92,46.92,0,0,0,442,292.13Z" style="fill:#BA68C8"></path><path d="M214.29,305.55c2.08,9.91,13.06,12,21.28,11.76,4.36-.13,7.94-.93,9-1.55,3.17-1.84,1.71-5.64,0-7.84-2.88-3.73-15.8-11.22-23.92-11.48C216,296.28,212.84,298.6,214.29,305.55Z" style="fill:#263238"></path><path d="M214.29,305.55c2.08,9.91,13.06,12,21.28,11.76,4.36-.13,7.94-.93,9-1.55,3.17-1.84,1.71-5.64,0-7.84,1.6,3-6.87,4.89-14.41,2.19s-13.17-8.55-9.51-13.67C216,296.28,212.84,298.6,214.29,305.55Z" style="fill:#455a64"></path><path d="M214.29,305.55c2.08,9.91,13.06,12,21.28,11.76-8.18-.24-14.71-4.95-17.17-10.1s-.59-10.11,2.3-10.77C216,296.28,212.84,298.6,214.29,305.55Z" style="fill:#37474f"></path><path d="M66.42,282.49l8.47,4.88V270.8c-12.25-7.07-10.6-5.43-13.83-9.89a10.89,10.89,0,0,1-2.2-5.22C58.86,270.54,59.68,278.6,66.42,282.49Z" style="fill:#263238"></path><path d="M58.86,255.69a10.89,10.89,0,0,0,2.2,5.22c3.23,4.46,1.58,2.82,13.83,9.89L79.57,268s-1.88-1.18-9.14-5.34-9-7.32-9.44-10a12.17,12.17,0,0,1-.27-2.81C59.16,251.1,58.86,252.82,58.86,255.69Z" style="fill:#455a64"></path><polygon points="79.57 268.04 79.57 284.67 74.89 287.37 74.89 270.8 79.57 268.04" style="fill:#37474f"></polygon></g></g></g></svg>