<svg xmlns="http://www.w3.org/2000/svg" viewBox="0 0 500 500"><g id="freepik--Floor--inject-247"><path id="freepik--Buildings--inject-247" d="M463.74,211.59l-8.26,4.76V196.7l-4.13-2.39-8.26,4.77v3.69l-8.26,4.77V187l-8.26-4.77L418.31,187v2.06l-8.26,4.77V168l-8.26-4.77L393.53,168V154.55l-8.26-4.77-12.39,7.16v4.77l-8.26,4.76v3.92l-8.26-4.77V149s-8.11-4.53-8.26-4.53-8.26,4.53-8.26,4.53v7.09l-8.26-4.77-8.26,4.77v9.53l-8.26,4.77V146.21l-4.12-2.38-4.13,2.38v9.54l-4.13-2.38-8.26,4.76v-7.26l-4.13-2.38L282,153.26v12l-4.13-2.39v-4.77l-8.26-4.76-8.26,4.76v-4.77L249,146.21,240.73,151v-9.54l-8.26-4.77-8.26,4.77V154.7l-4.13,2.38v-9.54l-8.26-4.76-8.26,4.76v14.31l-12.39-7.15v-9.54l-8.26-4.77-8.26,4.77v14.31l-4.13-2.39-8.25,4.77v5.82L154,172.44v-8.89l-8.26-4.76-12.39,7.15v-7.66l-8.26-4.77-12.39,7.15v15.48L100.32,169,83.8,178.53v-7.81L75.54,166l-8.26,4.77v14.33L59,189.82v8.11l-12.39,7.15V199.9l-8.26-4.77-11.78,6.81V304.47H473.41v-87.3Z" style="fill:#f5f5f5"></path><g id="freepik--floor--inject-247"><g id="freepik--floor--inject-247"><path d="M86.54,423.79c-90.27-52.12-90.27-136.62,0-188.74s236.64-52.13,326.92,0,90.27,136.62,0,188.74S176.82,475.91,86.54,423.79Z" style="fill:#FF81AE"></path><path d="M86.54,423.79c-90.27-52.12-90.27-136.62,0-188.74s236.64-52.13,326.92,0,90.27,136.62,0,188.74S176.82,475.91,86.54,423.79Z" style="fill:#fff;opacity:0.7000000000000001"></path></g></g><g id="freepik--Road--inject-247"><path d="M91.89,232.07,418.62,420.71c19.44-12,34.35-25.49,44.73-39.84L160.89,206.24C136,212.23,112.6,220.84,91.89,232.07Z" style="fill:#fafafa"></path><path d="M462.76,381.68c.4-.54.79-1.08,1.18-1.63L162.3,205.9l-2.82.68,11.34,6.55L116,244.81l-23-13.3-2.07,1.11L417.66,421.31l1.92-1.2-25.42-14.68L449,373.76ZM310.92,294,378,332.73l-54.87,31.68L256.06,325.7Zm-56.86,30.52L187,285.83l54.87-31.68,67.05,38.71ZM172.82,214.28,239.87,253,185,284.67,118,246Zm219.34,190-67.05-38.71L380,333.89l67,38.71Z" style="fill:#f0f0f0"></path></g></g><g id="freepik--Sun--inject-247"><circle id="freepik--sun--inject-247" cx="384.56" cy="48.77" r="15.12" transform="translate(78.15 286.21) rotate(-45)" style="fill:#ffbda7"></circle></g><g id="freepik--Clouds--inject-247"><path id="freepik--Cloud--inject-247" d="M168.88,38.16c1.78,1.19,4.34,1.06,6.55.72,2.6-.39,5.54-.81,7.6.81a21.93,21.93,0,0,1,2.58,3.08c2.41,2.76,6.91.69,8.95,4.47.29.55.31,2.32,1,2.49s2.22-1,3-1.13a25.52,25.52,0,0,1,7.4.25,8.57,8.57,0,0,1,5.7,3.32c.66.91,1.26,2,2.38,2.29a3.58,3.58,0,0,0,1.9-.27,22.56,22.56,0,0,1,6.57-1.6c2.27,0,4.73.93,5.67,2.92.13.29.28.62.59.69s.59-.18.82-.39a6.84,6.84,0,0,1,6-1.55,3.3,3.3,0,0,1,1.82,1c.64.76.66,1.88,1.29,2.65,1.1,1.34,3.25.92,4.95.45,2.26-.62,4.89-1,6.77.33.51.37.93.84,1.46,1.18,1.43.92,3.31.62,5,.46,1.12-.1,14.31.3,14.13,1.41s-3.5.89-4.24,1c-1.11.1-2.18.34-3.29.38a9.11,9.11,0,0,0-3.34.25c-.68.3-1.12.89-1.87,1.12a8.64,8.64,0,0,1-5.29-.37c-2-.66-4.07-1.77-6.21-1.68A9.58,9.58,0,0,0,244,63.45a10.24,10.24,0,0,1-5.93.11c-1.12-.28-2.88-1.08-4.1-.77-.69.19-1.43.88-2.14,1.13a14.34,14.34,0,0,1-2.88.74c-3.52.5-7-1.41-10.31-2.23-4.24-1-6.59-.1-9.74,2.4a10.19,10.19,0,0,1-9.56,1.52,27.54,27.54,0,0,0-2.86-1.09c-2.29-.54-5.31-.56-7.4.58a17.78,17.78,0,0,1-4.21,2.09c-5,1.18-9.81-4.66-14.72-3.17-2.13.64-3.77,2.29-5.79,3.07a9.65,9.65,0,0,1-6.32-.19c-2.86-.92-5.6-2.47-8.61-2.49-2.09,0-4.12.73-6.22.76s-4.48-1-4.89-3.06A11.94,11.94,0,0,1,127,64.2a10.18,10.18,0,0,0-3.34-1.1c-1.69-.06-3.17,1.06-4.79,1.53-4,1.14-7.94-1.73-12.06-2-2.51-.19-5,.58-7.44,1s-5.24.39-7.23-1.13l8.45-2.31c3.42-.93,7-1.87,10.46-1.12,1.56.35,3.15,1,4.7.65a11.32,11.32,0,0,0,2.77-1.46,10.12,10.12,0,0,1,10.54.39,9.53,9.53,0,0,1,13.19-5.89,9.19,9.19,0,0,1,5.25-6.37c2.52-1.16,5.53.36,6-2.83a9.57,9.57,0,0,1,4.27-6.64,17.58,17.58,0,0,1,5-2.23,4.07,4.07,0,0,1,3.57.7A21,21,0,0,1,168,37.43,4.17,4.17,0,0,0,168.88,38.16Z" style="fill:#f0f0f0"></path><path id="freepik--cloud--inject-247" d="M323.55,80.61l.3.16c1.63.74,3.52.12,5.3.14a7.25,7.25,0,0,1,4.71,1.81c1.13,1,2,2.51,3.26,3.36s3.07.83,4.65.74a15.13,15.13,0,0,1,4.8.16,4.24,4.24,0,0,1,3.26,3.19,2.46,2.46,0,0,1,2.32-.92c.87.06,1.73.34,2.6.32a15.78,15.78,0,0,0,3.34-.86c2.87-.72,5.84.36,8.63,1.32s5.91,1.8,8.62.65a9.9,9.9,0,0,1-8.13,3c-3.07-.34-6.28-2.1-9.06-.75-1.72.83-3.15,2.8-5,2.41-.89-.19-1.59-.91-2.48-1.12-2-.49-3.73,1.69-5.78,1.8s-3.74-2-5.79-2.66c-3.92-1.24-7.79,3.12-11.84,2.45-2.09-.35-3.8-2-5.9-2.22-1.73-.2-3.4.57-5.07,1.05-2.95.84-4.53-1.1-7.27-1.1-2.33,0-3.91,2.51-6.17,3.07-2.89.7-5.48-2-8.41-2.46-2-.35-4.05.35-6.1.5a11.55,11.55,0,0,1-6.92-1.71l12.23-2.41a8.38,8.38,0,0,0,2.27-.67,22.48,22.48,0,0,0,2-1.37,6.91,6.91,0,0,1,6.87-.34,5.93,5.93,0,0,1,5.92-5.77,4.14,4.14,0,0,0,1.86-.1c.85-.37,1.17-1.38,1.66-2.17,1.36-2.14,5.2-3.13,7.16-1.38A14.56,14.56,0,0,0,323.55,80.61Z" style="fill:#f0f0f0"></path></g><g id="freepik--Trees--inject-247"><g id="freepik--Tree--inject-247"><g id="freepik--tree--inject-247"><path d="M82.87,204.07a4.35,4.35,0,0,1,2.33.42,24.38,24.38,0,0,1,3.81,2.7A7.63,7.63,0,0,0,93.23,209a3.4,3.4,0,0,0,3.52-2.45,2.3,2.3,0,0,1,.2-.78,1.14,1.14,0,0,1,1.33-.34,7.1,7.1,0,0,1,1.28.74c1.58.93,3.55.72,5.36.45,1.51-.22,3.41-.88,3.4-2.4,0-1-.87-1.73-1.55-2.45s-1.24-1.88-.61-2.65a1.77,1.77,0,0,1,.87-.53c1.88-.61,4.19.2,5.78-1a3.32,3.32,0,0,0,.83-4,5.09,5.09,0,0,0-3.39-2.59c-1.27-.32-2.87-.47-3.34-1.68s.41-2.22,1.35-2.88a9.93,9.93,0,0,0,2.72-2.05,3.26,3.26,0,0,0,.09-3.37,4.13,4.13,0,0,0-2.84-1.95,6.14,6.14,0,0,1-1.72-.38,1.14,1.14,0,0,1-.64-1.45c.17-.31.53-.47.74-.76a1.37,1.37,0,0,0-.51-1.79,7,7,0,0,0-1.93-.74c-1.36-.45-1.45-1.74-1-3.12s1.15-1.94,1.73-3.32c.52-1.22-.3-2.65-1.39-3.4a24.58,24.58,0,0,0-3.63-1.61,3.87,3.87,0,0,1-2.46-2.89c-.1-1.36.92-2.5,1.75-3.58s1.53-2.58.81-3.73-2.24-1.17-3.49-1.56a5.66,5.66,0,0,1-3.43-3.1c-.33-.76-.49-1.6-.89-2.33-1.23-2.29-4.34-3.28-6.74-3a2.71,2.71,0,0,0-2.29,1.55,3.65,3.65,0,0,0-.84,1.58c-.15.94.27,2-.26,2.91s-1.75,1.19-2.5,1.88a4.57,4.57,0,0,0-1.21,3.18,5.07,5.07,0,0,0,.1,1.45,12,12,0,0,1,.53,2,2.51,2.51,0,0,1-1.18,2.16,3.35,3.35,0,0,1-2.31.49c-1.35,0-2.47-.07-3.46,1-1.73,1.79-.7,3.41.84,4.8,1.75,1.57.82,2.26.59,4.3-.11,1,.12,1.28-.76,1.93-1.66,1.23-2.59.81-2.12,3.23.43,2.2-.23,1.44-2.14,2.26-1.69.73-2.8,2.55-4.17,3.69-.88.73-2.23,1.29-2.31,2.57-.16,2.46,2.89,1.92,4.34,2.51,2.37.95,1.67,4.06-.18,5.23s-4.82,1.68-5,4.49c-.12,2.16,1.11,2.64,2.78,3.36,1.33.57,1.16.74,1.16,2.33,0,3.22,1.08,4.13,4.25,3.6a8,8,0,0,1,3.06-.25c1.21.37.8.67.83,1.68.09,2.59,3.11,1.86,4.39.75C79,205.75,80.87,204.27,82.87,204.07Z" style="fill:#FF81AE"></path><path d="M82.87,204.07a4.35,4.35,0,0,1,2.33.42,24.38,24.38,0,0,1,3.81,2.7A7.63,7.63,0,0,0,93.23,209a3.4,3.4,0,0,0,3.52-2.45,2.3,2.3,0,0,1,.2-.78,1.14,1.14,0,0,1,1.33-.34,7.1,7.1,0,0,1,1.28.74c1.58.93,3.55.72,5.36.45,1.51-.22,3.41-.88,3.4-2.4,0-1-.87-1.73-1.55-2.45s-1.24-1.88-.61-2.65a1.77,1.77,0,0,1,.87-.53c1.88-.61,4.19.2,5.78-1a3.32,3.32,0,0,0,.83-4,5.09,5.09,0,0,0-3.39-2.59c-1.27-.32-2.87-.47-3.34-1.68s.41-2.22,1.35-2.88a9.93,9.93,0,0,0,2.72-2.05,3.26,3.26,0,0,0,.09-3.37,4.13,4.13,0,0,0-2.84-1.95,6.14,6.14,0,0,1-1.72-.38,1.14,1.14,0,0,1-.64-1.45c.17-.31.53-.47.74-.76a1.37,1.37,0,0,0-.51-1.79,7,7,0,0,0-1.93-.74c-1.36-.45-1.45-1.74-1-3.12s1.15-1.94,1.73-3.32c.52-1.22-.3-2.65-1.39-3.4a24.58,24.58,0,0,0-3.63-1.61,3.87,3.87,0,0,1-2.46-2.89c-.1-1.36.92-2.5,1.75-3.58s1.53-2.58.81-3.73-2.24-1.17-3.49-1.56a5.66,5.66,0,0,1-3.43-3.1c-.33-.76-.49-1.6-.89-2.33-1.23-2.29-4.34-3.28-6.74-3a2.71,2.71,0,0,0-2.29,1.55,3.65,3.65,0,0,0-.84,1.58c-.15.94.27,2-.26,2.91s-1.75,1.19-2.5,1.88a4.57,4.57,0,0,0-1.21,3.18,5.07,5.07,0,0,0,.1,1.45,12,12,0,0,1,.53,2,2.51,2.51,0,0,1-1.18,2.16,3.35,3.35,0,0,1-2.31.49c-1.35,0-2.47-.07-3.46,1-1.73,1.79-.7,3.41.84,4.8,1.75,1.57.82,2.26.59,4.3-.11,1,.12,1.28-.76,1.93-1.66,1.23-2.59.81-2.12,3.23.43,2.2-.23,1.44-2.14,2.26-1.69.73-2.8,2.55-4.17,3.69-.88.73-2.23,1.29-2.31,2.57-.16,2.46,2.89,1.92,4.34,2.51,2.37.95,1.67,4.06-.18,5.23s-4.82,1.68-5,4.49c-.12,2.16,1.11,2.64,2.78,3.36,1.33.57,1.16.74,1.16,2.33,0,3.22,1.08,4.13,4.25,3.6a8,8,0,0,1,3.06-.25c1.21.37.8.67.83,1.68.09,2.59,3.11,1.86,4.39.75C79,205.75,80.87,204.27,82.87,204.07Z" style="fill:#fff;opacity:0.15"></path><path d="M108.17,203.53a3.35,3.35,0,0,0-.61-.92c-.25-.29-.53-.56-.79-.83a3.58,3.58,0,0,1-.8-1.3,1.41,1.41,0,0,1,.19-1.35,1.34,1.34,0,0,1,.39-.32,2.06,2.06,0,0,1,.48-.21,4.88,4.88,0,0,1,.66-.16l.21,0,.52,0h.17c.56,0,1.13,0,1.68,0h.3l.34,0,.36-.05.29-.05h0a16.64,16.64,0,0,0-2.55-.4,7.2,7.2,0,0,0-3.62.78,2.31,2.31,0,0,0-1.1,2.83,4.87,4.87,0,0,1,.3,1.89c-2,.54-3.93-.67-5.86-1.63a3.4,3.4,0,0,0-4.81,2,2.14,2.14,0,0,1-1.55,1.71,2.73,2.73,0,0,1-2.61-1.25c-.62-.81-1-1.79-1.62-2.6a5.39,5.39,0,0,0-3.94-2,13.71,13.71,0,0,1-1.89.12,11,11,0,0,1-2.54-1.37c-.8-.44-1.72-1.11-1.59-2s1.08-1.24,1.65-1.86a2.36,2.36,0,0,0,.39-2.5c-.33-.72-1-1.29-1.11-2.07-.11-1.06.94-1.93,1-3a2.69,2.69,0,0,0-1.74-2.29,12.64,12.64,0,0,1-2.72-1.38c-.77-.67-1.15-2-.42-2.69.25-.24.6-.41.7-.74a1,1,0,0,0-.22-.79,12.64,12.64,0,0,0-2.83-2.57c-1-.81-2.87-2.45-2.17-3.55-.34.35-.43.85-.21,2,.43,2.2-.23,1.44-2.14,2.26-1.69.73-2.8,2.55-4.17,3.69h0c-.21.18-.46.35-.71.53-.76.52-1.53,1.08-1.59,2a2.14,2.14,0,0,0,.08.79,1.37,1.37,0,0,0,.33.56l.23.2a2.52,2.52,0,0,0,.59.3c1,.35,2.3.33,3.11.66a2.49,2.49,0,0,1,.75.45,2.28,2.28,0,0,1,.76,1.69,3.73,3.73,0,0,1-1.69,3.09c-.25.15-.51.29-.77.43-.53.27-1.09.52-1.63.79a8.29,8.29,0,0,0-1.12.67,3.29,3.29,0,0,0-1.46,2.6,2.7,2.7,0,0,0,1.9,3l.88.4c.83.36,1.08.56,1.15,1.05,0,.19,0,.43,0,.75,0,.16,0,.33,0,.53a7.47,7.47,0,0,0,.22,2,2.11,2.11,0,0,0,1.29,1.54,3.93,3.93,0,0,0,1.65.19,9.69,9.69,0,0,0,1.09-.13,15.84,15.84,0,0,1,2.34-.34,2.73,2.73,0,0,1,.72.09c.45.14.68.27.78.43h0c.17.26,0,.62,0,1.25a1.84,1.84,0,0,0,.55,1.37,1.14,1.14,0,0,0,.25.18,2.11,2.11,0,0,0,1,.22l.35,0a4.53,4.53,0,0,0,1.74-.61,3.85,3.85,0,0,0,.55-.39c.27-.23.55-.47.84-.7a13.43,13.43,0,0,1,2.31-1.57,6,6,0,0,1,2.18-.69,4,4,0,0,1,1.15,0,4.63,4.63,0,0,1,1.18.38,9.12,9.12,0,0,1,1,.58c.33.21.64.44,1,.67.62.47,1.23,1,1.85,1.45a10.32,10.32,0,0,0,2.53,1.47,5.42,5.42,0,0,0,1.69.35,3.74,3.74,0,0,0,3.07-1.41,2.62,2.62,0,0,0,.45-1c0-.13,0-.27.07-.4a1,1,0,0,1,.13-.38.75.75,0,0,1,.25-.25,1.36,1.36,0,0,1,1.08-.09,7.1,7.1,0,0,1,1.28.74,4.83,4.83,0,0,0,1.91.62,5.19,5.19,0,0,0,.68,0c.23,0,.46,0,.7,0a20.45,20.45,0,0,0,2.07-.22,4.77,4.77,0,0,0,3.09-1.42,1.64,1.64,0,0,0,.31-1A1.66,1.66,0,0,0,108.17,203.53Z" style="opacity:0.15"></path><path d="M77.92,177.6l8.65,17.14v-7.88l.88-33.6,1.28,33.6v5.3l9.5-16.61-9.5,20.39v45.57a.54.54,0,0,1-.32.44,1.63,1.63,0,0,1-1.52,0,.54.54,0,0,1-.32-.44V199.12Z" style="fill:#37474f"></path></g><g id="freepik--Bush--inject-247"><path id="freepik--bush--inject-247" d="M78.31,243.52c4.23.67,8-.5,8.66-5.07a40.71,40.71,0,0,0,0-11.35c-.19-1.36-.68-3-2-3.31a2.53,2.53,0,0,0-2.73,1.53,7.34,7.34,0,0,0-.46,3.33c-.67-1.49-1.67-3.2-3.29-3.24s-2.64,1.55-2.69,3.05a8.75,8.75,0,0,0,1.37,4.24,4.17,4.17,0,0,0-3.3.52,2.9,2.9,0,0,0-.12,3.75,8.37,8.37,0,0,0,3.32,2.37,1.5,1.5,0,0,0-2,1,2.26,2.26,0,0,0,.86,2.27A4.94,4.94,0,0,0,78.31,243.52Z" style="fill:#455a64"></path><g id="freepik--bush--inject-247"><path id="freepik--bush--inject-247" d="M85.65,245.32l10.11-5.84A8,8,0,0,0,98,237.42a5.76,5.76,0,0,0,1.23-2.62,1.37,1.37,0,0,0-.1-1c-.37-.53-1.23-.35-1.71.09s-.87.81-1.38,1.36a15.3,15.3,0,0,0,.2-3.51,1.6,1.6,0,0,0-.43-1.17,1.31,1.31,0,0,0-1.41,0c-1.33.72-1.89,2.29-2.35,3.72a12,12,0,0,0-.13-4.46c-.35-1.59-2.18-2.21-2.8-.69a9.14,9.14,0,0,0-.54,2.54,10.81,10.81,0,0,0,.23,3.36,10.62,10.62,0,0,0-2.69-3.73,1.63,1.63,0,0,0-1.56-.55c-.64.25-.75,1.1-.68,1.78a9.53,9.53,0,0,0,1.38,4.07,8.49,8.49,0,0,0-3.42-1.33,1,1,0,0,0-1.07.35,1.36,1.36,0,0,0,.23,1.4,8.48,8.48,0,0,0,2.72,2.53,8.63,8.63,0,0,0-3.31-.35,1.18,1.18,0,0,0-.89.37c-.29.42,0,1,.42,1.34a9.53,9.53,0,0,0,2.36,1.41,3.44,3.44,0,0,0-1.46.25,1.16,1.16,0,0,0-.69,1.2,1.48,1.48,0,0,0,1.07.94C83.14,245.42,83.69,245.64,85.65,245.32Z" style="fill:#FF81AE"></path></g></g></g><g id="freepik--tree--inject-247"><g id="freepik--tree--inject-247"><path d="M45.68,216.31a5,5,0,0,1,2.7.49,28.14,28.14,0,0,1,4.41,3.12A8.89,8.89,0,0,0,57.68,222c1.81.06,3.75-1.06,4.08-2.83a2.77,2.77,0,0,1,.23-.91,1.31,1.31,0,0,1,1.54-.39,8.52,8.52,0,0,1,1.49.85c1.82,1.08,4.11.84,6.2.53,1.75-.25,4-1,3.94-2.79,0-1.14-1-2-1.8-2.83s-1.43-2.17-.71-3.07a2.06,2.06,0,0,1,1-.61c2.18-.71,4.85.23,6.69-1.13a3.85,3.85,0,0,0,1-4.62,5.86,5.86,0,0,0-3.93-3c-1.46-.37-3.32-.55-3.87-2-.48-1.23.48-2.57,1.57-3.33s2.39-1.29,3.14-2.38a3.75,3.75,0,0,0,.11-3.9,4.75,4.75,0,0,0-3.29-2.25,7.37,7.37,0,0,1-2-.44,1.33,1.33,0,0,1-.74-1.68c.2-.36.61-.55.85-.88a1.6,1.6,0,0,0-.58-2.08,8.36,8.36,0,0,0-2.23-.85c-1.58-.53-2.4-1.36-1.93-3s2.74-1.55,3.41-3.15c.6-1.41-1-4.42-2.31-5.29a31,31,0,0,0-4.2-1.87c-1.39-.65-2.74-1.81-2.85-3.34s1.06-2.89,2-4.14,1.78-3,.94-4.32-2.59-1.36-4-1.82a6.54,6.54,0,0,1-4-3.58c-.39-.89-.57-1.86-1-2.71-1.43-2.64-5-3.79-7.81-3.47a3.15,3.15,0,0,0-2.65,1.8,4.19,4.19,0,0,0-1,1.83c-.21,1.28.46,2.9-.74,3.87-1.83,1.48-4.63-.51-4.53,2.8a14,14,0,0,0,.62,4.12c.49,1.39,1.49,2,.66,3.55-1.07,2-1.77,2-3.93,2-1.56,0-2.86-.09-4,1.1-2,2.07-.81,4,1,5.56,2,1.82.95,2.62.69,5-.13,1.13.13,1.48-.89,2.23-1.92,1.43-3,.95-2.45,3.74.49,2.55-.27,1.68-2.47,2.63-2,.84-3.26,2.95-4.84,4.26-1,.85-2.58,1.5-2.67,3-.19,2.84,3.35,2.22,5,2.9,2.74,1.1,1.92,4.7-.22,6.05s-5.58,2-5.76,5.21c-.14,2.5,1.28,3,3.22,3.88,1.54.67,1.35.87,1.34,2.71,0,3.72,1.25,4.78,4.92,4.17a9.08,9.08,0,0,1,3.54-.29c1.41.42.93.77,1,1.94.1,3,3.6,2.16,5.08.87C41.22,218.26,43.36,216.54,45.68,216.31Z" style="fill:#FF81AE"></path><path d="M45.68,216.31a5,5,0,0,1,2.7.49,28.14,28.14,0,0,1,4.41,3.12A8.89,8.89,0,0,0,57.68,222c1.81.06,3.75-1.06,4.08-2.83a2.77,2.77,0,0,1,.23-.91,1.31,1.31,0,0,1,1.54-.39,8.52,8.52,0,0,1,1.49.85c1.82,1.08,4.11.84,6.2.53,1.75-.25,4-1,3.94-2.79,0-1.14-1-2-1.8-2.83s-1.43-2.17-.71-3.07a2.06,2.06,0,0,1,1-.61c2.18-.71,4.85.23,6.69-1.13a3.85,3.85,0,0,0,1-4.62,5.86,5.86,0,0,0-3.93-3c-1.46-.37-3.32-.55-3.87-2-.48-1.23.48-2.57,1.57-3.33s2.39-1.29,3.14-2.38a3.75,3.75,0,0,0,.11-3.9,4.75,4.75,0,0,0-3.29-2.25,7.37,7.37,0,0,1-2-.44,1.33,1.33,0,0,1-.74-1.68c.2-.36.61-.55.85-.88a1.6,1.6,0,0,0-.58-2.08,8.36,8.36,0,0,0-2.23-.85c-1.58-.53-2.4-1.36-1.93-3s2.74-1.55,3.41-3.15c.6-1.41-1-4.42-2.31-5.29a31,31,0,0,0-4.2-1.87c-1.39-.65-2.74-1.81-2.85-3.34s1.06-2.89,2-4.14,1.78-3,.94-4.32-2.59-1.36-4-1.82a6.54,6.54,0,0,1-4-3.58c-.39-.89-.57-1.86-1-2.71-1.43-2.64-5-3.79-7.81-3.47a3.15,3.15,0,0,0-2.65,1.8,4.19,4.19,0,0,0-1,1.83c-.21,1.28.46,2.9-.74,3.87-1.83,1.48-4.63-.51-4.53,2.8a14,14,0,0,0,.62,4.12c.49,1.39,1.49,2,.66,3.55-1.07,2-1.77,2-3.93,2-1.56,0-2.86-.09-4,1.1-2,2.07-.81,4,1,5.56,2,1.82.95,2.62.69,5-.13,1.13.13,1.48-.89,2.23-1.92,1.43-3,.95-2.45,3.74.49,2.55-.27,1.68-2.47,2.63-2,.84-3.26,2.95-4.84,4.26-1,.85-2.58,1.5-2.67,3-.19,2.84,3.35,2.22,5,2.9,2.74,1.1,1.92,4.7-.22,6.05s-5.58,2-5.76,5.21c-.14,2.5,1.28,3,3.22,3.88,1.54.67,1.35.87,1.34,2.71,0,3.72,1.25,4.78,4.92,4.17a9.08,9.08,0,0,1,3.54-.29c1.41.42.93.77,1,1.94.1,3,3.6,2.16,5.08.87C41.22,218.26,43.36,216.54,45.68,216.31Z" style="fill:#fff;opacity:0.30000000000000004"></path><path d="M73.66,210c1.68-.55,3.64-.12,5.29-.51a19.36,19.36,0,0,0-3-.47,8.39,8.39,0,0,0-6.4,2.54,5.76,5.76,0,0,1,1.29,3.84c-4.16,1.13-8.25-4.45-12.21-2.75.24,2,0,4.71-2,5.16a3.22,3.22,0,0,1-3-1.46c-.71-.94-1.15-2.07-1.87-3a6.35,6.35,0,0,0-8.45-1.23c-1.07.77-2.42,2-3.49,1.17s-.45-3.09-1.72-3.73c-.85-.42-2,.25-2.74-.37a1.94,1.94,0,0,1-.49-1c-.5-2.12-.94-4.58.4-6.31,1.19-1.53,3.71-2.48,3.44-4.4-.23-1.65-2.32-2.15-4-2.34s-3.74-1-3.66-2.63,2.29-2.41,2.61-4c.14-.68-.09-1.44.22-2.06.47-.94,1.81-1,2.6-1.67,1.41-1.25.32-3.59.72-5.43.28-1.3,1.33-2.32,1.68-3.61.7-2.57-1.64-5-4.08-6.06a15.75,15.75,0,0,1-2.79-1.29l-.09-.07a5.11,5.11,0,0,0,2,3.22c2,1.82.95,2.62.69,5-.13,1.13.13,1.48-.89,2.23-1.92,1.43-3,.95-2.45,3.74.49,2.55-.27,1.68-2.47,2.63-2,.84-3.26,2.95-4.84,4.26-1,.85-2.58,1.5-2.67,3-.19,2.84,3.35,2.22,5,2.9,2.74,1.1,1.92,4.7-.22,6.05s-5.58,2-5.76,5.21c-.14,2.5,1.28,3,3.22,3.88,1.54.67,1.35.87,1.34,2.71,0,3.72,1.25,4.78,4.92,4.17a9.08,9.08,0,0,1,3.54-.29c1.41.42.93.77,1,1.94.1,3,3.6,2.16,5.08.87,1.71-1.48,3.85-3.2,6.17-3.43a5,5,0,0,1,2.7.49,28.14,28.14,0,0,1,4.41,3.12A8.89,8.89,0,0,0,57.68,222c1.81.06,3.75-1.06,4.08-2.83a2.77,2.77,0,0,1,.23-.91,1.31,1.31,0,0,1,1.54-.39,8.52,8.52,0,0,1,1.49.85c1.82,1.08,4.11.84,6.2.53,1.75-.25,4-1,3.94-2.79,0-1.14-1-2-1.8-2.83s-1.43-2.17-.71-3.07A2.06,2.06,0,0,1,73.66,210Z" style="fill:#FF81AE;opacity:0.45"></path><path d="M40,185.66l10,19.85v-9.13l1-38.91,1.48,38.91v6.14l11-19.24-11,23.62v60.3a.61.61,0,0,1-.37.51,1.89,1.89,0,0,1-1.76,0,.61.61,0,0,1-.37-.51V210.58Z" style="fill:#37474f"></path></g><g id="freepik--bush--inject-247"><path id="freepik--bush--inject-247" d="M44.21,271.92c2.86.45,5.43-.34,5.87-3.44a27.44,27.44,0,0,0,0-7.68c-.13-.92-.45-2-1.35-2.25a1.73,1.73,0,0,0-1.85,1,5,5,0,0,0-.31,2.25c-.46-1-1.13-2.16-2.23-2.19a2.05,2.05,0,0,0-1.83,2.07,5.92,5.92,0,0,0,.94,2.87,2.83,2.83,0,0,0-2.24.35,2,2,0,0,0-.08,2.54,5.64,5.64,0,0,0,2.25,1.61,1,1,0,0,0-1.37.67,1.56,1.56,0,0,0,.59,1.54A3.28,3.28,0,0,0,44.21,271.92Z" style="fill:#455a64"></path><g id="freepik--bush--inject-247"><path id="freepik--bush--inject-247" d="M49.18,273.14,56,269.19a5.64,5.64,0,0,0,1.49-1.4,4,4,0,0,0,.83-1.78.91.91,0,0,0-.07-.67c-.25-.37-.83-.24-1.16.05s-.59.56-.93.93a10.57,10.57,0,0,0,.13-2.38,1,1,0,0,0-.29-.79.86.86,0,0,0-1,0,4,4,0,0,0-1.59,2.52,8.29,8.29,0,0,0-.09-3c-.24-1.08-1.48-1.5-1.9-.47a5.93,5.93,0,0,0-.36,1.72,7.19,7.19,0,0,0,.15,2.27,7,7,0,0,0-1.83-2.52,1.1,1.1,0,0,0-1.05-.37c-.43.16-.51.74-.46,1.2a6.56,6.56,0,0,0,.93,2.76,5.56,5.56,0,0,0-2.31-.9.71.71,0,0,0-.73.23.91.91,0,0,0,.16,1,5.74,5.74,0,0,0,1.84,1.72A6.06,6.06,0,0,0,45.6,269a.78.78,0,0,0-.6.25c-.2.29,0,.67.28.91a6.8,6.8,0,0,0,1.6,1,2.2,2.2,0,0,0-1,.16.79.79,0,0,0-.47.81,1,1,0,0,0,.73.64A4.74,4.74,0,0,0,49.18,273.14Z" style="fill:#FF81AE"></path></g></g></g><g id="freepik--tree--inject-247"><g id="freepik--tree--inject-247"><path d="M452.7,212.61a5.07,5.07,0,0,0-2.76.49,28.67,28.67,0,0,0-4.5,3.19,9.15,9.15,0,0,1-5,2.16c-1.84.06-3.83-1.09-4.16-2.9a2.61,2.61,0,0,0-.24-.92,1.35,1.35,0,0,0-1.57-.41,8.49,8.49,0,0,0-1.51.88c-1.87,1.1-4.2.85-6.34.54-1.78-.26-4-1-4-2.85,0-1.17,1-2,1.84-2.89s1.46-2.22.72-3.13a2.11,2.11,0,0,0-1-.63c-2.22-.72-4.94.24-6.82-1.15a3.92,3.92,0,0,1-1-4.71,6,6,0,0,1,4-3.06c1.49-.38,3.39-.55,4-2,.49-1.26-.49-2.62-1.6-3.4s-2.44-1.32-3.21-2.43a3.84,3.84,0,0,1-.11-4,4.9,4.9,0,0,1,3.36-2.3,7.3,7.3,0,0,0,2-.45,1.35,1.35,0,0,0,.75-1.71c-.2-.37-.62-.56-.87-.9a1.63,1.63,0,0,1,.6-2.12,8.48,8.48,0,0,1,2.28-.87c1.61-.54,3.18-2.1,2.7-3.73s-2.82-2.25-3.51-3.88c-.61-1.45.36-3.13,1.65-4a29.52,29.52,0,0,1,4.29-1.92c1.42-.66,2.79-1.85,2.9-3.41s-1.08-3-2.06-4.22-1.81-3.05-1-4.41,2.65-1.39,4.13-1.85a6.72,6.72,0,0,0,4-3.66c.39-.9.58-1.89,1.05-2.76,1.46-2.7,5.13-3.88,8-3.54a3.2,3.2,0,0,1,2.7,1.84,4.12,4.12,0,0,1,1,1.86c.22,1.3-.47,3,.76,4,1.86,1.51,4.72-.52,4.62,2.85a14.27,14.27,0,0,1-.63,4.21c-.51,1.42-1.52,2-.68,3.62,1.1,2.06,1.81,2.05,4,2,1.59,0,2.92-.08,4.08,1.12,2.06,2.12.84,4-1,5.68-2.07,1.85-1,2.67-.71,5.08.13,1.15-.13,1.51.91,2.28,1.95,1.45,3.05,1,2.5,3.81-.5,2.6.27,1.71,2.52,2.68,2,.86,3.32,3,4.94,4.36,1,.86,2.63,1.53,2.73,3,.18,2.9-4.65,2.2-6.37,2.89-2.8,1.13-2,4.81.22,6.18s6.92,2.06,7.11,5.38c.14,2.55-1.3,3.11-3.28,4-1.58.68-1.38.87-1.37,2.76,0,3.8-1.28,4.87-5,4.25-1-.17-2.59-.6-3.62-.29-1.43.43-1,.78-1,2-.1,3.06-3.67,2.2-5.18.89C457.25,214.59,455.06,212.84,452.7,212.61Z" style="fill:#FF81AE"></path><path d="M452.7,212.61a5.07,5.07,0,0,0-2.76.49,28.67,28.67,0,0,0-4.5,3.19,9.15,9.15,0,0,1-5,2.16c-1.84.06-3.83-1.09-4.16-2.9a2.61,2.61,0,0,0-.24-.92,1.35,1.35,0,0,0-1.57-.41,8.49,8.49,0,0,0-1.51.88c-1.87,1.1-4.2.85-6.34.54-1.78-.26-4-1-4-2.85,0-1.17,1-2,1.84-2.89s1.46-2.22.72-3.13a2.11,2.11,0,0,0-1-.63c-2.22-.72-4.94.24-6.82-1.15a3.92,3.92,0,0,1-1-4.71,6,6,0,0,1,4-3.06c1.49-.38,3.39-.55,4-2,.49-1.26-.49-2.62-1.6-3.4s-2.44-1.32-3.21-2.43a3.84,3.84,0,0,1-.11-4,4.9,4.9,0,0,1,3.36-2.3,7.3,7.3,0,0,0,2-.45,1.35,1.35,0,0,0,.75-1.71c-.2-.37-.62-.56-.87-.9a1.63,1.63,0,0,1,.6-2.12,8.48,8.48,0,0,1,2.28-.87c1.61-.54,3.18-2.1,2.7-3.73s-2.82-2.25-3.51-3.88c-.61-1.45.36-3.13,1.65-4a29.52,29.52,0,0,1,4.29-1.92c1.42-.66,2.79-1.85,2.9-3.41s-1.08-3-2.06-4.22-1.81-3.05-1-4.41,2.65-1.39,4.13-1.85a6.72,6.72,0,0,0,4-3.66c.39-.9.58-1.89,1.05-2.76,1.46-2.7,5.13-3.88,8-3.54a3.2,3.2,0,0,1,2.7,1.84,4.12,4.12,0,0,1,1,1.86c.22,1.3-.47,3,.76,4,1.86,1.51,4.72-.52,4.62,2.85a14.27,14.27,0,0,1-.63,4.21c-.51,1.42-1.52,2-.68,3.62,1.1,2.06,1.81,2.05,4,2,1.59,0,2.92-.08,4.08,1.12,2.06,2.12.84,4-1,5.68-2.07,1.85-1,2.67-.71,5.08.13,1.15-.13,1.51.91,2.28,1.95,1.45,3.05,1,2.5,3.81-.5,2.6.27,1.71,2.52,2.68,2,.86,3.32,3,4.94,4.36,1,.86,2.63,1.53,2.73,3,.18,2.9-4.65,2.2-6.37,2.89-2.8,1.13-2,4.81.22,6.18s6.92,2.06,7.11,5.38c.14,2.55-1.3,3.11-3.28,4-1.58.68-1.38.87-1.37,2.76,0,3.8-1.28,4.87-5,4.25-1-.17-2.59-.6-3.62-.29-1.43.43-1,.78-1,2-.1,3.06-3.67,2.2-5.18.89C457.25,214.59,455.06,212.84,452.7,212.61Z" style="fill:#fff;opacity:0.30000000000000004"></path><path d="M424.14,206.14c-1.7-.56-3.7-.12-5.39-.52a20.11,20.11,0,0,1,3-.47,8.52,8.52,0,0,1,4.29.93,2.7,2.7,0,0,1,1.29,3.32v0a1.72,1.72,0,0,0,2,2.24c2-.42,3.92-1.75,5.84-2.55a3.14,3.14,0,0,1,4.28,2.33c.2,1.28.76,2.38,2,2.65a3.26,3.26,0,0,0,3.09-1.48c1.51-2,1.81-4.8,6-5a10,10,0,0,1,5.82,1.56c.79.5,1.6.82,2.31.31,1.17-.85.46-3.16,1.75-3.81.86-.43,2.08.25,2.8-.39a1.9,1.9,0,0,0,.49-1.05c.65-2.74,1.19-6-1.88-7.65a3.63,3.63,0,0,1-2-2.6c-.32-2.23,2.15-2.85,4-3.07,1.69-.19,3.82-1,3.73-2.68s-2.33-2.46-2.66-4.09c-.14-.7.09-1.47-.23-2.11-.47-.95-1.85-1-2.65-1.7-1.44-1.28-.32-3.66-.73-5.54-.29-1.33-1.36-2.37-1.72-3.68-.71-2.63,1.67-5.12,4.17-6.19a15.08,15.08,0,0,0,2.85-1.32l.08-.07a5.23,5.23,0,0,1-2,3.29c-2.07,1.85-1,2.67-.71,5.08.13,1.15-.13,1.51.91,2.28,1.95,1.45,3.05,1,2.5,3.81-.5,2.6.27,1.71,2.52,2.68,2,.86,3.32,3,4.94,4.36,1,.86,2.63,1.53,2.73,3,.18,2.9-4.65,2.2-6.37,2.89-2.8,1.13-2,4.81.22,6.18s6.92,2.06,7.11,5.38c.14,2.55-1.3,3.11-3.28,4-1.58.68-1.38.87-1.37,2.76,0,3.8-1.28,4.87-5,4.25-1-.17-2.59-.6-3.62-.29-1.43.43-1,.78-1,2-.1,3.06-3.67,2.2-5.18.89-1.74-1.52-3.93-3.27-6.29-3.5a5.07,5.07,0,0,0-2.76.49,28.67,28.67,0,0,0-4.5,3.19,9.15,9.15,0,0,1-5,2.16c-1.84.06-3.83-1.09-4.16-2.9a2.61,2.61,0,0,0-.24-.92,1.35,1.35,0,0,0-1.57-.41,8.49,8.49,0,0,0-1.51.88c-2.28,1.34-5.26.67-7.74.33a3,3,0,0,1-2.49-1.89c-.54-1.57.74-2.62,1.71-3.64.8-.85,1.46-2.22.72-3.13A2.11,2.11,0,0,0,424.14,206.14Z" style="fill:#FF81AE;opacity:0.45"></path><path d="M458.54,181.33l-10.22,20.26v-9.33l-1-39.7-1.51,39.7v6.27L434.54,178.9,445.77,203v61.54a.64.64,0,0,0,.37.52,2.06,2.06,0,0,0,1.81,0,.67.67,0,0,0,.37-.52V206.75Z" style="fill:#37474f"></path></g><g id="freepik--bush--inject-247"><path id="freepik--bush--inject-247" d="M454.2,269.35c-2.92.46-5.54-.35-6-3.51a27.83,27.83,0,0,1,0-7.84c.13-.94.46-2.05,1.38-2.29a1.75,1.75,0,0,1,1.88,1.06,5.07,5.07,0,0,1,.32,2.3c.46-1,1.15-2.21,2.28-2.24a2.09,2.09,0,0,1,1.86,2.11,6.15,6.15,0,0,1-.95,2.93,2.85,2.85,0,0,1,2.28.36,2,2,0,0,1,.08,2.59,5.84,5.84,0,0,1-2.29,1.64,1,1,0,0,1,1.39.68,1.59,1.59,0,0,1-.6,1.58A3.5,3.5,0,0,1,454.2,269.35Z" style="fill:#455a64"></path><g id="freepik--bush--inject-247"><path id="freepik--bush--inject-247" d="M449.13,270.59l-7-4a2.85,2.85,0,0,1-1.35-2.18,1.48,1.48,0,0,1,.28-1.09.75.75,0,0,1,1-.14,4.83,4.83,0,0,1-.26-1.5c0-.7.46-1.67,1.27-1.23a4.08,4.08,0,0,1,1.62,2.57,8.4,8.4,0,0,1,.09-3.08c.25-1.1,1.51-1.54,1.94-.48a6.14,6.14,0,0,1,.37,1.76,7.24,7.24,0,0,1-.16,2.32,7.06,7.06,0,0,1,1.87-2.58,1.12,1.12,0,0,1,1.07-.38c.44.17.52.76.47,1.23a6.71,6.71,0,0,1-.95,2.81,5.94,5.94,0,0,1,2.36-.92.71.71,0,0,1,.74.24.93.93,0,0,1-.16,1,5.86,5.86,0,0,1-1.88,1.75,6.12,6.12,0,0,1,2.29-.24.79.79,0,0,1,.61.26c.2.29,0,.68-.28.92a7.13,7.13,0,0,1-1.64,1,2.44,2.44,0,0,1,1,.17.8.8,0,0,1,.48.83,1,1,0,0,1-.74.65A4.93,4.93,0,0,1,449.13,270.59Z" style="fill:#FF81AE"></path></g></g></g></g><g id="freepik--Streetlights--inject-247"><g id="freepik--city-lights--inject-247"><path d="M473,299.72a1,1,0,0,1-1-1.05V102.84a12.35,12.35,0,0,0-5.49-9.51l-15.92-9.22c-1.27-.73-2.41-.88-3.21-.42s-1.24,1.53-1.24,3v19.09a1,1,0,0,1-2.08,0V86.68c0-2.24.81-3.94,2.28-4.79s3.35-.7,5.29.42l15.92,9.22a14.23,14.23,0,0,1,6.53,11.31V298.67A1,1,0,0,1,473,299.72Z"></path><path d="M448.51,101.33a8.28,8.28,0,0,0-7.51,0,2.64,2.64,0,0,0-1.55,2.16V105A2.66,2.66,0,0,0,441,107.2a8.35,8.35,0,0,0,7.51,0,2.65,2.65,0,0,0,1.56-2.17V103.5A2.64,2.64,0,0,0,448.51,101.33Z" style="fill:#455a64"></path><path d="M448.51,102.86c2.08,1.2,2.08,3.14,0,4.34a8.28,8.28,0,0,1-7.51,0c-2.07-1.2-2.07-3.14,0-4.34A8.28,8.28,0,0,1,448.51,102.86Z" style="fill:#37474f"></path><path d="M449.93,117.6H439.59v-12a2.58,2.58,0,0,1,1.51-2.12,8.13,8.13,0,0,1,7.32,0,2.58,2.58,0,0,1,1.51,2.12h0Z" style="fill:#FF81AE"></path><path d="M449.93,117.6H439.59v-12a2.58,2.58,0,0,1,1.51-2.12,8.13,8.13,0,0,1,7.32,0,2.58,2.58,0,0,1,1.51,2.12h0Z" style="fill:#fff;opacity:0.7000000000000001"></path><path d="M441.1,119.71c-2-1.16-2-3.06,0-4.22a8.07,8.07,0,0,1,7.32,0c2,1.16,2,3.06,0,4.22A8.07,8.07,0,0,1,441.1,119.71Z" style="fill:#FF81AE"></path><path d="M441.1,119.71c-2-1.16-2-3.06,0-4.22a8.07,8.07,0,0,1,7.32,0c2,1.16,2,3.06,0,4.22A8.07,8.07,0,0,1,441.1,119.71Z" style="fill:#fff;opacity:0.5"></path><path d="M447.87,107.29a3.11,3.11,0,1,0-3.11,3.1A3.11,3.11,0,0,0,447.87,107.29Z" style="fill:#fff;opacity:0.2"></path><path d="M449.93,111a6.34,6.34,0,0,1-10.34,0v-5.44a2.58,2.58,0,0,1,1.51-2.12,8.13,8.13,0,0,1,7.32,0,2.58,2.58,0,0,1,1.51,2.12Z" style="fill:#fff;opacity:0.2"></path><path d="M446.2,107.29a1.44,1.44,0,1,0-1.44,1.44A1.44,1.44,0,0,0,446.2,107.29Z" style="fill:#fff;opacity:0.4"></path><path d="M448.51,115a8.28,8.28,0,0,0-7.51,0,2.64,2.64,0,0,0-1.55,2.17v1.53a2.66,2.66,0,0,0,1.55,2.17,8.28,8.28,0,0,0,7.51,0,2.65,2.65,0,0,0,1.56-2.17v-1.53A2.64,2.64,0,0,0,448.51,115Z" style="fill:#455a64"></path><path d="M448.51,116.51c2.08,1.2,2.08,3.14,0,4.34a8.28,8.28,0,0,1-7.51,0c-2.07-1.2-2.07-3.14,0-4.34A8.28,8.28,0,0,1,448.51,116.51Z" style="fill:#37474f"></path><path d="M27,299.72a1,1,0,0,0,1-1.05V102.84a12.35,12.35,0,0,1,5.49-9.51l15.92-9.22c1.27-.73,2.41-.88,3.21-.42s1.24,1.53,1.24,3v19.09a1,1,0,0,0,2.08,0V86.68c0-2.24-.81-3.94-2.28-4.79s-3.35-.7-5.29.42L32.48,91.53A14.23,14.23,0,0,0,26,102.84V298.67A1,1,0,0,0,27,299.72Z"></path><path d="M51.49,101.33a8.28,8.28,0,0,1,7.51,0,2.64,2.64,0,0,1,1.55,2.16V105A2.66,2.66,0,0,1,59,107.2a8.35,8.35,0,0,1-7.51,0A2.65,2.65,0,0,1,49.93,105V103.5A2.64,2.64,0,0,1,51.49,101.33Z" style="fill:#455a64"></path><path d="M51.49,102.86c-2.08,1.2-2.08,3.14,0,4.34a8.28,8.28,0,0,0,7.51,0c2.07-1.2,2.07-3.14,0-4.34A8.28,8.28,0,0,0,51.49,102.86Z" style="fill:#37474f"></path><path d="M50.07,117.6H60.41v-12a2.58,2.58,0,0,0-1.51-2.12,8.13,8.13,0,0,0-7.32,0,2.58,2.58,0,0,0-1.51,2.12h0Z" style="fill:#FF81AE"></path><path d="M50.07,117.6H60.41v-12a2.58,2.58,0,0,0-1.51-2.12,8.13,8.13,0,0,0-7.32,0,2.58,2.58,0,0,0-1.51,2.12h0Z" style="fill:#fff;opacity:0.7000000000000001"></path><path d="M58.9,119.71c2-1.16,2-3.06,0-4.22a8.07,8.07,0,0,0-7.32,0c-2,1.16-2,3.06,0,4.22A8.07,8.07,0,0,0,58.9,119.71Z" style="fill:#FF81AE"></path><path d="M58.9,119.71c2-1.16,2-3.06,0-4.22a8.07,8.07,0,0,0-7.32,0c-2,1.16-2,3.06,0,4.22A8.07,8.07,0,0,0,58.9,119.71Z" style="fill:#fff;opacity:0.5"></path><path d="M52.13,107.29a3.11,3.11,0,1,1,3.11,3.1A3.11,3.11,0,0,1,52.13,107.29Z" style="fill:#fff;opacity:0.2"></path><path d="M50.07,111a6.34,6.34,0,0,0,10.34,0v-5.44a2.58,2.58,0,0,0-1.51-2.12,8.13,8.13,0,0,0-7.32,0,2.58,2.58,0,0,0-1.51,2.12Z" style="fill:#fff;opacity:0.2"></path><path d="M53.8,107.29a1.44,1.44,0,1,1,1.44,1.44A1.44,1.44,0,0,1,53.8,107.29Z" style="fill:#fff;opacity:0.4"></path><path d="M51.49,115A8.28,8.28,0,0,1,59,115a2.64,2.64,0,0,1,1.55,2.17v1.53A2.66,2.66,0,0,1,59,120.85a8.28,8.28,0,0,1-7.51,0,2.65,2.65,0,0,1-1.56-2.17v-1.53A2.64,2.64,0,0,1,51.49,115Z" style="fill:#455a64"></path><path d="M51.49,116.51c-2.08,1.2-2.08,3.14,0,4.34a8.28,8.28,0,0,0,7.51,0c2.07-1.2,2.07-3.14,0-4.34A8.28,8.28,0,0,0,51.49,116.51Z" style="fill:#37474f"></path></g></g><g id="freepik--Swing--inject-247"><g id="freepik--swing--inject-247"><path id="freepik--Shadow--inject-247" d="M387.34,255.77a5.24,5.24,0,0,0-4.72.08l-11.25,6.5-11.13-6.43,3.53-2L340.94,240.7l-3.54,2.05-18.27-10.54,3.55-2.05L299.85,217,296.29,219l-10.36-6,11.28-6.51c1.34-.77,1.41-2,.15-2.72a5.21,5.21,0,0,0-4.72.09L247.28,230.1c-1.34.77-1.41,2-.15,2.72a5.21,5.21,0,0,0,4.72-.09l29.52-17,10.35,6-2.56,1.48L312,236.33l2.57-1.49,18.28,10.54-2.59,1.5,22.84,13.18,2.59-1.5L366.81,265,337.26,282c-1.35.78-1.41,2-.15,2.73a5.22,5.22,0,0,0,4.71-.09l45.36-26.19C388.53,257.71,388.6,256.49,387.34,255.77Z" style="fill:#FF81AE;opacity:0.25"></path><g id="freepik--swing--inject-247"><path d="M250.09,230.58c-.15-.09-.49-.31-.44-.57l.13-.67s21.34-115.41,21.34-115.41a1.87,1.87,0,0,1,3.66-.1l21.53,91.44c0,.16-.13.38-.44.56a2.4,2.4,0,0,1-.67.25,3.44,3.44,0,0,1-.8.09,3,3,0,0,1-1.46-.34.91.91,0,0,1-.44-.43L274.05,127c-.14-.6-.5-1.08-.8-1.08s-.65.51-.76,1.12l-19,102.7-.08.35a.8.8,0,0,1-.42.47,3.12,3.12,0,0,1-1.46.34A3,3,0,0,1,250.09,230.58Z" style="fill:#FF81AE"></path><path d="M250.09,230.58c-.15-.09-.49-.31-.44-.57l.13-.67s21.34-115.41,21.34-115.41a1.87,1.87,0,0,1,3.66-.1l21.53,91.44c0,.16-.13.38-.44.56a2.4,2.4,0,0,1-.67.25,3.44,3.44,0,0,1-.8.09,3,3,0,0,1-1.46-.34.91.91,0,0,1-.44-.43L274.05,127c-.14-.6-.5-1.08-.8-1.08s-.65.51-.76,1.12l-19,102.7-.08.35a.8.8,0,0,1-.42.47,3.12,3.12,0,0,1-1.46.34A3,3,0,0,1,250.09,230.58Z" style="opacity:0.5"></path><path d="M289.18,213.63h-.09a.28.28,0,0,1-.18-.36l5.35-15.63a.27.27,0,0,1,.23-.19.28.28,0,0,1,.28.14l5.34,9.46a.28.28,0,0,1-.49.28l-5-8.92-5.14,15A.28.28,0,0,1,289.18,213.63Z" style="fill:#e0e0e0"></path><path d="M294.52,198a.28.28,0,0,1-.28-.28V128.2a.29.29,0,0,1,.28-.28.28.28,0,0,1,.28.28v69.52A.27.27,0,0,1,294.52,198Z" style="fill:#e0e0e0"></path><polygon points="322.68 218.58 299.85 205.4 289.16 211.57 289.16 213.41 311.99 226.59 322.68 220.42 322.68 218.58" style="fill:#37474f"></polygon><polygon points="311.99 224.75 311.99 226.59 322.68 220.42 322.68 218.58 311.99 224.75" style="fill:#263238"></polygon><polygon points="289.16 211.57 299.85 205.4 322.68 218.58 311.99 224.75 289.16 211.57" style="fill:#455a64"></polygon><path d="M312,226.87h-.09a.28.28,0,0,1-.17-.36l5.34-15.63a.3.3,0,0,1,.24-.19.27.27,0,0,1,.27.14l5.34,9.46a.29.29,0,0,1-.1.39.3.3,0,0,1-.39-.11l-5-8.91-5.14,15A.28.28,0,0,1,312,226.87Z" style="fill:#e0e0e0"></path><path d="M317.34,211.24a.27.27,0,0,1-.28-.28V141.44a.28.28,0,0,1,.28-.28.29.29,0,0,1,.28.28V211A.28.28,0,0,1,317.34,211.24Z" style="fill:#e0e0e0"></path><path d="M330.27,237.36h-.09A.28.28,0,0,1,330,237l5.35-15.63a.27.27,0,0,1,.24-.19.26.26,0,0,1,.27.14l5.34,9.46a.27.27,0,0,1-.1.38.29.29,0,0,1-.39-.1l-5-8.92-5.14,15A.28.28,0,0,1,330.27,237.36Z" style="fill:#e0e0e0"></path><path d="M335.61,221.73a.29.29,0,0,1-.28-.28V151.93a.28.28,0,0,1,.28-.28.27.27,0,0,1,.28.28v69.52A.28.28,0,0,1,335.61,221.73Z" style="fill:#e0e0e0"></path><polygon points="363.77 242.31 340.94 229.13 330.25 235.3 330.25 237.14 353.08 250.32 363.77 244.15 363.77 242.31" style="fill:#37474f"></polygon><polygon points="353.08 248.48 353.08 250.32 363.77 244.15 363.77 242.31 353.08 248.48" style="fill:#263238"></polygon><polygon points="330.25 235.3 340.94 229.13 363.77 242.31 353.08 248.48 330.25 235.3" style="fill:#455a64"></polygon><path d="M353.09,250.6H353a.29.29,0,0,1-.17-.36l5.34-15.63a.3.3,0,0,1,.24-.19.26.26,0,0,1,.27.14L364,244a.29.29,0,0,1-.11.39.29.29,0,0,1-.38-.11l-5-8.92-5.14,15A.28.28,0,0,1,353.09,250.6Z" style="fill:#e0e0e0"></path><path d="M358.43,235a.27.27,0,0,1-.28-.28V165.17a.28.28,0,0,1,.28-.28.29.29,0,0,1,.28.28v69.52A.28.28,0,0,1,358.43,235Z" style="fill:#e0e0e0"></path><path d="M271.84,116.29c-.17-.09-.27-.37-.27-.73a3.59,3.59,0,0,1,1.6-2.77,1.29,1.29,0,0,1,.56-.18.46.46,0,0,1,.21,0l90.77,52.42a4.79,4.79,0,0,0-2.1,3.64Z" style="fill:#FF81AE"></path><path d="M340.77,282.94c-.15-.09-.49-.31-.44-.57l.07-.34c0-.18.16-.82.27-1.44,2.17-11.81,21.14-114.3,21.14-114.3a1.85,1.85,0,0,1,1.79-1.53,1.87,1.87,0,0,1,1.86,1.44L387,257.65c0,.16-.13.38-.44.56a2.4,2.4,0,0,1-.67.25,3.44,3.44,0,0,1-.8.09,3,3,0,0,1-1.46-.34,2,2,0,0,1-.26-.18,4.88,4.88,0,0,1-.43-1.34l-18.2-77.3c-.14-.61-.5-1.09-.8-1.08s-.65.51-.76,1.12l-19,102.7-.08.34a.8.8,0,0,1-.42.47,3,3,0,0,1-1.46.34A2.93,2.93,0,0,1,340.77,282.94Z" style="fill:#FF81AE"></path><path d="M340.77,282.94c-.15-.09-.49-.31-.44-.57l.07-.34c0-.18.16-.82.27-1.44,2.17-11.81,21.14-114.3,21.14-114.3a1.85,1.85,0,0,1,1.79-1.53,1.87,1.87,0,0,1,1.86,1.44L387,257.65c0,.16-.13.38-.44.56a2.4,2.4,0,0,1-.67.25,3.44,3.44,0,0,1-.8.09,3,3,0,0,1-1.46-.34,2,2,0,0,1-.26-.18,4.88,4.88,0,0,1-.43-1.34l-18.2-77.3c-.14-.61-.5-1.09-.8-1.08s-.65.51-.76,1.12l-19,102.7-.08.34a.8.8,0,0,1-.42.47,3,3,0,0,1-1.46.34A2.93,2.93,0,0,1,340.77,282.94Z" style="opacity:0.5"></path></g></g></g><g id="freepik--Fence--inject-247"><polygon id="freepik--shadow--inject-247" points="386.48 288.93 471.79 338.18 473.82 336.99 388.51 287.74 386.48 288.93" style="fill:#FF81AE;opacity:0.25"></polygon><g id="freepik--fence--inject-247"><polygon points="467.3 335.1 467.3 303.8 464.98 299.02 462.61 301.1 462.61 332.41 467.3 335.1" style="fill:#FF81AE"></polygon><polygon points="467.3 335.1 467.3 303.8 464.98 299.02 462.61 301.1 462.61 332.41 467.3 335.1" style="fill:#fff;opacity:0.15"></polygon><polygon points="467.3 303.8 468.48 303.13 468.48 334.43 467.3 335.1 467.3 303.8" style="fill:#FF81AE"></polygon><polygon points="467.3 303.8 468.48 303.13 468.48 334.43 467.3 335.1 467.3 303.8" style="opacity:0.2"></polygon><polygon points="464.98 299.02 466.16 298.32 468.48 303.13 467.3 303.8 464.98 299.02" style="fill:#FF81AE"></polygon><polygon points="449.97 325.14 449.97 293.84 447.65 289.06 445.28 291.14 445.28 322.45 449.97 325.14" style="fill:#FF81AE"></polygon><polygon points="449.97 325.14 449.97 293.84 447.65 289.06 445.28 291.14 445.28 322.45 449.97 325.14" style="fill:#fff;opacity:0.15"></polygon><polygon points="449.97 293.84 451.15 293.16 451.15 324.47 449.97 325.14 449.97 293.84" style="fill:#FF81AE"></polygon><polygon points="449.97 293.84 451.15 293.16 451.15 324.47 449.97 325.14 449.97 293.84" style="opacity:0.2"></polygon><polygon points="447.65 289.06 448.82 288.36 451.15 293.16 449.97 293.84 447.65 289.06" style="fill:#FF81AE"></polygon><polygon points="432.64 315.18 432.64 283.88 430.32 279.1 427.95 281.18 427.95 312.49 432.64 315.18" style="fill:#FF81AE"></polygon><polygon points="432.64 315.18 432.64 283.88 430.32 279.1 427.95 281.18 427.95 312.49 432.64 315.18" style="fill:#fff;opacity:0.15"></polygon><polygon points="432.64 283.88 433.82 283.2 433.82 314.51 432.64 315.18 432.64 283.88" style="fill:#FF81AE"></polygon><polygon points="432.64 283.88 433.82 283.2 433.82 314.51 432.64 315.18 432.64 283.88" style="opacity:0.2"></polygon><polygon points="430.32 279.1 431.5 278.39 433.82 283.2 432.64 283.88 430.32 279.1" style="fill:#FF81AE"></polygon><polygon points="415.31 305.22 415.31 273.92 412.99 269.13 410.62 271.22 410.62 302.53 415.31 305.22" style="fill:#FF81AE"></polygon><polygon points="415.31 305.22 415.31 273.92 412.99 269.13 410.62 271.22 410.62 302.53 415.31 305.22" style="fill:#fff;opacity:0.15"></polygon><polygon points="415.31 273.92 416.49 273.24 416.49 304.55 415.31 305.22 415.31 273.92" style="fill:#FF81AE"></polygon><polygon points="415.31 273.92 416.49 273.24 416.49 304.55 415.31 305.22 415.31 273.92" style="opacity:0.2"></polygon><polygon points="412.99 269.13 414.17 268.44 416.49 273.24 415.31 273.92 412.99 269.13" style="fill:#FF81AE"></polygon><polygon points="397.98 295.26 397.98 263.96 395.66 259.17 393.29 261.26 393.29 292.56 397.98 295.26" style="fill:#FF81AE"></polygon><polygon points="397.98 295.26 397.98 263.96 395.66 259.17 393.29 261.26 393.29 292.56 397.98 295.26" style="fill:#fff;opacity:0.15"></polygon><polygon points="397.98 263.96 399.15 263.28 399.15 294.59 397.98 295.26 397.98 263.96" style="fill:#FF81AE"></polygon><polygon points="397.98 263.96 399.15 263.28 399.15 294.59 397.98 295.26 397.98 263.96" style="opacity:0.2"></polygon><polygon points="395.66 259.17 396.83 258.47 399.15 263.28 397.98 263.96 395.66 259.17" style="fill:#FF81AE"></polygon><polygon points="472.61 328.16 388.32 279.74 388.32 281.58 472.61 330.01 472.61 328.16" style="fill:#FF81AE"></polygon><polygon points="472.61 328.16 388.32 279.74 388.32 281.58 472.61 330.01 472.61 328.16" style="fill:#fff;opacity:0.25"></polygon><polygon points="472.61 328.16 473.82 327.47 473.82 329.31 472.61 330.01 472.61 328.16" style="fill:#FF81AE"></polygon><polygon points="472.61 328.16 473.82 327.47 473.82 329.31 472.61 330.01 472.61 328.16" style="opacity:0.2"></polygon><polygon points="388.32 279.74 472.61 328.16 473.82 327.47 389.54 279.04 388.32 279.74" style="fill:#FF81AE"></polygon><polygon points="472.61 316.36 388.32 267.93 388.32 269.78 472.61 318.2 472.61 316.36" style="fill:#FF81AE"></polygon><polygon points="472.61 316.36 388.32 267.93 388.32 269.78 472.61 318.2 472.61 316.36" style="fill:#fff;opacity:0.25"></polygon><polygon points="472.61 316.36 473.82 315.67 473.82 317.51 472.61 318.2 472.61 316.36" style="fill:#FF81AE"></polygon><polygon points="472.61 316.36 473.82 315.67 473.82 317.51 472.61 318.2 472.61 316.36" style="opacity:0.2"></polygon><polygon points="388.32 267.93 472.61 316.36 473.82 315.67 389.54 267.24 388.32 267.93" style="fill:#FF81AE"></polygon></g></g><g id="freepik--characters-2-and-3--inject-247"><g id="freepik--Couple--inject-247"><path id="freepik--shadow--inject-247" d="M202,284.56a5.37,5.37,0,0,0-1.83,3.71c-.11,4,4.73,6.59,7.85,7.94,4.21,1.83,8.72,2.83,13,4.57,5.1,2.09,9.7,5.19,14.73,7.45,4.62,2.07,9.23,3.12,14.31,2.25,1.71-.3,3.93-1.28,4.86-2.74,2.6-4.06-3-8.69-6.23-10.43s-6.2-3.76-9.38-5.5c-5.28-2.89-10.55-6-16.26-8a30.46,30.46,0,0,0-16-1.51,11.14,11.14,0,0,0-4.53,1.84A5.15,5.15,0,0,0,202,284.56Z" style="opacity:0.1"></path><path id="freepik--shadow--inject-247" d="M256.12,274c-3,1-5.6,3.64-5.6,6.76,0,2.7,1.95,5,4.19,6.56,4.59,3.08,10.42,3.5,15.59,5.46,8.22,3.11,14.54,10,22.67,13.35a14.49,14.49,0,0,0,7.6,1.27,7.36,7.36,0,0,0,5.94-4.45,7.64,7.64,0,0,0-.95-6.37,18.45,18.45,0,0,0-4.61-4.76,98.14,98.14,0,0,0-19.63-11.66C273.8,276.7,264.63,271.15,256.12,274Z" style="opacity:0.1"></path><g id="freepik--Character--inject-247"><g id="freepik--Bottom--inject-247"><path d="M215.81,292.3c-.37-1.53-1.06-2.79-1.32-3.9a9.34,9.34,0,0,1-.18-4,56.57,56.57,0,0,1,1.51-6c.85-2.76,3-4.45,9-11.57l-9.41-2.27c-1.39,3.05-4,8.38-4.46,8.78l-.11.09v0c-.82.66-2.13,1-3.28,2.05l0,0a2.45,2.45,0,0,0-.62,2.64l.12.4a12.58,12.58,0,0,1,.64,2.76,12.42,12.42,0,0,1-1,4.06,4.09,4.09,0,0,0,.36,3.76,12.87,12.87,0,0,0,4.88,4.43C215.12,294.77,216.18,293.83,215.81,292.3Z" style="fill:#c8856a"></path><path d="M206.85,276a2.53,2.53,0,0,0-1.23,1.24,7.87,7.87,0,0,0,.53,3.06c.49,1.37.67,1.93.32,3a9.46,9.46,0,0,0-.71,4.26A8.86,8.86,0,0,0,209.6,294a6.73,6.73,0,0,0,5.1,1.5c.77-.14.94-1.21.94-1.21Z" style="fill:#263238"></path><path d="M211,273.24a2.73,2.73,0,0,0-.95,1.58c-.18,1.53,1.42,3.51,1.87,4a1.6,1.6,0,0,1,1.22-.44c1,0,2.73.15,2.91.59s-1.31,3.6-1.55,5.93a10,10,0,0,0,1,5.44c.6,1.21,1.62,2.84-.07,4.31-1,.29-5.1-.24-7.52-3.71-2.14-3.08-1.18-6.26-.64-7.89s.06-2.6-.41-4.6a3.4,3.4,0,0,1,0-2.53A10,10,0,0,1,211,273.24Z" style="fill:#37474f"></path><path d="M207.89,291a5.19,5.19,0,0,1,3.7-2.61c2.34-.47,3.16,0,3.68.8s2.77,4.39.24,5.58C214.69,295.25,210.7,295.24,207.89,291Z" style="fill:#fafafa"></path><path d="M211.92,278.85a.8.8,0,0,1,.29.51,1.6,1.6,0,0,1-.08.58c-.1.38-.19.74-.28,1.11q-.28,1.11-.51,2.22a21.16,21.16,0,0,0-.31,2.24,10.16,10.16,0,0,0,.05,2.27,6.77,6.77,0,0,1-.32-2.28,11.88,11.88,0,0,1,.23-2.3,21.43,21.43,0,0,1,.57-2.23c.12-.36.26-.73.39-1.08a2.67,2.67,0,0,0,.16-.53A.85.85,0,0,0,211.92,278.85Z" style="fill:#263238"></path><path d="M210.62,287.2c.92-.39,3.43-.51,3.95.28l0,.27a1.18,1.18,0,0,0,0-.82c-.17-.49-1.87-1-4-.32C210.37,286.83,210.34,287.29,210.62,287.2Z" style="fill:#fafafa"></path><path d="M210.72,285.24c.89-.44,3.19-.61,3.75.14v.22a.71.71,0,0,0,0-.74c-.2-.48-1.78-1-3.86-.2C210.44,284.88,210.44,285.34,210.72,285.24Z" style="fill:#fafafa"></path><path d="M211,283.25c.92-.36,3.25-.44,3.74.37l-.06.26a.94.94,0,0,0,.19-.71c-.11-.52-1.77-1.14-3.89-.51C210.74,282.87,210.71,283.33,211,283.25Z" style="fill:#fafafa"></path><path d="M211.3,281.56c.93-.36,3.41-.47,3.9.34l-.07.26a1,1,0,0,0,.2-.74c-.12-.52-1.92-1.08-4-.45C211.06,281.18,211,281.64,211.3,281.56Z" style="fill:#fafafa"></path><path d="M249.05,301.1c-.81-.48-1.55-1.05-2.36-1.53a12.76,12.76,0,0,1-2.27-1.67,13.41,13.41,0,0,1-2.7-4.32c-.29-.65-.8-1.84-1-2.53-.33-1.13,0-12.71,0-16l-8.8,4.77a60.46,60.46,0,0,1,1.64,10.15c-.15,2.74-1.62,6.32.95,8.14.51.36,1.09.6,1.63.92,1.74,1,2.91,2.8,4.49,4.07a10.74,10.74,0,0,0,4,2,6.49,6.49,0,0,0,1.83.38,15.93,15.93,0,0,0,2.39-.3,4.36,4.36,0,0,0,1.41-.48,1.65,1.65,0,0,0,.82-1.17,1.74,1.74,0,0,0-.57-1.39,6.14,6.14,0,0,0-1.26-.87Z" style="fill:#c8856a"></path><path d="M232.43,296.53a2.86,2.86,0,0,0,0,1.82,6.49,6.49,0,0,0,2.26,1.58,5.46,5.46,0,0,1,2.39,2.46,10.71,10.71,0,0,0,2.08,2.49c1.52,1.35,3.76,2.1,7.48,1.94,2.33-.1,4.24-1,4.75-1.67a1.69,1.69,0,0,0,.33-1.36Z" style="fill:#263238"></path><path d="M233.1,290.39c0-.35.33-.72.46-.6a4.43,4.43,0,0,0,.22,1.76,5.9,5.9,0,0,0,3.47,2.17s-.13-.39.74-.7,3.06-1.1,3.5-.88.9,2.51,2.36,4.52a12.35,12.35,0,0,0,5,3.85c1.32.52,2.81,1.61,2.78,3.33-1.37,1.87-5,2.06-7.24,1.87a8.89,8.89,0,0,1-6.78-4.23,10.08,10.08,0,0,0-3.23-2.92c-.78-.55-1.59-.94-1.94-2C232.07,293.84,233.08,293.41,233.1,290.39Z" style="fill:#37474f"></path><path d="M242.24,305.26c-.2-1.42.49-3.23,2.75-4.35s3.22-.87,4-.58,3.45,1.62,2.74,3.58C251.44,304.89,246.7,306.92,242.24,305.26Z" style="fill:#fafafa"></path><path d="M237.25,293.72a.87.87,0,0,1,.58.2,1.76,1.76,0,0,1,.35.52l.56,1.07c.37.71.75,1.42,1.16,2.11a19.69,19.69,0,0,0,1.33,2,10.78,10.78,0,0,0,1.63,1.75,7.54,7.54,0,0,1-1.86-1.57,13.29,13.29,0,0,1-1.43-2,20.09,20.09,0,0,1-1.12-2.16c-.16-.37-.32-.75-.45-1.13a2.28,2.28,0,0,0-.25-.52A.92.92,0,0,0,237.25,293.72Z" style="fill:#263238"></path><path d="M241.77,301.06c.71-.72,3.83-2.08,4.87-1.75l.24.15a1.19,1.19,0,0,0-.57-.57c-.49-.28-3.2.24-4.95,1.76C241.27,300.91,241.53,301.26,241.77,301.06Z" style="fill:#fafafa"></path><path d="M240.5,299.52c.7-.72,3.42-1.89,4.46-1.56l.21.19s0-.32-.54-.6-2.79,0-4.54,1.56C240,299.37,240.26,299.72,240.5,299.52Z" style="fill:#fafafa"></path><path d="M239.62,297.9c.73-.7,3.13-1.72,4.15-1.36l.16.22a1,1,0,0,0-.39-.59c-.46-.33-2.52-.16-4.31,1.31C239.13,297.74,239.38,298.09,239.62,297.9Z" style="fill:#fafafa"></path><path d="M238.78,296.5c.72-.7,3.12-1.72,4.15-1.36l.13.24a1,1,0,0,0-.37-.61c-.45-.33-2.51-.16-4.3,1.3C238.28,296.34,238.54,296.69,238.78,296.5Z" style="fill:#fafafa"></path><path d="M224.55,231l5.89-9.74s8.8-5.81,11.94-9.65a37.4,37.4,0,0,1,3,18.68,49.62,49.62,0,0,1-8.58,22.94c-2.55,3.6-17.28,20.39-17.28,20.39-1.5-.09-5.61-2.72-6.32-4.81,0,0,3.52-8.66,5.17-11.81,2.15-4.11,2.72-6,7.11-9.72C224.73,243.35,224.55,231,224.55,231Z" style="fill:#37474f"></path><path d="M214.74,268l-.32-.16.16-.3c3.86-7.43,8.68-16.68,18.44-19.7l.11.35c-9.62,3-14.4,12.14-18.23,19.51Z" style="fill:#263238"></path><path d="M236.93,228.54l-12.07,12.05a64.85,64.85,0,0,0,.6,6.72,27.26,27.26,0,0,0-3,2.92l4.56,7.44a20.36,20.36,0,0,0,0,7.39c4.06-4.72,8.52-10,9.82-11.8a45.86,45.86,0,0,0,3.9-6.67l-2.1-17.39s3.31-1.73,4.25-4.76C241.11,227.11,236.93,228.54,236.93,228.54Z" style="fill:#263238"></path><path d="M222.48,241.42c-1.94-5.43-3.15-8.87-3.83-12.67-1-5.41-.06-8.5.69-10.22,2.25-5.15,3.49-6.83,4.33-8.62,0,0,1.7,3.55,9.4,4.2,8.82.75,9.85-2.47,9.85-2.47-.28,3.25.68,7.4-.33,10.11-2,5.44-5.66,6.79-5.66,6.79l2.51,15.16c1,8,1.41,6.63,1.47,22.28,0,6.87.05,17.76.05,17.76-1.06.67-6.11,1.42-8,.64,0,0-1.88-7.06-3-11.75-2.11-9-2.39-11.31-1.74-15.62C228.26,257,224.7,247.63,222.48,241.42Z" style="fill:#37474f"></path><path d="M234.59,284.69c-.87-4.2-2.62-12.74-3.38-17.25a30.63,30.63,0,0,1-.41-8.25,18.77,18.77,0,0,0,.08-2.35c-.14-2.62-2.07-8.36-4.11-14.44-1.8-5.37-3.67-10.92-4.2-14.16h.18a3.15,3.15,0,0,0,2-.72c1.81-1.42,3.05-4.89,3.67-10.3l-.36,0c-.6,5.24-1.82,8.71-3.53,10.05a2.81,2.81,0,0,1-2,.63c-.75-5.16.58-8.87,1.76-12.14.32-.9.63-1.76.89-2.63l-.35-.1c-.25.86-.56,1.71-.88,2.61-1.21,3.34-2.57,7.13-1.76,12.46.49,3.24,2.41,8.94,4.26,14.44,1.94,5.79,3.95,11.77,4.08,14.34a18.31,18.31,0,0,1-.07,2.32,30.51,30.51,0,0,0,.42,8.33c.75,4.47,2.47,12.91,3.35,17.16Z" style="fill:#263238"></path><path d="M232.78,284.71a8.89,8.89,0,0,0,4.58.39c3.09-.36,3.66-1.33,3.66-1.33v-4.52s-1.12,1.06-4.3,1.4a10.83,10.83,0,0,1-4.88-.27Z" style="fill:#455a64"></path><path d="M213,268.93a5.67,5.67,0,0,0,2.64,3.92c2.54,1.8,3.85,1,3.85,1l2.86-3.5a5.72,5.72,0,0,1-4.67-1.24,6.13,6.13,0,0,1-2.8-4.39Z" style="fill:#455a64"></path></g><g id="freepik--Top--inject-247"><path d="M252.51,220.87l2.5,2.41c1.36,1.35,2.08,2.78,4.86,4.56,1.3.83,3,1.78,4.58,1.32a4.2,4.2,0,0,1,1.13-.3,5,5,0,0,1,.66.09,2.68,2.68,0,0,0,.8,0,.74.74,0,0,0,.41-.16c.17-.14.22-.4.39-.55a.82.82,0,0,1,.7-.15,3.14,3.14,0,0,0,.74.1c.25,0,.6,0,.74-.22a.7.7,0,0,0-.18-.78c-1.11-1.3-2.73-1.73-4.13-2.56-.45-.27-2.15-1.06-2-1.48s1.11,0,2.15,0c1.46-.13,1.95-1.11,1.15-1.28a28.22,28.22,0,0,1-3.69-1.34c-1.58-.63-2.35-.52-3.35-1.26a18.57,18.57,0,0,1-3.3-3.35c-1.75-2.49-5.74-7.63-5.74-7.63s-3.71-11.64-4.71-13.71c-1.78-3.67-3.08-4.9-7.65-5.45l.13.54.39,10.61s3.42,9.88,3.83,11,1.42,2.07,3,3.7S252.51,220.87,252.51,220.87Z" style="fill:#c8856a"></path><path d="M238.46,188.88c2.32.21,4.37.59,6,2.33s5.28,9.54,5.28,9.54-1.46,5.75-10.15,6Z" style="fill:#f0f0f0"></path><path d="M235.06,188.59s-9.88.34-11.82.7c-1.16.21-3,1.94-3.07,8.66-.06,4.18-.83,17.13-.83,17.13,5.46,4.71,23.6,3,26,.11,0,0-.24-6.72-.3-9.78a12,12,0,0,0,1.08-4.27c0-2.82-.56-3.85-2.94-7.14a28,28,0,0,0-4.77-5.12Z" style="fill:#fafafa"></path><path d="M220.17,198c0,1.43,0,2.86-.08,4.29s-.1,2.85-.16,4.28l-.19,4.29-.24,4.28-.05-.13a9.63,9.63,0,0,0,2.91,1.57,22.74,22.74,0,0,0,3.25.82,37,37,0,0,0,6.73.51,47.43,47.43,0,0,0,6.73-.52,31.37,31.37,0,0,0,3.31-.69l.81-.25c.26-.11.53-.19.78-.31a4,4,0,0,0,1.42-.9,4.08,4.08,0,0,1-1.39,1c-.25.13-.52.22-.78.33s-.54.2-.81.28a26.53,26.53,0,0,1-3.31.78,43.69,43.69,0,0,1-6.76.63,38.64,38.64,0,0,1-6.79-.47,19.12,19.12,0,0,1-3.31-.84,9.84,9.84,0,0,1-3-1.65l-.06-.05v-.09l.53-8.56C219.86,203.66,220.05,200.8,220.17,198Z" style="fill:#e0e0e0"></path><path d="M242.92,167.59a11.24,11.24,0,0,0-11.81-4c-2.44.57-5,2-5.69,4.58-2,0-3.39,2.15-3.63,6s-.3,10.25.61,11.62a4.11,4.11,0,0,0,2.27,1.88,7.72,7.72,0,0,1-1.14-2.1,5.72,5.72,0,0,0,2.43,2,11.3,11.3,0,0,0,5.11,1.13,18.53,18.53,0,0,0,6.85-.88,2.77,2.77,0,0,1-1.48-1.52,3.46,3.46,0,0,0,3.85.76c-1.15-.24-1.81-1.63-1.83-4,0-.74,0-2.46,0-4.49,1.42-.64,2.9-.92,3.74-2.52a5.53,5.53,0,0,0,.38-3.86,2.68,2.68,0,0,1,1,2.1A6.25,6.25,0,0,0,242.92,167.59Z" style="fill:#37474f"></path><path d="M227.77,187.23c0-.85-.17-5.13-.17-5.13,0,.32-1.58,1.2-3-.43s-1.51-3.39-.69-4.52,3-1.19,3.79.82c1.34.3,1.93-1.74.9-3.69.07-2.49,2.62-2.38,3.88-5.6,3.23,1.66,6.2.31,8.26,2.72a20.55,20.55,0,0,1,.8,6.47c.05,4.44-1.19,6.66-2.69,7.34a6.39,6.39,0,0,1-3.5.58l.09,1.42h0c0,.72,0,1,.67,1.25.47.15,1.4.35,1.4.35s2,1.88-2.39,2.52c-6.59.94-10.22-2.23-10.22-2.23l1.57-.29C227.65,188.6,227.77,188.08,227.77,187.23Z" style="fill:#c8856a"></path><path d="M225.69,181.11a.67.67,0,1,0,.64-.69A.66.66,0,0,0,225.69,181.11Z" style="fill:#FF81AE"></path><path d="M233.64,180.65l2.39.74a1.23,1.23,0,0,1-1.54.87A1.31,1.31,0,0,1,233.64,180.65Z" style="fill:#af6152"></path><path d="M233.8,181.2a1.37,1.37,0,0,1,1.38,1.06,1.16,1.16,0,0,1-.69,0,1.31,1.31,0,0,1-.88-1A1.08,1.08,0,0,1,233.8,181.2Z" style="fill:#ffa8a7"></path><path d="M240.54,173.43l-1.91-.2a.93.93,0,0,1,1-.87A1,1,0,0,1,240.54,173.43Z" style="fill:#37474f"></path><path d="M231.48,173.62l1.9-.39a.93.93,0,0,0-1.11-.77A1,1,0,0,0,231.48,173.62Z" style="fill:#37474f"></path><path d="M238.4,175.85a.83.83,0,0,0,.75.87A.77.77,0,0,0,240,176a.82.82,0,0,0-.74-.86A.77.77,0,0,0,238.4,175.85Z" style="fill:#263238"></path><path d="M232.59,176.05a.82.82,0,0,0,.75.86.77.77,0,0,0,.85-.71.82.82,0,0,0-.75-.87A.77.77,0,0,0,232.59,176.05Z" style="fill:#263238"></path><path d="M230.28,174.13l-4.7,2.19a2.11,2.11,0,0,1,1.4.57l3.46-1.67Z" style="fill:#263238"></path><path d="M242.67,173.83a10.44,10.44,0,0,0-3.81.14c-1.11.36-1.51.75-2.12.77s-1.06-.37-2.23-.69a11.38,11.38,0,0,0-3.7,0c-.41,0-.79.13-.8.68s.38.59.46,1c.19,1.43.45,3.26,2.33,3.34,3.86.21,2.63-3.55,4-3.37.51.11.43,1.1.75,1.81a2.64,2.64,0,0,0,.48.76,2.52,2.52,0,0,0,4-.75c.32-.65.27-1.71.61-2.28C243,174.94,243.26,174,242.67,173.83Zm-7.34,3a2.33,2.33,0,0,1-.55,1.07,2.12,2.12,0,0,1-1.6.64,1.82,1.82,0,0,1-1.88-1.2c0-.08-.06-.15-.08-.22-.17-.6-.39-1.88-.07-2.25.59-.61,3.36-.58,4.18.35A2.43,2.43,0,0,1,235.33,176.8Zm6.6-.34a2.39,2.39,0,0,1-1.1,1.72,2,2,0,0,1-2.75-1c-.63-2.15.21-2.65,2.35-2.87C242.2,174.27,242.29,174.72,241.93,176.46Z" style="fill:#263238"></path><path d="M239.07,178.94l-2.59,1.1-.25-4a.59.59,0,0,1,.45-.34l.67.92,1.62,2.22Z" style="fill:#af6152"></path><path d="M235.37,185.79c-3.06-.28-6-1.26-6.68-2.64a2.74,2.74,0,0,0,1.24,2.23,19.69,19.69,0,0,0,5.51,1.49Z" style="fill:#af6152"></path><path d="M212.27,198.09c-1.11,1.82,0,4.57,2.34,6.71s6.71,4.12,7.56,1.6-1.44-5.87-2.82-7.17S213.55,196,212.27,198.09Z" style="fill:#e0e0e0"></path><path d="M223.18,189.43c-1.55.28-4.36.34-6.53,3.79a99.65,99.65,0,0,0-7.33,15.06c-1.14,3-1.35,4.58.29,6.5,1.43,1.68,7.54,7.06,9.4,8.78,1.24,1.15,3,3.4,4.23,4.28,0,0,2.51-.59,3.78-5.15,0,0,.1-.68,1.73-.13,1.13.39,2.57.47,3.24-.19s-.91-1-1.72-1.5a9.73,9.73,0,0,0-3.91-1.59c-2-.33-2.61-.49-4.56-2.47a46.8,46.8,0,0,1-4.35-5.53l5.16-10.69C224.46,196.68,224.85,193,223.18,189.43Z" style="fill:#c8856a"></path><path d="M217.45,211.28c-1.27-1.65-4-1.75-4-1.75a5.14,5.14,0,0,1,4.33,1Z" style="fill:#af6152"></path><path d="M223.24,189.29c-1.46.14-3.36.42-4.25,1.16a19.9,19.9,0,0,0-3,2.94c-2,2.37-3.69,4.7-3.69,4.7s2.35-.92,5.3,1.33a11.82,11.82,0,0,1,4.6,7c1-2.86,1.88-5.94,2.41-7.72S225.49,192,223.24,189.29Z" style="fill:#f0f0f0"></path></g></g><g id="freepik--character--inject-247"><g id="freepik--bottom--inject-247"><path d="M296.06,208l-15.86,2.74,3.41,28a36,36,0,0,0-6.09,8.17c-1.61,3.17-6.56,15.62-7.46,17.62a27.85,27.85,0,0,1-1.65,3c-.35.54-.85.81-1,1.44-.53,2.77,1,6.29,2.77,8.51a6.09,6.09,0,0,0,1.68,1.52,3.38,3.38,0,0,0,2.19.46,1.46,1.46,0,0,0,1.11-.73,1.82,1.82,0,0,0,0-1,31.81,31.81,0,0,1-.54-3.76,10.92,10.92,0,0,1,2.5-7.24c2.16-2.74,16.51-22,17.3-23.29,1.19-2,2.52-3.63,2.65-10.09S296.71,211.3,296.06,208Z" style="fill:#b16668"></path><path d="M297.28,209.48s.28,4.91,0,15.11c-.21,8.53.74,14.25-2.69,19.68-3.06,4.85-16.25,21.77-17.63,23.46,0,0-4.59-.37-6.85-4.18,0,0,2.53-6.87,5.18-12.57l5.25-11.26-6.21-26.35Z" style="fill:#455a64"></path><path d="M271.89,264.91l-.44-.15c1.87-5.63,9.48-21.56,12.67-24.58l.32.34C281.36,243.44,273.71,259.46,271.89,264.91Z" style="fill:#37474f"></path><path d="M271.42,260.23c.81,1.77,5.35,5.34,7.62,4.92l-2.55,3.3c-2.09.12-5.42-2.14-6.61-4.39Z" style="fill:#37474f"></path><path d="M295.82,211.73l-21.45,1.64,6.21,26.35L276.71,248c.16.51.61,3.4.65,3.58.15.59-1.31,3-.35,10.19.18,1.39.68,3.4,1,4.69,2.53-3.22,7.91-10.05,11.92-15.55.28-.48.74-1.32.74-1.32a32.58,32.58,0,0,0,.5-8c-.33-2.85-1.61-18-1.61-18a11.74,11.74,0,0,0,3.17-2.91,7.75,7.75,0,0,0,1.48-3.22A47.56,47.56,0,0,0,295.82,211.73Z" style="fill:#37474f"></path><path d="M265.54,271.11c-.34-.06-.58,1.19-.6,1.59a5,5,0,0,0,.87,2,13.69,13.69,0,0,1,1.79,3.18c.4,1.24.47,3.63,1.61,5.32a8.31,8.31,0,0,0,7.4,3.15,4.66,4.66,0,0,0,2.6-1.06,1.62,1.62,0,0,0,.39-1.29Z" style="fill:#263238"></path><path d="M268.54,278.55a9.29,9.29,0,0,0-1.57-3.37c-.83-1.3-1.77-2.15-1.76-3.72a5.24,5.24,0,0,1,1.72-2.61c1-.91,1.12-2,1.74-1.81l-.23.37a7.84,7.84,0,0,0,1.23,1.31,1.26,1.26,0,0,1,.32,1.07,3.75,3.75,0,0,0,.3,1.9,7,7,0,0,1,.27-1.2,1.22,1.22,0,0,1,.73-.8,3.28,3.28,0,0,1,2.22.21c.8.28,1.74.5,2.13,1.09s-.09,1.31-.28,1.79c-.51,1.35.09,2.83.62,4.06a15.1,15.1,0,0,0,2.45,4.23c1,1.05,1.76,1.53,1.17,2.91a2.5,2.5,0,0,1-1,1,3.86,3.86,0,0,1-1.36.47,7.94,7.94,0,0,1-5.64-1.13,6.49,6.49,0,0,1-1.89-2.11A11.82,11.82,0,0,1,268.54,278.55Z" style="fill:#37474f"></path><path d="M272.06,280.15c1.63-1.23,4.23-1.48,5-1.1a1.51,1.51,0,0,1,.38.65c-.63-.56-3-.45-5.07.9A.43.43,0,0,1,272.06,280.15Z" style="fill:#263238"></path><path d="M271.1,278a5.68,5.68,0,0,1,5.08-.7.75.75,0,0,1,.25.55c-.78-.53-3.15-.53-5.09.62A.42.42,0,0,1,271.1,278Z" style="fill:#263238"></path><path d="M270.36,275.73c2.57-1.07,4.36-.83,5.06-.37a.73.73,0,0,1,.18.54c-.75-.58-2.76-.66-5.1.36A.41.41,0,0,1,270.36,275.73Z" style="fill:#263238"></path><path d="M270.25,273.53c2.09-1,4.31-.62,4.95-.07a.88.88,0,0,1,0,.57c-.67-.67-3-.92-4.92.06C270.07,273.87,270.25,273.53,270.25,273.53Z" style="fill:#263238"></path><path d="M289.8,283.31c-.16-2.51-.17-4.84-.17-7.35q0-5.08.05-10.17c0-3.47.05-6.94.07-10.42,0-2.77.05-5.53.07-8.3a233.61,233.61,0,0,0-3.38-24.71,16.26,16.26,0,0,0,5.16-4.21,16.46,16.46,0,0,0,4-8.48l-1.9-.3-20.8-1c-.24,3.43-.81,8.22-.74,12.7.14,9.18,7.51,27.38,7.51,27.38-.2,1.24-1.58,6.49-.72,11.25,1.36,7.52,2.49,15.67,3,19.75s1,6.36.83,7.15c-.1.58-.44,1.52-.2,2s.83.84,1.56,1.64a23.52,23.52,0,0,0,2.24,2.54,8.43,8.43,0,0,0,2.83,1.59,6.83,6.83,0,0,0,4,.37c.45-.13,1.47-.44,1.54-.91a1.49,1.49,0,0,0-.38-1c-1.33-1.94-1.51-2.12-2.8-4.09A8.45,8.45,0,0,1,289.8,283.31Z" style="fill:#b16668"></path><path d="M271,207.4c-.15,3.89-.21,6.57-.16,9.4a51.92,51.92,0,0,0,1.8,11.09c.95,4,5.56,21.89,5.92,23.31a32.67,32.67,0,0,0,0,12.46c1.48,9.65,3.28,18.17,3.28,18.17s4.95,1.31,8-.51c0,0,1-27.54.85-33.85-.17-5.48-2.73-24.76-2.73-24.76a15.8,15.8,0,0,0,8.92-13.11Z" style="fill:#455a64"></path><path d="M281,249.25c-.25-1.09-1-3.81-1.94-7.25-1.58-5.77-3.74-15-4.46-18.49-.86-4.2-.7-12.95-.7-13h-.47c0,.08-.17,8.88.7,13.13.73,3.54,2.81,12.42,4.48,18.53.9,3.29,1.68,6.14,1.94,7.23a11.42,11.42,0,0,1,0,3.92,39.52,39.52,0,0,0,.09,10c.58,4.67,2.23,13.89,3.16,18.93l.49,0c-.92-5-2.6-14.33-3.19-19a39,39,0,0,1-.08-9.86A11.84,11.84,0,0,0,281,249.25Z" style="fill:#37474f"></path><path d="M281,277.77c1.78.94,7.41,1.23,9-.54l-.11,4.19c-1.63,1.4-5.77,1.57-8.15.48Z" style="fill:#37474f"></path><path d="M282,291.53a2,2,0,0,0,0,1.39,4.54,4.54,0,0,0,1.71,1.48,6.5,6.5,0,0,1,2.7,2.21,11.64,11.64,0,0,0,3.78,4.2,9,9,0,0,0,7.27.95c2.53-.86,2.77-2,2.73-2.93Z" style="fill:#263238"></path><path d="M291.55,287.79a2.79,2.79,0,0,0,.53,1.27,19.5,19.5,0,0,0,3.09,3.59,34.67,34.67,0,0,0,3.61,3.1c1,.79,1.73,1.63,1.68,2.34-.16,2.23-2.82,3.25-5.56,3.21a8.55,8.55,0,0,1-4.57-1.4,8.91,8.91,0,0,1-2.08-2.08c-1.22-1.67-1.45-2.55-2.91-3.44-1.24-.75-2.23-.83-3.43-2.66-.45-1.23.11-2.55.29-3.79a13.78,13.78,0,0,0,0-1.7.72.72,0,0,1,.55-.7c0,.11,0,.55,0,.55a1.54,1.54,0,0,0,.87.6c.69.24,1.67-.06,1.81.49.07.31.1.53.15.66a4.93,4.93,0,0,0,.63,1.36s-.06-.58-.06-1a2.68,2.68,0,0,1,.22-1.27c.21-.47.74-.59,1.18-.79a6.76,6.76,0,0,1,2.54-.61,1.27,1.27,0,0,1,1.22.63,3.37,3.37,0,0,1,.18,1.55Z" style="fill:#37474f"></path><path d="M286.55,290.4c.92-.92,4.31-2.28,5.3-1.73,0,0,.25.07.29.5-.88-.26-3.18.19-5.21,1.66A.51.51,0,0,1,286.55,290.4Z" style="fill:#263238"></path><path d="M288,292.22c.86-.86,3.89-2.12,5-1.81.08,0,.5.38.51.58-.88-.26-3.13.19-5.16,1.67A.52.52,0,0,1,288,292.22Z" style="fill:#263238"></path><path d="M289.66,294c.86-.86,4-2.13,5.1-1.82.08,0,.5.38.51.58-.88-.25-3.2.19-5.23,1.67A.51.51,0,0,1,289.66,294Z" style="fill:#263238"></path><path d="M291.79,295.83c1-1.16,4-2.13,4.77-1.88.09,0,.67.39.69.59-.89-.35-3.25.22-5.08,1.72A.51.51,0,0,1,291.79,295.83Z" style="fill:#263238"></path></g><g id="freepik--top--inject-247"><g id="freepik--Arm--inject-247"><path d="M330.46,208.79c-1.35-1.12-3.34-1-4.95-1.51-.52-.15-1.94-.46-2.11-1.13-.11-.46,1.12-.18,2.14-.51s1.22-1.78.42-1.57-1.89-.17-3.62-.38-2.59.34-3.77-.13a21.91,21.91,0,0,1-4-2.7L311.82,207l3.1,1.75c1.71,1,2.79,2.23,6,3.27,1.51.48,3.41,1,4.87.09a4.57,4.57,0,0,1,1-.61,3.83,3.83,0,0,1,.67-.08,3.06,3.06,0,0,0,.8-.22,1,1,0,0,0,.36-.27c.13-.19.11-.46.23-.66a.88.88,0,0,1,.66-.34,3.85,3.85,0,0,0,.76-.09.59.59,0,0,0,.43-.57A.74.74,0,0,0,330.46,208.79Z" style="fill:#b16668"></path><path d="M314.21,208.67a99.67,99.67,0,0,1-10.48-6,12.22,12.22,0,0,1-3.4-3.18c-3.27-4.89-5.36-8.11-5.36-8.11l-1.61-14.24c3.32.22,5.6.84,7.6,4.38,1.47,2.63,6.8,13.89,6.8,13.89s9.18,6.83,9.76,7.28C315.72,203.1,314.09,206.26,314.21,208.67Z" style="fill:#FF81AE"></path><path d="M314.21,208.67a99.67,99.67,0,0,1-10.48-6,12.22,12.22,0,0,1-3.4-3.18c-3.27-4.89-5.36-8.11-5.36-8.11l-1.61-14.24c3.32.22,5.6.84,7.6,4.38,1.47,2.63,6.8,13.89,6.8,13.89s9.18,6.83,9.76,7.28C315.72,203.1,314.09,206.26,314.21,208.67Z" style="opacity:0.4"></path></g><g id="freepik--Chest--inject-247"><path d="M297.53,193.35c.86-7.09,2.23-14.48-3.25-16a33.45,33.45,0,0,0-8.52-.72c-3.5.18-6.76,1.34-9,1.62a38,38,0,0,0-4.9,16.76c-.44,6.52-1.12,12.21-1.21,19.81,5.51,3,23.14,4.11,26.78-1.75C297.22,208,296.36,203,297.53,193.35Z" style="fill:#FF81AE"></path><path d="M297.53,193.35c.86-7.09,2.23-14.48-3.25-16a33.45,33.45,0,0,0-8.52-.72c-3.5.18-6.76,1.34-9,1.62a38,38,0,0,0-4.9,16.76c-.44,6.52-1.12,12.21-1.21,19.81,5.51,3,23.14,4.11,26.78-1.75C297.22,208,296.36,203,297.53,193.35Z" style="opacity:0.2"></path><g id="freepik--Head--inject-247"><path d="M290.8,173.86c.48-2.14,2.73-4.27,3.8-6.1a9.15,9.15,0,0,0,1.63-4.85,3.39,3.39,0,0,0-1.31-2.73,4.69,4.69,0,0,0-3.14-6,17.42,17.42,0,0,1-2-.68c-.8-.38-.95-1-1.57-1.64a2.41,2.41,0,0,0-3.77.28c-.7-1-1.72-1-2.91-.79a2,2,0,0,0-1.66,2.19,2.1,2.1,0,0,0-3.21,1c-.15.67,0,1.26-.51,1.84a1,1,0,0,1-1.74,0c-.22,1,.12,1.71,1.18,1.71a2.21,2.21,0,0,0-.37,1.84,2,2,0,0,0,1.74,1.47,3.12,3.12,0,0,0,1.57,2.68,21.81,21.81,0,0,0,5,1.62l2,.53c.11,0,.73.09.79.2Z" style="fill:#263238"></path><path d="M293.55,171.21A2.09,2.09,0,0,1,291,171l-.44,5.81c1.06,1.38,1,3.11-1.59,3.6-3.38.64-6.17-1-7-3l.17-1.95a20,20,0,0,1-2.66-.24,4.33,4.33,0,0,1-3.27-3.6,19,19,0,0,1,.17-7.26,6.58,6.58,0,0,0,.18-1.77,8.17,8.17,0,0,1,.72-3.78c1.93-1.4,6.26-1.69,10.14,1a4.54,4.54,0,0,0,1.93,5.3c-.11.64-.27,2.26.79,2.28.76,0,.86-.93,1.68-1.73s2.67-.94,3.31.34A4.12,4.12,0,0,1,293.55,171.21Z" style="fill:#b16668"></path><path d="M282.16,175.5c2.7-.18,4.64-.36,6.13-2.23a16.65,16.65,0,0,0,1.78-3.09,13.24,13.24,0,0,1-1.35,3.92c-.74,1.2-2.43,2.27-6.64,2.42Z" style="fill:#9a4a4d"></path><path d="M283.67,165.23a.77.77,0,0,0,.72.81.79.79,0,0,0,.79-.76.77.77,0,0,0-.73-.81A.76.76,0,0,0,283.67,165.23Z" style="fill:#263238"></path><path d="M284,162.76l1.67.78a1,1,0,0,0-.47-1.25A.89.89,0,0,0,284,162.76Z" style="fill:#263238"></path><path d="M277.53,162.7l1.81-.4a.89.89,0,0,0-1.08-.72A1,1,0,0,0,277.53,162.7Z" style="fill:#263238"></path><path d="M277.71,164.52a.76.76,0,0,0,.73.8.78.78,0,0,0,.05-1.56A.77.77,0,0,0,277.71,164.52Z" style="fill:#263238"></path><polygon points="278.35 167.59 281.12 169.03 281.72 163.62 278.35 167.59" style="fill:#9a4a4d"></polygon><path d="M283.8,169.77l-3.07,1a1.57,1.57,0,0,0,2,1.1A1.68,1.68,0,0,0,283.8,169.77Z" style="fill:#9a4a4d"></path><path d="M283.47,170.32a1.29,1.29,0,0,1,.39,0,1.64,1.64,0,0,1-1.14,1.56,1.5,1.5,0,0,1-.51.07A1.47,1.47,0,0,1,283.47,170.32Z" style="fill:#af6152"></path></g></g><g id="freepik--arm--inject-247"><path d="M265,231.65c.52-1.64-.28-3.45-.46-5.09,0-.53-.29-1.95.25-2.35.37-.26.58,1,1.25,1.79s2.05.48,1.56-.18-.53-1.8-1-3.47-1.25-2.25-1.26-3.51a22.31,22.31,0,0,1,1-4.67l-6.51-.32s-.34,2.75-.44,3.48c-.26,1.93-1,3.38-.74,6.71.12,1.56.37,3.49,1.71,4.52a4.17,4.17,0,0,1,.93.73,5.54,5.54,0,0,1,.32.59,2.85,2.85,0,0,0,.49.65.85.85,0,0,0,.37.23c.23.06.46-.06.69,0a.9.9,0,0,1,.54.49,3.82,3.82,0,0,0,.36.66.58.58,0,0,0,.67.2A.76.76,0,0,0,265,231.65Z" style="fill:#b16668"></path><path d="M276.72,178.25c-4.44,1.11-5.85,2.14-7.9,5.81-1.61,2.88-3.61,7-5.39,10.18a18.42,18.42,0,0,0-2.71,7.65c-.29,2.89-1.46,13.76-1.46,13.76,1.39,1.27,5.56,1.8,6.75,1l3.4-14.14,7-11.24C278.52,189,280.13,182.22,276.72,178.25Z" style="fill:#FF81AE"></path><path d="M276.72,178.25c-4.44,1.11-5.85,2.14-7.9,5.81-1.61,2.88-3.61,7-5.39,10.18a18.42,18.42,0,0,0-2.71,7.65c-.29,2.89-1.46,13.76-1.46,13.76,1.39,1.27,5.56,1.8,6.75,1l3.4-14.14,7-11.24C278.52,189,280.13,182.22,276.72,178.25Z" style="opacity:0.4"></path></g></g></g></g></g><g id="freepik--character-1--inject-247"><g id="freepik--Bench--inject-247"><path id="freepik--shadow--inject-247" d="M167.6,313.66,78.39,365.17a3.64,3.64,0,0,1-3.28,0L47.56,349.26a1,1,0,0,1,0-1.89l89.21-51.51a3.66,3.66,0,0,1,3.29,0l27.54,15.91A1,1,0,0,1,167.6,313.66Z" style="fill:#FF81AE;opacity:0.25"></path><g id="freepik--bench--inject-247"><path d="M58.58,324.22c-2.16-1.25-3.89-3.13-4.21-5.31L51,295.42a1.55,1.55,0,0,1,1.64-1.68,2,2,0,0,1,2.1,1.53l3.35,23.48c.15,1,.85,1.67,2.21,2.46L79,332a1.74,1.74,0,0,1-.87,3.24,1.7,1.7,0,0,1-.87-.24Z" style="fill:#263238"></path><path d="M96.79,302.65c-2.17-1.25-3.9-3.13-4.21-5.31l-3.36-23.49a1.56,1.56,0,0,1,1.64-1.68A2,2,0,0,1,93,273.7l3.36,23.48c.15,1,.84,1.67,2.21,2.46l18.71,10.81a1.74,1.74,0,0,1-.87,3.24,1.76,1.76,0,0,1-.87-.24Z" style="fill:#263238"></path><path d="M133.68,280.92c-2.16-1.26-3.89-3.13-4.21-5.32l-3.35-23.48a1.55,1.55,0,0,1,1.64-1.68,2,2,0,0,1,2.1,1.53l3.35,23.48c.15,1,.85,1.67,2.21,2.46l18.72,10.8a1.74,1.74,0,0,1-.87,3.25,1.7,1.7,0,0,1-.87-.24Z" style="fill:#263238"></path><path d="M81.4,333.1v24a1,1,0,0,1-.57.81,3.11,3.11,0,0,1-2.79,0,1,1,0,0,1-.58-.81v-24Z" style="fill:#263238"></path><path d="M64.9,323.7v24a1,1,0,0,1-.58.8,3.05,3.05,0,0,1-2.79,0,1,1,0,0,1-.58-.8v-24Z" style="fill:#263238"></path><path d="M156.44,289.78v24a1,1,0,0,1-.58.8,3.05,3.05,0,0,1-2.79,0,1,1,0,0,1-.58-.8v-24Z" style="fill:#263238"></path><path d="M139.93,280.38v24a1,1,0,0,1-.57.8,3.07,3.07,0,0,1-2.8,0,1,1,0,0,1-.57-.8v-24Z" style="fill:#37474f"></path><path d="M54.75,326.58v.4a2.23,2.23,0,0,0,1,1.74l2.7,1.55a2.22,2.22,0,0,0,2,0L143,282.65a2.23,2.23,0,0,0,1-1.74v-.4a2.21,2.21,0,0,0-1-1.73l-2.7-1.56a2.2,2.2,0,0,0-2,0l-82.5,47.62A2.23,2.23,0,0,0,54.75,326.58Z" style="fill:#37474f"></path><path d="M59.46,325.42v5.09a2.07,2.07,0,0,1-1-.24l-2.7-1.55a2.23,2.23,0,0,1-1-1.74v-.4a2.23,2.23,0,0,1,1-1.74l1.35-.77Z" style="fill:#263238"></path><path d="M60.46,327.56,143,279.93a.61.61,0,0,0,0-1.15l-2.7-1.56a2.2,2.2,0,0,0-2,0l-82.5,47.62a.61.61,0,0,0,0,1.16l2.7,1.56A2.22,2.22,0,0,0,60.46,327.56Z" style="fill:#455a64"></path><path d="M63.65,331.72v.4a2.21,2.21,0,0,0,1,1.73l2.7,1.56a2.2,2.2,0,0,0,2,0l82.49-47.62a2.21,2.21,0,0,0,1-1.74v-.4a2.21,2.21,0,0,0-1-1.74l-2.69-1.55a2.22,2.22,0,0,0-2,0L64.65,330A2.23,2.23,0,0,0,63.65,331.72Z" style="fill:#37474f"></path><path d="M68.35,330.56v5.09a2,2,0,0,1-1-.24l-2.7-1.56a2.21,2.21,0,0,1-1-1.73v-.4a2.23,2.23,0,0,1,1-1.74L66,329.2Z" style="fill:#263238"></path><path d="M69.35,332.7l82.49-47.63a.61.61,0,0,0,0-1.16l-2.69-1.55a2.22,2.22,0,0,0-2,0L64.65,330a.61.61,0,0,0,0,1.16l2.7,1.56A2.2,2.2,0,0,0,69.35,332.7Z" style="fill:#455a64"></path><path d="M72.66,336.93v.4a2.23,2.23,0,0,0,1,1.74l2.7,1.55a2.2,2.2,0,0,0,2,0L160.86,293a2.23,2.23,0,0,0,1-1.74v-.4a2.21,2.21,0,0,0-1-1.73l-2.7-1.56a2.22,2.22,0,0,0-2,0L73.66,335.19A2.23,2.23,0,0,0,72.66,336.93Z" style="fill:#37474f"></path><path d="M77.36,335.77v5.09a2.05,2.05,0,0,1-1-.24l-2.7-1.55a2.23,2.23,0,0,1-1-1.74v-.4a2.23,2.23,0,0,1,1-1.74l1.35-.78Z" style="fill:#263238"></path><path d="M78.36,337.91l82.5-47.63a.61.61,0,0,0,0-1.15l-2.7-1.56a2.22,2.22,0,0,0-2,0L73.66,335.19a.61.61,0,0,0,0,1.16l2.7,1.56A2.2,2.2,0,0,0,78.36,337.91Z" style="fill:#455a64"></path><path d="M62.36,323c-.32.18-.32.47,0,.65a1.25,1.25,0,0,0,1.13,0c.31-.18.32-.47,0-.65A1.25,1.25,0,0,0,62.36,323Z" style="fill:#37474f"></path><path d="M71.28,328.14a.35.35,0,0,0,0,.66,1.27,1.27,0,0,0,1.14,0,.35.35,0,0,0,0-.66A1.25,1.25,0,0,0,71.28,328.14Z" style="fill:#37474f"></path><path d="M80.31,333.39a.35.35,0,0,0,0,.66,1.25,1.25,0,0,0,1.13,0,.35.35,0,0,0,0-.66A1.25,1.25,0,0,0,80.31,333.39Z" style="fill:#37474f"></path><path d="M137.39,279.67a.34.34,0,0,0,0,.65,1.27,1.27,0,0,0,1.14,0,.34.34,0,0,0,0-.65A1.27,1.27,0,0,0,137.39,279.67Z" style="fill:#37474f"></path><path d="M146.31,284.85a.34.34,0,0,0,0,.65,1.25,1.25,0,0,0,1.13,0c.32-.18.32-.47,0-.65A1.21,1.21,0,0,0,146.31,284.85Z" style="fill:#37474f"></path><path d="M155.35,290.1c-.32.18-.32.47,0,.65a1.27,1.27,0,0,0,1.14,0,.34.34,0,0,0,0-.65A1.25,1.25,0,0,0,155.35,290.1Z" style="fill:#37474f"></path><path d="M50.21,320.5l-.08,0a2.32,2.32,0,0,1-1.31-1.56L48.41,316a1.81,1.81,0,0,1,.85-1.65l82.49-47.62a2.74,2.74,0,0,1,2.16-.09l.08,0a2.3,2.3,0,0,1,1.31,1.56l.41,2.88a1.75,1.75,0,0,1-.85,1.64L52.37,320.41A2.74,2.74,0,0,1,50.21,320.5Z" style="fill:#455a64"></path><path d="M53.36,317.12l-4.76-2a1.58,1.58,0,0,0-.19.93l.41,2.88a2.32,2.32,0,0,0,1.31,1.56l.08,0a2.74,2.74,0,0,0,2.16-.09l1.35-.78Z" style="fill:#263238"></path><path d="M51.65,315.39l82.49-47.62c.56-.32,1.08-.1,1.16.49l.41,2.88a1.75,1.75,0,0,1-.85,1.64L52.37,320.41c-.55.32-1.07.1-1.15-.49L50.8,317A1.81,1.81,0,0,1,51.65,315.39Z" style="fill:#37474f"></path><path d="M48.79,310.49l-.08,0a2.3,2.3,0,0,1-1.31-1.56L47,306a1.77,1.77,0,0,1,.85-1.65l82.49-47.62a2.71,2.71,0,0,1,2.15-.09l.09,0a2.31,2.31,0,0,1,1.3,1.56l.42,2.88a1.79,1.79,0,0,1-.85,1.64L51,310.4A2.74,2.74,0,0,1,48.79,310.49Z" style="fill:#455a64"></path><path d="M51.94,307.11l-4.77-2A1.53,1.53,0,0,0,47,306l.41,2.88a2.3,2.3,0,0,0,1.31,1.56l.08,0A2.74,2.74,0,0,0,51,310.4l1.35-.78Z" style="fill:#263238"></path><path d="M50.23,305.38l82.49-47.62c.55-.32,1.07-.1,1.15.49l.42,2.88a1.79,1.79,0,0,1-.85,1.64L51,310.4c-.56.32-1.08.1-1.16-.49L49.38,307A1.77,1.77,0,0,1,50.23,305.38Z" style="fill:#37474f"></path><path d="M47.42,300.75l-.08,0A2.32,2.32,0,0,1,46,299.16l-.41-2.88a1.81,1.81,0,0,1,.85-1.65L129,247a2.74,2.74,0,0,1,2.16-.09l.08,0a2.3,2.3,0,0,1,1.31,1.56l.41,2.87a1.76,1.76,0,0,1-.85,1.65L49.58,300.66A2.74,2.74,0,0,1,47.42,300.75Z" style="fill:#455a64"></path><path d="M50.57,297.37l-4.76-2a1.57,1.57,0,0,0-.19.93l.41,2.88a2.32,2.32,0,0,0,1.31,1.56l.08,0a2.74,2.74,0,0,0,2.16-.09l1.35-.78Z" style="fill:#263238"></path><path d="M48.86,295.64,131.35,248c.56-.32,1.08-.1,1.16.49l.41,2.87a1.76,1.76,0,0,1-.85,1.65L49.58,300.66c-.55.32-1.07.1-1.15-.49L48,297.29A1.81,1.81,0,0,1,48.86,295.64Z" style="fill:#37474f"></path><path d="M52.38,295.58a1.14,1.14,0,0,0-.54,1.06c0,.38.38.52.74.31a1.15,1.15,0,0,0,.55-1.06C53.07,295.51,52.74,295.37,52.38,295.58Z" style="fill:#455a64"></path><path d="M54.05,305A1.16,1.16,0,0,0,53.5,306a.46.46,0,0,0,.75.32,1.15,1.15,0,0,0,.54-1.06C54.74,304.91,54.41,304.76,54.05,305Z" style="fill:#455a64"></path><path d="M55.49,315a1.14,1.14,0,0,0-.54,1.06c0,.38.39.52.74.31a1.15,1.15,0,0,0,.55-1.06C56.18,314.93,55.85,314.79,55.49,315Z" style="fill:#455a64"></path><path d="M127.49,252.29a1.15,1.15,0,0,0-.54,1.06.45.45,0,0,0,.74.32,1.16,1.16,0,0,0,.55-1.06A.46.46,0,0,0,127.49,252.29Z" style="fill:#455a64"></path><path d="M129.16,261.69a1.14,1.14,0,0,0-.54,1.06c0,.38.38.52.74.31a1.15,1.15,0,0,0,.55-1.06C129.85,261.62,129.52,261.48,129.16,261.69Z" style="fill:#455a64"></path><path d="M130.61,271.71a1.14,1.14,0,0,0-.55,1.06.45.45,0,0,0,.74.32,1.16,1.16,0,0,0,.55-1.06A.45.45,0,0,0,130.61,271.71Z" style="fill:#455a64"></path><path d="M90.77,273.68a1.15,1.15,0,0,0-.55,1.06c.06.38.39.52.75.31a1.14,1.14,0,0,0,.54-1.06C91.46,273.61,91.12,273.47,90.77,273.68Z" style="fill:#455a64"></path><path d="M92.44,283.07a1.13,1.13,0,0,0-.55,1.06.45.45,0,0,0,.74.32,1.17,1.17,0,0,0,.55-1.07C93.13,283,92.79,282.86,92.44,283.07Z" style="fill:#455a64"></path><path d="M93.88,293.09a1.17,1.17,0,0,0-.55,1.07c.06.38.39.52.75.31a1.14,1.14,0,0,0,.54-1.06C94.57,293,94.24,292.89,93.88,293.09Z" style="fill:#455a64"></path><path d="M100.5,301.4a.35.35,0,0,0,0,.66,1.25,1.25,0,0,0,1.13,0,.35.35,0,0,0,0-.66A1.25,1.25,0,0,0,100.5,301.4Z" style="fill:#37474f"></path><path d="M109.42,306.58c-.32.18-.32.47,0,.65a1.25,1.25,0,0,0,1.13,0,.34.34,0,0,0,0-.65A1.25,1.25,0,0,0,109.42,306.58Z" style="fill:#37474f"></path><path d="M118.45,311.83a.34.34,0,0,0,0,.65,1.25,1.25,0,0,0,1.13,0c.32-.18.32-.47,0-.65A1.27,1.27,0,0,0,118.45,311.83Z" style="fill:#37474f"></path></g></g><g id="freepik--character--inject-247"><g id="freepik--character--inject-247"><path d="M107.46,323c-1,.8-2.35,0-3.44.83a3.62,3.62,0,0,0-1.4,2.4,4.56,4.56,0,0,1-.3,1.43l-.85,1.58a20.81,20.81,0,0,1-1.54,2.4,7.93,7.93,0,0,0-.75,6.64c.31,1.14.89,1.4,1.61,2.33a2.5,2.5,0,0,0,2.21,1.18,2.86,2.86,0,0,0,1.76-1.74,7.24,7.24,0,0,0,.43-2.26,6.46,6.46,0,0,1,1.14-3.05,24.3,24.3,0,0,0,1.57-1.92c.93-1.18,1.84-2.38,2.75-3.59l.27-.37a58.64,58.64,0,0,1,5.23-4.42l-4.83-6.91Z" style="fill:#ffa8a7"></path><path d="M103.63,323.61a2.43,2.43,0,0,0-1.53.63,7.49,7.49,0,0,0-.67,2.87c-.07,1.37-.13,1.93-.82,2.71a9.09,9.09,0,0,0-2.2,3.46,7.31,7.31,0,0,0,.56,6.19c1.32,2.39,2.29,2.79,3,2.95a4.34,4.34,0,0,0,1.85-.23Z" style="fill:#263238"></path><path d="M107.83,322.44l-.37.52a5.68,5.68,0,0,0-.62.85c-.73,1.27-.06,3.59.15,4.21a1.47,1.47,0,0,1,1.21.06c.88.37,2.34,1.15,2.33,1.59s-2.47,2.65-3.54,4.61a9,9,0,0,0-1.18,4.68c-.08,1.27-.69,3.47-2.55,3.23-1-.11-3.55-1.48-4.38-5.4-.73-3.48,1.39-5.58,2.46-6.81s1-2.25,1.35-4.17a3.23,3.23,0,0,1,.94-2.2,15,15,0,0,1,3.09-.81C107.39,322.58,107.55,322.12,107.83,322.44Z" style="fill:#37474f"></path><path d="M107,328a.79.79,0,0,1,.06.55,1.64,1.64,0,0,1-.28.48l-.66.86c-.44.58-.86,1.16-1.26,1.75a21.38,21.38,0,0,0-1.11,1.84,9.91,9.91,0,0,0-.79,2,6.47,6.47,0,0,1,.56-2.11,11.52,11.52,0,0,1,1-1.92,20.5,20.5,0,0,1,1.33-1.74c.23-.27.49-.54.74-.8a2.06,2.06,0,0,0,.33-.4A.88.88,0,0,0,107,328Z" style="fill:#263238"></path><path d="M102.77,334.82c.94,0,3.17.83,3.33,1.7l0,.25a1.16,1.16,0,0,0,.28-.72c0-.48-1.26-1.57-3.37-1.75C102.68,334.41,102.49,334.8,102.77,334.82Z" style="fill:#fafafa"></path><path d="M103.57,333.14c.94-.05,3,.65,3.22,1.52l-.09.18a.67.67,0,0,0,.32-.63c0-.48-1.17-1.55-3.29-1.6C103.46,332.73,103.29,333.13,103.57,333.14Z" style="fill:#fafafa"></path><path d="M104.54,331.51c.94,0,3,.82,3.14,1.7l-.15.21a.86.86,0,0,0,.42-.55c.1-.49-1.12-1.65-3.21-1.88C104.47,331.09,104.27,331.48,104.54,331.51Z" style="fill:#fafafa"></path><path d="M105.44,330.15c.94,0,3.15.85,3.28,1.74l-.16.2a1,1,0,0,0,.45-.57c.09-.5-1.28-1.65-3.36-1.89C105.37,329.73,105.17,330.12,105.44,330.15Z" style="fill:#fafafa"></path><path d="M100.54,297.35c.2,1.24,8.21,2.38,13.93,3.41C121,302,124.23,303,126.85,305a5.44,5.44,0,0,1,2.33,4.84c-.09,1.57-1.12,4.22-3.79,6.91-5.07,5.08-7.67,6.45-11.31,9.47,0,0-4.39-2.12-5.41-5.09l4.87-6.81-16.82-2.65Z" style="fill:#455a64"></path><path d="M116.27,320.45c.25,1.14.5,2.36.72,3.49-.94.71-1.88,1.43-2.91,2.28,0,0-4.39-2.12-5.41-5.09l4.27-6C114.82,316.59,115.58,317.22,116.27,320.45Z" style="fill:#37474f"></path><path d="M96.72,311.67l.38-1.1s9.66,1,13,1.29c2.84.27,3.4.29,4.66-1.1,1.73-1.93,3.06-2.37,4.46-2.23-2,.51-3.95,3.08-5.7,5.79Z" style="fill:#37474f"></path><path d="M100.27,306.73l11,7.23-14.55-2.29,2.74-11.48,1.1-.29A20,20,0,0,1,100.27,306.73Z" style="fill:#37474f"></path><path d="M113.9,350.24c-.19,1.13-.93,2.74-.52,4.16a3.9,3.9,0,0,0,1.83,2.32,4.87,4.87,0,0,1,1.28.86l1.22,1.45a16.49,16.49,0,0,1,1.74,2,8.39,8.39,0,0,0,6.25,3.35,8.52,8.52,0,0,0,3.52-.24c.83-.23,1.87-.78,2-1.7a3.08,3.08,0,0,0-1-2.43,13.32,13.32,0,0,0-2.65-1.74A11.82,11.82,0,0,1,125,356a15.64,15.64,0,0,1-4-6.69c-.44-1.68-1.82-9-1.82-9l-8.6,1S114.1,349.1,113.9,350.24Z" style="fill:#ffa8a7"></path><path d="M113.06,354.71a2.51,2.51,0,0,0,0,1.76,7.69,7.69,0,0,0,2.56,1.78c1.33.61,1.85.88,2.35,1.88a8.18,8.18,0,0,0,2.32,3.29c1.48,1.24,3.85,2,7.18,1.75,2.89-.25,3.79-1.37,4-1.68a3.56,3.56,0,0,0,.51-1.69Z" style="fill:#263238"></path><path d="M113.8,349.48a7.74,7.74,0,0,1,.17.95,2,2,0,0,0,.59,1.12,6.18,6.18,0,0,0,3.49,1.32,1.75,1.75,0,0,1,.84-1.05c1.27-.83,2.76-1.26,3.2-1.07s1.27,2.57,2.78,4.39a15.2,15.2,0,0,0,4.74,3.66c1.17.68,3.15,1.82,2.18,3.56-.5.91-3.23,2.33-7.42,1.6a7.71,7.71,0,0,1-5.93-4.49c-.78-1.54-1.82-1.89-3.59-3a3.42,3.42,0,0,1-1.79-1.8,19.72,19.72,0,0,1,.4-3.81C113.5,350.15,113.39,349.63,113.8,349.48Z" style="fill:#37474f"></path><path d="M118.05,352.87a1,1,0,0,1,.93.62,9.93,9.93,0,0,0,.82,1.26,25.9,25.9,0,0,0,4.68,4.85,13.59,13.59,0,0,1-4.82-4.62,10.48,10.48,0,0,1-.85-1.4C118.67,353.22,118.47,352.91,118.05,352.87Z" style="fill:#263238"></path><path d="M123.66,359.27a3.77,3.77,0,0,1,3.45-2l.23.15a1.26,1.26,0,0,0-.61-.56,3.39,3.39,0,0,0-3.51,2C123.22,359.19,123.53,359.54,123.66,359.27Z" style="fill:#fafafa"></path><path d="M121.86,358a4.29,4.29,0,0,1,3.65-2.12l.17.17a.77.77,0,0,0-.52-.57,4.1,4.1,0,0,0-3.76,2.16C121.41,357.93,121.74,358.25,121.86,358Z" style="fill:#fafafa"></path><path d="M120.5,356.44c.43-1.19,2.85-2.32,3.78-2.1l.16.24a1,1,0,0,0-.39-.64c-.45-.29-3.09.45-4,2.09C120.05,356.34,120.36,356.69,120.5,356.44Z" style="fill:#fafafa"></path><path d="M119.58,355c.34-1.3,2.89-2.25,3.81-2l.2.3a.85.85,0,0,0-.35-.63,4,4,0,0,0-4.09,1.95C119.14,354.9,119.44,355.25,119.58,355Z" style="fill:#fafafa"></path><path d="M100.54,297.35h0l-21.89,4.5c0,3.09.24,7.48,1.4,10,1.07,2.27,3.11,4.88,8.08,6.95,5.9,2.47,13,4.48,14.45,5.14,2,.94,2.52.52,3.18,5,.42,2.88.86,3.54,3.89,10.82,1.1,2.65,2.28,5.73,2.28,5.73,1.11,1.24,6.67.44,8.06-1.57,0,0-3.36-19-4.36-22.63a9.8,9.8,0,0,0-3.72-5.94c-2.25-1.81-13.16-8.16-13.16-8.16S100.93,303.6,100.54,297.35Z" style="fill:#455a64"></path><path d="M81.57,302.93c.14,5.12.22,8.2,7.45,11.21,2.18.91,4.43,1.76,6.61,2.58,6.48,2.43,11.59,4.35,12.1,6.64.19.88.35,1.93.53,3.14A53.28,53.28,0,0,0,110.64,337c1.21,3.39,2.52,6.87,3.38,9.13a6.26,6.26,0,0,1-.63,0c-.86-2.27-2.13-5.62-3.29-8.9a53.41,53.41,0,0,1-2.41-10.55c-.18-1.21-.33-2.25-.52-3.1-.45-2-5.93-4.05-11.74-6.23-2.19-.83-4.45-1.68-6.63-2.59-7.58-3.15-7.67-6.56-7.8-11.72,0-.49,0-1,0-1.52l.57-.16C81.54,301.84,81.56,302.4,81.57,302.93Z" style="fill:#37474f"></path><path d="M86.76,313.62c.09-.07,2-1.77.78-5.4a21.26,21.26,0,0,1-1.36-8.65h-.57A22,22,0,0,0,87,308.4c1.12,3.27-.58,4.77-.6,4.78Z" style="fill:#37474f"></path><path d="M119.66,341.66c-.7,1.49-5.57,3.17-8.48,2.12l1,2.63a7.06,7.06,0,0,0,8-1.86Z" style="fill:#37474f"></path><g id="freepik--top--inject-247"><path d="M95.22,271.1c4.16.65,5.85.61,9.12,7,2.3,4.52,7.28,13.88,7.28,13.88l-6.36,4.61c-2.32-4.18-4.83-8.31-8.6-14.44Z" style="fill:#ffa8a7"></path><path d="M100.93,286.18c2.37-3.72,1.37-6.4.56-8-1.63-3.13-6.27-7.12-6.27-7.12a28,28,0,0,0-6.53-.62,18.76,18.76,0,0,0-5.84.8c-1.43.45-3.68,1.25-3.68,1.25a11.42,11.42,0,0,1,1.93,6.83c-.25,4.74-1.76,5.95-1.76,5.95s.63,5,.93,6.15a14,14,0,0,1-.66,4.61,58.51,58.51,0,0,0-1.51,7.54,1,1,0,0,0,.64,1c8.54,2.91,21.14-2.27,24.85-7.81-.25-1.43-2.07-3.8-2.38-5.33A15.18,15.18,0,0,1,100.93,286.18Z" style="fill:#37474f"></path><path d="M93.93,287.49s-1.82,2.27-5.75,1.62a5.53,5.53,0,0,1-4.69-3.62s-.24,3.81,4.45,4.57S93.93,287.49,93.93,287.49Z" style="fill:#263238"></path><path d="M111.62,284.35a1.71,1.71,0,0,1,.8-1.39c.89-.7,2-1.29,2.37-3l1.27.68-2,3.61Z" style="fill:#FF81AE"></path><path d="M111.62,284.35a1.71,1.71,0,0,1,.8-1.39c.89-.7,2-1.29,2.37-3l1.27.68-2,3.61Z" style="fill:#fff;opacity:0.75"></path><path d="M111.62,284.35s-1.39-.63-4.36.11a39.17,39.17,0,0,1-11.12,1.72l1.53.8,14.87-1.45Z" style="fill:#FF81AE"></path><path d="M111.62,284.35s-1.39-.63-4.36.11a39.17,39.17,0,0,1-11.12,1.72l1.53.8,14.87-1.45Z" style="fill:#fff;opacity:0.75"></path><polygon points="96.14 286.18 91.48 303.54 93 304.34 97.67 286.98 96.14 286.18" style="fill:#FF81AE"></polygon><polygon points="96.14 286.18 91.48 303.54 93 304.34 97.67 286.98 96.14 286.18" style="fill:#fff;opacity:0.8"></polygon><polygon points="96.14 286.18 91.48 303.54 93 304.34 97.67 286.98 96.14 286.18" style="opacity:0.1"></polygon><g style="opacity:0.1"><path d="M114.82,280.92a3,3,0,0,1-.57,1,10.45,10.45,0,0,1-.83.8,6.81,6.81,0,0,0-.81.8,2,2,0,0,0-.28.47,1.18,1.18,0,0,0-.08.51l-.18,0a1.24,1.24,0,0,1,.12-.61,2.33,2.33,0,0,1,.31-.5,5.72,5.72,0,0,1,.86-.78,8.85,8.85,0,0,0,.85-.76A3.13,3.13,0,0,0,114.82,280.92Z"></path><path d="M114.62,281.89a2.92,2.92,0,0,1-.43.61c-.17.19-.34.37-.5.56a3,3,0,0,0-.42.59,1.5,1.5,0,0,0-.21.67h-.19a1.71,1.71,0,0,1,.28-.73,4.34,4.34,0,0,1,.47-.59l.53-.52A2.91,2.91,0,0,0,114.62,281.89Z"></path><path d="M101.89,286.08a21.76,21.76,0,0,0,2.41-.45c.8-.19,1.59-.42,2.38-.64a11.13,11.13,0,0,1,2.43-.41,7.34,7.34,0,0,1,1.24,0,3.2,3.2,0,0,1,.62.09,1.55,1.55,0,0,1,.6.27l-.12.13a1.45,1.45,0,0,0-.52-.23,3.83,3.83,0,0,0-.59-.1,9.89,9.89,0,0,0-1.22,0,11.07,11.07,0,0,0-2.42.37c-.79.2-1.58.42-2.39.59A22.23,22.23,0,0,1,101.89,286.08Z"></path><path d="M105.83,285.85c.46-.08.91-.19,1.36-.29s.91-.21,1.37-.29a9.51,9.51,0,0,1,1.4-.15,4,4,0,0,1,1.41.2l-.07.17a3.74,3.74,0,0,0-1.34-.23,8,8,0,0,0-1.38.1c-.46.06-.92.15-1.38.24S106.29,285.79,105.83,285.85Z"></path></g><polygon points="116.03 279.81 113.74 284.1 108.74 302.7 109.5 303.11 111.76 297.88 116.79 280.21 116.03 279.81" style="fill:#FF81AE"></polygon><polygon points="114.5 284.5 116.79 280.21 111.76 297.88 109.5 303.11 114.5 284.5" style="opacity:0.2"></polygon><polygon points="111.35 285.6 96.68 287.12 91.68 305.73 92.44 306.13 107.11 304.62 112.11 286 111.35 285.6" style="fill:#FF81AE"></polygon><polygon points="97.44 287.52 92.44 306.13 107.11 304.62 112.11 286 97.44 287.52" style="opacity:0.2"></polygon><polygon points="96.68 287.12 97.44 287.52 92.44 306.13 91.68 305.73 96.68 287.12" style="opacity:0.35000000000000003"></polygon><path d="M112.11,286l2.39-1.51-5,18.61a2.29,2.29,0,0,1-2.39,1.51Z" style="fill:#FF81AE"></path><path d="M112.11,286l2.39-1.51-5,18.61a2.29,2.29,0,0,1-2.39,1.51Z" style="opacity:0.35000000000000003"></path><path d="M113.66,284.05a2.36,2.36,0,0,0-2,.3c-.66.42-.82,1-.36,1.21l.85.45,2.39-1.51-.76-.41Z" style="fill:#455a64"></path><path d="M113.74,284.09c-.12.72-1,1.19-2.39,1.51l.76.41a3,3,0,0,0,2.39-1.51Z" style="fill:#FF81AE"></path><path d="M79.59,272.37c-3.62,1.16-5.63,2.36-6.22,6.45A126.45,126.45,0,0,0,72,295.57c0,1.8-.19,4.1,3.83,5.05a118.53,118.53,0,0,0,14.6,2.05,38.86,38.86,0,0,0,4.8.22,8.77,8.77,0,0,0,5.42-3,2.71,2.71,0,0,0,1-1.84,2.28,2.28,0,0,1,0-.69,3.22,3.22,0,0,1,.33-.6,1.25,1.25,0,0,0,.12-.74,3.8,3.8,0,0,1-.14-.67c0-.46.44-.8.63-1.22a.45.45,0,0,0,0-.2c0-.15-.18-.24-.33-.27a3.06,3.06,0,0,0-2,.44c-1.85,1.14-2.91,2.55-5.52,2.62-.62,0-1.37-.23-1.21-.83l.32-1.19c-1.49.3-2.29,1.77-3.52,2S80.43,294,80.43,294l1.3-10.34S83.17,275.24,79.59,272.37Z" style="fill:#ffa8a7"></path><path d="M113.86,290.48a10.57,10.57,0,0,1-1,1.9c-.28.48-.24,1.05.09,1.19l-.88,3.08s.43,0,1.33-1a9.74,9.74,0,0,0,1.68-4c.17-1.06.29-3-.61-3.4Z" style="fill:#ffa8a7"></path><g id="freepik--head--inject-247"><path d="M78.29,269.82c-2-1.94-.23-5.14-.75-8-.66-3.56-1.08-8.59,2.66-10.21,1-3.61,5.06-5.38,9.71-4.74,2.14.29,4.43.39,6.25,1.69,1.4.81,2.86,2.52,2,4.18a2,2,0,0,1,2.19,2.59c-.29.63-1,1-1.37,1.56-.65.79.14,1.68.88.81.19.87-1,1.42-1.78,1.42a2.12,2.12,0,0,1-1.15-.34c-.28-.18-.4-.48-.76-.44-1,.12-1.08,1.44-.4,2.05,1.82,1.28,4.64,2.42,3.76,5.21-.06-1-1.16-1.37-2-1.53.87.85,1.07,2.3-.28,3.79a5.44,5.44,0,0,1-3.78,1.66c-1.83.18-2.81.4-4.29.57-4,.46-7.41.65-8.53-2.52a2.42,2.42,0,0,0,1.61,2.73A4.07,4.07,0,0,1,78.29,269.82Z" style="fill:#263238"></path><path d="M79.83,261.71a2.6,2.6,0,0,1,1.33-1.84,1.73,1.73,0,0,1,2,.23,5.1,5.1,0,0,1,.55,1,1.12,1.12,0,0,0,.87.68.22.22,0,0,0,.19-.07c.06-.08,0-.19,0-.28a2.13,2.13,0,0,1,0-1.2c.12-.39.35-.76.46-1.15a3.89,3.89,0,0,0,0-2.62c4.53-.27,7.8-3.23,8.34-4.3.87.5,2.39,1.77,2.9,7.09.49,5.06-.45,7.35-1.8,8.2a5.72,5.72,0,0,1-3.3,1l-.34,2.18c5.16,4.48-1.84,7-7.56.86l.6-6.7c-.22.66-1.64.94-2.47.67a2.89,2.89,0,0,1-1.45-1.36A3.65,3.65,0,0,1,79.83,261.71Z" style="fill:#ffa8a7"></path><path d="M89.77,258.94a.77.77,0,0,1-.55.92.73.73,0,0,1-.91-.52.78.78,0,0,1,.56-.92A.72.72,0,0,1,89.77,258.94Z" style="fill:#263238"></path><path d="M95.18,256.82l-1.7-.55a.86.86,0,0,1,1.1-.59A.93.93,0,0,1,95.18,256.82Z" style="fill:#263238"></path><path d="M89.16,256.66l-1.72,1a1,1,0,0,1,.32-1.35A1.05,1.05,0,0,1,89.16,256.66Z" style="fill:#263238"></path><path d="M89.66,263.41l2.28.82a1.21,1.21,0,0,1-1.66.69A1.15,1.15,0,0,1,89.66,263.41Z" style="fill:#b16668"></path><path d="M91,265a1.29,1.29,0,0,0-1.24-1.18h-.12a1.07,1.07,0,0,0,.69,1.08A1.43,1.43,0,0,0,91,265Z" style="fill:#f28f8f"></path><path d="M94.86,258.51a.75.75,0,0,1-.53.89.7.7,0,0,1-.88-.51A.76.76,0,0,1,94,258,.7.7,0,0,1,94.86,258.51Z" style="fill:#263238"></path><path d="M91.43,268.41c-2.92,0-5.9-.55-7-3.09a3.93,3.93,0,0,0,2.08,2.88,13.28,13.28,0,0,0,4.72,1.18Z" style="fill:#f28f8f"></path><polygon points="91.09 257.91 92.06 262.6 94.55 261.45 91.09 257.91" style="fill:#f28f8f"></polygon></g></g></g></g></g><g id="freepik--Dog--inject-247"><ellipse id="freepik--shadow--inject-247" cx="228.68" cy="409.18" rx="11.59" ry="26.78" transform="translate(-230.93 501.29) rotate(-72.13)" style="fill:#FF81AE;opacity:0.25"></ellipse><g id="freepik--dog--inject-247"><path d="M261.77,385.93c.24,1.84,5.37,9.06,6.84,9.13,2.82.12,5.48-.36,7.36.47,1.43.64,3.82,2.42,3.24,3.7s-1.51,1.32-2.71,1c-1.52-.4-2.52-1.18-3.34-1.09s-5.56,1.1-7.65.49-6.46-3.85-7.14-5.15S261.77,385.93,261.77,385.93Z" style="fill:#37474f"></path><path d="M220.55,395.38c.31-2.12,7.67-2.64,8.5-4.59l8.11,2.33a8,8,0,0,1-2.24,3.1c-1.16,1-2.15,1-3.41,1.23s-5.61-.13-6.44.55-.86.8-1,2.06c0,.44-.07.88-.1,1.33a3.46,3.46,0,0,1-.45,1.71,1.4,1.4,0,0,1-1.77.44,2.48,2.48,0,0,1-.31-.18,3.55,3.55,0,0,1-1.19-2.34A23.17,23.17,0,0,1,220.55,395.38Z" style="fill:#37474f"></path><path d="M231.32,380.56c-2.79-4-7.7-5.08-9.33-7.53-2.24-3.4-.11-6.39-.28-7.55s-2.44-.15-2.86,3.83a8.48,8.48,0,0,0,3.05,7.49c2.08,1.87,6.21,4.14,6.9,6.52Z" style="fill:#37474f"></path><path d="M211.88,396.39c.22-2.13,7.55-2.94,8.3-4.93,2.08-9.79,2.85-10.47,6.16-12.38,3.56-2.06,8.79-1.09,12.62.76,3,1.44,9.93,3.28,12.08,1.57,5.81,0,13.06,1,11.62,4.82s-1.29,5.61-4.09,9.53c-4.49,6.29-14.39,6.2-20.13,1.86-2.81-2.12-7.34-3.38-10-3.87a14.54,14.54,0,0,1-2.15,2.9c-1.11,1.09-2.1,1.1-3.35,1.37s-5.61.09-6.41.8-.84.85-.89,2.11l-.05,1.32a3.59,3.59,0,0,1-.37,1.73,1.39,1.39,0,0,1-1.75.51,1.37,1.37,0,0,1-.32-.16,3.55,3.55,0,0,1-1.29-2.29A23.22,23.22,0,0,1,211.88,396.39Z" style="fill:#455a64"></path><path d="M254.65,392.34c1.35-2.37,1.62-5.86,1.75-7.27l4.24-1.3,2.16,1.93c0,.17-.12.33-.14.53a22,22,0,0,1-4,10.12c-3.71,5.2-14,5.58-17.54,2.85C246.87,399.71,252.68,395.78,254.65,392.34Z" style="fill:#f5f5f5"></path><path d="M263.87,368.84a6.52,6.52,0,0,1,5.43,1.65c.48.67-.46,3.62-.46,3.62Z" style="fill:#263238"></path><path d="M256.27,386.48a7.87,7.87,0,0,0,6.26-1.13,1,1,0,0,0,.47-.54c-.1-.51.22-1.64,1.07-1.49a30.09,30.09,0,0,1,3.35,1.09h0l.55.17c2.3.63,3.75-.37,4.13-1.35A5.34,5.34,0,0,0,275.6,380c.43-1.29-2.76-2.76-4.22-3.75s-1.15-1.26-1.19-2.51c0-.72-1.46-2.08-2.14-2.7-2.2-2-4.91-3.14-8.06-1.77s-5,3.79-6.87,7.92c-.88,1.95-.83,2.83-1.55,3.79" style="fill:#455a64"></path><path d="M255.39,387.41c-3.09-1.56-3.23-2.56-3.83-4.59l7.6,2.83,2.37-.32c.32.14.64.29,1,.46.05.15.11.28.17.44,0,.45-.09,1-.17,1.7A9.2,9.2,0,0,1,255.39,387.41Z" style="opacity:0.1"></path><path d="M271.39,376.21a3.71,3.71,0,0,0-1.28-.42,1.49,1.49,0,0,0-1.43.62,2.69,2.69,0,0,0-.1,1.64,5.27,5.27,0,0,1,.14,2.08,3.34,3.34,0,0,1-1.52,1.4c-2.16,1.08-4.06.16-6.11-.23-1.17-.22-2.73-.45-3.72.32a4,4,0,0,0-.85,3.8c2.68,1,5.91.93,6.48-.61,0,0,0-.26.07-.44s.33-1,1.08-.93a19.05,19.05,0,0,1,3,.91c.23.09.7.23.86.28,2.3.62,3.75-.42,4.13-1.4A5.34,5.34,0,0,0,275.6,380C276,378.66,272.86,377.2,271.39,376.21Z" style="fill:#f5f5f5"></path><path d="M263,384.81a7.44,7.44,0,0,1-7.6-.16,7.66,7.66,0,0,1-3.38-4.5,1.67,1.67,0,0,0-1,1.26,6.39,6.39,0,0,0,2.47,3.67c2.35,2.09,6.64,3.07,9.15,1.15A1.42,1.42,0,0,0,263,384.81Z" style="fill:#FF81AE"></path><path d="M274.77,381.43a2.33,2.33,0,0,1-1.89-.68c-.35-.52-.31-1.38.18-1.64a4.31,4.31,0,0,1,2.06-.46,1.35,1.35,0,0,1,.84,1.17C275.9,380.46,275.4,380.9,274.77,381.43Z" style="fill:#263238"></path><path d="M272.11,383.23c-1.14.26-3.92-.48-6.38-1.82a8.83,8.83,0,0,0,3.88,2.12C271.71,384,272.11,383.23,272.11,383.23Z" style="opacity:0.1"></path><path d="M270.56,383.18a6.86,6.86,0,0,0-3.31,2.09c-.94,1.09-2.89.61-2.47-.86s2.43-2.28,2.43-2.28A15.92,15.92,0,0,0,270.56,383.18Z" style="fill:#ffa8a7"></path><path d="M264.28,376a.9.9,0,0,1,.81-1,.89.89,0,0,1,.17,1.78A.91.91,0,0,1,264.28,376Z" style="fill:#263238"></path><path d="M257.73,374.51a6.12,6.12,0,0,1,1.81-.12,4.14,4.14,0,0,0,.93,0,1,1,0,0,0,.76-.46,1.28,1.28,0,0,0-.32-1.33,6.63,6.63,0,0,0-3.94-2.47,21.16,21.16,0,0,0-5-.74c-1.9.07-3.51.94-4,2.56a4,4,0,0,1-1,1.71c-.63.6-1.27,1.05-1.45,1.73-.55,2,1,3.05,2.86,2.8a19.31,19.31,0,0,0,5-1.64c.74-.34,1.37-.93,2.1-1.3A8.89,8.89,0,0,1,257.73,374.51Z" style="fill:#263238"></path><path d="M254.42,389.69c-.46,1.79,1.56,10.42,2.91,11,2.57,1.18,5.21,1.74,6.63,3.21,1.09,1.13,2.63,3.68,1.61,4.65s-1.89.65-2.88-.09c-1.27-.94-1.9-2-2.69-2.26s-5.56-1.08-7.27-2.43-4.54-6-4.68-7.46S254.42,389.69,254.42,389.69Z" style="fill:#455a64"></path><path d="M266.13,384.66a.2.2,0,0,1-.15,0,.25.25,0,0,1-.12-.34,4.54,4.54,0,0,1,2.18-1.83l.76.26a4.51,4.51,0,0,0-2.48,1.79A.25.25,0,0,1,266.13,384.66Z" style="fill:#f28f8f"></path></g></g><g id="freepik--Butterfly--inject-247"><g id="freepik--butterfly--inject-247"><path d="M282.51,375.2a12.37,12.37,0,0,1-1.82-6.44c.2-1.74.71-2.33,1.84-1.54s2.77,2.91,2.6,4.16-.78,4.38-.74,4.26,1.71-2.32,3-2a1.66,1.66,0,0,1,0,3.12C285.72,377.54,284,377.31,282.51,375.2Z" style="fill:#FF81AE"></path><path d="M282.51,375.2a12.37,12.37,0,0,1-1.82-6.44c.2-1.74.71-2.33,1.84-1.54s2.77,2.91,2.6,4.16-.78,4.38-.74,4.26,1.71-2.32,3-2a1.66,1.66,0,0,1,0,3.12C285.72,377.54,284,377.31,282.51,375.2Z" style="opacity:0.1"></path><path d="M281.13,374.22a.07.07,0,0,0,.08,0,.06.06,0,0,0,0-.09s-1.51-.62-1.67-1.84a.67.67,0,0,1,.3-.75.39.39,0,0,1,.47.07.35.35,0,0,1,.1.38.36.36,0,0,1-.16.19.19.19,0,0,1-.13,0h0s-.08,0-.09,0a.08.08,0,0,0,0,.09h0a.26.26,0,0,0,.23,0,.47.47,0,0,0,.24-.27.5.5,0,0,0-.14-.52.53.53,0,0,0-.63-.1.81.81,0,0,0-.38.9c.17,1.31,1.7,1.92,1.76,2Z" style="fill:#455a64"></path><path d="M280.73,374.23a.52.52,0,1,0,.91.5.52.52,0,1,0-.91-.5Z" style="fill:#455a64"></path><path d="M281.52,374.72c.31-.13,1.45,1.64,1.08,1.88S281,374.93,281.52,374.72Z" style="fill:#455a64"></path><path d="M285.18,378.13s2.62,1.37,3.55.18a2.1,2.1,0,0,0-.51-3.18c-1-.55-3.58.36-3.58.36a4.19,4.19,0,0,0,2.23-4.72c-.45-1.83-1.79-4.27-2.84-3.43s-1.95,5.71-1.93,7.58a2.09,2.09,0,0,1,.57.95A6,6,0,0,0,285.18,378.13Z" style="fill:#FF81AE"></path><path d="M285.18,378.13s2.62,1.37,3.55.18a2.1,2.1,0,0,0-.51-3.18c-1-.55-3.58.36-3.58.36a4.19,4.19,0,0,0,2.23-4.72c-.45-1.83-1.79-4.27-2.84-3.43s-1.95,5.71-1.93,7.58a2.09,2.09,0,0,1,.57.95A6,6,0,0,0,285.18,378.13Z" style="fill:#fff;opacity:0.2"></path><path d="M284.38,367.7c.94,0,2.05,2.66,2.18,3.56a3.46,3.46,0,0,1-.77,2.93s.55-1.31-.14-2a1.49,1.49,0,0,0-.91-1.89s-.22-1.59-1.2-1.46C283.54,368.88,283.9,367.67,284.38,367.7Z" style="fill:#fff;opacity:0.30000000000000004"></path><path d="M282.41,374.55a31.3,31.3,0,0,1,1-5.15c.23-.37,1.28.22,1.09,1S282.54,374.91,282.41,374.55Z" style="fill:#fff;opacity:0.30000000000000004"></path><path d="M282.65,375.07a41.7,41.7,0,0,1,2-4.35c.27-.34,1.12.82.68,1.62S282.73,375.33,282.65,375.07Z" style="fill:#fff;opacity:0.30000000000000004"></path><path d="M282.85,375.57c0-.18.94-1,1.72-1.89.55-.64.8-1,.93-1s.46,1-.19,1.82A3.56,3.56,0,0,1,282.85,375.57Z" style="fill:#fff;opacity:0.30000000000000004"></path><path d="M283.38,376a15,15,0,0,1,3.22-.52c.63.2,1.4,1.12.73,1.28A12.48,12.48,0,0,1,283.38,376Z" style="fill:#fff;opacity:0.30000000000000004"></path><path d="M283.21,376.21a4.69,4.69,0,0,0,2.3,1.71c1.74.72,2.46.54,2.83.34s-.21-1.28-.82-1.26a10.39,10.39,0,0,1-2.74-.42C283.76,376.3,283.22,376,283.21,376.21Z" style="fill:#fff;opacity:0.30000000000000004"></path><path d="M286.67,375.24a1.71,1.71,0,0,1,1.1.94c.13.33,0,.47.29.7a1.29,1.29,0,0,1,.65,1.07,1.81,1.81,0,0,0,0-1.95A2,2,0,0,0,286.67,375.24Z" style="fill:#fff;opacity:0.30000000000000004"></path></g></g></svg>