<svg xmlns="http://www.w3.org/2000/svg" viewBox="0 0 500 500"><g id="freepik--Bridge--inject-242"><path id="freepik--Shadow--inject-242" d="M401.91,254.06c-25.88-15.36-56.68-26-89.38-32L40.16,379.34c9.65,20.69,28.15,40.23,55.55,56.5a246.52,246.52,0,0,0,52.18,22.86L443.16,288.23C432.94,275.9,419.2,264.33,401.91,254.06Z" style="opacity:0.2"></path><g id="freepik--bridge--inject-242"><path d="M128.52,402a1.23,1.23,0,0,1,.73,1v43.54a1.23,1.23,0,0,1-.73,1l-13,7.5a3.88,3.88,0,0,1-3.51,0l-47.62-27.5a1.24,1.24,0,0,1-.73-1V383a1.25,1.25,0,0,1,.73-1l13-7.49a3.88,3.88,0,0,1,3.51,0Z" style="fill:#37474f"></path><path d="M112,411.53,64.41,384a1.26,1.26,0,0,1-.73-1v43.49a1.29,1.29,0,0,0,.73,1L112,455.07a3.52,3.52,0,0,0,1.71.41V412A3.41,3.41,0,0,1,112,411.53Z" style="fill:#455a64"></path><path d="M112.52,450.7a.53.53,0,0,1-.24-.06L64.67,423.15a.46.46,0,0,1-.17-.65.47.47,0,0,1,.64-.17l47.61,27.49a.47.47,0,0,1-.23.88Z" style="fill:#37474f"></path><path d="M112.52,444.63a.53.53,0,0,1-.24-.06L64.67,417.08a.46.46,0,0,1-.17-.64.47.47,0,0,1,.64-.18l47.61,27.49a.47.47,0,0,1-.23.88Z" style="fill:#37474f"></path><path d="M112.52,438.56a.53.53,0,0,1-.24-.06L64.67,411a.46.46,0,0,1-.17-.64.47.47,0,0,1,.64-.18l47.61,27.49a.47.47,0,0,1-.23.88Z" style="fill:#37474f"></path><path d="M112.52,432.5a.55.55,0,0,1-.24-.07L64.67,404.94a.46.46,0,0,1-.17-.64.47.47,0,0,1,.64-.18l47.61,27.49a.48.48,0,0,1,.18.65A.49.49,0,0,1,112.52,432.5Z" style="fill:#37474f"></path><path d="M112.52,426.43a.44.44,0,0,1-.24-.07L64.67,398.87a.47.47,0,0,1,.47-.81l47.61,27.48a.48.48,0,0,1,.18.65A.49.49,0,0,1,112.52,426.43Z" style="fill:#37474f"></path><path d="M112.52,420.41a.53.53,0,0,1-.24-.06L64.67,392.86a.46.46,0,0,1-.17-.65.47.47,0,0,1,.64-.17l47.61,27.49a.47.47,0,0,1-.23.88Z" style="fill:#37474f"></path><path d="M70.32,402a.48.48,0,0,1-.48-.47v-6a.48.48,0,0,1,.48-.48.47.47,0,0,1,.47.48v6A.47.47,0,0,1,70.32,402Z" style="fill:#37474f"></path><path d="M79.76,407.49a.48.48,0,0,1-.48-.47v-6a.48.48,0,0,1,.48-.48.47.47,0,0,1,.47.48v6A.47.47,0,0,1,79.76,407.49Z" style="fill:#37474f"></path><path d="M89.2,413a.48.48,0,0,1-.48-.48v-6a.49.49,0,0,1,.48-.48.48.48,0,0,1,.47.48v6A.47.47,0,0,1,89.2,413Z" style="fill:#37474f"></path><path d="M98.64,418.41a.49.49,0,0,1-.48-.48v-6a.48.48,0,0,1,.48-.48.47.47,0,0,1,.47.48v6A.48.48,0,0,1,98.64,418.41Z" style="fill:#37474f"></path><path d="M108.08,423.86a.48.48,0,0,1-.48-.47v-6a.49.49,0,0,1,.48-.48.48.48,0,0,1,.47.48v6A.47.47,0,0,1,108.08,423.86Z" style="fill:#37474f"></path><path d="M75.3,411a.48.48,0,0,1-.48-.47v-6a.48.48,0,0,1,.48-.47.47.47,0,0,1,.47.47v6A.47.47,0,0,1,75.3,411Z" style="fill:#37474f"></path><path d="M84.74,416.47a.48.48,0,0,1-.48-.47v-6a.48.48,0,0,1,.48-.47.47.47,0,0,1,.47.47v6A.47.47,0,0,1,84.74,416.47Z" style="fill:#37474f"></path><path d="M94.18,421.91a.48.48,0,0,1-.48-.47v-6.05a.48.48,0,0,1,.48-.47.47.47,0,0,1,.47.47v6.05A.47.47,0,0,1,94.18,421.91Z" style="fill:#37474f"></path><path d="M103.62,427.36a.48.48,0,0,1-.48-.48v-6.07a.48.48,0,0,1,.48-.47.47.47,0,0,1,.47.47v6.07A.47.47,0,0,1,103.62,427.36Z" style="fill:#37474f"></path><path d="M70.32,414.19a.48.48,0,0,1-.48-.47v-6a.48.48,0,0,1,.48-.48.47.47,0,0,1,.47.48v6A.47.47,0,0,1,70.32,414.19Z" style="fill:#37474f"></path><path d="M79.76,419.65a.48.48,0,0,1-.48-.47v-6a.48.48,0,0,1,.48-.48.47.47,0,0,1,.47.48v6A.47.47,0,0,1,79.76,419.65Z" style="fill:#37474f"></path><path d="M89.2,425.11a.49.49,0,0,1-.48-.48v-6a.48.48,0,0,1,.48-.48.47.47,0,0,1,.47.48v6A.48.48,0,0,1,89.2,425.11Z" style="fill:#37474f"></path><path d="M98.64,430.56a.48.48,0,0,1-.48-.47v-6a.48.48,0,0,1,.48-.48.47.47,0,0,1,.47.48v6A.47.47,0,0,1,98.64,430.56Z" style="fill:#37474f"></path><path d="M108.08,436a.48.48,0,0,1-.48-.47v-6a.48.48,0,0,1,.48-.48.47.47,0,0,1,.47.48v6A.47.47,0,0,1,108.08,436Z" style="fill:#37474f"></path><path d="M75.3,423.19a.48.48,0,0,1-.48-.47v-6a.48.48,0,0,1,.48-.47.47.47,0,0,1,.47.47v6A.47.47,0,0,1,75.3,423.19Z" style="fill:#37474f"></path><path d="M84.74,428.63a.48.48,0,0,1-.48-.47v-6a.48.48,0,0,1,.48-.47.47.47,0,0,1,.47.47v6A.47.47,0,0,1,84.74,428.63Z" style="fill:#37474f"></path><path d="M94.18,434.07a.48.48,0,0,1-.48-.47v-6.05a.48.48,0,0,1,.48-.47.47.47,0,0,1,.47.47v6.05A.47.47,0,0,1,94.18,434.07Z" style="fill:#37474f"></path><path d="M103.62,439.52a.48.48,0,0,1-.48-.48V433a.48.48,0,0,1,.48-.47.47.47,0,0,1,.47.47V439A.47.47,0,0,1,103.62,439.52Z" style="fill:#37474f"></path><path d="M70.32,426.35a.48.48,0,0,1-.48-.47v-6a.48.48,0,0,1,.48-.48.47.47,0,0,1,.47.48v6A.47.47,0,0,1,70.32,426.35Z" style="fill:#37474f"></path><path d="M79.76,431.81a.48.48,0,0,1-.48-.47v-6a.48.48,0,0,1,.48-.48.47.47,0,0,1,.47.48v6A.47.47,0,0,1,79.76,431.81Z" style="fill:#37474f"></path><path d="M89.2,437.27a.49.49,0,0,1-.48-.48v-6a.48.48,0,0,1,.48-.48.47.47,0,0,1,.47.48v6A.48.48,0,0,1,89.2,437.27Z" style="fill:#37474f"></path><path d="M98.64,442.72a.48.48,0,0,1-.48-.47v-6a.48.48,0,0,1,.48-.48.47.47,0,0,1,.47.48v6A.47.47,0,0,1,98.64,442.72Z" style="fill:#37474f"></path><path d="M108.08,448.18a.48.48,0,0,1-.48-.47v-6a.48.48,0,0,1,.48-.48.47.47,0,0,1,.47.48v6A.47.47,0,0,1,108.08,448.18Z" style="fill:#37474f"></path><path d="M115.54,411.53l13-7.49a1.07,1.07,0,0,0,0-2L80.9,374.52a3.88,3.88,0,0,0-3.51,0l-13,7.49a1.07,1.07,0,0,0,0,2L112,411.53A3.88,3.88,0,0,0,115.54,411.53Z" style="fill:#455a64"></path><path d="M135.72,389.87a1.51,1.51,0,0,1,.89,1.24v14.41a1.51,1.51,0,0,1-.89,1.23l-15.89,9.18a4.81,4.81,0,0,1-4.31,0L57.21,382.26a1.51,1.51,0,0,1-.89-1.24v-14.4a1.51,1.51,0,0,1,.89-1.24L73.1,356.2a4.81,4.81,0,0,1,4.31,0Z" style="fill:#ebebeb"></path><path d="M115.52,401.53l-58.3-33.66a1.57,1.57,0,0,1-.9-1.19V381a1.51,1.51,0,0,0,.9,1.24l58.3,33.67a4.47,4.47,0,0,0,2.1.51V402A4.24,4.24,0,0,1,115.52,401.53Z" style="fill:#e0e0e0"></path><path d="M119.83,401.53l15.89-9.18a1.31,1.31,0,0,0,0-2.48L77.41,356.2a4.81,4.81,0,0,0-4.31,0l-15.89,9.18a1.31,1.31,0,0,0,0,2.48l58.31,33.67A4.81,4.81,0,0,0,119.83,401.53Z" style="fill:#e0e0e0"></path><path d="M119.83,401.53l15.89-9.18a1.31,1.31,0,0,0,0-2.48L77.41,356.2a4.81,4.81,0,0,0-4.31,0l-15.89,9.18a1.31,1.31,0,0,0,0,2.48l58.31,33.67A4.81,4.81,0,0,0,119.83,401.53Z" style="opacity:0.2"></path><polygon points="116.45 376.44 107.6 381.56 116.45 386.67 125.31 381.56 116.45 376.44" style="fill:#455a64"></polygon><polygon points="125.31 381.56 125.31 391.78 116.45 396.89 116.45 386.67 125.31 381.56" style="fill:#263238"></polygon><polygon points="107.6 381.56 107.6 391.78 116.45 396.89 116.45 386.67 107.6 381.56" style="fill:#37474f"></polygon><polygon points="72.92 351.45 64.07 356.56 72.92 361.68 81.78 356.56 72.92 351.45" style="fill:#455a64"></polygon><polygon points="81.78 356.56 81.78 366.79 72.92 371.9 72.92 361.68 81.78 356.56" style="fill:#263238"></polygon><polygon points="64.07 356.56 64.07 366.79 72.92 371.9 72.92 361.68 64.07 356.56" style="fill:#37474f"></polygon><path d="M226.93,345.19a1.23,1.23,0,0,1,.73,1c0,.36,0,43.17,0,43.54a1.23,1.23,0,0,1-.73,1l-13,7.49a3.9,3.9,0,0,1-3.52,0l-47.61-27.49a1.23,1.23,0,0,1-.73-1V326.21a1.23,1.23,0,0,1,.73-1l13-7.49a3.9,3.9,0,0,1,3.52,0Z" style="fill:#37474f"></path><path d="M210.44,354.71l-47.61-27.49a1.26,1.26,0,0,1-.73-1v43.48a1.23,1.23,0,0,0,.73,1l47.61,27.49a3.54,3.54,0,0,0,1.71.41c0-2.27,0-41.64,0-43.53A3.47,3.47,0,0,1,210.44,354.71Z" style="fill:#455a64"></path><path d="M210.93,393.88a.46.46,0,0,1-.23-.06l-47.62-27.49a.48.48,0,0,1,.48-.82L211.17,393a.47.47,0,0,1-.24.88Z" style="fill:#37474f"></path><path d="M210.93,387.81a.46.46,0,0,1-.23-.06l-47.62-27.49a.48.48,0,0,1,.48-.82l47.61,27.49a.47.47,0,0,1-.24.88Z" style="fill:#37474f"></path><path d="M210.93,381.75a.39.39,0,0,1-.23-.07l-47.62-27.49a.48.48,0,0,1,.48-.82l47.61,27.49a.47.47,0,0,1,.17.65A.49.49,0,0,1,210.93,381.75Z" style="fill:#37474f"></path><path d="M210.93,375.68a.39.39,0,0,1-.23-.07l-47.62-27.49a.47.47,0,0,1-.17-.64.46.46,0,0,1,.65-.17l47.61,27.48a.47.47,0,0,1,.17.65A.49.49,0,0,1,210.93,375.68Z" style="fill:#37474f"></path><path d="M210.93,369.61a.39.39,0,0,1-.23-.07l-47.62-27.49a.47.47,0,1,1,.48-.81l47.61,27.49a.46.46,0,0,1,.17.64A.49.49,0,0,1,210.93,369.61Z" style="fill:#37474f"></path><path d="M210.93,363.6a.48.48,0,0,1-.23-.07L163.08,336a.48.48,0,0,1,.48-.82l47.61,27.49a.47.47,0,0,1,.17.65A.49.49,0,0,1,210.93,363.6Z" style="fill:#37474f"></path><path d="M168.73,345.21a.47.47,0,0,1-.47-.47v-6a.48.48,0,0,1,.47-.48.49.49,0,0,1,.48.48v6A.48.48,0,0,1,168.73,345.21Z" style="fill:#37474f"></path><path d="M178.17,350.67a.47.47,0,0,1-.47-.47v-6a.47.47,0,1,1,.94,0v6A.47.47,0,0,1,178.17,350.67Z" style="fill:#37474f"></path><path d="M187.61,356.13a.47.47,0,0,1-.47-.47v-6a.47.47,0,1,1,.94,0v6A.47.47,0,0,1,187.61,356.13Z" style="fill:#37474f"></path><path d="M197.05,361.59a.48.48,0,0,1-.47-.48v-6a.47.47,0,1,1,.94,0v6A.48.48,0,0,1,197.05,361.59Z" style="fill:#37474f"></path><path d="M206.49,367a.47.47,0,0,1-.47-.47v-6a.47.47,0,0,1,.94,0v6A.47.47,0,0,1,206.49,367Z" style="fill:#37474f"></path><path d="M173.71,354.21a.47.47,0,0,1-.47-.47v-6a.47.47,0,0,1,.47-.47.48.48,0,0,1,.48.47v6A.48.48,0,0,1,173.71,354.21Z" style="fill:#37474f"></path><path d="M183.15,359.65a.47.47,0,0,1-.47-.47v-6a.47.47,0,1,1,.94,0v6A.47.47,0,0,1,183.15,359.65Z" style="fill:#37474f"></path><path d="M192.59,365.1a.48.48,0,0,1-.47-.48v-6.05a.47.47,0,1,1,.94,0v6.05A.48.48,0,0,1,192.59,365.1Z" style="fill:#37474f"></path><path d="M202,370.54a.47.47,0,0,1-.47-.47V364a.47.47,0,1,1,.94,0v6.07A.47.47,0,0,1,202,370.54Z" style="fill:#37474f"></path><path d="M168.73,357.37a.47.47,0,0,1-.47-.47v-6a.48.48,0,0,1,.47-.48.49.49,0,0,1,.48.48v6A.48.48,0,0,1,168.73,357.37Z" style="fill:#37474f"></path><path d="M178.17,362.83a.47.47,0,0,1-.47-.47v-6a.47.47,0,1,1,.94,0v6A.47.47,0,0,1,178.17,362.83Z" style="fill:#37474f"></path><path d="M187.61,368.29a.47.47,0,0,1-.47-.48v-6a.47.47,0,1,1,.94,0v6A.47.47,0,0,1,187.61,368.29Z" style="fill:#37474f"></path><path d="M197.05,373.75a.48.48,0,0,1-.47-.48v-6a.47.47,0,1,1,.94,0v6A.48.48,0,0,1,197.05,373.75Z" style="fill:#37474f"></path><path d="M206.49,379.2a.47.47,0,0,1-.47-.47v-6a.47.47,0,1,1,.94,0v6A.47.47,0,0,1,206.49,379.2Z" style="fill:#37474f"></path><path d="M173.71,366.37a.47.47,0,0,1-.47-.47v-6a.47.47,0,0,1,.47-.47.48.48,0,0,1,.48.47v6A.48.48,0,0,1,173.71,366.37Z" style="fill:#37474f"></path><path d="M183.15,371.81a.47.47,0,0,1-.47-.47v-6a.47.47,0,0,1,.94,0v6A.47.47,0,0,1,183.15,371.81Z" style="fill:#37474f"></path><path d="M192.59,377.26a.48.48,0,0,1-.47-.48v-6a.47.47,0,0,1,.94,0v6A.48.48,0,0,1,192.59,377.26Z" style="fill:#37474f"></path><path d="M202,382.7a.47.47,0,0,1-.47-.48v-6.06a.47.47,0,1,1,.94,0v6.06A.47.47,0,0,1,202,382.7Z" style="fill:#37474f"></path><path d="M168.73,369.53a.47.47,0,0,1-.47-.47v-6a.48.48,0,0,1,.47-.48.49.49,0,0,1,.48.48v6A.48.48,0,0,1,168.73,369.53Z" style="fill:#37474f"></path><path d="M178.17,375a.47.47,0,0,1-.47-.47v-6a.47.47,0,1,1,.94,0v6A.47.47,0,0,1,178.17,375Z" style="fill:#37474f"></path><path d="M187.61,380.45a.47.47,0,0,1-.47-.48v-6a.47.47,0,1,1,.94,0v6A.47.47,0,0,1,187.61,380.45Z" style="fill:#37474f"></path><path d="M197.05,385.9a.47.47,0,0,1-.47-.47v-6a.47.47,0,1,1,.94,0v6A.47.47,0,0,1,197.05,385.9Z" style="fill:#37474f"></path><path d="M206.49,391.36a.47.47,0,0,1-.47-.47v-6a.47.47,0,1,1,.94,0v6A.47.47,0,0,1,206.49,391.36Z" style="fill:#37474f"></path><path d="M214,354.71l13-7.49a1.07,1.07,0,0,0,0-2L179.32,317.7a3.9,3.9,0,0,0-3.52,0l-13,7.49a1.07,1.07,0,0,0,0,2l47.61,27.49A3.9,3.9,0,0,0,214,354.71Z" style="fill:#455a64"></path><path d="M234.13,333.05a1.51,1.51,0,0,1,.9,1.24V348.7a1.53,1.53,0,0,1-.9,1.23l-15.89,9.18a4.79,4.79,0,0,1-4.3,0l-58.31-33.67a1.49,1.49,0,0,1-.89-1.24V309.8a1.49,1.49,0,0,1,.89-1.24l15.89-9.18a4.79,4.79,0,0,1,4.3,0Z" style="fill:#ebebeb"></path><path d="M213.94,344.71l-58.31-33.66a1.53,1.53,0,0,1-.89-1.19c0,.82,0,13.9,0,14.34a1.55,1.55,0,0,0,.9,1.24l58.31,33.67a4.42,4.42,0,0,0,2.09.51c0-2.79,0-12.09,0-14.4A4.23,4.23,0,0,1,213.94,344.71Z" style="fill:#e0e0e0"></path><path d="M218.24,344.71l15.89-9.17a1.53,1.53,0,0,0,.9-1.25,1.51,1.51,0,0,0-.9-1.24l-58.31-33.67a4.79,4.79,0,0,0-4.3,0l-15.89,9.18a1.31,1.31,0,0,0,0,2.48l58.31,33.67A4.72,4.72,0,0,0,218.24,344.71Z" style="fill:#e0e0e0"></path><path d="M218.24,344.71l15.89-9.17a1.53,1.53,0,0,0,.9-1.25,1.51,1.51,0,0,0-.9-1.24l-58.31-33.67a4.79,4.79,0,0,0-4.3,0l-15.89,9.18a1.31,1.31,0,0,0,0,2.48l58.31,33.67A4.72,4.72,0,0,0,218.24,344.71Z" style="opacity:0.2"></path><polygon points="214.87 319.63 206.01 324.74 214.87 329.85 223.72 324.74 214.87 319.63" style="fill:#455a64"></polygon><polygon points="223.72 324.74 223.72 334.96 214.87 340.07 214.87 329.85 223.72 324.74" style="fill:#263238"></polygon><polygon points="206.01 324.74 206.01 334.96 214.87 340.07 214.87 329.85 206.01 324.74" style="fill:#37474f"></polygon><polygon points="171.34 294.63 162.49 299.74 171.34 304.86 180.19 299.74 171.34 294.63" style="fill:#455a64"></polygon><polygon points="180.19 299.74 180.19 309.97 171.34 315.08 171.34 304.86 180.19 299.74" style="fill:#263238"></polygon><polygon points="162.49 299.74 162.49 309.97 171.34 315.08 171.34 304.86 162.49 299.74" style="fill:#37474f"></polygon><path d="M339.42,280.25a1.24,1.24,0,0,1,.72,1c0,.37,0,43.17,0,43.54a1.23,1.23,0,0,1-.72,1l-13,7.49a3.9,3.9,0,0,1-3.52,0l-47.61-27.49a1.22,1.22,0,0,1-.73-1V261.26a1.23,1.23,0,0,1,.73-1l13-7.49a3.9,3.9,0,0,1,3.52,0Z" style="fill:#37474f"></path><path d="M322.92,289.77l-47.61-27.49a1.27,1.27,0,0,1-.73-1V304.8a1.22,1.22,0,0,0,.73,1l47.61,27.49a3.56,3.56,0,0,0,1.72.42c0-2.27,0-41.65,0-43.53A3.58,3.58,0,0,1,322.92,289.77Z" style="fill:#455a64"></path><path d="M323.41,328.94a.46.46,0,0,1-.23-.06l-47.62-27.49a.48.48,0,1,1,.48-.82l47.61,27.49a.47.47,0,0,1,.17.65A.45.45,0,0,1,323.41,328.94Z" style="fill:#37474f"></path><path d="M323.41,322.87a.46.46,0,0,1-.23-.06l-47.62-27.49a.48.48,0,1,1,.48-.82L323.65,322a.47.47,0,0,1,.17.65A.45.45,0,0,1,323.41,322.87Z" style="fill:#37474f"></path><path d="M323.41,316.8a.46.46,0,0,1-.23-.06l-47.62-27.49a.48.48,0,1,1,.48-.82l47.61,27.49a.47.47,0,0,1,.17.65A.45.45,0,0,1,323.41,316.8Z" style="fill:#37474f"></path><path d="M323.41,310.73a.46.46,0,0,1-.23-.06l-47.62-27.49a.48.48,0,0,1,.48-.82l47.61,27.49a.47.47,0,0,1,.17.65A.45.45,0,0,1,323.41,310.73Z" style="fill:#37474f"></path><path d="M323.41,304.66a.46.46,0,0,1-.23-.06l-47.62-27.49a.48.48,0,0,1,.48-.82l47.61,27.49a.47.47,0,0,1,.17.65A.45.45,0,0,1,323.41,304.66Z" style="fill:#37474f"></path><path d="M323.41,298.65a.46.46,0,0,1-.23-.06L275.56,271.1a.48.48,0,0,1,.48-.82l47.61,27.49a.47.47,0,0,1,.17.65A.45.45,0,0,1,323.41,298.65Z" style="fill:#37474f"></path><path d="M281.21,280.27a.47.47,0,0,1-.47-.47v-6a.47.47,0,0,1,.47-.47.48.48,0,0,1,.48.47v6A.48.48,0,0,1,281.21,280.27Z" style="fill:#37474f"></path><path d="M290.65,285.73a.47.47,0,0,1-.47-.47v-6a.47.47,0,0,1,.47-.47.48.48,0,0,1,.48.47v6A.48.48,0,0,1,290.65,285.73Z" style="fill:#37474f"></path><path d="M300.09,291.19a.48.48,0,0,1-.47-.48v-6a.47.47,0,0,1,.47-.47.48.48,0,0,1,.48.47v6A.49.49,0,0,1,300.09,291.19Z" style="fill:#37474f"></path><path d="M309.53,296.64a.47.47,0,0,1-.47-.47v-6a.47.47,0,0,1,.47-.47.48.48,0,0,1,.48.47v6A.48.48,0,0,1,309.53,296.64Z" style="fill:#37474f"></path><path d="M319,302.1a.47.47,0,0,1-.47-.47v-6a.47.47,0,0,1,.47-.48.48.48,0,0,1,.48.48v6A.48.48,0,0,1,319,302.1Z" style="fill:#37474f"></path><path d="M286.19,289.27a.47.47,0,0,1-.47-.48v-6a.47.47,0,0,1,.47-.47.48.48,0,0,1,.48.47v6A.48.48,0,0,1,286.19,289.27Z" style="fill:#37474f"></path><path d="M295.63,294.71a.47.47,0,0,1-.47-.47v-6a.47.47,0,0,1,.47-.47.48.48,0,0,1,.48.47v6A.48.48,0,0,1,295.63,294.71Z" style="fill:#37474f"></path><path d="M305.07,300.15a.47.47,0,0,1-.47-.47v-6.05a.47.47,0,0,1,.47-.47.48.48,0,0,1,.48.47v6.05A.48.48,0,0,1,305.07,300.15Z" style="fill:#37474f"></path><path d="M314.51,305.6a.48.48,0,0,1-.47-.48v-6.07a.47.47,0,0,1,.47-.47.48.48,0,0,1,.48.47v6.07A.49.49,0,0,1,314.51,305.6Z" style="fill:#37474f"></path><path d="M281.21,292.43a.47.47,0,0,1-.47-.47v-6a.47.47,0,0,1,.47-.47.48.48,0,0,1,.48.47v6A.48.48,0,0,1,281.21,292.43Z" style="fill:#37474f"></path><path d="M290.65,297.89a.47.47,0,0,1-.47-.48v-6a.47.47,0,0,1,.47-.47.48.48,0,0,1,.48.47v6A.48.48,0,0,1,290.65,297.89Z" style="fill:#37474f"></path><path d="M300.09,303.34a.47.47,0,0,1-.47-.47v-6a.47.47,0,0,1,.47-.47.48.48,0,0,1,.48.47v6A.48.48,0,0,1,300.09,303.34Z" style="fill:#37474f"></path><path d="M309.53,308.8a.47.47,0,0,1-.47-.47v-6a.47.47,0,0,1,.47-.47.48.48,0,0,1,.48.47v6A.48.48,0,0,1,309.53,308.8Z" style="fill:#37474f"></path><path d="M319,314.26a.47.47,0,0,1-.47-.47v-6a.47.47,0,0,1,.47-.47.48.48,0,0,1,.48.47v6A.48.48,0,0,1,319,314.26Z" style="fill:#37474f"></path><path d="M286.19,301.43a.47.47,0,0,1-.47-.48v-6a.47.47,0,0,1,.47-.47.48.48,0,0,1,.48.47v6A.48.48,0,0,1,286.19,301.43Z" style="fill:#37474f"></path><path d="M295.63,306.87a.47.47,0,0,1-.47-.47v-6a.47.47,0,0,1,.47-.47.48.48,0,0,1,.48.47v6A.48.48,0,0,1,295.63,306.87Z" style="fill:#37474f"></path><path d="M305.07,312.31a.47.47,0,0,1-.47-.47v-6a.47.47,0,0,1,.47-.47.48.48,0,0,1,.48.47v6A.48.48,0,0,1,305.07,312.31Z" style="fill:#37474f"></path><path d="M314.51,317.75a.47.47,0,0,1-.47-.47v-6.07a.47.47,0,0,1,.47-.47.48.48,0,0,1,.48.47v6.07A.48.48,0,0,1,314.51,317.75Z" style="fill:#37474f"></path><path d="M281.21,304.59a.47.47,0,0,1-.47-.47v-6a.47.47,0,0,1,.47-.47.48.48,0,0,1,.48.47v6A.48.48,0,0,1,281.21,304.59Z" style="fill:#37474f"></path><path d="M290.65,310.05a.47.47,0,0,1-.47-.48v-6a.47.47,0,0,1,.47-.47.48.48,0,0,1,.48.47v6A.48.48,0,0,1,290.65,310.05Z" style="fill:#37474f"></path><path d="M300.09,315.5a.47.47,0,0,1-.47-.47v-6a.47.47,0,0,1,.47-.47.48.48,0,0,1,.48.47v6A.48.48,0,0,1,300.09,315.5Z" style="fill:#37474f"></path><path d="M309.53,321a.47.47,0,0,1-.47-.47v-6a.47.47,0,0,1,.47-.47.48.48,0,0,1,.48.47v6A.48.48,0,0,1,309.53,321Z" style="fill:#37474f"></path><path d="M319,326.42a.47.47,0,0,1-.47-.47v-6a.47.47,0,0,1,.47-.47.48.48,0,0,1,.48.47v6A.48.48,0,0,1,319,326.42Z" style="fill:#37474f"></path><path d="M326.44,289.77l13-7.49a1.08,1.08,0,0,0,0-2L291.8,252.76a3.9,3.9,0,0,0-3.52,0l-13,7.49a1.07,1.07,0,0,0,0,2l47.61,27.49A3.9,3.9,0,0,0,326.44,289.77Z" style="fill:#455a64"></path><path d="M346.61,268.11a1.51,1.51,0,0,1,.9,1.24v14.4a1.53,1.53,0,0,1-.9,1.24l-15.89,9.18a4.79,4.79,0,0,1-4.3,0L268.11,260.5a1.49,1.49,0,0,1-.89-1.24v-14.4a1.49,1.49,0,0,1,.89-1.24L284,234.44a4.78,4.78,0,0,1,4.31,0Z" style="fill:#ebebeb"></path><path d="M326.42,279.77l-58.31-33.66a1.53,1.53,0,0,1-.89-1.19c0,.81,0,13.9,0,14.34a1.55,1.55,0,0,0,.9,1.24l58.31,33.66a4.31,4.31,0,0,0,2.09.52c0-2.79,0-12.09,0-14.4A4.34,4.34,0,0,1,326.42,279.77Z" style="fill:#e0e0e0"></path><path d="M330.72,279.77l15.89-9.18a1.3,1.3,0,0,0,0-2.48l-58.3-33.67a4.75,4.75,0,0,0-4.31,0l-15.89,9.18a1.31,1.31,0,0,0,0,2.48l58.31,33.67A4.79,4.79,0,0,0,330.72,279.77Z" style="fill:#e0e0e0"></path><path d="M330.72,279.77l15.89-9.18a1.3,1.3,0,0,0,0-2.48l-58.3-33.67a4.75,4.75,0,0,0-4.31,0l-15.89,9.18a1.31,1.31,0,0,0,0,2.48l58.31,33.67A4.79,4.79,0,0,0,330.72,279.77Z" style="opacity:0.2"></path><polygon points="327.35 254.68 318.5 259.79 327.35 264.91 336.2 259.8 327.35 254.68" style="fill:#455a64"></polygon><polygon points="336.2 259.8 336.2 270.02 327.35 275.13 327.35 264.91 336.2 259.8" style="fill:#263238"></polygon><polygon points="318.5 259.79 318.5 270.02 327.35 275.13 327.35 264.91 318.5 259.79" style="fill:#37474f"></polygon><polygon points="283.82 229.69 274.97 234.8 283.82 239.91 292.67 234.8 283.82 229.69" style="fill:#455a64"></polygon><polygon points="292.67 234.8 292.68 245.03 283.82 250.14 283.82 239.91 292.67 234.8" style="fill:#263238"></polygon><polygon points="274.97 234.8 274.97 245.03 283.82 250.14 283.82 239.91 274.97 234.8" style="fill:#37474f"></polygon><path d="M437.83,223.43a1.23,1.23,0,0,1,.73,1V268a1.24,1.24,0,0,1-.73,1l-13,7.5a3.88,3.88,0,0,1-3.51,0L373.72,249a1.24,1.24,0,0,1-.73-1V204.44a1.25,1.25,0,0,1,.73-1l13-7.49a3.88,3.88,0,0,1,3.51,0Z" style="fill:#37474f"></path><path d="M421.34,233l-47.62-27.49a1.26,1.26,0,0,1-.73-1V248a1.29,1.29,0,0,0,.73,1l47.62,27.48a3.41,3.41,0,0,0,1.71.42V233.37A3.41,3.41,0,0,1,421.34,233Z" style="fill:#455a64"></path><path d="M421.83,272.12a.53.53,0,0,1-.24-.06L374,244.57a.47.47,0,0,1,.47-.82l47.61,27.49a.47.47,0,0,1-.23.88Z" style="fill:#37474f"></path><path d="M421.83,266.05a.53.53,0,0,1-.24-.06L374,238.5a.47.47,0,0,1,.47-.82l47.61,27.49a.47.47,0,0,1-.23.88Z" style="fill:#37474f"></path><path d="M421.83,260a.53.53,0,0,1-.24-.06L374,232.43a.47.47,0,0,1,.47-.82l47.61,27.49a.47.47,0,0,1-.23.88Z" style="fill:#37474f"></path><path d="M421.83,253.91a.53.53,0,0,1-.24-.06L374,226.36a.47.47,0,0,1,.47-.82L422.06,253a.47.47,0,0,1-.23.88Z" style="fill:#37474f"></path><path d="M421.83,247.85a.44.44,0,0,1-.24-.07L374,220.29a.47.47,0,0,1,.47-.82L422.06,247a.48.48,0,0,1,.18.65A.49.49,0,0,1,421.83,247.85Z" style="fill:#37474f"></path><path d="M421.83,241.83a.53.53,0,0,1-.24-.06L374,214.28a.47.47,0,0,1,.47-.82L422.06,241a.47.47,0,0,1-.23.88Z" style="fill:#37474f"></path><path d="M379.63,223.45a.47.47,0,0,1-.47-.47v-6a.47.47,0,1,1,.94,0v6A.47.47,0,0,1,379.63,223.45Z" style="fill:#37474f"></path><path d="M389.07,228.91a.48.48,0,0,1-.48-.47v-6a.48.48,0,0,1,.48-.48.47.47,0,0,1,.47.48v6A.47.47,0,0,1,389.07,228.91Z" style="fill:#37474f"></path><path d="M398.51,234.37a.48.48,0,0,1-.48-.48v-6a.48.48,0,0,1,.48-.48.47.47,0,0,1,.47.48v6A.47.47,0,0,1,398.51,234.37Z" style="fill:#37474f"></path><path d="M408,239.82a.48.48,0,0,1-.48-.47v-6a.48.48,0,0,1,.48-.48.47.47,0,0,1,.47.48v6A.47.47,0,0,1,408,239.82Z" style="fill:#37474f"></path><path d="M417.39,245.28a.48.48,0,0,1-.48-.47v-6a.49.49,0,0,1,.48-.48.48.48,0,0,1,.47.48v6A.47.47,0,0,1,417.39,245.28Z" style="fill:#37474f"></path><path d="M384.61,232.45a.47.47,0,0,1-.47-.47v-6a.47.47,0,0,1,.94,0v6A.47.47,0,0,1,384.61,232.45Z" style="fill:#37474f"></path><path d="M394.05,237.89a.48.48,0,0,1-.48-.47v-6a.48.48,0,0,1,.48-.47.47.47,0,0,1,.47.47v6A.47.47,0,0,1,394.05,237.89Z" style="fill:#37474f"></path><path d="M403.49,243.33a.48.48,0,0,1-.48-.47v-6.05a.48.48,0,0,1,.48-.47.47.47,0,0,1,.47.47v6.05A.47.47,0,0,1,403.49,243.33Z" style="fill:#37474f"></path><path d="M412.93,248.78a.48.48,0,0,1-.48-.48v-6.07a.48.48,0,0,1,.48-.47.47.47,0,0,1,.47.47v6.07A.47.47,0,0,1,412.93,248.78Z" style="fill:#37474f"></path><path d="M379.63,235.61a.47.47,0,0,1-.47-.47v-6a.47.47,0,1,1,.94,0v6A.47.47,0,0,1,379.63,235.61Z" style="fill:#37474f"></path><path d="M389.07,241.07a.48.48,0,0,1-.48-.47v-6a.48.48,0,0,1,.48-.48.47.47,0,0,1,.47.48v6A.47.47,0,0,1,389.07,241.07Z" style="fill:#37474f"></path><path d="M398.51,246.53a.49.49,0,0,1-.48-.48v-6a.48.48,0,0,1,.48-.48.47.47,0,0,1,.47.48v6A.48.48,0,0,1,398.51,246.53Z" style="fill:#37474f"></path><path d="M408,252a.48.48,0,0,1-.48-.47v-6A.48.48,0,0,1,408,245a.47.47,0,0,1,.47.48v6A.47.47,0,0,1,408,252Z" style="fill:#37474f"></path><path d="M417.39,257.44a.48.48,0,0,1-.48-.47v-6a.48.48,0,0,1,.48-.48.47.47,0,0,1,.47.48v6A.47.47,0,0,1,417.39,257.44Z" style="fill:#37474f"></path><path d="M384.61,244.61a.47.47,0,0,1-.47-.47v-6a.47.47,0,0,1,.94,0v6A.47.47,0,0,1,384.61,244.61Z" style="fill:#37474f"></path><path d="M394.05,250.05a.48.48,0,0,1-.48-.47v-6a.48.48,0,0,1,.48-.47.47.47,0,0,1,.47.47v6A.47.47,0,0,1,394.05,250.05Z" style="fill:#37474f"></path><path d="M403.49,255.49A.48.48,0,0,1,403,255V249a.48.48,0,0,1,.48-.47.47.47,0,0,1,.47.47V255A.47.47,0,0,1,403.49,255.49Z" style="fill:#37474f"></path><path d="M412.93,260.94a.49.49,0,0,1-.48-.48v-6.07a.48.48,0,0,1,.48-.47.47.47,0,0,1,.47.47v6.07A.48.48,0,0,1,412.93,260.94Z" style="fill:#37474f"></path><path d="M379.63,247.77a.47.47,0,0,1-.47-.47v-6a.47.47,0,1,1,.94,0v6A.47.47,0,0,1,379.63,247.77Z" style="fill:#37474f"></path><path d="M389.07,253.23a.48.48,0,0,1-.48-.47v-6a.48.48,0,0,1,.48-.48.47.47,0,0,1,.47.48v6A.47.47,0,0,1,389.07,253.23Z" style="fill:#37474f"></path><path d="M398.51,258.69a.49.49,0,0,1-.48-.48v-6a.48.48,0,0,1,.48-.48.47.47,0,0,1,.47.48v6A.48.48,0,0,1,398.51,258.69Z" style="fill:#37474f"></path><path d="M408,264.14a.48.48,0,0,1-.48-.47v-6a.48.48,0,0,1,.48-.48.47.47,0,0,1,.47.48v6A.47.47,0,0,1,408,264.14Z" style="fill:#37474f"></path><path d="M417.39,269.6a.48.48,0,0,1-.48-.47v-6a.48.48,0,0,1,.48-.48.47.47,0,0,1,.47.48v6A.47.47,0,0,1,417.39,269.6Z" style="fill:#37474f"></path><path d="M424.85,233l13-7.49a1.07,1.07,0,0,0,0-2l-47.62-27.49a3.88,3.88,0,0,0-3.51,0l-13,7.49a1.07,1.07,0,0,0,0,2L421.34,233A3.88,3.88,0,0,0,424.85,233Z" style="fill:#455a64"></path><path d="M445,211.29a1.51,1.51,0,0,1,.89,1.24v14.41a1.51,1.51,0,0,1-.89,1.23l-15.89,9.18a4.81,4.81,0,0,1-4.31,0l-58.31-33.67a1.51,1.51,0,0,1-.89-1.24V188a1.51,1.51,0,0,1,.89-1.24l15.89-9.18a4.81,4.81,0,0,1,4.31,0Z" style="fill:#ebebeb"></path><path d="M424.83,223l-58.3-33.66a1.57,1.57,0,0,1-.9-1.19v14.34a1.53,1.53,0,0,0,.9,1.24l58.3,33.67a4.47,4.47,0,0,0,2.1.51v-14.4A4.24,4.24,0,0,1,424.83,223Z" style="fill:#e0e0e0"></path><path d="M429.14,223,445,213.77a1.31,1.31,0,0,0,0-2.48l-58.31-33.67a4.81,4.81,0,0,0-4.31,0l-15.89,9.18a1.31,1.31,0,0,0,0,2.48L424.83,223A4.81,4.81,0,0,0,429.14,223Z" style="fill:#e0e0e0"></path><path d="M429.14,223,445,213.77a1.31,1.31,0,0,0,0-2.48l-58.31-33.67a4.81,4.81,0,0,0-4.31,0l-15.89,9.18a1.31,1.31,0,0,0,0,2.48L424.83,223A4.81,4.81,0,0,0,429.14,223Z" style="opacity:0.2"></path><polygon points="425.76 197.86 416.91 202.98 425.76 208.09 434.62 202.98 425.76 197.86" style="fill:#455a64"></polygon><polygon points="434.62 202.98 434.62 213.2 425.76 218.31 425.76 208.09 434.62 202.98" style="fill:#263238"></polygon><polygon points="416.91 202.98 416.91 213.2 425.76 218.31 425.76 208.09 416.91 202.98" style="fill:#37474f"></polygon><polygon points="382.24 172.87 373.38 177.98 382.24 183.09 391.09 177.98 382.24 172.87" style="fill:#455a64"></polygon><polygon points="391.09 177.98 391.09 188.21 382.24 193.32 382.24 183.09 391.09 177.98" style="fill:#263238"></polygon><polygon points="373.38 177.98 373.38 188.21 382.24 193.32 382.24 183.09 373.38 177.98" style="fill:#37474f"></polygon><polygon points="351.44 138.55 246.06 199.4 246.06 217.97 249.89 220.19 355.26 159.34 355.26 140.76 351.44 138.55" style="fill:#e0e0e0"></polygon><polygon points="249.89 201.61 246.06 199.4 246.06 217.97 249.89 220.19 249.89 201.61" style="opacity:0.2"></polygon><polygon points="249.89 220.19 355.26 159.34 355.26 140.76 249.89 201.61 249.89 220.19" style="fill:#f5f5f5"></polygon><path d="M356.86,127.62,242.69,193.53v2.68l10-5.79v6.11a1.16,1.16,0,1,0,2.32,0v-7.45l16.53-9.54v6.11a1.16,1.16,0,1,0,2.32,0V178.2l16.52-9.54v6.11a1.16,1.16,0,0,0,2.32,0v-7.45l16.53-9.54v6.11a1.16,1.16,0,0,0,2.32,0v-7.45l16.52-9.54V153a1.16,1.16,0,0,0,2.32,0v-7.45L347,136v6.12a1.16,1.16,0,0,0,2.32,0v-7.46l7.59-4.39Z" style="fill:#263238"></path><polygon points="249.89 212.49 352.65 271.8 458.03 210.96 355.26 151.64 249.89 212.49" style="fill:#455a64"></polygon><polygon points="457.93 211.02 352.54 271.87 249.79 212.56 355.16 151.71 457.93 211.02" style="fill:#455a64"></polygon><polygon points="249.88 212.49 249.88 220.18 352.65 279.5 352.65 271.8 249.88 212.49" style="fill:#37474f"></polygon><polygon points="458.03 200.08 352.65 260.93 352.65 279.5 356.48 281.71 461.85 220.86 461.86 202.29 458.03 200.08" style="fill:#e0e0e0"></polygon><polygon points="356.48 263.14 352.65 260.93 352.65 279.5 356.48 281.71 356.48 263.14" style="opacity:0.2"></polygon><polygon points="356.48 281.71 461.85 220.86 461.86 202.29 356.48 263.14 356.48 281.71" style="fill:#f5f5f5"></polygon><path d="M462.74,189.56,349.53,254.92v2.67l9.79-5.65v6.11a1.16,1.16,0,1,0,2.31,0V250.6l16.53-9.54v6.11a1.16,1.16,0,0,0,2.32,0v-7.45L397,230.18v6.12a1.16,1.16,0,1,0,2.32,0v-7.46l16.52-9.54v6.12a1.16,1.16,0,0,0,2.32,0V218l16.53-9.54v6.12a1.16,1.16,0,1,0,2.32,0v-7.46l16.52-9.54v6.12a1.16,1.16,0,0,0,2.32,0V196.2l6.88-4Z" style="fill:#263238"></path><path d="M247.84,337.79a.57.57,0,0,0-.24.53,1.81,1.81,0,0,0,.81,1.41.56.56,0,0,0,.58,0l105.83-61.15a.58.58,0,0,0,.24-.53,1.79,1.79,0,0,0-.81-1.41.59.59,0,0,0-.58-.06Z" style="fill:#263238"></path><path d="M248.41,339.73a.56.56,0,0,0,.58,0,.55.55,0,0,0,.24-.52,1.79,1.79,0,0,0-.82-1.41.55.55,0,0,0-.57-.06.57.57,0,0,0-.24.53A1.81,1.81,0,0,0,248.41,339.73Z" style="fill:#455a64"></path><path d="M247.84,327.4a.55.55,0,0,0-.24.52,1.78,1.78,0,0,0,.81,1.41.57.57,0,0,0,.58.06l105.83-61.15a.58.58,0,0,0,.24-.53,1.79,1.79,0,0,0-.81-1.41.59.59,0,0,0-.58-.06Z" style="fill:#263238"></path><path d="M248.41,329.33a.5.5,0,0,0,.82-.47,1.82,1.82,0,0,0-.82-1.41.5.5,0,0,0-.81.47A1.78,1.78,0,0,0,248.41,329.33Z" style="fill:#455a64"></path><path d="M141.39,276.34a.58.58,0,0,0-.24.53,1.79,1.79,0,0,0,.81,1.41.59.59,0,0,0,.58.06l105.83-61.16a.55.55,0,0,0,.24-.52,1.79,1.79,0,0,0-.81-1.41.57.57,0,0,0-.58-.06Z" style="fill:#263238"></path><path d="M142,278.28a.59.59,0,0,0,.58.06.58.58,0,0,0,.24-.53,1.8,1.8,0,0,0-.82-1.41.49.49,0,0,0-.81.47A1.79,1.79,0,0,0,142,278.28Z" style="fill:#455a64"></path><path d="M141.39,266a.58.58,0,0,0-.24.53,1.79,1.79,0,0,0,.81,1.41.59.59,0,0,0,.58.06l105.83-61.16a.56.56,0,0,0,.24-.52,1.81,1.81,0,0,0-.81-1.42.59.59,0,0,0-.58,0Z" style="fill:#263238"></path><path d="M142,267.89a.59.59,0,0,0,.58.06.58.58,0,0,0,.24-.53A1.8,1.8,0,0,0,142,266a.49.49,0,0,0-.81.47A1.79,1.79,0,0,0,142,267.89Z" style="fill:#455a64"></path><polygon points="140.43 260.38 35.05 321.23 35.05 339.8 38.88 342.01 144.26 281.17 144.26 262.59 140.43 260.38" style="fill:#e0e0e0"></polygon><polygon points="38.88 323.44 35.05 321.23 35.05 339.8 38.88 342.01 38.88 323.44" style="opacity:0.2"></polygon><polygon points="38.88 342.01 144.26 281.17 144.26 262.59 38.88 323.44 38.88 342.01" style="fill:#f5f5f5"></polygon><path d="M145.86,249.44,31.69,315.36V318l10-5.8v6.11a1.16,1.16,0,0,0,2.32,0V310.9l16.52-9.54v6.11a1.16,1.16,0,1,0,2.32,0V300l16.53-9.54v6.12a1.16,1.16,0,1,0,2.32,0v-7.46l16.53-9.54v6.12a1.16,1.16,0,1,0,2.31,0v-7.46l16.53-9.54v6.12a1.16,1.16,0,0,0,2.32,0v-7.46l16.52-9.54V264a1.16,1.16,0,0,0,2.32,0V256.5l7.6-4.38Z" style="fill:#263238"></path><polygon points="38.88 334.31 141.65 393.63 247.03 332.78 144.26 273.47 38.88 334.31" style="fill:#455a64"></polygon><polygon points="247.03 332.78 141.64 393.63 38.89 334.31 144.26 273.46 247.03 332.78" style="fill:#455a64"></polygon><polygon points="38.88 334.31 38.88 342.01 141.65 401.32 141.65 393.63 38.88 334.31" style="fill:#37474f"></polygon><polygon points="247.02 321.9 141.65 382.75 141.65 401.32 145.47 403.54 250.85 342.69 250.85 324.12 247.02 321.9" style="fill:#e0e0e0"></polygon><polygon points="145.47 384.96 141.65 382.75 141.65 401.32 145.47 403.54 145.47 384.96" style="opacity:0.2"></polygon><polygon points="145.47 403.54 250.85 342.69 250.85 324.12 145.47 384.96 145.47 403.54" style="fill:#f5f5f5"></polygon><path d="M251.73,311.38,138.52,376.74v2.68l9.79-5.65v6.11a1.16,1.16,0,0,0,2.32,0v-7.45l16.53-9.54V369a1.16,1.16,0,0,0,2.32,0v-7.45L186,352v6.11a1.16,1.16,0,1,0,2.32,0v-7.45l16.53-9.54v6.11a1.16,1.16,0,1,0,2.32,0v-7.45l16.52-9.54v6.11a1.16,1.16,0,1,0,2.32,0v-7.45l16.53-9.54v6.12a1.16,1.16,0,1,0,2.31,0V318l6.88-4Z" style="fill:#263238"></path></g></g><g id="freepik--Shadows--inject-242"><path id="freepik--shadow--inject-242" d="M418.91,471.17,390.9,455a1.14,1.14,0,0,1,0-2.17l28-16.17a4.15,4.15,0,0,1,3.76,0l28,16.17a1.14,1.14,0,0,1,0,2.17l-28,16.17A4.15,4.15,0,0,1,418.91,471.17Z" style="fill:#e0e0e0"></path><path id="freepik--shadow--inject-242" d="M446.57,439.36l-28-16.17a1.14,1.14,0,0,1,0-2.17l28-16.17a4.15,4.15,0,0,1,3.76,0l28,16.17a1.14,1.14,0,0,1,0,2.17l-28,16.17A4.15,4.15,0,0,1,446.57,439.36Z" style="fill:#e0e0e0"></path><path id="freepik--shadow--inject-242" d="M48.19,473.54l-28-16.17a1.15,1.15,0,0,1,0-2.18l28-16.17A4.15,4.15,0,0,1,52,439l28,16.17a1.15,1.15,0,0,1,0,2.18L52,473.54A4.15,4.15,0,0,1,48.19,473.54Z" style="fill:#e0e0e0"></path></g><g id="freepik--Cones--inject-242"><g id="freepik--Cone--inject-242"><path d="M475,418.22l-24.87-14.36a3.69,3.69,0,0,0-3.34,0l-24.87,14.36a1.17,1.17,0,0,0-.68,1V421a1.17,1.17,0,0,0,.68,1l24.87,14.35a3.69,3.69,0,0,0,3.34,0L475,422a1.18,1.18,0,0,0,.69-1v-1.81A1.18,1.18,0,0,0,475,418.22Z" style="fill:#3DBF4B"></path><path d="M475.68,419.19V421a1.18,1.18,0,0,1-.69,1l-24.87,14.35a3.38,3.38,0,0,1-1.67.4V403.46a3.38,3.38,0,0,1,1.67.4L475,418.22A1.18,1.18,0,0,1,475.68,419.19Z" style="opacity:0.1"></path><path d="M448.45,403.46v33.26a3.38,3.38,0,0,1-1.67-.4L421.91,422a1.17,1.17,0,0,1-.68-1v-1.81a1.17,1.17,0,0,1,.68-1l24.87-14.36A3.38,3.38,0,0,1,448.45,403.46Z" style="opacity:0.30000000000000004"></path><path d="M446.78,434.51l-24.87-14.36a1,1,0,0,1,0-1.92l24.87-14.36a3.65,3.65,0,0,1,3.34,0L475,418.23a1,1,0,0,1,0,1.92l-24.87,14.36A3.65,3.65,0,0,1,446.78,434.51Z" style="fill:#3DBF4B"></path><path d="M446.78,434.51l-24.87-14.36a1,1,0,0,1,0-1.92l24.87-14.36a3.65,3.65,0,0,1,3.34,0L475,418.23a1,1,0,0,1,0,1.92l-24.87,14.36A3.65,3.65,0,0,1,446.78,434.51Z" style="fill:#fff;opacity:0.5"></path><path d="M448.45,403.47a3.38,3.38,0,0,0-1.67.4l-24.87,14.36a1,1,0,0,0,0,1.92l24.87,14.36a3.38,3.38,0,0,0,1.67.4Z" style="opacity:0.05"></path><path d="M463.8,417.38h0l-11-33.05v-.05h0a2.53,2.53,0,0,0-1.19-1.28,6.93,6.93,0,0,0-6.27,0,2.55,2.55,0,0,0-1.2,1.28h0v0h0l-11,33.06h0c-1,2.88.41,6,4.27,8.21,6.12,3.53,16,3.53,22.16,0C463.4,423.36,464.81,420.26,463.8,417.38Z" style="fill:#3DBF4B"></path><path d="M456,393.8v0l-1.57-4.7a2.3,2.3,0,0,1-.68,2.37,4.65,4.65,0,0,1-1,.74,9.45,9.45,0,0,1-8.54,0,4.92,4.92,0,0,1-1-.74,2.32,2.32,0,0,1-.68-2.38L441,393.77v0a2.68,2.68,0,0,0,.35,2.36,4.93,4.93,0,0,0,1.76,1.59,8.83,8.83,0,0,0,1.89.78,12.69,12.69,0,0,0,7,0,9.23,9.23,0,0,0,1.9-.78,5,5,0,0,0,1.75-1.59A2.68,2.68,0,0,0,456,393.8Z" style="fill:#fafafa"></path><path d="M462.26,412.74v0l-1.56-4.7a4.22,4.22,0,0,1,.09,2.36,5.44,5.44,0,0,1-1.33,2.38,9.13,9.13,0,0,1-2.19,1.7c-4.86,2.81-12.75,2.81-17.62,0a9.13,9.13,0,0,1-2.19-1.7,5.41,5.41,0,0,1-1.32-2.38,4.22,4.22,0,0,1,.08-2.36l-1.56,4.69v.05a4.79,4.79,0,0,0-.18,2.37c.32,1.79,1.67,3.53,4,4.9,5.5,3.17,14.4,3.17,19.9,0,2.37-1.37,3.72-3.11,4-4.9A4.84,4.84,0,0,0,462.26,412.74Z" style="fill:#fafafa"></path><path d="M459.11,403.27v0l-1.56-4.7a3.22,3.22,0,0,1-.15,2.36,5.54,5.54,0,0,1-2.33,2.37l-.07.05a14.49,14.49,0,0,1-13.08,0l-.07-.05a5.54,5.54,0,0,1-2.33-2.37,3.17,3.17,0,0,1-.14-2.36l-1.57,4.7v0a3.7,3.7,0,0,0,0,2.37,5.41,5.41,0,0,0,1.73,2.36,9.49,9.49,0,0,0,1.25.88,13.77,13.77,0,0,0,4.17,1.49,18.42,18.42,0,0,0,7,0,13.77,13.77,0,0,0,4.17-1.49,9.62,9.62,0,0,0,1.26-.88,5.46,5.46,0,0,0,1.72-2.36A3.73,3.73,0,0,0,459.11,403.27Z" style="fill:#fafafa"></path><path d="M448.45,382.25a6.38,6.38,0,0,0-3.13.75,2.55,2.55,0,0,0-1.2,1.28h0v0h0l-11,33.06h0c-1,2.88.41,6,4.27,8.21a22.61,22.61,0,0,0,11.08,2.65l-.09,0a9.3,9.3,0,0,1-7.62-10.51l4.58-32.9Z" style="opacity:0.1"></path><path d="M445.32,386.61c-1.73-1-1.73-2.62,0-3.61a6.93,6.93,0,0,1,6.27,0c1.73,1,1.73,2.62,0,3.61A6.93,6.93,0,0,1,445.32,386.61Z" style="fill:#3DBF4B"></path><path d="M445.32,386.61c-1.73-1-1.73-2.62,0-3.61a6.93,6.93,0,0,1,6.27,0c1.73,1,1.73,2.62,0,3.61A6.93,6.93,0,0,1,445.32,386.61Z" style="fill:#fff;opacity:0.2"></path></g><g id="freepik--cone--inject-242"><path d="M447.33,450l-24.87-14.36a3.41,3.41,0,0,0-1.67-.4,3.45,3.45,0,0,0-1.68.4L394.25,450a1.18,1.18,0,0,0-.69,1v1.81a1.2,1.2,0,0,0,.69,1l24.86,14.35a3.45,3.45,0,0,0,1.68.4,3.41,3.41,0,0,0,1.67-.4l24.87-14.35a1.18,1.18,0,0,0,.68-1V451A1.17,1.17,0,0,0,447.33,450Z" style="fill:#3DBF4B"></path><path d="M448,451v1.81a1.18,1.18,0,0,1-.68,1l-24.87,14.35a3.41,3.41,0,0,1-1.67.4V435.27a3.41,3.41,0,0,1,1.67.4L447.33,450A1.17,1.17,0,0,1,448,451Z" style="opacity:0.1"></path><path d="M420.79,435.27v33.26a3.45,3.45,0,0,1-1.68-.4l-24.86-14.35a1.2,1.2,0,0,1-.69-1V451a1.18,1.18,0,0,1,.69-1l24.86-14.36A3.45,3.45,0,0,1,420.79,435.27Z" style="opacity:0.30000000000000004"></path><path d="M419.12,466.32,394.25,452a1,1,0,0,1,0-1.93l24.87-14.35a3.65,3.65,0,0,1,3.34,0L447.33,450a1,1,0,0,1,0,1.93l-24.87,14.36A3.71,3.71,0,0,1,419.12,466.32Z" style="fill:#3DBF4B"></path><path d="M419.12,466.32,394.25,452a1,1,0,0,1,0-1.93l24.87-14.35a3.65,3.65,0,0,1,3.34,0L447.33,450a1,1,0,0,1,0,1.93l-24.87,14.36A3.71,3.71,0,0,1,419.12,466.32Z" style="fill:#fff;opacity:0.5"></path><path d="M420.79,435.28a3.46,3.46,0,0,0-1.67.39L394.25,450a1,1,0,0,0,0,1.93l24.87,14.36a3.36,3.36,0,0,0,1.67.4Z" style="opacity:0.05"></path><path d="M436.14,449.19h0l-11-33.06h0v0h0a2.63,2.63,0,0,0-1.2-1.28,6.93,6.93,0,0,0-6.27,0,2.6,2.6,0,0,0-1.19,1.28h0v0h0l-11,33.06h0c-1,2.87.4,6,4.27,8.21,6.12,3.53,16,3.53,22.16,0C435.73,455.17,437.15,452.06,436.14,449.19Z" style="fill:#3DBF4B"></path><path d="M428.3,425.61v0l-1.57-4.7a2.28,2.28,0,0,1-.68,2.36,4.86,4.86,0,0,1-1,.75,9.45,9.45,0,0,1-8.54,0,4.35,4.35,0,0,1-1-.75,2.26,2.26,0,0,1-.68-2.37l-1.57,4.71v0a2.69,2.69,0,0,0,.35,2.36,5.07,5.07,0,0,0,1.75,1.59,9.23,9.23,0,0,0,1.9.78,12.69,12.69,0,0,0,7,0,9.37,9.37,0,0,0,1.89-.78A5,5,0,0,0,428,428,2.75,2.75,0,0,0,428.3,425.61Z" style="fill:#fafafa"></path><path d="M434.6,444.55v0l-1.56-4.7a4.21,4.21,0,0,1,.08,2.36,5.41,5.41,0,0,1-1.32,2.38,9.61,9.61,0,0,1-2.19,1.7c-4.87,2.81-12.76,2.81-17.62,0a9.39,9.39,0,0,1-2.19-1.7,5.44,5.44,0,0,1-1.33-2.38,4.22,4.22,0,0,1,.09-2.36L407,444.51l0,.05a4.87,4.87,0,0,0-.17,2.36c.32,1.8,1.66,3.54,4,4.91,5.5,3.17,14.4,3.17,19.9,0,2.37-1.37,3.72-3.11,4-4.91A4.79,4.79,0,0,0,434.6,444.55Z" style="fill:#fafafa"></path><path d="M431.45,435.08v0l-1.57-4.7a3.13,3.13,0,0,1-.15,2.36,5.45,5.45,0,0,1-2.32,2.37l-.07.05a14.49,14.49,0,0,1-13.08,0l-.07-.05a5.54,5.54,0,0,1-2.33-2.37,3.22,3.22,0,0,1-.15-2.36l-1.56,4.7v0a3.73,3.73,0,0,0,0,2.38,5.38,5.38,0,0,0,1.72,2.35,8.75,8.75,0,0,0,1.26.88,13.78,13.78,0,0,0,4.17,1.5,18.78,18.78,0,0,0,7,0,13.59,13.59,0,0,0,4.17-1.5,8.23,8.23,0,0,0,1.26-.88,5.33,5.33,0,0,0,1.73-2.35A3.73,3.73,0,0,0,431.45,435.08Z" style="fill:#fafafa"></path><path d="M420.79,414.05a6.42,6.42,0,0,0-3.14.75,2.6,2.6,0,0,0-1.19,1.28h0v0h0l-11,33.06h0c-1,2.87.4,6,4.27,8.21a22.72,22.72,0,0,0,11.08,2.65l-.1,0a9.29,9.29,0,0,1-7.61-10.51l4.57-32.91Z" style="opacity:0.1"></path><path d="M417.65,418.42c-1.73-1-1.73-2.62,0-3.62a6.93,6.93,0,0,1,6.27,0c1.73,1,1.73,2.62,0,3.62A6.93,6.93,0,0,1,417.65,418.42Z" style="fill:#3DBF4B"></path><path d="M417.65,418.42c-1.73-1-1.73-2.62,0-3.62a6.93,6.93,0,0,1,6.27,0c1.73,1,1.73,2.62,0,3.62A6.93,6.93,0,0,1,417.65,418.42Z" style="fill:#fff;opacity:0.2"></path></g><g id="freepik--cone--inject-242"><path d="M76.61,452.4,51.74,438a3.69,3.69,0,0,0-3.34,0L23.53,452.4a1.17,1.17,0,0,0-.68,1v1.82a1.17,1.17,0,0,0,.68,1L48.4,470.5a3.69,3.69,0,0,0,3.34,0l24.87-14.36a1.17,1.17,0,0,0,.68-1v-1.82A1.17,1.17,0,0,0,76.61,452.4Z" style="fill:#3DBF4B"></path><path d="M77.29,453.36v1.82a1.17,1.17,0,0,1-.68,1L51.74,470.5a3.41,3.41,0,0,1-1.67.4V437.64a3.41,3.41,0,0,1,1.67.4L76.61,452.4A1.17,1.17,0,0,1,77.29,453.36Z" style="opacity:0.1"></path><path d="M50.07,437.64V470.9a3.38,3.38,0,0,1-1.67-.4L23.53,456.14a1.17,1.17,0,0,1-.68-1v-1.82a1.17,1.17,0,0,1,.68-1L48.4,438A3.38,3.38,0,0,1,50.07,437.64Z" style="opacity:0.30000000000000004"></path><path d="M48.4,468.69,23.53,454.33a1,1,0,0,1,0-1.93L48.4,438a3.71,3.71,0,0,1,3.34,0L76.61,452.4a1,1,0,0,1,0,1.93L51.74,468.69A3.71,3.71,0,0,1,48.4,468.69Z" style="fill:#3DBF4B"></path><path d="M48.4,468.69,23.53,454.33a1,1,0,0,1,0-1.93L48.4,438a3.71,3.71,0,0,1,3.34,0L76.61,452.4a1,1,0,0,1,0,1.93L51.74,468.69A3.71,3.71,0,0,1,48.4,468.69Z" style="fill:#fff;opacity:0.5"></path><path d="M50.07,437.64a3.49,3.49,0,0,0-1.67.4L23.53,452.4a1,1,0,0,0,0,1.93L48.4,468.69a3.49,3.49,0,0,0,1.67.4Z" style="opacity:0.05"></path><path d="M65.42,451.56h0l-11-33.06v-.05h0a2.55,2.55,0,0,0-1.2-1.28,6.91,6.91,0,0,0-6.26,0,2.55,2.55,0,0,0-1.2,1.28h0v0h0l-11,33.06h0c-1,2.87.41,6,4.27,8.2,6.12,3.54,16,3.54,22.16,0C65,457.53,66.43,454.43,65.42,451.56Z" style="fill:#3DBF4B"></path><path d="M57.58,428v0L56,423.25a2.28,2.28,0,0,1-.68,2.36,4.59,4.59,0,0,1-1,.75,9.45,9.45,0,0,1-8.54,0,4.59,4.59,0,0,1-1-.75,2.3,2.3,0,0,1-.68-2.37L42.57,428v0a2.69,2.69,0,0,0,.35,2.36,5.07,5.07,0,0,0,1.75,1.59,9.21,9.21,0,0,0,1.9.77,12.69,12.69,0,0,0,7,0,9.21,9.21,0,0,0,1.9-.77,5.07,5.07,0,0,0,1.75-1.59A2.68,2.68,0,0,0,57.58,428Z" style="fill:#fafafa"></path><path d="M63.88,446.92v0l-1.56-4.71a4.25,4.25,0,0,1,.09,2.37,5.41,5.41,0,0,1-1.33,2.37,9.16,9.16,0,0,1-2.19,1.71c-4.86,2.81-12.76,2.81-17.62,0a9.16,9.16,0,0,1-2.19-1.71,5.41,5.41,0,0,1-1.33-2.37,4.22,4.22,0,0,1,.09-2.36l-1.56,4.69,0,.05a4.86,4.86,0,0,0-.17,2.36c.32,1.79,1.67,3.53,4,4.91,5.5,3.17,14.4,3.17,19.9,0,2.37-1.38,3.72-3.12,4-4.91A4.79,4.79,0,0,0,63.88,446.92Z" style="fill:#fafafa"></path><path d="M60.73,437.45v0l-1.56-4.71a3.25,3.25,0,0,1-.15,2.37,5.65,5.65,0,0,1-2.33,2.37l-.07,0a14.43,14.43,0,0,1-13.08,0l-.07,0a5.65,5.65,0,0,1-2.33-2.37,3.2,3.2,0,0,1-.14-2.37l-1.57,4.7v0a3.73,3.73,0,0,0,0,2.38,5.33,5.33,0,0,0,1.73,2.35,8.12,8.12,0,0,0,1.25.88,13.5,13.5,0,0,0,4.17,1.49,18.42,18.42,0,0,0,7,0,13.5,13.5,0,0,0,4.17-1.49,8.12,8.12,0,0,0,1.25-.88,5.33,5.33,0,0,0,1.73-2.35A3.73,3.73,0,0,0,60.73,437.45Z" style="fill:#fafafa"></path><path d="M50.07,416.42a6.38,6.38,0,0,0-3.13.75,2.55,2.55,0,0,0-1.2,1.28h0v0h0l-11,33.06h0c-1,2.87.41,6,4.27,8.2a22.61,22.61,0,0,0,11.08,2.65H50a9.3,9.3,0,0,1-7.62-10.51L46.94,419Z" style="opacity:0.1"></path><path d="M46.94,420.79c-1.74-1-1.74-2.62,0-3.62a6.91,6.91,0,0,1,6.26,0c1.74,1,1.74,2.62,0,3.62A6.91,6.91,0,0,1,46.94,420.79Z" style="fill:#3DBF4B"></path><path d="M46.94,420.79c-1.74-1-1.74-2.62,0-3.62a6.91,6.91,0,0,1,6.26,0c1.74,1,1.74,2.62,0,3.62A6.91,6.91,0,0,1,46.94,420.79Z" style="fill:#fff;opacity:0.2"></path></g></g><g id="freepik--character-2--inject-242"><path id="freepik--shadow--inject-242" d="M286.58,212.75c-4.35,2.75-7.57,6.67-3.49,11.31,1.9,2.15,4.73,3.25,7.53,3.91,9.3,2.18,19.65.46,28,5.07,3.61,2,6.52,5,9.54,7.81s6.36,5.49,10.33,6.57,8.76.16,11.19-3.18a12.23,12.23,0,0,0,1.86-4.52,28.21,28.21,0,0,0-5.36-23.63c-11.93-15-36.08-12.44-52-6.91A39.31,39.31,0,0,0,286.58,212.75Z" style="opacity:0.2"></path><g id="freepik--Chartacter--inject-242"><g id="freepik--Top--inject-242"><path d="M269.33,93.42c1.4,1.16,2.83,3,5.21,5s6,5.7,9.47,7.9,5.22,3.12,9.78-1.33a123,123,0,0,0,11.53-13.64l.43-16.93c-3.76,1-6,2.94-8.36,6.4-4.54,6.5-7.61,10.7-10.24,14.45,0,0-10.26-6.45-11.59-7.47a5.58,5.58,0,0,1-2-3,24.78,24.78,0,0,0-1-3c-.38-1-.53-1.43-1-2.74s-.75-3.49-.89-4-1.09-.53-1.82.77a5.18,5.18,0,0,0-.39,2.6c0,.79.22,1.76,0,1.88a15,15,0,0,1-2.47-.8c-1.12-.31-2.1-.83-3.37-.5A1.48,1.48,0,0,0,261.51,81a1.82,1.82,0,0,0,.64.78,1.59,1.59,0,0,0-1.22.33,1.74,1.74,0,0,0-.11,2.19,1,1,0,0,0-1,.83c-.16.74-.1,1.48.63,1.8,0,0-.62.12-.67.47a1.76,1.76,0,0,0,.52,1.66,5.62,5.62,0,0,0,2.1.57s.1.28.8.67a17.69,17.69,0,0,0,2.31,1.35A15.09,15.09,0,0,1,269.33,93.42Z" style="fill:#ffbda7"></path><path d="M287.15,95.31a8.26,8.26,0,0,1,3.39,5.57,6.29,6.29,0,0,0-2.88-6.28Z" style="fill:#f0997a"></path><path d="M305.76,74.38a11.83,11.83,0,0,0-5.64,3.05c-1.61,1.53-4.55,5.92-6.3,8.35s-3.62,5-3.62,5-.27,6.42,7.73,10.1l7.66-9.29Z" style="fill:#455a64"></path><path d="M264.48,87.93a.64.64,0,0,1-.17.54,3.81,3.81,0,0,1-.55.5,1.54,1.54,0,0,1-.29.23,1.37,1.37,0,0,1-.32.16l-.74.23a2.69,2.69,0,0,0,.8,0,1,1,0,0,0,.39-.14,4,4,0,0,0,.34-.23,3.5,3.5,0,0,0,.55-.6.82.82,0,0,0,.12-.41.59.59,0,0,0-.07-.26,3,3,0,0,0,.6-.2,2,2,0,0,0,.85-.54,1.45,1.45,0,0,0,.18-.49.29.29,0,0,0,0-.16l.24-.33a4.34,4.34,0,0,0,1,1.82,5.23,5.23,0,0,0,2.06,1.46,4.6,4.6,0,0,1-1.78-1.84,4.67,4.67,0,0,1-.16-3.82l.06,0a.8.8,0,0,0,.25-.28,1,1,0,0,0,.05-.7,2,2,0,0,0-.29-.59,3.71,3.71,0,0,0-2.08-1.3,1.83,1.83,0,0,0-.3-.46,2.16,2.16,0,0,0-.41-.39,2.93,2.93,0,0,1,.36.43,1.47,1.47,0,0,1,.25.48v0l0,0a3.76,3.76,0,0,1,1.94,1.33,1,1,0,0,1,.2,1c-.1.17-.17.22-.36.19s-.39-.09-.6-.12c-.41-.08-.82-.1-1.22-.16a5.17,5.17,0,0,1-1.14-.35c-.37-.16-.73-.36-1.09-.56a8.61,8.61,0,0,1-1-.65,9.8,9.8,0,0,0,2,1.39,4.2,4.2,0,0,0,1.19.41c.41.07.82.1,1.21.18l.24,0a.73.73,0,0,1,.25.49.85.85,0,0,1-.45.8,4.91,4.91,0,0,1-.91.47,2.89,2.89,0,0,1-1,.19,7,7,0,0,1-1.94-.67c-.66-.28-1.31-.55-2-.79.62.35,1.25.67,1.89,1,.31.16.63.31,1,.46a3.27,3.27,0,0,0,1.05.3,3,3,0,0,0,.68-.11.94.94,0,0,1,.53.37.45.45,0,0,1,.07.4,1.27,1.27,0,0,1-.18.39,2.18,2.18,0,0,1-.78.44,2,2,0,0,1-.86.19,3.47,3.47,0,0,1-.87-.3,6.26,6.26,0,0,0-.95-.23,17.35,17.35,0,0,0-1.9-.26c.62.17,1.24.31,1.86.47a8.52,8.52,0,0,1,.9.26,3.91,3.91,0,0,0,.93.34A1.69,1.69,0,0,0,264.48,87.93ZM267,83.82v0h0Z" style="fill:#f0997a"></path><g id="freepik--Chest--inject-242"><path d="M322.65,75.25c3,.13,4.47.82,7.62,2.17,3.61,1.55,4.33,1.86,6.15,2.81a58.12,58.12,0,0,1,0,18.44c-.38,2.23-1.73,8.39-1.81,13.08a75.67,75.67,0,0,0,1,14.57s-7,5.65-22.41,5.14c-12.12-.4-13.88-4.78-13.88-4.78s-.63-20.15-.69-29.07c-.09-11.72,4.45-21.08,7-23.23a46.92,46.92,0,0,1,8.49-.69C316.91,73.71,319.64,75.11,322.65,75.25Z" style="fill:#f0f0f0"></path></g><g id="freepik--Head--inject-242"><path d="M326,49.14a4.34,4.34,0,0,1,3.28,2.43c.68,1.18,1.22,3.38-.23,9.77a25.43,25.43,0,0,1-2.75,7.11A3.1,3.1,0,0,1,324.51,70l-.08-4.86,0-3.4s-2.83-2.36-3.17-4.78a7.78,7.78,0,0,1,.71-5Z" style="fill:#263238"></path><path d="M326.63,49.28c-.59-2.72-4.2-5.83-10.9-5.9-5.48-.06-8.45,2.94-10.22,6.22a6.36,6.36,0,0,0-.06,6.09l16.72-1.58Z" style="fill:#263238"></path><path d="M328.93,66.34c-2.47,1.33-3.7-.61-3.7-.61L325.68,76c-4.56,6.68-18,4.67-12.88-.4l-.09-2.28a16.6,16.6,0,0,1-2.19-.12,4.74,4.74,0,0,1-4.44-3.63,31.57,31.57,0,0,1-1-5,17.61,17.61,0,0,1,.18-6.65c.39-1.26-.2-2.87.08-4.42a4.18,4.18,0,0,1,1.71-3.07c2.62-1.43,5.18.37,9,1.66,1.57.54,5.32.65,6.29.14-1.24,1.49-1,6,1,7.79a4.31,4.31,0,0,0,1,1.21c.85.67,1.44-1.19,2.09-1.93a2.82,2.82,0,0,1,4.42.82A4.58,4.58,0,0,1,328.93,66.34Z" style="fill:#ffbda7"></path><path d="M312.71,73.3a20.15,20.15,0,0,0,7.2-1.42c1.7-.8,3.13-3.2,3.53-5.54.08,1.87-.59,5.21-3.15,6.69a17,17,0,0,1-7.52,1.81Z" style="fill:#f0997a"></path><path d="M316.6,56l2.52.93a1.41,1.41,0,0,0-.82-1.77A1.33,1.33,0,0,0,316.6,56Z" style="fill:#37474f"></path><path d="M306.49,56.79,309,55.68a1.29,1.29,0,0,0-1.74-.71A1.42,1.42,0,0,0,306.49,56.79Z" style="fill:#37474f"></path><path d="M317.78,58.91a1.1,1.1,0,0,1-2.19,0,1.1,1.1,0,1,1,2.19,0Z" style="fill:#263238"></path><path d="M309.33,58.82a1.1,1.1,0,0,1-1.09,1.1,1.1,1.1,0,0,1,0-2.19A1.11,1.11,0,0,1,309.33,58.82Z" style="fill:#263238"></path><path d="M313,57.07l-.61,7-3.73-1.2A16.18,16.18,0,0,1,313,57.07Z" style="fill:#f0997a"></path><path d="M315.43,64.9l-3.94.85a2,2,0,0,0,2.36,1.61A2.1,2.1,0,0,0,315.43,64.9Z" style="fill:#b16668"></path><path d="M315,65.54a2.66,2.66,0,0,1,.49,0,2.1,2.1,0,0,1-1.6,1.81,1.78,1.78,0,0,1-.65,0A1.86,1.86,0,0,1,315,65.54Z" style="fill:#f28f8f"></path></g></g><g id="freepik--Bottom--inject-242"><path d="M313.3,204.17l1-9.4-10.88.71s.16,5.1.32,8c.09,1.71-2.24,4.88-2.24,4.88s5.11,2.71,7.85,1.76a7.16,7.16,0,0,0,4.15-5C313.48,204.32,313.3,204.17,313.3,204.17Z" style="fill:#ffbda7"></path><path d="M287.1,218.84a2.34,2.34,0,0,0,.46,2.51,12.24,12.24,0,0,0,8.38,1.91,15.3,15.3,0,0,0,8.15-2.85c1.69-1.27,4.06-3,6-3.41a11.84,11.84,0,0,0,4.25-1.52c.56-.49.52-2.72.52-2.72Z" style="fill:#263238"></path><path d="M313.3,204.15a.65.65,0,0,1,.62.53c.12.62.23,2.41.49,3.42a16.67,16.67,0,0,1,.32,5.42c-.25,1.14-3.12,1.89-5,2.5a24,24,0,0,0-6,3.36,17.63,17.63,0,0,1-8.86,2.89c-3.22-.08-6.83-1.11-7.64-2.5-1-1.73-1.71-3.72,3.09-5.69.91-.37,4.12-2.06,5.21-2.67,2.95-1.65,5-3.18,6.43-6.17a1.74,1.74,0,0,1,.7-.91,1.64,1.64,0,0,1,.93-.07,34.26,34.26,0,0,1,4.68.91c.64.29,1.54.64,1.51,1.4a2.13,2.13,0,0,1-.19.77c-.06.15-.11.35,0,.45s.32,0,.45-.11a11.7,11.7,0,0,0,1.31-1.41,4.52,4.52,0,0,1,.76-.69,8.21,8.21,0,0,0,.83-.48C313.34,204.84,313.28,204.5,313.3,204.15Z" style="fill:#455a64"></path><path d="M300.53,220.46c0-.06,0-.12,0-.17a5.85,5.85,0,0,0-1.05-1.87c-.07-.08-.14-.17-.22-.25a10.91,10.91,0,0,0-2.15-2c-.61-.38-1.26-.7-1.9-1a13.13,13.13,0,0,0-3.82-1.53c-.4.2-.74.36-.95.44-4.8,2-4.09,4-3.09,5.69.81,1.39,3.42,2.52,7.58,2.59a13.89,13.89,0,0,0,4.42-.82,4.25,4.25,0,0,0,1.18-.42C300.68,221,300.62,220.71,300.53,220.46Z" style="fill:#f0f0f0"></path><path d="M300.17,215.63a.26.26,0,0,0,.19,0,.27.27,0,0,0,0-.39c-.82-1-4.75-3.27-6.94-3.09a.26.26,0,0,0-.26.29.29.29,0,0,0,.32.25c2-.17,5.77,2.13,6.42,2.89A.29.29,0,0,0,300.17,215.63Z" style="fill:#263238"></path><path d="M302.78,214.28a.33.33,0,0,0,.19-.06.25.25,0,0,0,0-.38c-.83-1-4.76-3.28-6.95-3.09a.26.26,0,0,0-.26.29.29.29,0,0,0,.32.25c2-.17,5.78,2.13,6.43,2.89A.27.27,0,0,0,302.78,214.28Z" style="fill:#263238"></path><path d="M305.21,212.73a.35.35,0,0,0,.19-.06.26.26,0,0,0,0-.38c-.82-1-4.76-3.28-6.94-3.1a.28.28,0,0,0-.26.3.27.27,0,0,0,.31.24c2-.16,5.78,2.13,6.43,2.9A.33.33,0,0,0,305.21,212.73Z" style="fill:#263238"></path><path d="M307.59,211.17a.25.25,0,0,0,.18,0,.25.25,0,0,0,.05-.38c-1.13-1.37-5.25-3.32-7.44-3.13a.28.28,0,0,0-.27.29.3.3,0,0,0,.32.25c2-.17,5.92,1.71,6.93,2.92A.28.28,0,0,0,307.59,211.17Z" style="fill:#263238"></path><path d="M332.92,213.07l-2.49-8.9,11.08-1.7.5,8.62s1.17,3.08.5,4.21-8,2.42-8.73,1.68S332.92,213.07,332.92,213.07Z" style="fill:#ffbda7"></path><path d="M334.06,232.49c.36,2.75,1,4.53,2.2,6s3.38,1.71,5.5.94,4.79-2.42,5.26-4.9a13.52,13.52,0,0,0-.42-6.63Z" style="fill:#263238"></path><path d="M342,211.09c.89-.06.71,3.73,1.46,7.4.8,3.94,2.27,5.41,3,8.64.8,3.68.68,5.39-.68,7.86s-6.52,5.42-9.35,2.52c-2.3-2.36-2.57-5.29-2.62-9.07a82,82,0,0,0-.41-9.58c-.35-2.79-1.21-5.26-.46-5.68.09.41.18.92.27,1.32s.25,1.82.75,1.77a5.49,5.49,0,0,0-.06-1.07,1.22,1.22,0,0,1,.19-.94,4.36,4.36,0,0,1,1.42-.74c.86-.26,2.4-.61,3.28-.8.44-.09.89-.17,1.33-.22a3.57,3.57,0,0,1,1.13,0,.67.67,0,0,1,.5.31,1,1,0,0,1,.08.42,2.46,2.46,0,0,0,.16.76c0,.11.13.23.26.19a.26.26,0,0,0,.13-.25c0-.45-.11-.77-.17-1.3,0-.24-.09-.57-.11-.81S342,211.33,342,211.09Z" style="fill:#455a64"></path><path d="M344.86,229.46l-.31-.11a7.49,7.49,0,0,0-3.13-.18,11,11,0,0,0-5.76,2.35,5.39,5.39,0,0,0-1.19,1.33c-.35.59-.17.9,0,1.51a8.29,8.29,0,0,0,1.91,3.15c2.83,2.9,8,0,9.35-2.52a7.49,7.49,0,0,0,1.15-3.53C346.89,230.53,345.74,229.8,344.86,229.46Z" style="fill:#f0f0f0"></path><path d="M336.07,228.73l.11,0a15.15,15.15,0,0,1,7.6-1.73.37.37,0,0,0,.38-.27.27.27,0,0,0-.27-.31,15.71,15.71,0,0,0-8,1.83.28.28,0,0,0-.13.4A.31.31,0,0,0,336.07,228.73Z" style="fill:#263238"></path><path d="M343.38,224.19a.34.34,0,0,0,.27-.23.27.27,0,0,0-.23-.34,13.2,13.2,0,0,0-8,1.76.28.28,0,0,0-.11.41.34.34,0,0,0,.45.06s3.74-2.26,7.5-1.65A.32.32,0,0,0,343.38,224.19Z" style="fill:#263238"></path><path d="M342.57,221.67a.32.32,0,0,0,.23-.22.28.28,0,0,0-.2-.35,9.62,9.62,0,0,0-7.32,1.58.3.3,0,0,0-.07.41.29.29,0,0,0,.41,0,9.12,9.12,0,0,1,6.82-1.47A.29.29,0,0,0,342.57,221.67Z" style="fill:#263238"></path><path d="M342.08,218.74a.32.32,0,0,0,.23-.21.28.28,0,0,0-.2-.35c-3.75-.88-7.16,1.55-7.3,1.66a.28.28,0,0,0-.08.4.29.29,0,0,0,.41.06s3.33-2.37,6.8-1.56Z" style="fill:#263238"></path><path d="M335.23,119.05c2.52,21.08,4.63,51.32,4.63,51.32.18,1.66,1.39,4.48,2.32,12.66,1,8.62,1.43,31.11,1.43,31.11-1,3.31-9.1,4.92-11.58,1.73,0,0-7.43-27-9.72-37.18-2.36-10.5-4.89-26.07-4.89-26.07l-1.36,15.61s.47,5.35.36,9.71c-.12,5.07-2,30.16-2,30.16s-7.81,1.92-12.89-1.88c0,0-3.31-31-3.55-37.11-.49-12,.74-34.64.9-50.1l15.87-5.79Z" style="fill:#3DBF4B"></path><path d="M335.23,119.05l-.19-3.52c-3.09-.51-7.22-4.49-6.67-16.59.67-14.94,4.87-20.61,4.87-20.61l-4.58-1.89a47.12,47.12,0,0,0-5.21,12.1l-17.54-.81s2-10.35,5.28-14a34.35,34.35,0,0,0-4.55.34A36.52,36.52,0,0,0,300.49,90a156.5,156.5,0,0,0-.9,20.06c0,4.15-.59,5.13-.59,5.13l-.13,3.82Z" style="fill:#3DBF4B"></path><path d="M317.42,152.62l-2.76-15.51s-5.86-.76-8.9-3.44c0,0,2,3.58,7.53,4.89L316,152.68l.05,15.55Z" style="opacity:0.2"></path></g><g id="freepik--Arm--inject-242"><path d="M336.62,81.21c-3.15.22-4.45,2.7-5.22,6.1a30.23,30.23,0,0,0-.72,6.07l-.43,15.47-10.87,11a13.79,13.79,0,0,1-2.41,1.63,17.68,17.68,0,0,1-2.48.85,11.63,11.63,0,0,0-2.71,1.17c-.9.54-1.79,1.11-2.66,1.71a58.74,58.74,0,0,0-5,3.88,3.83,3.83,0,0,0-1.12,1.35,1.31,1.31,0,0,0,.4,1.59,4.94,4.94,0,0,0-1.09,1.44,1.77,1.77,0,0,0,.08,1.73.27.27,0,0,1,0,.44c-.32.37-.61.9-.18,1.28a1.45,1.45,0,0,0,1.14.25,4,4,0,0,0,1.23-.5,1.56,1.56,0,0,0,.46.53,1.42,1.42,0,0,0,.79.15,6.45,6.45,0,0,0,3.09-1.28c.4-.26.82-.42,1.21-.72l1.58-1.18a11.87,11.87,0,0,1,1.73-1.16.36.36,0,0,1,.26-.06.26.26,0,0,1,.14.26,1,1,0,0,1-.13.29,4.25,4.25,0,0,0-.84,2.82c.06.37.4.84.81.75s1-.83,1.35-1.19a30.61,30.61,0,0,1,2.85-2.61A9.36,9.36,0,0,0,321,130a3.85,3.85,0,0,1,1.49-1.83c1.15-.81,13-7.15,15.47-9.09,2.77-2.18,3.87-1.69,4.69-10.81C343.58,97.89,346,83.62,336.62,81.21Z" style="fill:#ffbda7"></path><path d="M336.42,80.23c4.9,1.88,6.67,4.46,7.19,7.55,1.09,6.43-.27,17.68-.27,17.68s-7.94,3-13.21-2c0,0,.09-3.7.23-7.33C330.68,88.27,330.08,82.63,336.42,80.23Z" style="fill:#455a64"></path></g></g></g><g id="freepik--character-1--inject-242"><path id="freepik--shadow--inject-242" d="M132.74,305.41a30.21,30.21,0,0,0-5.87,4.21c-5.33,5-6.48,11.48-1.82,17.42a28,28,0,0,0,6.6,5.77c7.57,5.1,16.49,8,25.47,9.25,8.09,1.14,19.16,2.17,26.78-1.43,2.84-1.35,5-3.72,4.49-7-.69-4.87-4.88-8-9-10.23-5.19-2.78-11.86-5.15-15.36-10.09-1.75-2.45-2.91-5.42-4.92-7.69-2.84-3.21-5.79-5.57-10.29-5.7s-8.74,1.69-12.74,3.68C135,304.2,133.84,304.78,132.74,305.41Z" style="opacity:0.2"></path><g id="freepik--Character--inject-242"><g id="freepik--top--inject-242"><path d="M161.86,187.3c.09-.2.17-.41.27-.63.57-1.42,1.91-2.39,3-3.34a30.5,30.5,0,0,0,2.77-2.68c.35-.37.8-1.11,1.32-1.23s.76.36.83.73a4.19,4.19,0,0,1-.76,2.84.81.81,0,0,0-.12.29.24.24,0,0,0,.14.26.4.4,0,0,0,.26-.06,12.76,12.76,0,0,0,1.7-1.21l1.55-1.23c.39-.31.8-.48,1.19-.75a6.49,6.49,0,0,1,3-1.36,1.46,1.46,0,0,1,.8.13,1.57,1.57,0,0,1,.47.52,3.71,3.71,0,0,1,1.22-.54,1.43,1.43,0,0,1,1.14.22c.44.37.17.91-.14,1.28-.05.07-.11.13-.11.21a.39.39,0,0,0,.12.24,1.77,1.77,0,0,1,.13,1.73,5.22,5.22,0,0,1-1,1.46,1.33,1.33,0,0,1,.44,1.58,3.72,3.72,0,0,1-1.09,1.38,57.08,57.08,0,0,1-4.9,4c-.85.62-1.72,1.22-2.61,1.79a12.07,12.07,0,0,1-2.68,1.24,17.55,17.55,0,0,0-2.45.91A16.86,16.86,0,0,0,163.8,197l-5.64-6.65,1.69-1.22c.47-.34.93-.7,1.41-1A1.57,1.57,0,0,0,161.86,187.3Z" style="fill:#ffa8a7"></path><path d="M136.56,174c-5.22-.18-7.59,1.2-9.64,4.1s-2.12,7.88-.33,15.58c2.12,9.13,2.88,11.45,3.83,14.65.78,2.64,3.66,3.68,4.81,3.3,3.63-1.19,5.77-1.79,7.06-2.24Z" style="fill:#455a64"></path><g id="freepik--bridge--inject-242"><polygon points="352.65 151.61 234.49 219.84 131.74 160.53 249.89 92.3 352.65 151.61" style="fill:#455a64"></polygon><polygon points="131.73 160.53 131.73 168.23 234.5 227.54 234.5 219.84 131.73 160.53" style="fill:#37474f"></polygon><polygon points="352.65 151.61 352.65 159.31 234.5 227.54 234.5 219.84 352.65 151.61" style="fill:#263238"></polygon><polygon points="352.65 151.61 249.89 92.3 350.64 151.61 234.49 219.84 352.65 151.61" style="fill:#263238"></polygon></g><path d="M140.07,174.37c3.38.56,12.93,4.13,22.58,11.7.9.7,2.83,5.48,3.45,13.92s.2,29.6.2,29.6-8.76,7.23-24.54,2.2a26,26,0,0,1-12.14-8.12c-.2-3.95-.11-8-.63-16.31-.45-7.3-2.06-14.2-2.07-20,0-7.19,2-11,6.09-12.58A10.75,10.75,0,0,1,140.07,174.37Z" style="fill:#f0f0f0"></path><path d="M207.17,194.39a.36.36,0,0,1,.11-.21c.31-.38.58-.91.14-1.29a1.47,1.47,0,0,0-1.14-.22,3.71,3.71,0,0,0-1.22.54,1.67,1.67,0,0,0-.47-.52,1.46,1.46,0,0,0-.8-.12,6.47,6.47,0,0,0-3,1.35c-.4.28-.8.45-1.19.76L198,195.91a11.85,11.85,0,0,1-1.7,1.2.31.31,0,0,1-.26.06.23.23,0,0,1-.14-.25.74.74,0,0,1,.12-.29,4.29,4.29,0,0,0,.76-2.85c-.07-.36-.42-.82-.83-.73s-1,.87-1.32,1.24a29.11,29.11,0,0,1-2.77,2.67c-1.13.95-2.47,1.93-3,3.34-.1.23-.18.44-.27.64a3.82,3.82,0,0,1-2,1.78L174.4,209s-4.55-11.2-6.36-15c-2.31-4.89-2.89-6.17-5.33-7.6-7.72.8-8.61,12.82-7.15,16,2.93,6.33,4.14,7.8,8.29,14.6,2.74,4.5,5.49,7.82,8.66,6.78,4.61-1.52,13.92-9.73,19.25-14.07h0a8,8,0,0,1,1.32-.85,19,19,0,0,1,2.45-.92,11.64,11.64,0,0,0,2.68-1.24c.89-.57,1.76-1.16,2.61-1.78a59.14,59.14,0,0,0,4.9-4,3.64,3.64,0,0,0,1.09-1.38,1.31,1.31,0,0,0-.44-1.57,5.42,5.42,0,0,0,1-1.47,1.77,1.77,0,0,0-.13-1.73A.37.37,0,0,1,207.17,194.39Z" style="fill:#ffa8a7"></path><path d="M174.4,209a12.41,12.41,0,0,1-.58,7.25,11.9,11.9,0,0,0,1.79-7.92Z" style="fill:#f28f8f"></path><path d="M162.65,186.07c3.23,1.86,3.84,3.39,6,8.52S173.44,206,173.44,206s-.5,2.45-4.36,5.14a10.33,10.33,0,0,1-8.27,1.32s-4-6.7-5.43-9.66C154.12,200.19,153.36,187.29,162.65,186.07Z" style="fill:#455a64"></path><g id="freepik--head--inject-242"><path d="M159,156.73c.59.7,1.32,1.33,2.8,5.47L160,163.53Z" style="fill:#f28f8f"></path><path d="M139.11,175.39s.14,2.37,3.13,3.89c4,2,10.06-.16,10.06-.16v-6.26a25.31,25.31,0,0,0,2.61.26c1.61,0,3.7-.15,4.58-1.82,1.09-2.05,1.42-5.29.92-9s-.74-3.37-.6-6-.87-4-2.83-7.4-10.19-5.87-17.17-2.68-7.85,8.33-7.27,12.05,4,8.24,5.37,11a5.18,5.18,0,0,0,1.16,1.69C139.07,172.68,139.11,175.39,139.11,175.39Z" style="fill:#ffa8a7"></path><path d="M159.42,171.43a4.42,4.42,0,0,1-3.25.78c-1.33-.2-3.87-.65-3.87-.65v1.3a25.31,25.31,0,0,0,2.61.26C156.48,173.1,158.5,173,159.42,171.43Z" style="fill:#f28f8f"></path><path d="M150.23,158.16a5.69,5.69,0,0,0-1.17.49,3.05,3.05,0,0,0-1.18,1.21,4.46,4.46,0,0,0-.13,2.85,5.26,5.26,0,0,0,.26,1,2.6,2.6,0,0,0,2,1.69,2.2,2.2,0,0,0,.95-.09c.06,0,.17,0,.17.05s0,0,0,.08a1.53,1.53,0,0,1-.55.33,3,3,0,0,1-2.56-.25,4.28,4.28,0,0,1-1.72-2,6.78,6.78,0,0,1-.53-2,8.49,8.49,0,0,1-.13-1.67,4.48,4.48,0,0,1,1.39-2.72,1.83,1.83,0,0,1,2.18-.45,3.37,3.37,0,0,1,.73.68c.14.13.32.2.47.32s.27.2.27.36Z" style="fill:#f28f8f"></path><path d="M159.26,153c-.37-1-3-2.26-3.19-.66s-.08,4-.73,5.21-1.57,1-1.56,2.69-.73,1.57-1.27,1.45c-.38-.08-.41-.09-.93-1.89s-1.78-2.2-2.89-1.74c-1.64.67-2.08,1.94-1.92,3.74.24,2.69,1.17,3.69,1.69,3.94-.07.88-.58,4.17-2.13,5.79a7.37,7.37,0,0,1-4.65.88,4.28,4.28,0,0,1-2.88-1.19c-.89-2.07-3-5.06-4.2-7.12a16,16,0,0,1-2.19-8.09c-.16-3.17.51-5.68,2.88-7.19,1.15-2.59,6.29-5.39,11.74-5.15,3,.13,4.53.34,7,2.09a11.6,11.6,0,0,1,4.47,5A4.25,4.25,0,0,1,159.26,153Z" style="fill:#263238"></path><path d="M153,158.06c5.49-2.43,10.66-4.73,11.76-5.88s.91-3.16-1.61-4.71c-2.3-1.41-6.54-3.2-8.22-2.26Z" style="fill:#3DBF4B"></path><path d="M153,158.06c5.49-2.43,10.66-4.73,11.76-5.88s.91-3.16-1.61-4.71c-2.3-1.41-6.54-3.2-8.22-2.26Z" style="opacity:0.2"></path><path d="M148.54,142.55c-9.2-.31-14,4.55-15.76,8.67s.82,11.65.82,11.65c2.77,1.64,11.67,1.69,20.27-3.67a13,13,0,0,0,5.61-6.38S157.76,142.87,148.54,142.55Zm-14.37,19.27c-.4-1.58-.4-3.2,1.31-3.45s3.84.11,4.58.81.91,3,.91,3S136.9,162.86,134.17,161.82Z" style="fill:#3DBF4B"></path></g></g><g id="freepik--bottom--inject-242"><path d="M127.75,319.87a9.75,9.75,0,0,0,0,1.08,2.19,2.19,0,0,0,.94,1.4,8.81,8.81,0,0,0,6.27,1.3,6,6,0,0,0,3.68-1.76c1.13-1.08,2-2.28,2.51-2.68a12.39,12.39,0,0,1,3.8-1.91c1.85-.62,5.89-2.19,7.36-4.9a6.46,6.46,0,0,0,.79-4.78Z" style="fill:#263238"></path><path d="M140.45,306.56c-3.88,1.48-7.71,7.83-12.31,5.78-.2,2.59-1,4.32-.39,7.53,1.82,2.57,6.6,3.2,9.3,1.67,1.37-1,1.84-1.94,3.18-3a12.54,12.54,0,0,1,3.58-1.74,45.19,45.19,0,0,0,4.8-2.19c4.52-2.7,5.61-7.07,3.48-9.27C150.39,303.63,145.35,304.69,140.45,306.56Z" style="fill:#455a64"></path><path d="M142.86,305.7l.57-.16a7.29,7.29,0,0,1,5.35,2.15c1.51,1.51,1.88,4.63,1.9,5.41l-.14.13s.12.66,1.07-.65a7.56,7.56,0,0,0,1.72-4.89,3.7,3.7,0,0,0-3.92-3.63C146.54,304,142.77,305.3,142.86,305.7Z" style="fill:#f0f0f0"></path><path d="M150,330.17a6,6,0,0,0,.14,1.5,1.79,1.79,0,0,0,1.08.66c2.15.6,4.4.61,6.53,1.2a34.13,34.13,0,0,1,4.13,1.42,54.93,54.93,0,0,0,5.67,2.39c3.15.77,6.87.73,9.17-.21,4.32-1.74,4.06-3.14,4-4.71S150,330.17,150,330.17Z" style="fill:#263238"></path><path d="M150.71,319.66c-.74,3.22-1.54,8-.73,10.51.88.94,3.86,1.51,6.45,1.91a29.56,29.56,0,0,1,8.43,3.14c5,2.27,13.44,1.64,15.72-2,1.51-5.16-9.62-6.42-15.31-10.32-1.42-1-1.92-1.64-2-3.91C163.32,319,154,320.45,150.71,319.66Z" style="fill:#455a64"></path><path d="M168,336.19a6.34,6.34,0,0,1,.94-6.3,7.85,7.85,0,0,1,6.2-2.65,11.58,11.58,0,0,1,4.77,2.79,2.84,2.84,0,0,1-.24,4.45C177.87,335.91,174.28,337.45,168,336.19Z" style="fill:#f0f0f0"></path><path d="M129.05,212.48c0,5.91.07,12.33,0,16.81a163.67,163.67,0,0,0,.45,16.51c.46,5.95.43,10.67.69,17.82.14,3.72-2.28,9.34-2.53,16.08-.3,8.19.34,19.18.42,32.72,1.39,2.54,8.81,4,11.75-.24,1.87-11.06,7.52-39.52,7.52-39.52l1.09,12.47c-2.35,13,.63,22.16,1.79,36.8,0,0,8.11,4.64,14,.16,0-4.13,1.8-37.7,1.95-43.56.31-5.78.57-42.14.2-55.29,0,0-5.85,4.35-9.86-.46s-6.36-10.26-6.48-19.31,2.1-13.8,4.22-16.44a11.66,11.66,0,0,1,5-3.54,30.67,30.67,0,0,0-5.34-3.44S143.07,185,137.8,193.12c0,0-1.87-10.13,1-19a15.39,15.39,0,0,0-4.76.25c-3.21,4.85-3,20.12-3,26.65S131,209.53,129.05,212.48Z" style="fill:#3DBF4B"></path><path d="M147.34,272.66l-2.77-28.54a18.84,18.84,0,0,1-10.27-6.29c1.19,4.22,5.93,7.88,8.93,8.9l1.26,14.87.7,22Z" style="opacity:0.2"></path></g></g></g></svg>
