<svg xmlns="http://www.w3.org/2000/svg" viewBox="0 0 500 500"><g id="freepik--Shadow--inject-72"><path id="freepik--shadow--inject-72" d="M345.82,400.9c3.37-7.16.2-15.13-9.54-20.76-6.23-3.59-14.13-5.63-22.26-6.13-1.35-10.75-9.11-21.28-23.35-29.5-17.91-10.34-42.16-14.79-65.53-13.34l-20.32-11.73c-28.39-16.39-67.6-20.33-87.58-8.8-16.59,9.58-14.68,26.83,2.73,41.79-1.78,6.53,1.68,13.44,10.39,18.47,6.39,3.69,14.53,5.74,22.88,6.17-.13,12,7.72,24,23.57,33.18,17.49,10.09,41,14.57,63.89,13.43l30.09,17.38c28.39,16.39,67.6,20.33,87.58,8.79C377.7,438.69,371.93,417.14,345.82,400.9Z" style="fill:#3DBF4B;opacity:0.30000000000000004"></path></g><g id="freepik--Character--inject-72"><g id="freepik--character--inject-72"><g id="freepik--Arm--inject-72"><path d="M355.81,238.68A72.22,72.22,0,0,1,320,229.14c-24.83-14.07-29-38.56-29.28-51.91a.55.55,0,0,1,.54-.56.54.54,0,0,1,.56.54c.27,13.11,4.37,37.17,28.73,51,26.83,15.21,53,7.8,58,5.15a.55.55,0,0,1,.74.23.56.56,0,0,1-.23.75C376.19,235.83,367.47,238.68,355.81,238.68Z" style="fill:#e0e0e0"></path><path d="M355.12,240.37a70.61,70.61,0,0,1-38-10.71c-26.11-16.54-28.58-47.75-28-51.61a.55.55,0,1,1,1.08.16c-.55,3.77,1.88,34.28,27.51,50.52,24,15.23,51.12,10.89,63.33,5.92a.55.55,0,1,1,.41,1A72.57,72.57,0,0,1,355.12,240.37Z" style="fill:#e0e0e0"></path><path d="M296.72,172.93a3.62,3.62,0,0,1-.93,3.88c-.17,1.43-.22,1.46-1.43,2.49a15.12,15.12,0,0,1-4.74,2.2c-.7.14-2.57-1.67-3.37-2.2s-.63-1.9-.63-1.9l.63-.41Z" style="fill:#f28f8f"></path><path d="M291.69,159.89c1.9,1.84,4.77,8.53,5.41,11.07s-3.14,4.14-5.76,7.22-5.09-1.19-5.09-1.19-1.72,1.34-2.22.53-.11-1.8-.85-4-2-2.42-2-6.94c0-2.62-1.26-3.48-5.75-6.89A152.12,152.12,0,0,1,263.19,150c-2.63-2.39-2.69-5.64-4-11.62-1.78-8-5.5-21.5-5.5-21.5l2.26-11c4.27.68,8.22,1.56,10.69,7.75,2.27,5.73,7.1,27,7.1,27S287.62,156,291.69,159.89Z" style="fill:#ffa8a7"></path><path d="M257,105.85c5.8,1.2,7.81,2.39,10.2,8.24S274,140.27,274,140.27l4.91,5.75s-4-.08-6.41,2-4.11,6.61-4.11,6.61a64,64,0,0,1-4.92-4.13c-2.79-2.55-3-3.81-3.88-7.05s-6.49-26.34-6.49-26.34l2.81-11.27Z" style="fill:#3DBF4B"></path><path d="M281,148.58l-.71-.78s-2.15-.63-5.59,2a10.37,10.37,0,0,0-3.88,6.46l1.28,1s-.68,1.54-1.28.9a6.43,6.43,0,0,0-2.48-1.85,5.11,5.11,0,0,1-2.71-3,9.15,9.15,0,0,1,3.4-7.48c3.18-2.65,7.43-3.41,8.92-2.83s1.07,2.25,2,2.78S281.8,147.19,281,148.58Z" style="fill:#3DBF4B"></path><path d="M281,148.58l-.71-.78s-2.15-.63-5.59,2a10.37,10.37,0,0,0-3.88,6.46l1.28,1s-.68,1.54-1.28.9a6.43,6.43,0,0,0-2.48-1.85,5.11,5.11,0,0,1-2.71-3,9.15,9.15,0,0,1,3.4-7.48c3.18-2.65,7.43-3.41,8.92-2.83s1.07,2.25,2,2.78S281.8,147.19,281,148.58Z" style="opacity:0.15"></path><path d="M286.25,177c.44-1.07,1.29-1.88,1-4.09a7.93,7.93,0,0,1,.7-4.63c0,1.21-.06,2.13,1.13,2.34a7.58,7.58,0,0,0,2.84-.48c.65-.07.23.79-1.41,1.66a4.68,4.68,0,0,0-2,3A10.69,10.69,0,0,0,286.25,177Z" style="fill:#f28f8f"></path></g><g id="freepik--Horse--inject-72"><path d="M168.91,157.24c-4.22-2.06-9.56-2.25-14.15-1.66a33.58,33.58,0,0,0-13.18,4.69A31.85,31.85,0,0,0,131.52,170c-.3.46-.58.93-.86,1.41-2,3.44-3.29,7.23-5.47,10.54-2.61,3.95-6.43,7.19-8,11.66-3.43,9.86,5.54,20.56,3,30.69-.8,3.22-2.7,6-3.88,9.14a21.76,21.76,0,0,0-1.1,11.55c.73,4,2.91,8.24,4,12.37,1.07,3.95,1.67,9.4-3.34,12.9,4.07,1.11,11.39-2.08,14-6.23,6.66-2.54,10.14-9.05,11.73-16.33,1.74-7.9.71-16.11.25-24.19-.3-5.32-.33-10.79,1.52-15.79,2.17-5.86,6.7-10.51,11.37-14.65s9.7-8,13.35-13.1A26.65,26.65,0,0,0,173,165.3C173.13,161.83,172.2,158.85,168.91,157.24Z" style="fill:#263238"></path><path d="M361,159c8.51-7.62,17.88-7.88,18.35-7.45,0,0-5.8,9.88-7.47,14.06C370.5,165.57,361,159,361,159Z" style="fill:#37474f"></path><path d="M298.74,389.2c1.91,4.69,2.65,12.45,2.74,14.93,0,.88-2.45,4.67-5.36,5.34-6.35,1.48-11.88-1-14.81-2.75-5.68-3.44-6.11-6.38-6.34-7.23l4.1-9.36Z" style="fill:#263238"></path><path d="M311.8,340.47c-4.55,9.57-7.86,18-9,22.94-2.89,12.4-4.06,21.1-4.06,25.8,0,8.84-10.4,8-19.66.92-.72-2.26,1.38-4.44,4.43-6.2s-1-7.6-1-10.54,4.07-2.86,8.13-12.33c2.48-5.79,8.19-20,12.66-32.28a9,9,0,0,1,4.85,4.87C310.1,338.39,309.31,341.22,311.8,340.47Z" style="fill:#e0e0e0"></path><path d="M301.48,347.91l5.24,4c1.42-3.49,3.14-7.38,5.08-11.47-2.49.75-1.7-2.08-3.68-6.82a9,9,0,0,0-4.85-4.87c-4.47,12.31-10.18,26.49-12.66,32.28-4.06,9.47-8.13,9.38-8.13,12.33s4.07,8.78,1,10.54-5.15,3.94-4.43,6.2c5.11,3.88,10.55,5.88,14.42,5.42-6.09-1.6-8.29-7.77-3.91-10.14s-.75-7.13-1.48-10.28,3.23-5.6,5-9.38S301.48,347.91,301.48,347.91Z" style="opacity:0.1"></path><path d="M344.42,248.49l-.89,1.39c-5.32,8.35-32.78,51.79-34.39,60.32-.68,3.67-3,10.74-5.87,18.58a9,9,0,0,1,4.85,4.87c2,4.74,1.19,7.57,3.68,6.82,6.94-14.59,14.74-24.32,24-35.47C353.93,283.23,344.59,261.91,344.42,248.49Z" style="fill:#263238"></path><path d="M197.18,260.22c3.59,4.84-.37,13.85-2.79,17.14s-.12,6.33,5.09,14.37c4.94,7.63,15.41,29,17.28,37.77a46,46,0,0,0,4.8,13.78c1.36,3-1.5,8.86-3.33,10s-.1,5.88,6.33,8.36,12.55-1.38,13.25-4.71c-1.47-3.78-2.95-7.47-2-13.44s1.05-6.36-4.2-12.95-11.34-19.75-14.16-29-3.84-15.92-1.77-18.34S203.63,260.22,197.18,260.22Z" style="fill:#263238"></path><path d="M237.81,357a48.74,48.74,0,0,1,2.36,11.14,8.17,8.17,0,0,1-7.57,7.69c-2.84.3-14.1-.08-18.6-11.21,0-1.5,3.68-10.56,3.68-10.56Z" style="fill:#263238"></path><path d="M235.85,343.52c1-6,1.05-6.36-4.2-12.95s-11.34-19.75-14.16-29c-2.23-7.34-3.33-13-2.66-16.3h0a14.08,14.08,0,0,0-9.52,0c-5.06,1.88-8.9-7.07-8.39-12.61a23.73,23.73,0,0,1-2.53,4.69c-2.43,3.29-.12,6.33,5.09,14.37,4.94,7.63,15.41,29,17.28,37.77a46,46,0,0,0,4.8,13.78c1.36,3-1.5,8.86-3.33,10s-.1,5.88,6.33,8.36,12.55-1.38,13.25-4.71C236.34,353.18,234.86,349.49,235.85,343.52Z" style="fill:#e0e0e0"></path><path d="M225.62,356.37c-.41-2.59,2.23-10.15,0-14.07s-2.33-7.77-1.72-11.73-6.68-19.72-10.47-25.79S207.56,291,214,289.6l.67-1.09a12.56,12.56,0,0,1,.16-3.23,14.08,14.08,0,0,0-9.52,0c-5.06,1.88-8.9-7.07-8.39-12.61a23.73,23.73,0,0,1-2.53,4.69c-2.43,3.29-.12,6.33,5.09,14.37,4.94,7.63,15.41,29,17.28,37.77a46,46,0,0,0,4.8,13.78c1.36,3-1.5,8.86-3.33,10s-.1,5.88,6.33,8.36a11.39,11.39,0,0,0,8.91-.24C229.31,360.58,225.89,358.08,225.62,356.37Z" style="opacity:0.1"></path><path d="M405.22,236.48c-1.45,3.62-.76,10.87-7.46,14.63s-12.52,3.1-18.53-4.05-5.4-12.29-14.21-17.34-12.5-5.86-15.73-8.33c0,0-3.75,8.56-4.53,14.59s0,19.21-.26,34.24c0,.48,0,1,0,1.46-.34,7.35-1.4,16.56-6.6,23.58-6.73,9.08-16.57,13.43-24,17.07a.56.56,0,0,1,.05.08c.92,1.54,15.85,26.48,22.54,35.79,4.44,6.17,8.37,11.67,9.3,13.84,2.36,5.54-2.37,10.74-3.45,14.8s-3,12.36-3,19.68,1.25,9.28,0,13.5-.85,12-10.28,10.77-11.46-12.71-10-16.34,2.44-.81,6.1-4.7,6.09-27.91,6.09-30.47-5.15-5.25-14.36-14-41-35.56-46.57-40.4-19.33-9.54-31.14-14.07-21.74-16.37-31.06-24.91-18.95-17.47-23.46-20.17-7.77-2.55-15.89,2.14-18.23,8.24-23.11,8.65-5.33.45-4.1,7.06,4.54,22.79,9.7,31.92,3.32,10.8,3.34,16.61c0,4.9,1.54,7.64,3,12.4-1,3.14-6.11,4.16-10.72,3.82s-9.59-1.64-9.59-6.15c3.08-4,5.79-6.3,3.08-11-2.43-4.21-4.06-4.13-4.06-16.42a65.73,65.73,0,0,0-7.7-30.49c-4-7.6-2.08-8.92,0-12.45,2.75-4.69.11-7.26,5.1-12.62,5.37-5.76.12-18.06-.65-30.4s-.81-45.37,31.68-57.1,53.65,2.83,69.06,14.36,41.77,26.18,50.32,24.6c7.48-1.38,16.25-16.94,30.92-29.29s35.44-17.88,46.91-12c16.21,8.3,22.46,18.15,22.14,25.8s2.24,13.77,6.26,21.1,7.61,17,11.06,18.76S406.68,232.86,405.22,236.48Z" style="fill:#455a64"></path><path d="M256.85,290c-4.31-5.43-5.61,1.91-24-4.84s-37.3-22.91-45.86-34-11.21-22-14.19-19.05-.78,10.18-12.58,18.77-25.19,17.62-28,16.41-2.23-9.38-2.23-9.38h0a11.11,11.11,0,0,1-1.41,4c-2.07,3.53-4,4.86,0,12.46a65.57,65.57,0,0,1,7.7,30.49c0,12.28,1.64,12.21,4.07,16.41,2.7,4.69,0,7-3.08,11,0,4.52,5,5.82,9.58,6.16s9.69-.69,10.72-3.82c-1.41-4.77-2.94-7.51-2.95-12.4,0-5.81,1.81-7.49-3.35-16.62s-8.47-25.31-9.7-31.92-.78-6.65,4.1-7.06,15-4,23.11-8.65,11.91-3.5,16.25-.53c4.51,3.09,14.92,10.22,22.3,20.49,9.39,13.07,18,19.91,28.66,24.6,11.87,5.22,28.75,7.61,34.34,12.46C259.2,304.15,261.16,295.41,256.85,290Z" style="fill:#37474f"></path><path d="M344.76,236c-.78,6,0,19.21-.26,34.24,0,.48,0,1,0,1.46-.34,7.35-1.4,16.56-6.6,23.58-6.73,9.08-16.57,13.43-24,17.07a62.6,62.6,0,0,0-7-9.14c-5.29-5.11-20.31-.76-18.64-4.49s11.52-3.89,24-8,10.83-17.2,10.83-21.11-9.69-20.2-6.2-25.79,10.59-14.39,13-25.8,4.25-16.73,8.22-25.07c-1.26,8,2.08,23.2,11.2,28.46C349.29,221.39,345.54,230,344.76,236Z" style="fill:#37474f"></path><path d="M401.35,232.69c-4.16,1.17-6.79,2.92-8.12,0s-2.63-2.66-6.41-3.7-10.46-9-13-13.33-2.72-11.58-4.36-16.35-4.84-7.14-9.75-8.29-8.61-.88-7.8,3.34,6.63,8.09,8.5,11.92,2.84,11,5,15.8,8.22,16.29,8.22,16.29h0a52.76,52.76,0,0,0,5.61,8.69c6,7.15,11.81,7.83,18.52,4.06s6-11,7.47-14.64-.43-9.66-3.88-11.44C402.77,226.45,405.51,231.52,401.35,232.69Z" style="fill:#37474f"></path><path d="M389.34,232.07c-1.47-1.46-2.09,2-2.49,5s4.8,5.84,5.8,4.69.49-3.2-1-5.26S390.84,233.58,389.34,232.07Z" style="fill:#263238"></path><path d="M363.31,198.72a3.94,3.94,0,1,1-7.17-3.29c.91-2,2.3-.78,4.28.12S364.22,196.74,363.31,198.72Z" style="fill:#263238"></path><path d="M367.79,171.1c.33.76,4.64,7.84,1.69,12.14-1.88,2.75,4.27,1.93,8.26,10.25,2.46,5.13,3.72,7.77,3.52,4.15s-2-10.56-1.28-14.82-.53-2.44-4.07-6.06S366.59,168.33,367.79,171.1Z" style="fill:#fafafa"></path><path d="M337.34,417.35c-1.79,5.08-6.19,12.14-8.95,14.72s-9.34-.47-13.41-6.43-4.25-11.74-2.55-14.46,8-8.66,8-8.66Z" style="fill:#263238"></path><path d="M345.78,362c-.72-1.68-3.25-5.38-6.42-9.83-1.67-.44-3.36,2.22-4.07,6.51s-2.53,7.92-7.39,6.22h0c2.17,1.88,3.33,3.13,3.33,4.34,0,2.55-2.44,26.58-6.09,30.47s-4.66,1.07-6.09,4.7.6,15.09,10,16.33,9-6.54,10.28-10.76,0-6.19,0-13.51,1.88-15.61,3-19.67S348.14,367.59,345.78,362Z" style="fill:#ebebeb"></path><path d="M334.5,361.79c-1.05,2.72-3,4.41-6.6,3.15h0c2.17,1.88,3.33,3.13,3.33,4.34,0,2.55-2.44,26.58-6.09,30.47s-4.66,1.07-6.09,4.7.6,15.09,10,16.33a10.08,10.08,0,0,0,5-.38s-5,.38-6.88-7,4.67-13.6,7.33-27,1.29-18,0-24.61Z" style="fill:#e0e0e0"></path><path d="M157.54,334.52c1.83,5.79,3.15,12.07,2.54,13.41s-6.22,5.62-14.18,4.15-12.2-9.94-11.9-13.17l3.24-6.73Z" style="fill:#263238"></path><path d="M146.82,338.34c4.61.34,9.69-.69,10.72-3.82-1.41-4.77-2.94-7.51-2.95-12.4,0-5.81,1.81-7.49-3.35-16.62-4.5-7.95-7.59-21.26-9.12-28.93-2,1-4.38,1.55-5.87.06-3-3-5.06-4.32-10-8.65a17.65,17.65,0,0,0,2.31,6.31,65.57,65.57,0,0,1,7.7,30.49c0,12.28,1.64,12.21,4.07,16.41,2.7,4.69,0,7-3.08,11C137.24,336.7,142.22,338,146.82,338.34Z" style="fill:#ebebeb"></path><path d="M145.86,332.06c3.36-4.17-.72-13.26-4-17.9s-.06-14.56-1.57-22.73c-1.36-7.27-7.12-13.12-6.75-17.29-1.91-1.64-3.95-3.2-7.33-6.16a17.65,17.65,0,0,0,2.31,6.31,65.57,65.57,0,0,1,7.7,30.49c0,12.28,1.64,12.21,4.07,16.41,2.7,4.69,0,7-3.08,11,0,4.52,5,5.82,9.58,6.16.8.06,1.6.07,2.4.05C147.17,337.47,143.32,335.21,145.86,332.06Z" style="fill:#e0e0e0"></path><path d="M365.55,159.57c13.16,5.76,10.81,14.51-.25,25.6a24,24,0,0,1-.45-6.39c-.07,1.81-6,5.95-10.82,7.83,3.82-5.81,2.65-14.52-.64-19.63-.61-.49-.77-7.61-.77-7.61-1.78-.14-5.14,2.35-9.21,7-5.79,11.72-14.5,25-24.47,31.8a35.22,35.22,0,0,0,2.48-17c-7.71,8.85-8.15,22.67-16.9,30.65-4.39,4.19-11.25,7.39-12.1,14-1.54-8,5.45-14.62,6.13-22.28-4.67,13.07-21.95,19.43-22.1,34.12-6.7-6.66-5.13-32.86,6.95-38.46,1.76-.82,5-3.64,5.33-5.55,1.37-5.74,7.53-4.21,9.62-8.13a11.07,11.07,0,0,1,6.56-7.53c3.29-5.49,7-11.29,13.88-11.18a18.76,18.76,0,0,1,13-6.09c3.71-2.85,8.11-5.44,13-4.18C351.8,155.81,359.13,156.41,365.55,159.57Z" style="fill:#263238"></path><path d="M396.22,217.72c-7.24-2.34-20.2,4.19-24.91,12.51-4.47-3.87-12.53-11.47-16.54-19.1-4.29-8.14-8-16.77-8.87-27.41,4.74,0,17.54-.63,26.79-5.59,6.74-3.6,5.52-6.76,5.52-6.76a17.42,17.42,0,0,0-3.46-3.46c1.16,2.36-6.48,9.64-32.53,10.22,0,0-4.37,5.31-5.91,14.8-1.81,11.11,1.63,18.85,6.74,24.42l5.82,3.77c-3.29-2.52-10.47-12.5-9.18-25.28a26.76,26.76,0,0,1,3.1-10.31c.42,9.7,4.77,18.3,8.23,25.44,5.35,11.05,19,22.36,19,22.36l3.66,5c2.81-9.7,17.61-17.77,25.73-15.14Z" style="fill:#3DBF4B"></path><path d="M396.22,217.72c-7.24-2.34-20.2,4.19-24.91,12.51-4.47-3.87-12.53-11.47-16.54-19.1-4.29-8.14-8-16.77-8.87-27.41,4.74,0,17.54-.63,26.79-5.59,6.74-3.6,5.52-6.76,5.52-6.76a17.42,17.42,0,0,0-3.46-3.46c1.16,2.36-6.48,9.64-32.53,10.22,0,0-4.37,5.31-5.91,14.8-1.81,11.11,1.63,18.85,6.74,24.42l5.82,3.77c-3.29-2.52-10.47-12.5-9.18-25.28a26.76,26.76,0,0,1,3.1-10.31c.42,9.7,4.77,18.3,8.23,25.44,5.35,11.05,19,22.36,19,22.36l3.66,5c2.81-9.7,17.61-17.77,25.73-15.14Z" style="opacity:0.30000000000000004"></path><path d="M396.22,217.72c-3.75-1.21-9,0-13.91,2.54a39.72,39.72,0,0,0,4.19,4.87c4.52-2.16,9.32-3,12.86-1.9Z" style="fill:#3DBF4B"></path><path d="M372.69,178.13c6.74-3.6,5.52-6.76,5.52-6.76a17.42,17.42,0,0,0-3.46-3.46c.83,1.68-2.81,5.84-14.32,8.32a44.73,44.73,0,0,1,3.88,5.12A40.36,40.36,0,0,0,372.69,178.13Z" style="fill:#3DBF4B"></path><path d="M345.45,177c.45-4.43,5.14-15.47,7.17-17.59a24.42,24.42,0,0,1,2.19,11.73C353.86,174.45,345.45,177,345.45,177Z" style="fill:#37474f"></path></g><g id="freepik--Chair--inject-72"><path d="M278.93,200.31h0c-11.3-2.51-36.37-18.56-49.39-28.31-2.18-1.62-4.47-3.31-6.88-5,0,0-11.3,1.23-20.14,15.69a90.08,90.08,0,0,0-13.46,44.66c16.16,32.8,65,43.05,65,43.05s-.33-24.66,4.88-44.33C263.14,210.24,272.14,202.87,278.93,200.31Z" style="fill:#3DBF4B"></path><path d="M254.34,249.42c-.6-1.56-1.86-3.44-3.81-2.94a4.93,4.93,0,0,0-2.2,1.55c-1,1.06-2,2.15-3,3.22l-2.65,2.87-1.33,1.44c-.33.35-1.1,1.5-1.68,1.43-.75-.09-.77-1.81-.84-2.32-.19-1.43-.39-2.86-.58-4.29-.45-3.3-.35-9.77-4.68-10.59-2.28-.44-4.27,1.36-5.64,3-1.5,1.75-2.91,3.58-4.33,5.4l-2.37-11.34c-.34-1.63-.48-3.84-2-4.85s-3.37-.13-4.82.57a42.9,42.9,0,0,0-5.34,3.07c-.44.29-.85.64-1.31.9a1.83,1.83,0,0,1-.68.31s0-.08-.05-.17a17.37,17.37,0,0,1,0-3.46l-.06-7.07c0-1.82.39-4.27-.43-6-1.12-2.34-3.36-1.41-5.16-.56l-6.45,3.06c-.45-4.09-.59-8.95-1.11-13.81a10.25,10.25,0,0,0-1.2-3.72c-.32,1.12-.63,2.24-.91,3.34.18,1.13.18,2.34.28,3.81.29,4.37.77,10.81,1.24,12.74.35,1.41,1.51.81,2,.59l5.66-2.71c.93-.44,1.85-.92,2.79-1.32.21-.09.9-.44,1.1-.36s.1,1,.1,1.31c.05,4.22.09,8.44.15,12.67,0,1.36.12,3,1.37,3.89,1.48,1,2.95-.41,4.13-1.21a39.71,39.71,0,0,1,5.28-3,5.92,5.92,0,0,1,2.26-.75c1.09,0,1,1.59,1.22,2.42q1.5,7,3,14.1c.17.8,1.06,1.88,1.78,1l4.59-5.82c1.12-1.42,2.81-3.65,4.87-3.52s2.19,2.69,2.4,4.21c.35,2.46.68,4.93,1,7.39.23,1.71.35,3.75,1.72,5,1.62,1.48,3,0,4.13-1.27l5.13-5.56c.88-1,3.41-4.59,4.64-2.38a18.26,18.26,0,0,1,1.17,3.48c.29.92.57,1.84.85,2.77.1-1.57.23-3.21.37-4.91C254.72,250.45,254.54,249.93,254.34,249.42Z" style="opacity:0.2"></path><path d="M227.15,297.72a39.91,39.91,0,0,1-7.84-5.7c-2.53-5.31-4.08-12.74-4.94-18.64-2.79-18.9,1.41-38.88,2.92-47.28l5,3.53c-1.53,8.55-5.09,28.4-1.6,47.21C221.87,283.31,223.91,292,227.15,297.72Z" style="fill:#263238"></path><path d="M277.17,199.83a0,0,0,0,1,0,0l-2.8-.88c-4.34-.83-11.86,2.84-14.73,11.32s-7.06,22.6-17.15,28.23c-9.8,5.45-33.65-13.8-38.59-32-4-14.83,3.74-28.86,11.57-37.16s11.84-5.07,12.63-2.34a2.82,2.82,0,0,0,.25.58c1.59,2.8,13,11.42,19.94,16.2,7.38,5.12,18.58,9.09,19.39,9.22,2.26.36,2.55-.6,2.35-1.89s-1.76-7.59,3.68-6S277.26,199.18,277.17,199.83Z" style="fill:#37474f"></path><path d="M277.17,199.83a0,0,0,0,1,0,0l-2.8-.88c-4.34-.83-11.86,2.84-14.73,11.32s-7.06,22.6-17.15,28.23c-9.8,5.45-33.65-13.8-38.59-32-4-14.83,3.74-28.86,11.57-37.16s11.84-5.07,12.63-2.34a2.82,2.82,0,0,0,.25.58c-2.22-2.54-7.72.54-13.78,8.8-8.78,12-8.54,26.15-4.73,34.6s18.76,22.61,25.55,23.65,10.76-4.33,13.49-8.56c4.8-7.44,5.73-15.13,9.24-22.17,1.79-3.58,4.91-5,6.91-6.11a8.5,8.5,0,0,0,4.46-6.15,1.92,1.92,0,0,0-.87-2.12c-1.85-1.07-3-1.14-3.92-2-1.44-1.35,5.61-7,10.61-3.44C279,186.77,278.94,196.71,277.17,199.83Z" style="fill:#ebebeb"></path></g><g id="freepik--Bottom--inject-72"><path d="M253.69,163.45c3.42,9.47,13.26,29.36,13.26,29.36a89.5,89.5,0,0,1-16.53-7.61,11.25,11.25,0,0,1-6,3.91c.69,4.85.38,9.52.11,26.32-.16,10.09-.82,21.71-1.58,26.13-.63,3.66-1.31,5.94-3.71,11.9-1.8,4.48-4,10.66-8.57,23.71A209.23,209.23,0,0,0,224,299.62s-2.44,2.13-4.47,2-4.43-3.2-5.29-5.61c-.7-1.93-2.33-4.61-1-9.25a48.44,48.44,0,0,0,1.52-8.61c.93-9.47-.41-25.76,7.68-34.57,0,0-7.32-30.33-8.68-35.66-3.68-14.36-7.55-23.57-4.2-36.44.7-2.67,4.08-8.61,7.07-13Z" style="fill:#3DBF4B"></path><path d="M253.69,163.45c3.42,9.47,13.26,29.36,13.26,29.36a89.73,89.73,0,0,1-16.53-7.61,11.25,11.25,0,0,1-6,3.91c.69,4.85.38,9.52.11,26.32-.16,10.09-.82,21.71-1.58,26.13-.63,3.66-1.31,5.94-3.71,11.9-1.8,4.48-4,10.66-8.57,23.71A209.23,209.23,0,0,0,224,299.62s-2.44,2.13-4.47,2-4.43-3.2-5.29-5.61c-.7-1.93-2.33-4.61-1-9.25a48.44,48.44,0,0,0,1.52-8.61c.93-9.47-.41-25.76,7.68-34.57,0,0-7.32-30.33-8.68-35.66-3.68-14.36-7.55-23.57-4.2-36.44.7-2.67,4.08-8.61,7.07-13Z" style="fill:#fff;opacity:0.4"></path><path d="M247.48,183.42c-4,.33-5.31-3.55-9.87-6.34,2.15,2.27,5.72,5.52,6.76,12a11.25,11.25,0,0,0,6-3.91A89.58,89.58,0,0,0,267,192.81s-9.84-19.89-13.26-29.36C255,169.65,251.47,183.09,247.48,183.42Z" style="fill:#3DBF4B;opacity:0.5"></path><path d="M217.38,196.79a54.94,54.94,0,0,1-1.11-14.46l0,.46c7.32-.31,9.53-5.35,10.71-13.36a35.5,35.5,0,0,1,2.54-8.75l-1.16-.14a37,37,0,0,0-2.47,8.73c-1.31,8.89-3.83,12.15-9.61,12.42a54.3,54.3,0,0,1,6-21.85l-1.2-.14A57.39,57.39,0,0,0,216.31,197c1.08,4.93,2.63,11.43,4.28,18.31,2.9,12.11,6.5,27.18,6.1,28.57-.11.24-.27.58-.48,1a61.25,61.25,0,0,0-6.15,19c-1.11,7.94-4,25.72-5.27,33.35a11.33,11.33,0,0,0,.88,1.44c1.11-6.73,4.3-26.21,5.48-34.64a60.25,60.25,0,0,1,6-18.64c.22-.44.39-.79.5-1,.57-1.27-1.5-10.34-6-29.28C220,208.21,218.46,201.71,217.38,196.79Z" style="fill:#3DBF4B;opacity:0.5"></path><path d="M207.57,296.72a8,8,0,0,0-.38,3.41c.27,1.62,2.91,5.44,4,6.1s1.5,0,1.61,1.64-.46,9,3.76,12.89,8.06,5,11.84,4.78,5.08-.85,5.68-3Z" style="fill:#455a64"></path><path d="M214.85,276.92c-1.09,0-1.27.7-1.35,2.58s-.38,6.87-2.24,9.33-3.58,5.22-3.69,7.89c1,3.89,2.85,4.18,4.74,7.62s.48,6.69,2.14,11.66,7.22,8,12.7,8.82c4.38.63,8.13-1.23,6.77-4.06-1.56-3.24-5.81-12-6.95-17.84s-1.74-7,.14-12.62,3.3-7.38,1.94-8.22l-.54,1.41a14.39,14.39,0,0,1-8.39-.89c-4.14-1.88-5.38-4.44-5.38-4.44Z" style="fill:#263238"></path><path d="M230,312.21c-.24-4.12-2.2-10.87-3.47-11.3C224,300,216.62,309,215,311.74a7.42,7.42,0,0,0-1,5.11l.59,1.34s-1,.27-1.83-1.67-.47-3.81,1.25-6.62,8.13-11.07,12.58-10.71,4.9,16.42,4.9,16.42Z" style="fill:#e6e6e6"></path></g><g id="freepik--Top--inject-72"><polygon points="270.3 164.73 270.3 177.22 244.62 165.65 244.62 130.81 268.29 130.81 270.13 150.56 270.3 164.73" style="fill:#3DBF4B"></polygon><polygon points="270.3 164.73 270.3 177.22 244.62 165.65 244.62 130.81 268.29 130.81 270.13 150.56 270.3 164.73" style="opacity:0.6000000000000001"></polygon><g id="freepik--top--inject-72"><g id="freepik--top--inject-72"><path d="M216.61,158.5c5.55-8.62,6.23-9.73,4.76-22.38-.46-3.92-2.19-14.31-1-18.35s11-8.42,21.83-11,15.66,0,18.28,4,6.91,15,7.2,22.38-5.75,11.23-5.75,11.23l-5,8.46c-1.66,2.82-2.9,12.53-2.9,12.53s-2.53,4.29-14.45,4.09C223.78,169.12,216.61,158.5,216.61,158.5Z" style="fill:#ffa8a7"></path><path d="M221.15,137.09c-.41-4.61-2.58-15.71-.86-20.16,1.52-3.93,11.06-7.58,21.9-10.2a41.65,41.65,0,0,1,13.74-.84c.85.43,3,2.14,5.9,6.07s7.9,11.86,7.6,19.26a17.11,17.11,0,0,1-7.4,13.2s-1.65,3.36-2.61,5a35.27,35.27,0,0,0-2,11.25c-.27,4.87,0,10,0,10s-8.35,7.8-24.88,3.83-17.79-13.74-17.79-13.74A86.14,86.14,0,0,0,220,152C221.73,148.29,222,146.35,221.15,137.09Z" style="fill:#fafafa"></path><path d="M231.61,109.81a41.62,41.62,0,0,1,7.18,7.63c3.06,4,7.86,6,14.31,4.7,7-1.35,4.59-5.5,2.65-9.2a28.64,28.64,0,0,0-5.17-7.27A68.27,68.27,0,0,0,231.61,109.81Z" style="fill:#ffa8a7"></path><path d="M254.93,142.69c-2.43,3.27-13,6.09-19.75-.47C236.75,148.18,249.88,151.46,254.93,142.69Z" style="fill:#e0e0e0"></path></g><g id="freepik--Head--inject-72"><path d="M262.09,88.21c-.37.89-21.27,10.8-25,12.82a81.67,81.67,0,0,0-6-9.7c-3.94-5-4.91-13,1.25-16.56a14.72,14.72,0,0,1,7.06-9.15c8.06-4.49,17.87-1.43,21.55,3.91C265.74,68.39,272.3,79.63,262.09,88.21Z" style="fill:#263238"></path><path d="M242.41,72.72a7.25,7.25,0,0,0-.45-9.16,6.3,6.3,0,0,0-5-1.81,4.67,4.67,0,0,0-2.37-3,8.74,8.74,0,0,0-6.4-.37,6.82,6.82,0,0,0-3.93,2.87,4.87,4.87,0,0,0-.22,4.76,2.9,2.9,0,0,0-1.63,5.25,3.69,3.69,0,0,0,1.27,6.1c-3.61.62-4.59,4.1-4.48,6a6.42,6.42,0,0,0,4.09,5.8,8.8,8.8,0,0,1-2.39-3.49,5,5,0,0,1,.34-4.13,3.48,3.48,0,0,1,3.65-1.62,2,2,0,0,0-1.36,1.7,2.83,2.83,0,0,0,.92,2.42c.93.63,1.6.85,3.77.48.56-.09.28.18.83.28a2.89,2.89,0,0,0,2.27-.7A9.81,9.81,0,0,0,233,82.2a37.29,37.29,0,0,1,5.62-5.89A23.35,23.35,0,0,0,242.41,72.72Z" style="fill:#263238"></path><path d="M260.84,74.19s3.59,3.68,2.41,16.06c-.73,7.6-3,11.23-5.53,12.58-1.54.81-5.3.93-7.63.56a7,7,0,0,0-.21,1c-.21,1.21.7,1.27.7,1.27s6.8,11.06-.11,11.69c-3.45.31-8.22-1.08-11.52-2.81a35.7,35.7,0,0,1-7.1-4.82c2.68-1,2.64-1.74,3.07-4.21.78-4.45,1.15-11.49,1.15-11.49s-1.92,2.19-4.53-.11c-2.94-2.59-3.27-7.35-.74-9.19,3.09-2.24,5.44-.18,6.43,2,.9,2,2.26,1.82,3.12.57.59-.84.71-1.5.79-3.21,6.05.32,8.85-1.27,11.27-5.61C254.74,74.36,258.11,72.83,260.84,74.19Z" style="fill:#ffa8a7"></path><path d="M241.34,89.9c0,1.25,1.47,2.24,3.25,2.23s3.23-1,3.21-2.3-1.47-2.24-3.25-2.22S241.32,88.65,241.34,89.9Z" style="fill:#f28f8f"></path><path d="M259.61,89.34c0,1.25,1.47,2.25,3.26,2.23s3.22-1,3.21-2.29-1.48-2.25-3.26-2.23S259.6,88.1,259.61,89.34Z" style="fill:#f28f8f"></path><path d="M249.44,93.48l5.18,2a2.74,2.74,0,0,1-3.56,1.67A2.92,2.92,0,0,1,249.44,93.48Z" style="fill:#b16668"></path><path d="M249.42,82l-3.25,1.45A1.71,1.71,0,0,1,247,81.1,1.87,1.87,0,0,1,249.42,82Z" style="fill:#263238"></path><path d="M258.48,81.62l3.07,1.8A1.7,1.7,0,0,0,261,81,1.87,1.87,0,0,0,258.48,81.62Z" style="fill:#263238"></path><polygon points="253.67 84.13 253.94 92.17 258.61 90.8 253.67 84.13" style="fill:#f28f8f"></polygon><path d="M238.05,95.23s-.35,4.27,2.27,6.51c3.09,2.65,7.73,3.29,9.62,3.44a1.38,1.38,0,0,1-.06-.79,7,7,0,0,1,.21-1h0c-2-.34-6.16-1.08-8.63-2.82A7.87,7.87,0,0,1,238.05,95.23Z" style="fill:#f28f8f"></path><path d="M257.56,85.5A1.41,1.41,0,0,0,258.8,87a1.31,1.31,0,0,0,1.47-1.19A1.39,1.39,0,0,0,259,84.32,1.31,1.31,0,0,0,257.56,85.5Z" style="fill:#263238"></path><path d="M247.58,85.84a1.39,1.39,0,0,0,1.24,1.49,1.3,1.3,0,0,0,1.47-1.18,1.41,1.41,0,0,0-1.24-1.5A1.32,1.32,0,0,0,247.58,85.84Z" style="fill:#263238"></path><path d="M249.32,95a3.61,3.61,0,0,1,.65.08,3.9,3.9,0,0,1,2.69,2.2,2.67,2.67,0,0,1-1.6-.11A2.86,2.86,0,0,1,249.32,95Z" style="fill:#f28f8f"></path></g></g><path d="M234.58,107.3a62,62,0,0,1,5,30.23c-1.53,17.12-15.49,44.39-15.49,44.39s-15.95-4.52-17.76-19.63a27.58,27.58,0,0,0,8.49-7.61c2.5-3.32,6.68-7.09,6.11-12.11s-3.72-20.9-1.7-24.43l5.78-6Z" style="fill:#3DBF4B"></path><path d="M234.58,107.3a62,62,0,0,1,5,30.23c-1.53,17.12-15.49,44.39-15.49,44.39s-15.95-4.52-17.76-19.63a27.58,27.58,0,0,0,8.49-7.61c2.5-3.32,6.68-7.09,6.11-12.11s-3.72-20.9-1.7-24.43c0,0,5.7-5.87,5.78-6Z" style="opacity:0.30000000000000004"></path><path d="M275.94,188.79l-.85,0c-8.16-.46-8.88-7.81-9.15-10.58a.56.56,0,0,1,.5-.6.58.58,0,0,1,.38.11,11,11,0,0,1,0-2.14.54.54,0,0,1,.6-.49.55.55,0,0,1,.49.6,9.27,9.27,0,0,0,2.76,7.84,7.88,7.88,0,0,0,6.64,2.13c4.32-.74,5.37-3.22,6.49-5.84a10.55,10.55,0,0,1,2.84-4.41.55.55,0,0,1,.8.73,11.3,11.3,0,0,0-1.31,3.9,16.21,16.21,0,0,1-.57,2.24A9.74,9.74,0,0,1,275.94,188.79Zm-8.65-8.73c.52,3.07,2.07,7.28,7.87,7.61,6.17.35,8.55-3.48,9.4-5.8a15.26,15.26,0,0,0,.53-2.08,2.56,2.56,0,0,1,.05-.27l-.3.7c-1.13,2.65-2.4,5.65-7.31,6.49a9,9,0,0,1-7.58-2.4A9.87,9.87,0,0,1,267.29,180.06Z" style="fill:#e0e0e0"></path><path d="M332.54,252.56c-22.09,0-43.07-10-58.05-27.88-14.13-16.84-17.49-34.61-17.26-42.46a.56.56,0,0,1,.55-.53h0a.55.55,0,0,1,.53.57c-.23,7.69,3.09,25.12,17,41.71,15.6,18.59,37.8,28.58,60.88,27.4,12.36-.63,22.43-5.73,28.87-10.07-15.87,9-36.17,13.94-65.41.13-28.42-13.42-39.35-44.4-40.19-57.3a.55.55,0,0,1,.51-.58.53.53,0,0,1,.58.51c.83,12.69,11.59,43.17,39.56,56.38,34.24,16.16,56,6.3,72.83-5.47a.54.54,0,0,1,.74.09.56.56,0,0,1,0,.74c-.15.15-15.13,15.53-37.41,16.67C335,252.53,333.78,252.56,332.54,252.56Z" style="fill:#e0e0e0"></path><path d="M224.62,112.75c-6.05,2.61-9.08,4.14-9.83,15.33-.73,10.92-.31,20.14-.44,26.6-.1,5.45-.07,7.42,4.34,9.75,11.37,6,24.31,9.58,28.77,11.61,2.94,1.33,6.21,3.75,9,5.57,1.79,1.18,3,2.08,3.6,2.48,2.64,1.72,5.77,1.82,8.3-.92,2.11-2.28,3.55-3,4-4,1.06.17,3-2.4,2.51-3.75-.25-.67-1.74-2.15-4.43-3.32a4.37,4.37,0,0,0-1-3.17c-.65-.67-3.73-.63-7.45-.75s-5.52.69-12.76-3.49c-7.54-4.36-19.4-11.52-19.4-11.52s.42-14.5.52-19.91S230.08,116.11,224.62,112.75Z" style="fill:#ffa8a7"></path><path d="M270.4,172.08l-4.12-.15s2.65,1.18,4.58,1.89a6.75,6.75,0,0,0,3.13.51A13,13,0,0,0,270.4,172.08Z" style="fill:#f28f8f"></path><path d="M225,112.13c-3.15,1.42-7.66,3.41-9.48,8.86s-1.64,16.72-1.64,25-1,15.38,1.88,17.43a36.18,36.18,0,0,0,6.92,3.58s2.41-6.51,5.91-9.49,4.73-2.25,4.73-2.25l-3-2.57s.54-17.34.47-22.62S230.32,115.24,225,112.13Z" style="fill:#3DBF4B"></path><path d="M230.35,152.72c-2.68-1.36-8.77-.18-10.49,1.66a9.31,9.31,0,0,1,10.54-3.19Z" style="opacity:0.15"></path><path d="M232.17,153.35c-4.21-.71-8.29,3.49-10,7.14s-.94,5.93-.36,6.77,2.06.92,2.86,1.49,1.53,1.48,3,1.37a2.58,2.58,0,0,0,1.9-.73l-.84-.33a14,14,0,0,1,3-8.94c3.27-3.83,4.49-3.1,4.49-3.1l1.14.68s1-1.06-.45-1.87-2.06-.61-2.38-1.15S233.74,153.61,232.17,153.35Z" style="fill:#3DBF4B"></path><path d="M232.17,153.35c-4.21-.71-8.29,3.49-10,7.14s-.94,5.93-.36,6.77,2.06.92,2.86,1.49,1.53,1.48,3,1.37a2.58,2.58,0,0,0,1.9-.73l-.84-.33a14,14,0,0,1,3-8.94c3.27-3.83,4.49-3.1,4.49-3.1l1.14.68s1-1.06-.45-1.87-2.06-.61-2.38-1.15S233.74,153.61,232.17,153.35Z" style="opacity:0.15"></path><path d="M250,104.57c5.22,3.32,13.11,12.82,16.09,26,2.37,10.49,4.22,34.2,4.22,34.2s.33-21.2-.17-31.06-2.67-14.06-6.53-19.68a49.92,49.92,0,0,0-6.65-8.14Z" style="fill:#3DBF4B"></path><path d="M250,104.57c5.22,3.32,13.11,12.82,16.09,26,2.37,10.49,4.22,34.2,4.22,34.2s.33-21.2-.17-31.06-2.67-14.06-6.53-19.68a49.92,49.92,0,0,0-6.65-8.14Z" style="opacity:0.30000000000000004"></path><path d="M250.09,103.39c-.15.66-.21,1-.21,1s-.4.67.7,1.81,3.27,2.51,6.13,5.61c5.64,6.11,8.48,15.34,8.48,15.34s-.35-7.79-1.08-9.34a7.39,7.39,0,0,0-2.94-3c-2.62-7.49-6.6-9.08-6.6-9.08C252.83,104.78,251.24,103.55,250.09,103.39Z" style="fill:#3DBF4B"></path><path d="M239.78,133.57c.58-8.58-.14-10.52-1.11-15.46s-3.59-9.7-3.81-12.26l.3-1.9a5.91,5.91,0,0,0-2.37,2.17,16.13,16.13,0,0,1-3.82,4c.67,1.95,6.22,7.44,7.5,8.84,0,0-1,3.56-.84,4.9C235.75,124.75,239,126.83,239.78,133.57Z" style="fill:#3DBF4B"></path></g></g></g></svg>
