<svg width="61" height="203" viewBox="0 0 61 203" fill="none" xmlns="http://www.w3.org/2000/svg">
<path d="M38.8528 89.897C38.959 92.522 39.235 95.1702 39.1713 97.7951C38.9165 107.737 38.5556 117.679 38.2583 127.622C38.2371 128.133 38.4919 128.644 38.6405 129.155L38.6617 129.108C38.4706 135.125 38.1734 141.118 38.1097 147.135C37.9611 161.049 37.6638 174.963 35.8378 188.785C35.5618 190.945 35.4557 194.639 30.6572 194.43C25.6676 194.221 22.8013 191.689 23.0561 187.902C23.693 178.75 25.0519 169.597 24.3724 160.468C23.3745 147.111 24.3512 133.824 24.3512 120.514C24.3725 108.55 24.882 96.6103 24.8396 84.6471C24.8183 73.4273 23.969 62.1609 24.2451 50.9411C24.4786 41.2544 25.9224 31.6141 26.5806 21.9274C26.7292 19.6509 27.0477 17.2351 25.2642 15.0283L25.2005 15.0748C27.4511 12.4964 23.417 9.31384 26.708 6.85151C26.8142 5.96879 27.1539 5.06278 27.0052 4.18006C26.2621 0.184583 28.0244 -0.837561 33.4811 0.649128C34.6913 0.974341 36.2625 0.672482 37.0693 1.64812L36.9844 1.71788L37.0693 1.69463C40.7213 4.48217 38.8741 7.75732 38.8953 10.7772C38.959 25.5744 38.7042 40.3716 38.5556 55.192C38.4706 64.2747 38.0672 73.3577 38.5343 82.4404C38.6617 84.926 39.3199 87.4347 38.8528 89.9435V89.897Z" fill="#3DBF4B"/>
<path d="M37.8529 198.962C36.4091 200.774 34.8804 202.167 32.8421 202.702L31.6107 202.934C29.6361 203.166 27.6615 202.771 26.069 201.958C24.4342 201.145 22.9691 199.914 21.5678 198.149C20.1452 196.383 19.0199 193.967 17.8097 191.784L15.4742 187.417C15.3468 187.184 14.9858 187.092 14.731 186.929L14.7098 186.975C13.1811 184.072 11.7585 181.098 10.1236 178.264C6.34431 171.714 2.69237 165.07 0.356822 157.59C-0.00412631 156.429 -0.959575 154.64 3.18071 151.968C7.49085 149.181 10.6332 148.716 11.4613 150.621C13.4783 155.244 14.9009 160.285 18.0433 164.141C20.3363 166.951 22.226 170.041 23.9883 173.223L26.5999 177.986L27.9163 180.355L28.5957 181.54L28.7655 181.841C28.8292 181.934 28.808 181.888 28.8292 181.935L28.9142 182.028C29.1477 182.306 29.3388 182.585 29.5087 182.887C29.6785 183.166 29.9545 183.491 30.3155 183.398C30.7614 183.235 30.8888 182.631 31.0374 182.19C31.0799 182.051 31.1011 181.911 31.1011 181.772C31.1011 181.702 31.1011 181.656 31.1223 181.54L31.5682 180.471L33.3092 176.15C34.4558 173.27 35.6448 170.413 37.0886 167.718C39.5727 163.049 43.0973 159.03 45.9212 154.593C46.5794 153.548 47.4287 152.503 46.3883 150.482L46.3246 150.458C48.8937 150.365 46.1123 146.672 49.5731 147.183C49.8704 146.812 50.38 146.533 50.4437 146.022C50.7409 143.652 52.5032 144.094 56.9407 147.694C57.9174 148.484 59.3824 149.181 59.8495 150.087C62.3974 153.409 60.0194 154.059 59.3187 155.546C55.9216 162.91 52.2271 170.088 48.6389 177.358L45.263 183.979C44.7109 185.094 44.1589 186.209 43.6706 187.347L41.4412 192.365C40.4645 194.687 39.6152 197.87 37.8742 198.962H37.8529Z" fill="#3DBF4B"/>
</svg>
