<svg width="40" height="118" viewBox="0 0 40 118" fill="none" xmlns="http://www.w3.org/2000/svg">
<path d="M25.2254 52.264C25.2928 53.7878 25.4681 55.3251 25.4277 56.8489C25.2658 62.6203 25.0366 68.3917 24.8478 74.1631C24.8343 74.4598 24.9961 74.7565 25.0905 75.0531L25.104 75.0262C24.9827 78.5187 24.7939 81.9977 24.7534 85.4903C24.659 93.5676 24.4702 101.645 23.3106 109.668C23.1353 110.922 23.0679 113.066 20.0203 112.945C16.8514 112.824 15.031 111.354 15.1928 109.156C15.5973 103.843 16.4604 98.5299 16.0288 93.2304C15.3951 85.4768 16.0154 77.7636 16.0154 70.0369C16.0289 63.0923 16.3525 56.1611 16.3255 49.2165C16.312 42.7034 15.7726 36.1633 15.9479 29.6502C16.0963 24.0271 17.0132 18.431 17.4313 12.8079C17.5256 11.4864 17.7279 10.0841 16.5952 8.80301L16.5548 8.83C17.9841 7.33321 15.422 5.48576 17.5122 4.05638C17.5796 3.54396 17.7953 3.01803 17.701 2.50561C17.229 0.186251 18.3482 -0.4071 21.8138 0.455918C22.5824 0.644704 23.5803 0.469476 24.0927 1.03583L24.0387 1.07632L24.0927 1.06283C26.412 2.68099 25.2389 4.5822 25.2524 6.33521C25.2928 14.9249 25.131 23.5147 25.0366 32.1179C24.9827 37.3904 24.7265 42.663 25.0231 47.9355C25.104 49.3784 25.5221 50.8347 25.2254 52.291V52.264Z" fill="#3DBF4B"/>
<path d="M24.5904 115.576C23.6734 116.628 22.7025 117.437 21.408 117.747L20.6259 117.882C19.3718 118.017 18.1177 117.787 17.1064 117.315C16.0681 116.843 15.1376 116.129 14.2476 115.104C13.3441 114.079 12.6295 112.677 11.8608 111.409L10.3775 108.874C10.2966 108.739 10.0674 108.685 9.90557 108.591L9.89208 108.618C8.92118 106.932 8.01771 105.206 6.97939 103.561C4.57912 99.7583 2.25976 95.9017 0.776447 91.5596C0.547207 90.8854 -0.0596008 89.847 2.56991 88.2963C5.30729 86.6781 7.30303 86.4085 7.82893 87.5142C9.10997 90.1977 10.0134 93.1238 12.0092 95.3622C13.4655 96.9939 14.6657 98.7874 15.7849 100.635L17.4435 103.399L18.2795 104.774L18.711 105.462L18.8189 105.638C18.8594 105.691 18.8459 105.665 18.8594 105.692L18.9133 105.746C19.0616 105.907 19.183 106.069 19.2909 106.244C19.3988 106.406 19.5741 106.595 19.8033 106.541C20.0865 106.447 20.1674 106.096 20.2618 105.84C20.2888 105.759 20.3022 105.678 20.3022 105.597C20.3022 105.557 20.3022 105.53 20.3157 105.462L20.5989 104.842L21.7046 102.334C22.4328 100.662 23.188 99.0031 24.1049 97.4389C25.6826 94.7285 27.9211 92.3956 29.7145 89.82C30.1325 89.2132 30.6719 88.6064 30.0112 87.4332L29.9707 87.4197C31.6024 87.3658 29.8359 85.2219 32.0339 85.5185C32.2227 85.3028 32.5463 85.1409 32.5868 84.8443C32.7755 83.4688 33.8948 83.725 36.7131 85.8151C37.3334 86.2736 38.2638 86.6782 38.5605 87.2041C40.1786 89.1324 38.6683 89.5099 38.2234 90.373C36.0658 94.6476 33.7195 98.8144 31.4406 103.035L29.2965 106.878C28.9459 107.525 28.5953 108.173 28.2852 108.833L26.8693 111.746C26.249 113.095 25.7096 114.942 24.6038 115.576H24.5904Z" fill="#3DBF4B"/>
</svg>
