<svg xmlns="http://www.w3.org/2000/svg" viewBox="45.9 91.25 416.33 307.18"><g id="freepik--Train--inject-4"><g id="freepik--train--inject-4"><path d="M47.92,193.31c.27-25.34,3.37-61.48,3.94-68l49.22-28.41c.92,9.72,3.66,40.47,3.75,63.57Z" style="fill:#455a64"/><path d="M204.32,152.22,102.77,93.59,50,124.08s-4.06,44.56-4.06,72.7l101.55,58.63,60.93-35.18C208.38,192.09,204.32,152.22,204.32,152.22Z" style="fill:#e0e0e0"/><path d="M147.71,241.5c-.16,4.88-.26,9.59-.26,13.91L45.9,196.78c0-4.32.1-9,.26-13.92Z" style="fill:#3DBF4B"/><path d="M147.71,241.5c-.16,4.88-.26,9.59-.26,13.91L45.9,196.78c0-4.32.1-9,.26-13.92Z" style="opacity:0.2"/><path d="M151.51,182.71l52.81-30.49s4.06,39.87,4.06,68l-60.93,35.18C147.45,227.27,151.51,182.71,151.51,182.71Z" style="fill:#e0e0e0"/><path d="M151.51,182.71l52.81-30.49s4.06,39.87,4.06,68l-60.93,35.18C147.45,227.27,151.51,182.71,151.51,182.71Z" style="opacity:0.2"/><polygon points="151.51 182.71 151.51 180.36 204.32 149.88 204.32 152.22 151.51 182.71" style="fill:#3DBF4B"/><polygon points="49.96 124.08 49.96 121.73 102.77 91.25 102.77 93.59 49.96 124.08" style="fill:#3DBF4B"/><polygon points="151.51 180.36 49.96 121.73 102.77 91.25 204.32 149.88 151.51 180.36" style="fill:#3DBF4B"/><polygon points="151.51 180.36 49.96 121.73 102.77 91.25 204.32 149.88 151.51 180.36" style="fill:#fff;opacity:0.30000000000000004"/><polygon points="151.51 180.36 151.51 182.71 49.96 124.08 49.96 121.73 151.51 180.36" style="fill:#3DBF4B"/><polygon points="151.51 180.36 151.51 182.71 49.96 124.08 49.96 121.73 151.51 180.36" style="fill:#fff;opacity:0.15"/><path d="M146,184.23c-.77,9-2.46,30.1-3.25,49.72L51.08,181c.82-19.84,2.53-41.12,3.26-49.72Z" style="fill:#37474f"/><path d="M55.18,178.77c.68-15.23,1.84-31,2.63-40.85l84,48.5c-.7,8.42-2,24.46-2.75,40.77Z" style="fill:#455a64"/><path d="M76.55,195.72l5.1,2.94c.81-19.76,2.51-41,3.25-49.71L79.81,146C79.07,154.71,77.36,175.94,76.55,195.72Z" style="fill:#37474f"/><path d="M107.65,213.68l5.09,2.94c.81-19.77,2.52-41,3.26-49.72L110.91,164C110.17,172.67,108.46,193.9,107.65,213.68Z" style="fill:#37474f"/><polygon points="82.46 161.6 82.46 163.6 143.39 198.78 143.39 196.78 82.46 161.6" style="fill:#37474f"/><path d="M57.38,137.09l-.07.79c-.67,8.43-1.92,25-2.63,40.87-.69,12.9-.67,16-.65,19.3,0,.58,0,1.16,0,1.81v.28l22.45,13v-.85c0-.1.14-9.87.75-21,.7-14.91,1.85-30.41,2.69-40.79l0-.31Zm-2.35,61c0-3.28,0-6.37.65-19.25h0c.69-15.41,1.88-31.4,2.57-40l9.38,5.42C67,152.69,65.72,169,65,184.72c-.69,12.91-.67,16-.65,19.3,0,.31,0,.63,0,.95L55,199.57C55,199,55,198.54,55,198.05Zm21.22-6.86c-.5,9.29-.68,17.61-.73,20.23l-10.14-5.87c0-.53,0-1,0-1.53,0-3.28,0-6.37.65-19.26.69-15.43,1.88-31.41,2.57-40l10.33,6C78.08,161.07,76.94,176.42,76.25,191.19Z" style="fill:#263238"/><polygon points="167.76 137.71 123.08 111.91 110.89 118.95 110.89 119.83 155.57 145.63 167.76 138.59 167.76 137.71" style="fill:#3DBF4B"/><polygon points="110.89 118.95 155.57 144.75 167.76 137.71 123.08 111.91 110.89 118.95" style="fill:#3DBF4B"/><polygon points="110.89 118.95 155.57 144.75 167.76 137.71 123.08 112.23 110.89 118.95" style="fill:#fff;opacity:0.30000000000000004"/><polygon points="110.89 118.95 155.57 144.75 155.57 145.63 110.89 119.83 110.89 118.95" style="opacity:0.15"/><polygon points="155.57 144.75 167.76 137.71 167.76 138.59 155.57 145.63 155.57 144.75" style="fill:#3DBF4B"/><polygon points="155.57 144.76 110.89 118.96 98.71 126 98.71 128.34 143.39 152.67 155.57 145.64 155.57 144.76" style="fill:#ebebeb"/><polygon points="98.71 126 143.39 151.8 155.57 144.76 110.89 118.96 98.71 126" style="fill:#3DBF4B"/><polygon points="98.71 126 143.39 151.8 155.57 144.76 110.89 118.96 98.71 126" style="fill:#fff;opacity:0.6000000000000001"/><polygon points="143.39 151.8 155.57 144.76 155.57 145.64 143.39 152.67 143.39 151.8" style="fill:#3DBF4B"/><polygon points="143.39 151.8 155.57 144.76 155.57 145.64 143.39 152.67 143.39 151.8" style="fill:#fff;opacity:0.30000000000000004"/><polygon points="143.39 151.78 98.7 125.99 86.52 133.02 86.52 133.9 131.2 159.7 143.39 152.66 143.39 151.78" style="fill:#3DBF4B"/><polygon points="86.52 133.02 131.2 158.82 143.39 151.78 98.7 125.99 86.52 133.02" style="fill:#3DBF4B"/><polygon points="87.15 133.02 131.2 158.82 143.39 151.78 98.7 125.99 87.15 133.02" style="fill:#fff;opacity:0.30000000000000004"/><polygon points="86.52 133.02 131.2 158.82 131.2 159.7 86.52 133.9 86.52 133.02" style="fill:#fff;opacity:0.15"/><polygon points="131.2 158.82 143.39 151.78 143.39 152.66 131.2 159.7 131.2 158.82" style="fill:#3DBF4B"/><path d="M142.55,148.84l7.95-4.58c.48-.28.73-.58.56-.68a1.77,1.77,0,0,0-1.18.33l-7.95,4.58c-.48.28-.73.58-.55.68S142.08,149.12,142.55,148.84Z" style="fill:#455a64"/><path d="M139.08,146.84l7.95-4.58c.48-.28.73-.58.56-.68a1.74,1.74,0,0,0-1.18.32l-7.95,4.59c-.48.27-.73.57-.56.67A1.69,1.69,0,0,0,139.08,146.84Z" style="fill:#455a64"/><path d="M135.61,144.83l7.95-4.58c.48-.28.73-.58.55-.68a1.78,1.78,0,0,0-1.18.33L135,144.48c-.48.28-.73.58-.56.68A1.77,1.77,0,0,0,135.61,144.83Z" style="fill:#455a64"/><path d="M132.14,142.83l8-4.59c.48-.27.73-.57.55-.67a1.7,1.7,0,0,0-1.18.32l-8,4.58c-.47.28-.72.58-.55.68S131.66,143.1,132.14,142.83Z" style="fill:#455a64"/><path d="M128.67,140.82l8-4.58c.48-.28.72-.58.55-.68s-.7.05-1.18.33l-8,4.58c-.48.28-.72.58-.55.68A1.78,1.78,0,0,0,128.67,140.82Z" style="fill:#455a64"/><path d="M125.2,138.82l8-4.59c.48-.27.72-.58.55-.67a1.7,1.7,0,0,0-1.18.32l-8,4.58c-.48.28-.73.58-.55.68S124.72,139.09,125.2,138.82Z" style="fill:#455a64"/><path d="M121.73,136.81l8-4.58c.47-.28.72-.58.55-.68a1.75,1.75,0,0,0-1.18.32l-8,4.59c-.48.27-.73.58-.55.67A1.7,1.7,0,0,0,121.73,136.81Z" style="fill:#455a64"/><path d="M118.25,134.81l8-4.59c.48-.27.73-.58.56-.67a1.69,1.69,0,0,0-1.18.32l-8,4.58c-.48.28-.73.58-.56.68A1.74,1.74,0,0,0,118.25,134.81Z" style="fill:#455a64"/><path d="M114.78,132.8l8-4.58c.48-.28.73-.58.55-.68s-.7,0-1.17.32l-8,4.59c-.48.27-.73.58-.56.67A1.69,1.69,0,0,0,114.78,132.8Z" style="fill:#455a64"/><path d="M111.31,130.8l8-4.59c.48-.27.73-.58.55-.67a1.7,1.7,0,0,0-1.18.32l-7.95,4.58c-.47.28-.72.58-.55.68S110.83,131.07,111.31,130.8Z" style="fill:#455a64"/><path d="M107.84,128.79l8-4.58c.48-.28.72-.58.55-.68s-.7,0-1.18.32l-8,4.59c-.48.27-.72.58-.55.67A1.7,1.7,0,0,0,107.84,128.79Z" style="fill:#455a64"/><path d="M104.37,126.78l7.95-4.58c.48-.28.72-.58.55-.68a1.78,1.78,0,0,0-1.18.33l-8,4.58c-.48.28-.73.58-.55.68S103.89,127.06,104.37,126.78Z" style="fill:#455a64"/><path d="M216.5,224.93c-.09-23.1-2.83-53.85-3.75-63.57l-10.12-5.85-49.22,28.41c-.57,6.54-3.67,42.68-3.94,68l10.12,5.84Z" style="fill:#37474f"/><polygon points="153.41 183.92 163.53 189.77 212.75 161.36 202.63 155.51 153.41 183.92" style="fill:#455a64"/><path d="M159.59,257.78c.28-25.33,3.37-61.47,3.95-68l49.21-28.41c.92,9.72,3.66,40.47,3.75,63.57Z" style="fill:#263238"/><path d="M159.59,257.78c.28-25.33,3.37-61.47,3.95-68l49.21-28.42c.92,9.73,3.66,40.48,3.75,63.58Z" style="fill:#455a64"/><path d="M316,216.7,214.44,158.07l-52.8,30.49s-4.07,44.56-4.07,72.7l101.55,58.63,60.93-35.18C320.05,256.57,316,216.7,316,216.7Z" style="fill:#e0e0e0"/><path d="M259.38,306c-.16,4.88-.26,9.59-.26,13.91L157.57,261.26c0-4.32.1-9,.26-13.92Z" style="fill:#3DBF4B"/><path d="M259.38,306c-.16,4.88-.26,9.59-.26,13.91L157.57,261.26c0-4.32.1-9,.26-13.92Z" style="opacity:0.2"/><path d="M263.18,247.19,316,216.7s4.06,39.87,4.06,68l-60.93,35.18C259.12,291.75,263.18,247.19,263.18,247.19Z" style="fill:#e0e0e0"/><path d="M263.18,247.19,316,216.7s4.06,39.87,4.06,68l-60.93,35.18C259.12,291.75,263.18,247.19,263.18,247.19Z" style="opacity:0.2"/><polygon points="263.19 247.19 263.19 244.84 315.99 214.35 315.99 216.7 263.19 247.19" style="fill:#3DBF4B"/><polygon points="161.63 188.56 161.63 186.21 214.44 155.72 214.44 158.07 161.63 188.56" style="fill:#3DBF4B"/><polygon points="263.19 244.84 161.63 186.21 214.44 155.72 315.99 214.35 263.19 244.84" style="fill:#3DBF4B"/><polygon points="263.19 244.84 161.63 186.21 214.44 155.72 315.99 214.35 263.19 244.84" style="fill:#fff;opacity:0.30000000000000004"/><polygon points="263.19 244.84 263.19 247.19 161.63 188.56 161.63 186.21 263.19 244.84" style="fill:#3DBF4B"/><polygon points="263.19 244.84 263.19 247.19 161.63 188.56 161.63 186.21 263.19 244.84" style="fill:#fff;opacity:0.15"/><path d="M257.69,248.71c-.77,9-2.46,30.1-3.25,49.72L162.75,245.5c.82-19.84,2.53-41.12,3.26-49.72Z" style="fill:#37474f"/><path d="M166.85,243.25c.68-15.23,1.85-31,2.63-40.85l84,48.5c-.7,8.42-2,24.46-2.75,40.77Z" style="fill:#455a64"/><path d="M188.22,260.2l5.1,2.94c.81-19.77,2.51-41,3.26-49.72l-5.1-2.94C190.74,219.19,189,240.42,188.22,260.2Z" style="fill:#37474f"/><path d="M219.32,278.16l5.1,2.94c.81-19.77,2.51-41,3.26-49.72l-5.1-2.94C221.84,237.14,220.13,258.37,219.32,278.16Z" style="fill:#37474f"/><polygon points="194.13 226.08 194.13 228.08 255.06 263.25 255.06 261.26 194.13 226.08" style="fill:#37474f"/><path d="M169.05,201.57l-.06.79c-.68,8.43-1.92,24.95-2.64,40.86-.68,12.91-.66,16-.64,19.31v2.09l22.45,13,0-.86c0-.09.14-9.86.74-21,.7-14.91,1.85-30.41,2.69-40.79l0-.32Zm-2.34,60.95c0-3.27,0-6.37.64-19.25h0c.69-15.41,1.88-31.4,2.57-40l9.38,5.41c-.68,8.52-1.9,24.83-2.61,40.55-.68,12.91-.66,16-.64,19.31v.95l-9.34-5.4Zm21.22-6.85c-.51,9.29-.69,17.61-.74,20.23L177.05,270V268.5c0-3.28,0-6.37.64-19.26.69-15.43,1.88-31.41,2.57-40l10.33,6C189.75,225.55,188.62,240.9,187.93,255.67Z" style="fill:#263238"/><polygon points="279.43 202.19 234.75 176.39 222.56 183.43 222.56 184.31 267.25 210.1 279.43 203.07 279.43 202.19" style="fill:#3DBF4B"/><polygon points="222.56 183.43 267.25 209.23 279.43 202.19 234.75 176.39 222.56 183.43" style="fill:#3DBF4B"/><polygon points="222.56 183.43 267.25 209.23 279.43 202.19 234.75 176.71 222.56 183.43" style="fill:#fff;opacity:0.30000000000000004"/><polygon points="222.56 183.43 267.25 209.23 267.25 210.1 222.56 184.31 222.56 183.43" style="opacity:0.15"/><polygon points="267.25 209.23 279.43 202.19 279.43 203.07 267.25 210.1 267.25 209.23" style="fill:#3DBF4B"/><polygon points="267.25 209.24 222.56 183.44 210.38 190.48 210.38 192.82 255.06 217.15 267.25 210.12 267.25 209.24" style="fill:#ebebeb"/><polygon points="210.38 190.48 255.06 216.27 267.25 209.24 222.56 183.44 210.38 190.48" style="fill:#3DBF4B"/><polygon points="210.38 190.48 255.06 216.27 267.25 209.24 222.56 183.44 210.38 190.48" style="fill:#fff;opacity:0.6000000000000001"/><polygon points="255.06 216.27 267.25 209.24 267.25 210.12 255.06 217.15 255.06 216.27" style="fill:#3DBF4B"/><polygon points="255.06 216.27 267.25 209.24 267.25 210.12 255.06 217.15 255.06 216.27" style="fill:#fff;opacity:0.30000000000000004"/><polygon points="255.06 216.26 210.38 190.46 198.19 197.5 198.19 198.38 242.87 224.18 255.06 217.14 255.06 216.26" style="fill:#3DBF4B"/><polygon points="198.19 197.5 242.87 223.3 255.06 216.26 210.38 190.46 198.19 197.5" style="fill:#3DBF4B"/><polygon points="198.82 197.5 242.87 223.3 255.06 216.26 210.38 190.46 198.82 197.5" style="fill:#fff;opacity:0.30000000000000004"/><polygon points="198.19 197.5 242.87 223.3 242.87 224.18 198.19 198.38 198.19 197.5" style="fill:#fff;opacity:0.15"/><polygon points="242.87 223.3 255.06 216.26 255.06 217.14 242.87 224.18 242.87 223.3" style="fill:#3DBF4B"/><path d="M254.23,213.32l8-4.58c.48-.28.72-.58.55-.68s-.7.05-1.18.32l-8,4.59c-.48.27-.72.58-.55.68A1.78,1.78,0,0,0,254.23,213.32Z" style="fill:#455a64"/><path d="M250.76,211.32l7.95-4.59c.47-.27.72-.58.55-.67a1.7,1.7,0,0,0-1.18.32L250.13,211c-.48.28-.73.58-.55.68S250.28,211.59,250.76,211.32Z" style="fill:#455a64"/><path d="M247.28,209.31l7.95-4.58c.48-.28.73-.58.56-.68a1.75,1.75,0,0,0-1.18.32l-8,4.59c-.48.27-.73.58-.56.67A1.68,1.68,0,0,0,247.28,209.31Z" style="fill:#455a64"/><path d="M243.81,207.31l7.95-4.59c.48-.27.73-.58.56-.67a1.68,1.68,0,0,0-1.18.32L243.19,207c-.48.28-.73.58-.56.68A1.75,1.75,0,0,0,243.81,207.31Z" style="fill:#455a64"/><path d="M240.34,205.3l7.95-4.58c.48-.28.73-.58.55-.68s-.7.05-1.18.32L239.71,205c-.47.27-.72.58-.55.67A1.7,1.7,0,0,0,240.34,205.3Z" style="fill:#455a64"/><path d="M236.87,203.29l7.95-4.58c.48-.28.73-.58.55-.68a1.78,1.78,0,0,0-1.18.33l-7.95,4.58c-.48.28-.72.58-.55.68S236.39,203.57,236.87,203.29Z" style="fill:#455a64"/><path d="M233.4,201.29l7.95-4.58c.48-.28.72-.58.55-.68s-.7.05-1.18.32l-7.95,4.59c-.48.27-.72.57-.55.67A1.7,1.7,0,0,0,233.4,201.29Z" style="fill:#455a64"/><path d="M229.93,199.28l7.95-4.58c.47-.28.72-.58.55-.68a1.78,1.78,0,0,0-1.18.33l-7.95,4.58c-.48.28-.73.58-.55.68A1.78,1.78,0,0,0,229.93,199.28Z" style="fill:#455a64"/><path d="M226.45,197.28l8-4.59c.48-.27.73-.57.56-.67a1.75,1.75,0,0,0-1.18.32l-7.95,4.59c-.48.27-.73.57-.55.67S226,197.55,226.45,197.28Z" style="fill:#455a64"/><path d="M223,195.27l8-4.58c.48-.28.73-.58.56-.68a1.76,1.76,0,0,0-1.18.33l-7.95,4.58c-.48.28-.73.58-.56.68A1.77,1.77,0,0,0,223,195.27Z" style="fill:#455a64"/><path d="M219.51,193.27l8-4.59c.48-.27.73-.58.55-.67a1.7,1.7,0,0,0-1.18.32l-7.94,4.58c-.48.28-.73.58-.56.68A1.75,1.75,0,0,0,219.51,193.27Z" style="fill:#455a64"/><path d="M216,191.26l8-4.58c.48-.28.73-.58.55-.68s-.7.05-1.18.32l-8,4.59c-.47.27-.72.58-.55.68A1.78,1.78,0,0,0,216,191.26Z" style="fill:#455a64"/><path d="M328.17,289.41c-.09-23.1-2.82-53.85-3.75-63.58L314.3,220,265.09,248.4c-.58,6.54-3.67,42.68-3.95,68l10.12,5.85Z" style="fill:#37474f"/><polygon points="265.09 248.4 275.21 254.25 324.42 225.83 314.3 219.99 265.09 248.4" style="fill:#455a64"/><path d="M271.26,322.26c.28-25.33,3.37-61.47,3.95-68l49.21-28.42c.93,9.73,3.66,40.48,3.75,63.58Z" style="fill:#263238"/><path d="M271.27,322.26c.27-25.33,3.36-61.47,3.94-68l49.21-28.42c.93,9.73,3.66,40.48,3.75,63.58Z" style="fill:#455a64"/><path d="M462.23,372.35h0a69.22,69.22,0,0,0-6.17-28.54L442.11,313a108.91,108.91,0,0,0-44.75-49.36l-71.25-41.13L273.31,253s-4.06,44.56-4.06,72.7L347.61,371a212,212,0,0,0,49,20.59l18.31,5.12a46.65,46.65,0,0,0,35.9-4.53h0A22.88,22.88,0,0,0,462.23,372.35Z" style="fill:#e0e0e0"/><path d="M461.38,361.63a69.67,69.67,0,0,0-1.8-8.17l-8.32,14.06-33.72,2.33s4.07,6.63,5.11,8.67C446,378.7,458.3,373.92,461.38,361.63Z" style="fill:#263238"/><path d="M421.93,372.77a2.66,2.66,0,0,0,1.09,2,9,9,0,0,0,6.83,1.34c1-.17,2.13-.73,2.23-1.74.21-2.19-3.91-3-5.41-3.27S422.18,370.74,421.93,372.77Z" style="fill:#fafafa"/><path d="M435.68,376.2c.46-.08.67-.22.77-.4a.94.94,0,0,0-.2-1,2.61,2.61,0,0,0-2.51-1,1.11,1.11,0,0,0-.9,1.29C433,376.27,434.68,376.38,435.68,376.2Z" style="fill:#fafafa"/><path d="M461.29,361a1.92,1.92,0,0,1-2.16-.05c-1.76-1.3-.6-4-.12-4.93a4.7,4.7,0,0,1,.95-1.25C461.3,356.69,461.38,359.4,461.29,361Z" style="fill:#fafafa"/><path d="M459.54,364.28a.81.81,0,0,1-1.08.27,1.36,1.36,0,0,1-.58-.81c-.2-.83-.18-1.57.36-1.95a1.19,1.19,0,0,1,1.38.12C460.45,362.49,460,363.75,459.54,364.28Z" style="fill:#fafafa"/><path d="M461.86,376.39c-.86,5.86-11.23,18-30.48,17.59s-35.53-9.61-60.32-23.52L269.51,311.82s0,0,0,0c-.16,4.87-.25,9.57-.25,13.89L347.61,371a212,212,0,0,0,49,20.59l18.31,5.12a46.69,46.69,0,0,0,35.9-4.53h0a22.89,22.89,0,0,0,11.07-15.77Z" style="fill:#3DBF4B"/><path d="M461.86,376.39c-.86,5.86-11.23,18-30.48,17.59s-35.53-9.61-60.32-23.52L269.51,311.82s0,0,0,0c-.16,4.87-.25,9.57-.25,13.89L347.61,371a212,212,0,0,0,49,20.59l18.31,5.12a46.69,46.69,0,0,0,35.9-4.53h0a22.89,22.89,0,0,0,11.07-15.77Z" style="opacity:0.2"/><polygon points="273.31 253.04 273.31 250.69 326.11 220.2 326.11 222.55 273.31 253.04" style="fill:#3DBF4B"/><path d="M399.61,262.66l-73.5-42.46-52.8,30.49,73.5,42.46c18.72,10.77,42.3,23.78,74.8,78.33l29.65-4,8.33-14.07C434.45,282.74,415.28,272,399.61,262.66Z" style="fill:#3DBF4B"/><path d="M399.61,262.66l-73.5-42.46-52.8,30.49,73.5,42.46c18.72,10.77,42.3,23.78,74.8,78.33l29.65-4,8.33-14.07C434.45,282.74,415.28,272,399.61,262.66Z" style="fill:#fff;opacity:0.30000000000000004"/><path d="M455.18,353l-6.37,10.79-26,1.71c-18.23-30.19-32.84-45.86-46.25-57.17,21.13-7.22,35.11-15.54,43-24.82C429.88,295.3,441.61,315.24,455.18,353Z" style="fill:#37474f"/><path d="M453,352.82l-5.4,9.15-23.71,1.4a270.48,270.48,0,0,0-27.62-38.22c13.69-5.56,25.81-12.2,35.49-20.49C438.85,317.19,445.88,333.15,453,352.82Z" style="fill:#455a64"/><path d="M346.81,293.15v2.35c18.72,10.77,45.29,30.81,70.73,74.35l4.07,1.63C389.11,316.93,365.53,303.92,346.81,293.15Z" style="fill:#3DBF4B"/><path d="M346.81,293.15v2.35c18.72,10.77,45.29,30.81,70.73,74.35l4.07,1.63C389.11,316.93,365.53,303.92,346.81,293.15Z" style="fill:#fff;opacity:0.15"/><polygon points="346.81 293.15 346.81 295.5 273.31 253.04 273.31 250.69 346.81 293.15" style="fill:#3DBF4B"/><polygon points="346.81 293.15 346.81 295.5 273.31 253.04 273.31 250.69 346.81 293.15" style="fill:#fff;opacity:0.15"/><path d="M366.27,363,274.58,310c.82-19.84,2.53-41.12,3.26-49.72l71,41c14.54,8.4,27.75,18.58,38.39,31.58a297.05,297.05,0,0,1,24.12,34.06l-24,8.28Z" style="fill:#37474f"/><path d="M382.58,331.62s1.12,8,5.36,39.86l18.7-6.36S393.17,344.25,382.58,331.62Z" style="fill:#455a64"/><path d="M382.58,331.62s1.12,8,5.36,39.86l18.7-6.36S393.17,344.25,382.58,331.62Z" style="fill:#fff;opacity:0.1"/><path d="M382.58,331.62c-3.38-3.38-13-11.73-13-11.73s-2.52,29.46-2.83,38.68l21.21,12.91Z" style="fill:#455a64"/><path d="M278.89,308.08c.68-15.23,1.84-31,2.62-40.85l84,48.51c-.71,8.42-2,24.45-2.76,40.77Z" style="fill:#455a64"/><path d="M335.47,345.18l5.09,2.94c.81-19.77,2.52-41,3.26-49.72l-5.09-2.94C338,304.17,336.28,325.4,335.47,345.18Z" style="fill:#37474f"/><path d="M304.49,327.31l5.1,2.94c.81-19.76,2.52-41,3.26-49.71l-5.09-3C307,286.3,305.31,307.53,304.49,327.31Z" style="fill:#37474f"/><polygon points="280.1 275.68 280.1 277.68 341.03 312.86 341.03 310.86 280.1 275.68" style="fill:#37474f"/><path d="M343,302l-.06.78c-.68,8.44-1.92,25-2.63,40.87-.69,12.91-.67,16-.65,19.31,0,.57,0,1.16,0,1.8V365l22.45,13v-.86c0-.1.14-9.86.75-21,.7-14.92,1.85-30.42,2.69-40.8l0-.31Zm-2.34,60.95c0-3.28,0-6.37.65-19.25h0c.69-15.42,1.88-31.41,2.56-40.05l9.39,5.42c-.69,8.52-1.91,24.83-2.61,40.55-.69,12.91-.67,16-.65,19.31,0,.31,0,.62,0,1l-9.34-5.41C340.66,363.91,340.66,363.41,340.65,362.92Zm21.22-6.85c-.51,9.29-.69,17.61-.73,20.23L351,370.43c0-.54,0-1.05,0-1.54,0-3.27,0-6.37.65-19.25.69-15.43,1.88-31.41,2.56-40.05l10.34,6C363.7,325.94,362.56,341.29,361.87,356.07Z" style="fill:#263238"/><polygon points="384.66 262.92 339.97 237.13 327.79 244.16 327.79 245.04 372.47 270.84 384.66 263.8 384.66 262.92" style="fill:#3DBF4B"/><polygon points="327.79 244.16 372.47 269.96 384.66 262.92 339.97 237.13 327.79 244.16" style="fill:#3DBF4B"/><polygon points="327.79 244.16 372.47 269.96 384.66 262.92 339.97 237.45 327.79 244.16" style="fill:#fff;opacity:0.30000000000000004"/><polygon points="327.79 244.16 372.47 269.96 372.47 270.84 327.79 245.04 327.79 244.16" style="opacity:0.15"/><polygon points="372.47 269.96 384.66 262.92 384.66 263.8 372.47 270.84 372.47 269.96" style="fill:#3DBF4B"/><polygon points="372.47 269.97 327.79 244.17 315.6 251.21 315.6 253.56 360.28 277.88 372.47 270.85 372.47 269.97" style="fill:#ebebeb"/><polygon points="315.6 251.21 360.28 277.01 372.47 269.97 327.79 244.17 315.6 251.21" style="fill:#3DBF4B"/><polygon points="315.6 251.21 360.28 277.01 372.47 269.97 327.79 244.17 315.6 251.21" style="fill:#fff;opacity:0.6000000000000001"/><polygon points="360.28 277.01 372.47 269.97 372.47 270.85 360.28 277.88 360.28 277.01" style="fill:#3DBF4B"/><polygon points="360.28 277.01 372.47 269.97 372.47 270.85 360.28 277.88 360.28 277.01" style="fill:#fff;opacity:0.30000000000000004"/><polygon points="360.29 277 315.6 251.2 303.42 258.23 303.42 259.11 348.1 284.91 360.29 277.87 360.29 277" style="fill:#3DBF4B"/><polygon points="303.42 258.23 348.1 284.03 360.29 277 315.6 251.2 303.42 258.23" style="fill:#3DBF4B"/><polygon points="304.04 258.23 348.1 284.03 360.29 277 315.6 251.2 304.04 258.23" style="fill:#fff;opacity:0.30000000000000004"/><polygon points="303.42 258.23 348.1 284.03 348.1 284.91 303.42 259.11 303.42 258.23" style="fill:#fff;opacity:0.15"/><polygon points="348.1 284.03 360.29 277 360.29 277.87 348.1 284.91 348.1 284.03" style="fill:#3DBF4B"/><path d="M359.45,274.06l7.95-4.59c.48-.28.73-.58.55-.68a1.78,1.78,0,0,0-1.18.33l-7.94,4.58c-.48.28-.73.58-.56.68A1.75,1.75,0,0,0,359.45,274.06Z" style="fill:#455a64"/><path d="M356,272.05l7.95-4.58c.48-.28.73-.58.55-.68s-.7,0-1.18.32l-7.95,4.59c-.47.27-.72.57-.55.67A1.7,1.7,0,0,0,356,272.05Z" style="fill:#455a64"/><path d="M352.51,270l7.95-4.58c.48-.28.72-.58.55-.68a1.78,1.78,0,0,0-1.18.33l-7.95,4.58c-.48.28-.72.58-.55.68A1.78,1.78,0,0,0,352.51,270Z" style="fill:#455a64"/><path d="M349,268l7.95-4.59c.48-.27.72-.57.55-.67s-.7.05-1.18.32l-7.95,4.59c-.48.27-.73.57-.55.67S348.56,268.31,349,268Z" style="fill:#455a64"/><path d="M345.57,266l7.95-4.58c.47-.28.72-.58.55-.68a1.78,1.78,0,0,0-1.18.33l-7.95,4.58c-.48.28-.73.58-.55.68A1.78,1.78,0,0,0,345.57,266Z" style="fill:#455a64"/><path d="M342.09,264l8-4.59c.48-.27.73-.58.56-.67a1.69,1.69,0,0,0-1.18.32l-7.95,4.58c-.48.28-.73.58-.56.68A1.74,1.74,0,0,0,342.09,264Z" style="fill:#455a64"/><path d="M338.62,262l7.95-4.58c.48-.28.73-.58.55-.68s-.7.05-1.17.32L338,261.67c-.48.27-.73.58-.56.68A1.77,1.77,0,0,0,338.62,262Z" style="fill:#455a64"/><path d="M335.15,260l8-4.59c.48-.27.73-.58.55-.67a1.7,1.7,0,0,0-1.18.32l-8,4.58c-.47.28-.72.58-.55.68S334.67,260.29,335.15,260Z" style="fill:#455a64"/><path d="M331.68,258l7.95-4.58c.48-.28.72-.58.55-.68s-.7.05-1.18.32l-7.95,4.59c-.48.27-.72.58-.55.67A1.7,1.7,0,0,0,331.68,258Z" style="fill:#455a64"/><path d="M328.21,256l8-4.59c.48-.27.72-.58.55-.67a1.7,1.7,0,0,0-1.18.32l-7.95,4.58c-.48.28-.73.58-.55.68S327.73,256.28,328.21,256Z" style="fill:#455a64"/><path d="M324.74,254l7.95-4.58c.47-.28.72-.58.55-.68s-.7,0-1.18.32l-7.95,4.59c-.48.27-.73.58-.55.67A1.7,1.7,0,0,0,324.74,254Z" style="fill:#455a64"/><path d="M321.26,252l7.95-4.59c.48-.27.73-.58.56-.68a1.77,1.77,0,0,0-1.18.33l-7.95,4.58c-.48.28-.73.58-.56.68A1.74,1.74,0,0,0,321.26,252Z" style="fill:#455a64"/></g></g></svg>