<svg width="393" height="122" viewBox="0 0 393 122" fill="none" xmlns="http://www.w3.org/2000/svg">
<path d="M268.871 2.37368L204.611 2.01369C201.871 2.01369 199.141 2.01369 196.411 2.01369C181.745 1.47369 167.078 0.970352 152.411 0.503685C142.303 0.126929 132.181 0.598555 122.151 1.91366C106.651 1.91366 91.1479 1.89032 75.6413 1.84365C70.7913 1.84365 65.6413 1.92369 60.2513 2.07369C58.8913 2.07369 57.5112 2.17366 56.1212 2.22366C54.7312 2.27366 53.2213 2.36368 51.7613 2.43368C48.7613 2.59368 45.7612 2.8037 42.4312 3.1437C40.7312 3.3237 38.9812 3.5137 36.8412 3.8337C35.7512 4.0037 34.6313 4.17366 33.1313 4.47366L31.9312 4.72366L30.5013 5.06368L29.6313 5.28365L28.7012 5.54366L27.5313 5.90371L26.9113 6.10366L26.1012 6.38369L25.3013 6.67367L24.3013 7.05367L23.1212 7.56368L22.5413 7.82369L21.8813 8.13369C21.2513 8.44369 20.6213 8.77369 20.0013 9.13369L19.0812 9.65371C18.7012 9.88371 18.6613 9.90369 18.0013 10.3237C16.9209 11.0101 15.8762 11.751 14.8712 12.5437C14.3612 12.9437 13.8713 13.3337 13.3913 13.7637C12.4508 14.5874 11.5529 15.4585 10.7012 16.3737C9.83967 17.2883 9.02534 18.2462 8.26126 19.2437C7.24212 20.5654 6.31971 21.9591 5.50125 23.4137C4.33869 25.4513 3.37106 27.5942 2.61124 29.8137C1.80413 32.1527 1.24108 34.5689 0.931184 37.0237C0.543587 40.0098 0.520135 43.0319 0.861238 46.0237C1.15416 48.5627 1.70365 51.0655 2.50125 53.4937C3.63735 56.8991 5.25369 60.125 7.3013 63.0737C8.24565 64.4271 9.27431 65.7197 10.3813 66.9437C10.9013 67.5037 11.4413 68.0537 12.0013 68.5937C13.1245 69.6626 14.31 70.6644 15.5513 71.5937C16.1613 72.0537 16.7912 72.5037 17.4312 72.9337C18.0712 73.3637 18.0912 73.3537 18.4312 73.5737C18.7712 73.7937 19.4312 74.1237 19.8512 74.3937C19.8512 75.0337 19.8512 75.6837 19.8512 76.3437C19.9798 80.0865 20.7933 83.7741 22.2513 87.2237C23.2957 89.6359 24.6396 91.9071 26.2513 93.9837C27.2982 95.3154 28.452 96.5595 29.7012 97.7037C30.4346 98.3763 31.2023 99.0104 32.0013 99.6037C32.8213 100.224 33.6013 100.744 34.0013 100.974C34.4013 101.204 35.0013 101.594 35.5113 101.884C36.0213 102.174 36.3912 102.364 36.7212 102.534L37.7212 103.034C38.1012 103.214 38.3912 103.344 38.6012 103.434L39.3512 103.744L40.0712 104.034L40.6313 104.244C42.2213 104.814 43.1412 105.054 44.1112 105.324L45.3512 105.634L46.4412 105.884C48.0212 106.224 49.3313 106.464 50.5313 106.654C50.7894 108.044 51.3344 109.364 52.1316 110.532C52.9288 111.699 53.9607 112.687 55.1613 113.434C62.4213 118.434 78.0512 119.834 102.811 118.214C113.581 117.504 124.971 118.684 135.971 119.584C148.701 120.584 165.781 121.174 182.901 121.414C200.021 121.654 217.171 121.574 230.031 121.504C245.591 121.434 261.881 120.164 277.831 118.784C285.831 118.114 293.681 117.394 301.351 116.844C305.181 116.554 308.961 116.304 312.661 116.114C314.531 116.024 316.371 115.944 318.201 115.864C320.031 115.784 321.961 115.734 323.801 115.664C327.801 115.544 331.741 115.404 336.061 115.124C338.271 114.974 340.461 114.814 343.331 114.464L344.481 114.304L345.781 114.114L346.481 113.994L347.321 113.834C347.821 113.744 348.641 113.554 349.321 113.384C349.741 113.284 350.321 113.134 350.761 113.004L351.601 112.744L352.721 112.374L353.271 112.174L353.921 111.924C354.561 111.664 355.191 111.394 355.811 111.094C356.659 110.703 357.487 110.269 358.291 109.794C359.51 109.079 360.679 108.284 361.791 107.414C363.013 106.456 364.16 105.406 365.221 104.274C366.355 103.051 367.395 101.744 368.331 100.364C368.411 100.264 368.511 100.104 368.631 99.9237C369.051 99.6837 369.481 99.4337 369.891 99.1837C370.501 98.8037 371.001 98.4837 371.681 98.0137C372.681 97.3137 373.681 96.5537 374.561 95.7537C375.835 94.6504 377.025 93.4537 378.121 92.1737C379.764 90.2783 381.189 88.2055 382.371 85.9937C384.278 82.4492 385.547 78.5974 386.121 74.6137C386.801 69.7834 386.46 64.8642 385.121 60.1737C384.639 58.5097 384.031 56.8849 383.301 55.3137C383.491 55.1437 383.691 54.9937 383.881 54.8237C384.371 54.3737 384.511 54.2937 385.451 53.3237C386.209 52.5185 386.92 51.6704 387.581 50.7837C388.286 49.8306 388.921 48.828 389.481 47.7837C390.429 46.025 391.171 44.1627 391.691 42.2337C392.239 40.2554 392.534 38.216 392.571 36.1637C392.611 33.8345 392.338 31.5106 391.761 29.2537C391.296 27.4527 390.625 25.7113 389.761 24.0637C389.077 22.7204 388.277 21.4389 387.371 20.2337C386.692 19.3328 385.953 18.4776 385.161 17.6737C384.101 16.6038 382.954 15.6238 381.731 14.7437C381.161 14.3437 381.031 14.2637 380.651 14.0137C380.271 13.7637 380.001 13.6037 379.651 13.4137C379.301 13.2237 378.981 13.0337 378.651 12.8537C378.321 12.6737 377.991 12.5037 377.851 12.4437C377.461 12.2537 377.061 12.0637 376.661 11.8937L376.061 11.6337L375.521 11.4237L374.741 11.1337C374.251 10.9637 373.611 10.7537 373.321 10.6637L372.201 10.3437L371.301 10.1137L370.471 9.91366L369.841 9.78365L368.571 9.53365L367.951 9.41366L367.441 9.3337L366.441 9.17367C365.721 9.05367 365.131 8.98371 364.531 8.90371C363.291 8.73371 362.231 8.63369 361.121 8.51369C360.011 8.39369 358.891 8.30366 357.821 8.22366L356.821 3.4537L356.511 1.9537V1.66366L355.901 1.74368C355.281 1.82368 354.421 1.91368 353.501 1.99368C352.581 2.07368 351.581 2.16366 350.501 2.22366L347.191 2.40371C342.531 2.61371 337.581 2.7237 332.511 2.7737C322.391 2.8637 311.721 2.77368 300.981 2.68368L268.871 2.37368Z" fill="#3DBF4B"/>
</svg>
