<svg width="1100" height="92" viewBox="0 0 1100 92" fill="none" xmlns="http://www.w3.org/2000/svg">
<path d="M729.019 5.38151C744.01 5.01826 797.092 4.50207 831.12 3.24027C909.864 0.296078 988.627 -1.97898 1067.19 2.60937C1079.47 3.33586 1100.34 2.81967 1100 24.4614C1099.63 46.9826 1085.7 60.4991 1064.28 60.2888C1012.45 59.7535 960.348 56.0828 908.798 61.5124C833.388 69.4464 758.07 68.567 682.721 71.9318C615.064 74.9524 547.376 75.7745 479.725 79.0055C416.174 82.0262 352.66 88.794 289.128 90.4381C234.293 91.8529 179.469 87.8763 124.61 87.4748C111.696 87.3792 96.1653 91.8338 82.0075 91.9102C70.3012 91.9676 50.7807 92.3691 39.1786 90.8396C34.1713 90.1705 28.9678 89.2911 24.0708 90.247C1.55934 94.5294 -4.41635 86.8822 3.04254 61.9521C4.68509 56.4652 2.74835 49.4106 8.1847 45.5296C8.41147 45.3767 8.85888 45.0517 9.06113 44.8414C25.5295 29.3748 42.4944 35.8367 59.5634 34.9764C143.327 30.8278 227.116 28.1703 310.892 24.9776C362.295 23.0084 413.766 22.454 465.065 18.0377C479.112 16.8333 493.153 13.2008 507.422 14.6729H507.176C522.051 13.4876 536.932 11.5949 551.807 11.2125C608.095 9.77868 666.871 6.14623 720.892 6.52859C723.018 6.52859 725.887 5.45798 729.019 5.38151Z" fill="#3DBF4B"/>
</svg>
