<svg width="1100" height="169" viewBox="0 0 1100 169" fill="none" xmlns="http://www.w3.org/2000/svg">
<path d="M729.019 9.88559C744.01 9.21833 797.092 8.27011 831.12 5.95224C909.864 0.543882 988.627 -3.6353 1067.19 4.79331C1079.47 6.12784 1100.34 5.17962 1100 44.9346C1099.63 86.305 1085.7 111.134 1064.28 110.748C1012.45 109.765 960.348 103.022 908.798 112.996C833.388 127.57 758.07 125.955 682.721 132.136C615.064 137.684 547.376 139.194 479.725 145.13C416.174 150.678 352.66 163.111 289.128 166.131C234.293 168.73 179.469 161.425 124.61 160.687C111.696 160.512 96.1653 168.695 82.0075 168.835C70.3012 168.94 50.7807 169.678 39.1786 166.868C34.1713 165.639 28.9678 164.024 24.0708 165.78C1.55934 173.646 -4.41635 159.599 3.04254 113.803C4.68509 103.724 2.74835 90.7651 8.1847 83.6359C8.41147 83.355 8.85888 82.7579 9.06113 82.3716C25.5295 53.9602 42.4944 65.8305 59.5634 64.2501C143.327 56.6292 227.116 51.7477 310.892 45.8828C362.295 42.2655 413.766 41.247 465.065 33.1345C479.112 30.922 493.153 24.2493 507.422 26.9535H507.176C522.051 24.7761 536.932 21.2993 551.807 20.5969C608.095 17.963 666.871 11.2904 720.892 11.9927C723.018 11.9927 725.887 10.0261 729.019 9.88559Z" fill="#3DBF4B"/>
</svg>
